<svg width="434" height="280" viewBox="0 0 434 280" fill="none" xmlns="http://www.w3.org/2000/svg">
<path d="M251.634 246.15H410.916C420.778 238.163 429.78 220.347 425.465 184.714C427.438 172.754 426.995 142.078 394.644 143.553C410.916 133.109 420.533 113.449 425.465 93.7898C432.128 67.2279 423.359 54.1934 420.778 50.7849C397.971 20.666 362.218 42.7982 356.357 55.6997C356.521 50.0239 356.004 44.4261 354.576 39.1122C351.494 24.7772 338.673 -2.41825 312.043 3.47957C293.962 7.86847 248.552 39.1122 261.742 128.194C256.424 133.012 245.49 138.209 237.99 158.605C235.928 164.213 234.125 170.971 232.77 179.185C228.53 204.895 237.932 234.477 251.634 246.15Z" fill="#ECECEC"/>
<path fill-rule="evenodd" clip-rule="evenodd" d="M340.139 15.4597C346.675 22.878 350.497 32.8018 351.973 39.6683L351.987 39.734L352.004 39.7989C353.354 44.8193 353.854 50.1541 353.696 55.6234C353.36 67.2486 351.221 80.4809 348.215 92.2246C345.191 104.041 341.368 114.034 337.812 119.35C336.996 120.569 337.327 122.217 338.55 123.03C339.774 123.842 341.427 123.513 342.243 122.294C346.314 116.207 350.313 105.5 353.375 93.5366C356.408 81.6877 358.6 68.2966 359.001 56.3421C360.329 53.7384 363.195 50.4624 367.295 47.3696C371.587 44.1325 377.014 41.2629 382.909 39.6711C388.797 38.0815 395.075 37.7846 401.16 39.5771C407.218 41.3614 413.264 45.2674 418.653 52.3836C420.833 55.2626 429.318 67.4875 422.882 93.1463C418.069 112.333 408.841 131 393.71 140.991C389.472 141.597 383.255 144.447 376.561 150.621C369.428 157.199 361.613 167.667 354.834 183.683L354.797 183.77L354.767 183.858C351.411 193.671 353.382 204.861 361.567 211.419C369.796 218.01 383.322 219.159 401.518 211.099C412.189 206.372 419.261 199.865 423.631 193.644C425.49 222.115 417.823 236.658 409.945 243.497H252.643C246.63 238.006 241.351 228.533 238.03 217.188C234.592 205.447 233.35 192.027 235.397 179.616C236.055 175.628 236.818 172.002 237.663 168.699C240.215 177.336 243.667 183.768 247.944 188.618C253.702 195.147 260.737 198.563 268.397 200.779C273.636 202.295 278.368 202.172 282.451 200.696C286.525 199.224 289.758 196.475 292.13 193.059C296.827 186.292 298.27 176.759 296.398 168.178C290.437 140.849 277.215 128.054 264.09 125.82C252.038 39.4647 296.206 10.0746 312.648 6.06428C324.783 3.38637 333.705 8.15639 340.139 15.4597ZM262.605 130.961C272.863 132.421 285.356 142.542 291.194 169.305C292.806 176.696 291.475 184.673 287.75 190.04C285.91 192.69 283.52 194.664 280.636 195.707C277.76 196.746 274.197 196.931 269.881 195.682C262.817 193.638 256.813 190.636 251.944 185.114C247.14 179.666 243.233 171.529 240.745 158.834C244.317 149.387 248.614 143.493 252.594 139.406C254.645 137.301 256.642 135.644 258.489 134.195C258.957 133.828 259.429 133.464 259.896 133.104C260.841 132.374 261.768 131.66 262.605 130.961ZM235.269 158.3C235.268 157.652 235.505 157.041 235.912 156.568C239.714 146.663 244.343 140.258 248.774 135.709C251.058 133.364 253.261 131.543 255.194 130.025C255.769 129.574 256.305 129.161 256.805 128.775C257.581 128.177 258.273 127.643 258.898 127.132C246.243 38.0054 291.901 5.63743 311.413 0.901385L311.439 0.895036L311.466 0.889215C325.946 -2.31783 336.741 3.55935 344.141 11.9578C351.422 20.2222 355.55 31.0245 357.166 38.4907C357.979 41.533 358.506 44.6496 358.79 47.8034C360.332 46.1944 362.12 44.6175 364.082 43.1376C368.855 39.5375 374.89 36.3375 381.517 34.5484C388.151 32.7572 395.454 32.3619 402.67 34.4874C409.913 36.6211 416.889 41.2432 422.904 49.1864C425.886 53.1245 434.937 66.9686 428.048 94.4335C423.685 111.826 415.617 129.624 402.248 141.17C407.203 141.789 411.355 143.275 414.801 145.433C419.905 148.629 423.246 153.163 425.368 158.04C429.48 167.488 429.135 178.473 428.153 184.767C432.42 220.645 423.406 239.455 412.595 248.21L411.861 248.804H250.651L249.904 248.167C242.513 241.871 236.531 231.015 232.918 218.675C229.289 206.28 227.949 192.054 230.143 178.755C231.473 170.69 233.235 163.961 235.269 158.3ZM422.881 184.015C420.224 190.711 413.33 200.059 399.355 206.249C382.045 213.917 370.914 212.097 364.904 207.282C358.871 202.45 357.013 193.84 359.778 185.658C366.304 170.27 373.7 160.49 380.178 154.516C386.686 148.514 392.14 146.461 394.827 146.201C402.452 145.863 407.965 147.42 411.968 149.927C415.986 152.443 418.697 156.048 420.483 160.152C424.048 168.342 423.793 178.237 422.881 184.015Z" fill="#3A3A3A"/>
<path d="M361.027 154.692C361.027 168.264 368.755 179.267 378.287 179.267C387.819 179.267 395.547 168.264 395.547 154.692C395.547 141.12 387.819 130.118 378.287 130.118C368.755 130.118 361.027 141.12 361.027 154.692Z" fill="#ECECEC"/>
<path fill-rule="evenodd" clip-rule="evenodd" d="M370.445 169.025C368.021 165.574 366.353 160.523 366.353 154.692C366.353 148.862 368.021 143.811 370.445 140.359C372.881 136.891 375.736 135.426 378.287 135.426C380.839 135.426 383.693 136.891 386.129 140.359C388.553 143.811 390.222 148.862 390.222 154.692C390.222 160.523 388.553 165.574 386.129 169.025C383.693 172.494 380.839 173.959 378.287 173.959C375.736 173.959 372.881 172.494 370.445 169.025ZM378.287 179.267C368.755 179.267 361.027 168.264 361.027 154.692C361.027 141.12 368.755 130.118 378.287 130.118C387.819 130.118 395.547 141.12 395.547 154.692C395.547 168.264 387.819 179.267 378.287 179.267Z" fill="#3A3A3A"/>
<path d="M361.027 154.692C361.027 163.514 366.271 170.666 372.739 170.666C379.208 170.666 384.451 163.514 384.451 154.692C384.451 145.871 379.208 138.719 372.739 138.719C366.271 138.719 361.027 145.871 361.027 154.692Z" fill="#3A3A3A"/>
<path fill-rule="evenodd" clip-rule="evenodd" d="M368.757 162.856C367.372 160.967 366.352 158.098 366.352 154.692C366.352 151.287 367.372 148.418 368.757 146.529C370.145 144.636 371.617 144.027 372.739 144.027C373.861 144.027 375.333 144.636 376.721 146.529C378.106 148.418 379.126 151.287 379.126 154.692C379.126 158.098 378.106 160.967 376.721 162.856C375.333 164.749 373.861 165.358 372.739 165.358C371.617 165.358 370.145 164.749 368.757 162.856ZM372.739 170.666C366.271 170.666 361.027 163.514 361.027 154.692C361.027 145.871 366.271 138.719 372.739 138.719C379.208 138.719 384.451 145.871 384.451 154.692C384.451 163.514 379.208 170.666 372.739 170.666Z" fill="#3A3A3A"/>
<path d="M430.85 276.868C433.91 261.141 418.95 249.837 411.087 246.15H331.397V276.868H430.85Z" fill="#ECECEC"/>
<path fill-rule="evenodd" clip-rule="evenodd" d="M411.682 243.497H328.734V279.522H433.046L433.464 277.373C435.193 268.49 431.784 260.95 427.12 255.307C422.482 249.694 416.435 245.725 412.22 243.749L411.682 243.497ZM410.478 248.804C414.102 250.595 419.156 254.017 423.01 258.681C426.601 263.027 429.012 268.263 428.532 274.214H334.06V248.804H410.478Z" fill="#3A3A3A"/>
<path d="M350.715 276.868C353.776 261.141 338.815 249.837 330.952 246.15H251.262V276.868H350.715Z" fill="#ECECEC"/>
<path fill-rule="evenodd" clip-rule="evenodd" d="M331.547 243.497H248.6V279.522H352.911L353.33 277.373C355.058 268.49 351.649 260.95 346.985 255.307C342.348 249.694 336.3 245.725 332.086 243.749L331.547 243.497ZM330.343 248.804C333.967 250.595 339.021 254.017 342.875 258.681C346.466 263.027 348.878 268.263 348.398 274.214H253.925V248.804H330.343Z" fill="#3A3A3A"/>
<path fill-rule="evenodd" clip-rule="evenodd" d="M326.112 132.526C319.877 128.963 312.793 127.532 308.245 127.323C306.776 127.255 305.64 126.014 305.708 124.55C305.776 123.086 307.022 121.954 308.491 122.021C313.71 122.262 321.654 123.86 328.761 127.922C335.927 132.017 342.405 138.731 344.076 149.143C344.244 150.194 343.767 151.244 342.862 151.81C341.958 152.375 340.801 152.348 339.925 151.74C337.556 150.096 333.242 147.854 328.242 146.664C323.243 145.473 317.825 145.393 312.997 147.69C311.67 148.321 310.08 147.761 309.447 146.438C308.813 145.116 309.376 143.532 310.703 142.9C317.002 139.903 323.769 140.142 329.479 141.502C332.253 142.162 334.84 143.101 337.096 144.119C334.774 138.894 330.721 135.16 326.112 132.526Z" fill="#3A3A3A"/>
<path fill-rule="evenodd" clip-rule="evenodd" d="M319.486 156.577C320.825 155.97 322.403 156.56 323.012 157.895C324.342 160.811 327.515 165.056 332.592 167.87C337.578 170.634 344.54 172.099 353.726 169.352C355.135 168.931 356.619 169.728 357.041 171.132C357.464 172.535 356.665 174.015 355.256 174.436C344.717 177.587 336.268 175.98 330.004 172.508C323.832 169.087 319.916 163.933 318.164 160.091C317.556 158.757 318.148 157.183 319.486 156.577Z" fill="#3A3A3A"/>
<path d="M279.618 129.422C300.576 102.523 270.166 93.585 256.194 93.7898C246.528 94.365 238.596 97.6885 232.154 102.523C231.167 33.8217 194.758 7.86847 176.676 3.47957C150.047 -2.41825 137.225 24.7772 134.143 39.1122C132.715 44.4261 132.198 50.0239 132.362 55.6997C118.732 44.027 84.2124 26.825 59.5557 59.3859C56.9746 62.7944 46.6109 77.8165 51.5422 97.4759C29.9677 93.7898 -7.63422 120.207 5.31062 162.598C10.8852 180.853 38.7541 183.203 59.4083 177.94C45.474 211.156 59.1592 234.518 63.2544 246.15H237.085C248.92 224.033 242.222 198.435 240.167 188.401C241.153 176.114 266.879 143.962 279.618 129.422Z" fill="#ECECEC"/>
<path fill-rule="evenodd" clip-rule="evenodd" d="M148.58 15.4597C142.044 22.878 138.223 32.8018 136.746 39.6683L136.732 39.734L136.715 39.7989C135.366 44.8193 134.866 50.1541 135.024 55.6234C135.689 78.6373 147.971 103.228 155.467 114.435C156.283 115.654 155.952 117.302 154.729 118.115C153.505 118.928 151.852 118.598 151.037 117.379C143.406 105.971 130.826 81.0379 129.745 56.9745C123.069 51.512 111.955 45.1237 99.7603 43.588C87.227 42.0097 73.397 45.5128 61.681 60.9845C59.2316 64.2193 49.4969 78.3806 54.1254 96.8324C56.5305 106.42 60.3178 115.517 66.6492 123.169C72.9568 130.791 81.8991 137.115 94.8456 141.012C96.2532 141.436 97.0497 142.917 96.6244 144.32C96.1992 145.723 94.7133 146.517 93.3056 146.093C79.417 141.912 69.5584 135.026 62.5409 126.545C55.9545 118.585 51.9684 109.339 49.4164 99.8767C39.8694 99.0397 26.9261 104.198 17.4483 114.547C7.55793 125.347 1.67798 141.588 7.85792 161.825C10.2411 169.629 17.4644 174.379 27.2683 176.495C36.7194 178.535 47.9907 177.961 57.7859 175.607C58.4155 175.05 59.29 174.811 60.1364 175C63.8167 173.982 67.1912 172.721 70.0772 171.283C71.3924 170.627 72.9918 171.159 73.6494 172.469C74.307 173.78 73.7739 175.374 72.4586 176.03C69.1679 177.669 65.3986 179.064 61.3708 180.167C50.4619 207.306 58.5618 227.286 63.6621 239.867C64.184 241.154 64.6745 242.364 65.11 243.497H235.459C245.045 224.142 240.388 202.256 238.036 191.204C237.862 190.385 237.701 189.626 237.558 188.931L237.483 188.563L237.513 188.189C237.809 184.501 239.866 179.75 242.624 174.765C245.443 169.671 249.214 163.953 253.317 158.216C261.506 146.766 271.151 135.056 277.562 127.735C282.56 121.302 284.202 116.309 284.103 112.548C284.006 108.87 282.228 105.905 279.304 103.484C276.33 101.022 272.264 99.218 267.99 98.0472C263.759 96.8882 259.515 96.4019 256.293 96.4425C247.21 96.9947 239.793 100.112 233.756 104.643C218.981 115.733 212.304 135.448 210.752 146.977C210.557 148.43 209.217 149.449 207.759 149.255C206.302 149.06 205.279 147.724 205.474 146.272C207.084 134.316 213.86 113.647 229.468 101.241C228.055 34.5942 192.703 10.1176 176.072 6.06431C163.936 3.38634 155.015 8.15637 148.58 15.4597ZM234.686 97.6242C232.077 31.4941 196.282 5.50732 177.306 0.901385L177.28 0.895035L177.254 0.889214C162.773 -2.31783 151.978 3.55935 144.579 11.9578C137.297 20.2222 133.169 31.0245 131.554 38.4907C130.526 42.3341 129.955 46.2961 129.754 50.302C122.45 45.0934 111.968 39.7758 100.428 38.3226C86.1296 36.5219 70.3713 40.6982 57.4305 57.7874C54.8773 61.1591 44.9892 75.4273 48.1992 94.4917C36.9036 94.1691 23.3039 100.281 13.5152 110.969C2.44714 123.054 -4.00143 141.217 2.76347 163.37C5.95486 173.821 15.4534 179.375 26.1411 181.682C35.2531 183.649 45.6836 183.386 55.1387 181.601C45.366 209.166 53.8395 229.921 58.7644 241.984C59.54 243.883 60.2276 245.568 60.742 247.029L61.367 248.804H238.683L239.434 247.399C250.939 225.9 245.667 201.358 243.262 190.165C243.115 189.48 242.978 188.844 242.857 188.263C243.162 185.797 244.674 182.052 247.288 177.328C249.968 172.484 253.61 166.951 257.653 161.297C265.737 149.994 275.295 138.391 281.624 131.168L281.674 131.11L281.721 131.05C287.165 124.063 289.571 117.871 289.426 112.408C289.28 106.851 286.511 102.551 282.706 99.4011C278.951 96.2915 274.104 94.2179 269.402 92.9297C264.682 91.6369 259.911 91.0815 256.155 91.1365L256.095 91.1374L256.035 91.141C247.785 91.6319 240.703 94.0236 234.686 97.6242Z" fill="#3A3A3A"/>
<path d="M127.979 150.311C127.979 163.883 120.251 174.885 110.719 174.885C101.186 174.885 93.459 163.883 93.459 150.311C93.459 136.739 101.186 125.736 110.719 125.736C120.251 125.736 127.979 136.739 127.979 150.311Z" fill="#ECECEC"/>
<path fill-rule="evenodd" clip-rule="evenodd" d="M118.561 164.644C120.985 161.192 122.653 156.141 122.653 150.311C122.653 144.48 120.985 139.429 118.561 135.978C116.125 132.509 113.27 131.044 110.719 131.044C108.167 131.044 105.313 132.509 102.877 135.978C100.453 139.429 98.7842 144.48 98.7842 150.311C98.7842 156.141 100.453 161.192 102.877 164.644C105.313 168.112 108.167 169.577 110.719 169.577C113.27 169.577 116.125 168.112 118.561 164.644ZM110.719 174.885C120.251 174.885 127.979 163.883 127.979 150.311C127.979 136.739 120.251 125.736 110.719 125.736C101.186 125.736 93.459 136.739 93.459 150.311C93.459 163.883 101.186 174.885 110.719 174.885Z" fill="#3A3A3A"/>
<path d="M127.979 150.311C127.979 159.132 122.735 166.284 116.267 166.284C109.798 166.284 104.555 159.132 104.555 150.311C104.555 141.489 109.798 134.337 116.267 134.337C122.735 134.337 127.979 141.489 127.979 150.311Z" fill="#3A3A3A"/>
<path fill-rule="evenodd" clip-rule="evenodd" d="M120.249 158.474C121.634 156.585 122.653 153.716 122.653 150.311C122.653 146.905 121.634 144.036 120.249 142.147C118.861 140.254 117.389 139.645 116.267 139.645C115.145 139.645 113.673 140.254 112.285 142.147C110.899 144.036 109.88 146.905 109.88 150.311C109.88 153.716 110.899 156.585 112.285 158.474C113.673 160.367 115.145 160.977 116.267 160.977C117.389 160.977 118.861 160.367 120.249 158.474ZM116.267 166.284C122.735 166.284 127.979 159.132 127.979 150.311C127.979 141.489 122.735 134.337 116.267 134.337C109.798 134.337 104.555 141.489 104.555 150.311C104.555 159.132 109.798 166.284 116.267 166.284Z" fill="#3A3A3A"/>
<path d="M167.43 139.252C167.43 152.824 159.702 163.826 150.17 163.826C140.638 163.826 132.91 152.824 132.91 139.252C132.91 125.68 140.638 114.678 150.17 114.678C159.702 114.678 167.43 125.68 167.43 139.252Z" fill="#ECECEC"/>
<path fill-rule="evenodd" clip-rule="evenodd" d="M158.012 153.585C160.436 150.134 162.105 145.083 162.105 139.252C162.105 133.421 160.436 128.37 158.012 124.919C155.576 121.451 152.721 119.985 150.17 119.985C147.618 119.985 144.764 121.451 142.328 124.919C139.904 128.37 138.235 133.421 138.235 139.252C138.235 145.083 139.904 150.134 142.328 153.585C144.764 157.053 147.618 158.519 150.17 158.519C152.721 158.519 155.576 157.053 158.012 153.585ZM150.17 163.826C159.702 163.826 167.43 152.824 167.43 139.252C167.43 125.68 159.702 114.678 150.17 114.678C140.638 114.678 132.91 125.68 132.91 139.252C132.91 152.824 140.638 163.826 150.17 163.826Z" fill="#3A3A3A"/>
<path d="M167.43 139.252C167.43 148.074 162.186 155.225 155.718 155.225C149.249 155.225 144.006 148.074 144.006 139.252C144.006 130.43 149.249 123.279 155.718 123.279C162.186 123.279 167.43 130.43 167.43 139.252Z" fill="#3A3A3A"/>
<path fill-rule="evenodd" clip-rule="evenodd" d="M159.7 147.415C161.085 145.526 162.105 142.657 162.105 139.252C162.105 135.847 161.085 132.978 159.7 131.089C158.312 129.196 156.84 128.586 155.718 128.586C154.596 128.586 153.124 129.196 151.736 131.089C150.351 132.978 149.331 135.847 149.331 139.252C149.331 142.657 150.351 145.526 151.736 147.415C153.124 149.309 154.596 149.918 155.718 149.918C156.84 149.918 158.312 149.309 159.7 147.415ZM155.718 155.225C162.186 155.225 167.43 148.074 167.43 139.252C167.43 130.43 162.186 123.279 155.718 123.279C149.249 123.279 144.006 130.43 144.006 139.252C144.006 148.074 149.249 155.225 155.718 155.225Z" fill="#3A3A3A"/>
<path fill-rule="evenodd" clip-rule="evenodd" d="M182.482 157.29C183.38 158.45 183.165 160.116 182.002 161.012C142.51 191.403 110.37 189.896 98.5462 184.684C97.2014 184.091 96.5934 182.524 97.1882 181.184C97.783 179.843 99.3554 179.237 100.7 179.83C110.245 184.038 140.323 186.381 178.747 156.811C179.911 155.916 181.583 156.13 182.482 157.29Z" fill="#3A3A3A"/>
<path d="M43.3539 276.868C40.0293 261.141 56.2828 249.837 64.825 246.15H151.402V276.868H43.3539Z" fill="#ECECEC"/>
<path d="M41.1942 279.522L40.7489 277.415C38.8508 268.436 42.6067 260.848 47.6555 255.224C52.6838 249.623 59.2289 245.674 63.7675 243.715L64.2738 243.497H154.065L148.74 248.804H65.3888C61.4087 250.602 55.8489 254.057 51.6241 258.763C47.7037 263.13 45.1229 268.335 45.6435 274.214H148.74L154.065 279.522H41.1942Z" fill="#3A3A3A"/>
<path d="M129.653 276.868C126.328 261.141 142.582 249.837 151.124 246.15H237.701V276.868H129.653Z" fill="#ECECEC"/>
<path fill-rule="evenodd" clip-rule="evenodd" d="M150.573 243.497H240.364V279.522H127.493L127.048 277.415C125.15 268.436 128.906 260.848 133.954 255.224C138.983 249.623 145.528 245.674 150.066 243.715L150.573 243.497ZM151.688 248.804C147.708 250.602 142.148 254.057 137.923 258.763C134.003 263.13 131.422 268.335 131.942 274.214H235.039V248.804H151.688Z" fill="#3A3A3A"/>
</svg>
