<svg width="668" height="690" viewBox="0 0 668 690" fill="none" xmlns="http://www.w3.org/2000/svg">
<path fill-rule="evenodd" clip-rule="evenodd" d="M11 0C4.92487 0 0 4.92487 0 11V690H16C16 683.373 21.3726 678 28 678C34.6274 678 40 683.373 40 690H52C52 683.373 57.3726 678 64 678C70.6274 678 76 683.373 76 690H88C88 683.373 93.3726 678 100 678C106.627 678 112 683.373 112 690H124C124 683.373 129.373 678 136 678C142.627 678 148 683.373 148 690H160C160 683.373 165.373 678 172 678C178.627 678 184 683.373 184 690H196C196 683.373 201.373 678 208 678C214.627 678 220 683.373 220 690H232C232 683.373 237.373 678 244 678C250.627 678 256 683.373 256 690H268C268 683.373 273.373 678 280 678C286.627 678 292 683.373 292 690H304C304 683.373 309.373 678 316 678C322.627 678 328 683.373 328 690H340C340 683.373 345.373 678 352 678C358.627 678 364 683.373 364 690H376C376 683.373 381.373 678 388 678C394.627 678 400 683.373 400 690H412C412 683.373 417.373 678 424 678C430.627 678 436 683.373 436 690H448C448 683.373 453.373 678 460 678C466.627 678 472 683.373 472 690H484C484 683.373 489.373 678 496 678C502.627 678 508 683.373 508 690H520C520 683.373 525.373 678 532 678C538.627 678 544 683.373 544 690H556C556 683.373 561.373 678 568 678C574.627 678 580 683.373 580 690H592C592 683.373 597.373 678 604 678C610.627 678 616 683.373 616 690H628C628 683.373 633.373 678 640 678C646.627 678 652 683.373 652 690H668V11C668 4.92487 663.075 0 657 0H11Z" fill="white"/>
</svg>
