<svg width="509" height="631" viewBox="0 0 509 631" fill="none" xmlns="http://www.w3.org/2000/svg">
<path d="M0 11C0 4.92486 4.92487 0 11 0H498C504.075 0 509 4.92487 509 11V631H0V11Z" fill="white"/>
<path fill-rule="evenodd" clip-rule="evenodd" d="M39 619C32.3726 619 27 624.373 27 631H51C51 624.373 45.6274 619 39 619ZM75 619C68.3726 619 63 624.373 63 631H87C87 624.373 81.6274 619 75 619ZM99 631C99 624.373 104.373 619 111 619C117.627 619 123 624.373 123 631H99ZM147 619C140.373 619 135 624.373 135 631H159C159 624.373 153.627 619 147 619ZM171 631C171 624.373 176.373 619 183 619C189.627 619 195 624.373 195 631H171ZM219 619C212.373 619 207 624.373 207 631H231C231 624.373 225.627 619 219 619ZM243 631C243 624.373 248.373 619 255 619C261.627 619 267 624.373 267 631H243ZM291 619C284.373 619 279 624.373 279 631H303C303 624.373 297.627 619 291 619ZM315 631C315 624.373 320.373 619 327 619C333.627 619 339 624.373 339 631H315ZM363 619C356.373 619 351 624.373 351 631H375C375 624.373 369.627 619 363 619ZM387 631C387 624.373 392.373 619 399 619C405.627 619 411 624.373 411 631H387ZM435 619C428.373 619 423 624.373 423 631H447C447 624.373 441.627 619 435 619ZM459 631C459 624.373 464.373 619 471 619C477.627 619 483 624.373 483 631H459Z" fill="#ECECEC"/>
</svg>
