<svg width="41" height="38" viewBox="0 0 41 38" fill="none" xmlns="http://www.w3.org/2000/svg">
<path d="M13.7079 2.93617L13.7083 2.9368L16.2881 6.31875C16.2881 6.3188 16.2882 6.31885 16.2882 6.3189C17.6932 8.16168 17.5516 10.7008 15.9165 12.2974L15.9143 12.2995L15.4278 12.7775L15.2353 12.9666L15.1641 13.2268C15.0693 13.573 15.0573 13.9362 15.1288 14.2877C15.316 15.4211 16.1987 17.3357 19.1586 20.2273C22.1234 23.1237 24.0786 23.9775 25.2256 24.1599C25.5831 24.23 25.9524 24.2175 26.3046 24.123L26.5573 24.0551L26.7444 23.8722L27.5778 23.0575C29.0405 21.6303 31.3107 21.3437 33.1626 22.3321C33.1626 22.3321 33.1627 22.3322 33.1628 22.3322L37.0666 24.4205L37.0679 24.4212C39.873 25.9161 40.5021 29.5896 38.2907 31.7508L35.3864 34.5861C35.3863 34.5861 35.3863 34.5862 35.3862 34.5862C34.5866 35.3665 33.5594 35.9712 32.3464 36.0834C28.8801 36.4013 20.5679 36.0273 11.7536 27.4186C3.47646 19.332 1.9586 12.3613 1.76635 9.05713C1.68559 7.63468 2.36507 6.38172 3.32643 5.44426L3.32727 5.44344L6.53449 2.3086C8.56657 0.323684 11.9665 0.649475 13.7079 2.93617Z" stroke="white" stroke-width="2"/>
</svg>
