<svg width="34" height="44" viewBox="0 0 34 44" fill="none" xmlns="http://www.w3.org/2000/svg">
<path fill-rule="evenodd" clip-rule="evenodd" d="M20.4339 12.9215C19.535 12.0896 18.3004 11.6103 16.9984 11.6103C15.6964 11.6103 14.4618 12.0896 13.563 12.9215C12.6667 13.751 12.1794 14.8587 12.1794 15.9957C12.1794 17.1327 12.6667 18.2403 13.563 19.0698C14.4618 19.9017 15.6964 20.3811 16.9984 20.3811C17.6416 20.3811 18.2768 20.2638 18.8673 20.0374C19.4578 19.8111 19.9895 19.4811 20.4339 19.0698C20.8781 18.6587 21.226 18.1748 21.4618 17.6481C21.6974 17.1216 21.8175 16.5603 21.8175 15.9957C21.8175 14.8587 21.3301 13.751 20.4339 12.9215ZM16.9984 9.61025C18.783 9.61025 20.5086 10.2656 21.7923 11.4537C23.0786 12.6441 23.8175 14.2761 23.8175 15.9957C23.8175 16.8455 23.6365 17.6848 23.2873 18.4651C22.9381 19.2451 22.4288 19.9486 21.7923 20.5377C21.156 21.1265 20.4048 21.5899 19.5832 21.9049C18.7617 22.2198 17.8836 22.3811 16.9984 22.3811C15.2138 22.3811 13.4882 21.7257 12.2045 20.5377C10.9182 19.3472 10.1794 17.7153 10.1794 15.9957C10.1794 14.2761 10.9182 12.6441 12.2045 11.4537C13.4882 10.2656 15.2138 9.61025 16.9984 9.61025ZM27.1611 6.80094C24.4903 4.32921 20.8371 2.9165 16.9984 2.9165C13.1598 2.9165 9.5065 4.32921 6.83575 6.80094C4.17021 9.26784 2.70508 12.579 2.70508 15.9957C2.70508 19.9961 5.13475 25.1062 8.34962 30.0054C11.4531 34.735 15.0386 38.9019 16.9984 41.0655C18.9582 38.9019 22.5437 34.735 25.6472 30.0054C28.8621 25.1062 31.2917 19.9961 31.2917 15.9957C31.2917 12.579 29.8266 9.26784 27.1611 6.80094ZM16.9984 0.916504C21.3197 0.916504 25.4639 2.5052 28.5195 5.33309C31.5751 8.16098 33.2917 11.9964 33.2917 15.9957C33.2917 25.2709 22.3325 38.1684 18.3901 42.508C17.6346 43.3397 16.3622 43.3397 15.6067 42.508C11.6643 38.1684 0.705078 25.2709 0.705078 15.9957C0.705078 11.9964 2.42169 8.16098 5.47728 5.33309C8.53288 2.5052 12.6772 0.916504 16.9984 0.916504Z" fill="white"/>
</svg>
