<svg width="256" height="64" viewBox="0 0 256 64" fill="none" xmlns="http://www.w3.org/2000/svg">
<path d="M219.329 46.5329C222.354 33.8992 226.608 24.6063 228.356 21.5391C229.576 19.591 232.504 15.5703 236.774 15.5703C239.702 15.5703 242.142 15.6947 245.802 21.5391C250.863 29.6216 252.479 36.9043 254.83 45.2894C256.05 49.6416 254.83 53.745 249.828 54.2424C247.882 54.3251 241.84 53.4929 241.897 47.1834C237.891 48.0752 234.455 47.6615 232.504 47.0524C231.65 55.6324 225.957 54.574 222.989 53.745C219.28 52.1534 218.841 48.4396 219.329 46.5329Z" fill="#3A3A3A"/>
<path fill-rule="evenodd" clip-rule="evenodd" d="M228.982 21.9274C227.267 24.941 223.046 34.1575 220.04 46.7098C220.039 46.7121 220.039 46.7144 220.038 46.7166C220.038 46.7182 220.037 46.7197 220.037 46.7212C219.611 48.3866 220.001 51.6258 223.229 53.0386C224.707 53.4482 226.644 53.8355 228.289 53.2259C229.842 52.6507 231.367 51.0865 231.776 46.9771C231.798 46.7549 231.917 46.5544 232.099 46.4309C232.282 46.3073 232.509 46.2736 232.719 46.339C234.508 46.8977 237.707 47.3 241.475 46.5119C241.597 46.4233 241.748 46.3722 241.909 46.3748C241.952 46.3754 241.993 46.3797 242.033 46.3873C242.67 46.236 243.322 46.0501 243.984 45.8251C244.368 45.6948 244.783 45.9061 244.91 46.297C245.038 46.6879 244.831 47.1104 244.447 47.2407C243.837 47.4481 243.235 47.6243 242.643 47.7726C242.791 50.2531 244.034 51.6482 245.466 52.4573C247.049 53.3513 248.886 53.5318 249.777 53.4978C252.055 53.266 253.357 52.243 254.003 50.8855C254.675 49.4761 254.707 47.5668 254.126 45.4944C253.847 44.4991 253.579 43.5215 253.314 42.5581C251.342 35.3669 249.586 28.9689 245.185 21.9405C243.387 19.0688 241.946 17.7 240.675 17.0246C239.415 16.3551 238.236 16.3164 236.774 16.3164C234.876 16.3164 233.24 17.2088 231.9 18.3887C230.566 19.5637 229.576 20.9793 228.982 21.9274ZM241.198 48.0854C241.44 50.998 242.982 52.7604 244.757 53.7625C246.655 54.8347 248.796 55.033 249.858 54.9879C249.872 54.9873 249.885 54.9863 249.899 54.985C252.611 54.7153 254.414 53.44 255.32 51.5374C256.204 49.6827 256.173 47.3642 255.533 45.0844C255.257 44.098 254.99 43.1247 254.726 42.1616C252.757 34.977 250.944 28.364 246.419 21.1376C244.557 18.165 242.948 16.5494 241.352 15.7015C239.745 14.8477 238.24 14.8242 236.774 14.8242C234.403 14.8242 232.439 15.9421 230.943 17.2595C229.447 18.5765 228.366 20.1376 227.739 21.1376C227.734 21.1464 227.729 21.1552 227.724 21.1642C225.937 24.2986 221.659 33.657 218.619 46.3505C218.073 48.4928 218.559 52.6537 222.705 54.4327C222.734 54.4453 222.764 54.456 222.795 54.4646C224.28 54.8793 226.65 55.4207 228.789 54.6283C230.889 53.8505 232.552 51.8857 233.126 47.9934C235.082 48.4556 237.935 48.6805 241.198 48.0854ZM238.584 27.54C238.884 27.8166 238.907 28.2884 238.635 28.5938C238.006 29.3016 237.363 30.2034 236.931 31.5674C236.497 32.9394 236.264 34.823 236.527 37.5058C236.567 37.9159 236.273 38.2814 235.871 38.3222C235.469 38.3631 235.11 38.0638 235.07 37.6538C234.792 34.8166 235.029 32.7195 235.538 31.1095C236.05 29.4914 236.824 28.4098 237.55 27.5921C237.822 27.2867 238.285 27.2634 238.584 27.54Z" fill="#3A3A3A"/>
<path d="M194.766 45.1986C194.766 34.5912 198.193 24.4865 199.906 20.76C200.804 18.6802 203.388 15.8521 208.106 15.8203C214.548 15.777 224.928 17.1203 226.397 26.3497C226.761 30.7356 226.129 37.5982 216.821 38.7968C221.483 41.4349 224.276 44.5249 225.021 48.131C225.509 50.4936 223.949 56.5967 215.627 53.8668C213.687 53.1473 210.112 50.664 208.054 48.1926C207.151 54.0627 202.673 54.6435 200.518 54.2981C195.133 54.0901 194.766 48.5785 194.766 45.1986Z" fill="#3A3A3A"/>
<path fill-rule="evenodd" clip-rule="evenodd" d="M218.841 18.2989C215.389 16.8696 211.297 16.545 208.111 16.5664C203.72 16.5959 201.374 19.2123 200.576 21.0604C200.574 21.0659 200.572 21.0713 200.569 21.0766C198.888 24.732 195.498 34.7278 195.498 45.1986C195.498 46.8861 195.595 48.9716 196.296 50.6449C196.641 51.4682 197.121 52.1631 197.784 52.6647C198.442 53.1626 199.328 53.5055 200.546 53.5525C200.575 53.5536 200.604 53.5565 200.632 53.5611C201.596 53.7156 203.081 53.6581 204.405 52.9213C205.638 52.2353 206.812 50.9169 207.276 48.4038C206.68 47.6486 206.195 46.859 205.943 46.083C205.816 45.6918 206.024 45.2697 206.408 45.1403C206.791 45.0108 207.206 45.223 207.333 45.6142C207.511 46.1637 207.887 46.8003 208.429 47.4843C208.578 47.5718 208.692 47.7104 208.751 47.8732C209.717 48.9958 211.013 50.1301 212.312 51.0806C213.674 52.0774 214.984 52.832 215.864 53.161C219.847 54.4639 221.983 53.5985 223.095 52.3966C224.276 51.121 224.507 49.2647 224.305 48.2846C223.634 45.0335 221.122 42.1286 216.671 39.5665C216.67 39.5666 216.669 39.5667 216.668 39.5668C215.11 39.7076 213.074 39.434 211.016 38.821C208.952 38.2059 206.807 37.2317 205.039 35.9229C204.711 35.6809 204.639 35.2143 204.876 34.8809C205.114 34.5474 205.572 34.4734 205.899 34.7154C207.503 35.9026 209.487 36.8106 211.427 37.3887C213.369 37.9675 215.21 38.1985 216.529 38.0813C216.597 38.0734 216.663 38.0651 216.729 38.0566C221.189 37.4823 223.446 35.5818 224.592 33.4146C225.76 31.2036 225.845 28.5825 225.67 26.4413C224.981 22.1739 222.257 19.7135 218.841 18.2989ZM218.873 39.1774C222.514 38.2894 224.676 36.4002 225.88 34.1224C227.258 31.5158 227.312 28.5262 227.126 26.2868C227.125 26.2679 227.122 26.249 227.119 26.2303C226.332 21.2853 223.136 18.467 219.392 16.9165C215.676 15.3777 211.357 15.0524 208.101 15.0743C203.063 15.1081 200.241 18.1408 199.24 20.4513C197.493 24.2552 194.034 34.4621 194.034 45.1986C194.034 46.8909 194.121 49.2512 194.95 51.2307C195.37 52.2338 195.991 53.167 196.912 53.863C197.828 54.5558 198.993 54.9784 200.448 55.0419C201.639 55.2244 203.447 55.1546 205.106 54.231C206.546 53.4301 207.81 52.0215 208.467 49.7389C209.377 50.6585 210.426 51.5375 211.458 52.2927C212.876 53.3305 214.317 54.1748 215.376 54.5679C215.385 54.5711 215.394 54.5742 215.402 54.577C219.733 55.9976 222.535 55.1769 224.16 53.4205C225.719 51.7364 226.023 49.3598 225.738 47.9772C225.031 44.5548 222.64 41.6494 218.873 39.1774ZM214.586 24.0245C214.856 24.3308 214.832 24.8026 214.531 25.0782C213.924 25.6353 213.41 26.1293 212.986 26.8205C212.567 27.5045 212.212 28.4233 212.013 29.8358C211.955 30.2436 211.584 30.5267 211.184 30.468C210.784 30.4093 210.506 30.0311 210.564 29.6233C210.786 28.046 211.198 26.9214 211.745 26.0297C212.287 25.1452 212.939 24.5311 213.552 23.9691C213.852 23.6934 214.315 23.7183 214.586 24.0245Z" fill="#3A3A3A"/>
<path d="M190.803 15.839C186.815 15.9504 184.905 20.5268 184.822 22.3833C183.576 30.5985 183.269 39.0922 182.828 47.3074C182.529 52.877 186.068 54.9971 189.058 55.1049C196.161 55.3609 196.576 49.5817 196.659 48.0036C197.033 39.2315 197.448 29.4846 197.033 22.3833C196.634 16.7023 192.713 15.6534 190.803 15.839Z" fill="#3A3A3A"/>
<path fill-rule="evenodd" clip-rule="evenodd" d="M194.052 17.5126C192.95 16.6887 191.679 16.5033 190.872 16.5816C190.856 16.5832 190.839 16.5843 190.823 16.5847C189.131 16.632 187.845 17.6204 186.941 18.8939C186.025 20.1845 185.587 21.6553 185.553 22.4172C185.552 22.444 185.549 22.4707 185.545 22.4972C184.474 29.5629 184.101 36.8357 183.733 44.0007C183.676 45.1195 183.619 46.2357 183.559 47.3481C183.419 49.9555 184.176 51.6589 185.226 52.7256C186.293 53.8085 187.737 54.3106 189.084 54.3592C192.4 54.4787 194.023 53.209 194.873 51.8423C195.764 50.4106 195.887 48.7467 195.928 47.9674C196.302 39.1839 196.715 29.485 196.303 22.4321C196.116 19.7817 195.124 18.3145 194.052 17.5126ZM194.918 16.3096C196.383 17.4055 197.551 19.3021 197.763 22.33L197.764 22.3388C198.181 29.4785 197.765 39.2543 197.392 48.0042L197.391 48.0359L197.39 48.0435C197.348 48.8439 197.221 50.8556 196.109 52.6416C194.956 54.495 192.82 55.9869 189.032 55.8504C187.389 55.7912 185.569 55.1794 184.193 53.7829C182.802 52.3702 181.938 50.2288 182.097 47.2666C182.157 46.1607 182.214 45.0486 182.271 43.9316C182.637 36.7845 183.013 29.4416 184.093 22.3069C184.154 21.21 184.712 19.4899 185.755 18.0194C186.82 16.5181 188.475 15.1669 190.758 15.0939C191.862 14.9927 193.492 15.2432 194.918 16.3096Z" fill="#3A3A3A"/>
<path d="M153.111 45.1802C153.111 34.5518 156.515 24.427 158.217 20.6932C159.109 18.6092 161.987 14.7017 166.364 15.7437C168.35 16.1345 172.22 17.9817 171.831 22.4623C173.939 20.7785 176.93 19.2534 180.955 19.1302L180.956 19.1303C182.416 19.1737 186.24 19.2875 186.792 23.4285C187.434 28.2477 186.971 34.6667 172.259 35.839C182.263 38.2974 183.473 43.6698 183.543 45.8314C183.948 49.4784 182.417 56.6046 174.149 53.8693C172.213 53.1454 168.46 50.637 166.333 48.1494C165.458 54.0887 160.974 54.645 158.825 54.2976C153.475 54.0892 152.786 48.1325 153.111 45.1802Z" fill="#3A3A3A"/>
<path fill-rule="evenodd" clip-rule="evenodd" d="M161.437 17.6325C160.171 18.6492 159.296 20.0393 158.888 20.9918C158.886 20.9972 158.884 21.0026 158.881 21.008C157.211 24.6709 153.842 34.6875 153.842 45.1805C153.842 45.2082 153.841 45.2359 153.838 45.2635C153.685 46.6566 153.778 48.7433 154.512 50.4717C154.875 51.327 155.385 52.0694 156.075 52.6083C156.758 53.142 157.656 53.5058 158.853 53.5524C158.882 53.5535 158.911 53.5564 158.94 53.5611C159.902 53.7167 161.386 53.6645 162.704 52.9272C163.932 52.2411 165.103 50.9151 165.556 48.3689C164.951 47.622 164.459 46.8383 164.21 46.0643C164.084 45.6728 164.293 45.2513 164.677 45.1228C165.061 44.9944 165.475 45.2076 165.601 45.5991C165.792 46.1937 166.234 46.8977 166.885 47.6595C167.896 48.8422 169.315 50.0518 170.732 51.0592C172.147 52.0659 173.504 52.8313 174.388 53.1645C176.357 53.8137 177.853 53.853 178.98 53.5579C180.098 53.2649 180.914 52.6269 181.508 51.8024C182.726 50.1127 183.006 47.6329 182.815 45.9157C182.813 45.8959 182.812 45.876 182.811 45.8561C182.78 44.8991 182.497 43.1874 181.063 41.4229C179.626 39.6566 176.978 37.7664 172.087 36.5646C171.259 36.3612 170.368 36.1776 169.408 36.0178C169.009 35.9515 168.738 35.568 168.803 35.1613C168.868 34.7546 169.245 34.4788 169.644 34.5452C170.594 34.7033 171.484 34.8847 172.316 35.0862C179.525 34.4952 183.04 32.6354 184.715 30.5314C186.388 28.4308 186.382 25.8959 186.066 23.5293C185.828 21.7418 184.918 20.8819 183.915 20.4239C182.867 19.945 181.696 19.8992 180.956 19.877C177.125 19.9993 174.287 21.4488 172.282 23.0499C170.889 24.1625 169.898 25.35 169.261 26.2195C169.019 26.5497 168.561 26.6177 168.237 26.3712C167.913 26.1248 167.846 25.6573 168.088 25.3271C168.737 24.4399 169.734 23.2395 171.121 22.0856C171.192 20.277 170.464 19.0101 169.499 18.1242C168.452 17.1643 167.12 16.6526 166.225 16.4766C166.216 16.4748 166.207 16.4728 166.198 16.4706C164.275 16.013 162.684 16.6302 161.437 17.6325ZM172.544 21.025C174.648 19.6261 177.417 18.4924 180.933 18.3848C180.948 18.3844 180.962 18.3844 180.977 18.3848L181.003 18.3856C181.733 18.4072 183.173 18.4499 184.514 19.0623C185.926 19.7073 187.203 20.9747 187.517 23.3283C187.844 25.7809 187.928 28.8651 185.852 31.4719C184.139 33.623 181.062 35.3161 175.821 36.1682C178.92 37.3683 180.917 38.9053 182.19 40.4707C183.865 42.5303 184.23 44.5688 184.273 45.7773C184.481 47.7072 184.194 50.595 182.688 52.6856C181.917 53.7567 180.825 54.6153 179.344 55.0031C177.874 55.3882 176.082 55.2934 173.923 54.5793C173.914 54.5764 173.905 54.5733 173.897 54.5701C172.845 54.1766 171.364 53.3284 169.894 52.2829C168.814 51.5151 167.711 50.6196 166.759 49.6834C166.115 52.0022 164.853 53.4281 163.409 54.2355C161.75 55.1628 159.941 55.2251 158.754 55.0417C157.296 54.9769 156.116 54.5198 155.185 53.7929C154.251 53.0641 153.605 52.0936 153.168 51.0646C152.309 49.0427 152.214 46.6989 152.379 45.1395C152.387 34.3981 155.816 24.1931 157.55 20.387C158.036 19.256 159.044 17.6552 160.531 16.4606C162.036 15.2509 164.068 14.4362 166.517 15.0143C167.608 15.2314 169.196 15.8386 170.478 17.0151C171.513 17.9644 172.344 19.284 172.544 21.025Z" fill="#3A3A3A"/>
<path d="M159.848 37.9557C158.049 48.7198 149.777 56.2629 141.372 54.8036C132.967 53.3442 127.612 43.4351 129.411 32.6709C131.21 21.9068 139.482 14.3637 147.887 15.823C156.292 17.2824 161.647 27.1915 159.848 37.9557Z" fill="#3A3A3A"/>
<path fill-rule="evenodd" clip-rule="evenodd" d="M146.691 27.9563C147.004 28.2169 147.051 28.6869 146.795 29.0061C145.604 30.4922 143.374 34.8685 144.324 40.0835C144.398 40.4886 144.136 40.8781 143.738 40.9533C143.341 41.0286 142.959 40.7612 142.885 40.3561C141.837 34.6071 144.27 29.7983 145.661 28.0622C145.917 27.7431 146.378 27.6957 146.691 27.9563ZM141.618 53.3326C148.936 54.6032 156.687 47.9879 158.405 37.7051C160.124 27.4223 154.959 18.5646 147.641 17.294C140.323 16.0234 132.573 22.6387 130.854 32.9215C129.136 43.2043 134.3 52.062 141.618 53.3326ZM141.372 54.8036C149.777 56.2629 158.049 48.7198 159.848 37.9557C161.647 27.1915 156.292 17.2824 147.887 15.823C139.482 14.3637 131.21 21.9068 129.411 32.6709C127.612 43.4351 132.967 53.3442 141.372 54.8036Z" fill="#3A3A3A"/>
<path d="M118.203 16.8914C107.437 13.3082 104.944 17.7623 103.372 21.3704C100.626 27.6732 108.026 31.0249 113.671 32.0702C112.847 35.4837 110.787 38.9131 110.787 48.742C110.925 50.6912 112.6 54.5896 118.203 54.5896C121.407 54.8384 127.816 53.3454 129.189 47.6223C130.562 41.8991 130.349 38.5021 130.15 33.361C138.802 32.0702 141.251 28.9598 141.686 25.725C142.921 16.5181 135.296 17.0589 131.798 17.3891L131.576 17.4101C125.181 18.0138 124.041 18.1214 118.203 16.8914Z" fill="#3A3A3A"/>
<path fill-rule="evenodd" clip-rule="evenodd" d="M107.67 17.0999C105.753 18.0887 104.822 19.8795 104.041 21.6732C103.418 23.1026 103.393 24.3017 103.724 25.3195C104.06 26.354 104.792 27.2838 105.825 28.1033C107.904 29.7538 111.032 30.8233 113.802 31.3361C114.298 31.428 114.614 31.427 114.938 31.4044C115.021 31.3985 115.113 31.3903 115.212 31.3813C115.497 31.3558 115.85 31.3241 116.281 31.3241C116.685 31.3241 117.013 31.6582 117.013 32.0702C117.013 32.4823 116.685 32.8163 116.281 32.8163C115.918 32.8163 115.662 32.8394 115.395 32.8634C115.281 32.8737 115.165 32.8841 115.038 32.893C114.782 32.9109 114.52 32.9177 114.214 32.8944C114.044 33.5029 113.846 34.115 113.635 34.7654C112.701 37.6519 111.522 41.2911 111.52 48.714C111.584 49.5364 111.979 50.8141 112.976 51.8827C113.963 52.9404 115.585 53.8435 118.203 53.8435C118.222 53.8435 118.24 53.8443 118.259 53.8457C119.742 53.9609 122.016 53.6697 124.067 52.6721C126.103 51.6819 127.858 50.031 128.478 47.4451C129.761 42.098 129.634 38.847 129.447 34.1046C128.51 34.0945 127.448 34.0445 126.291 33.7956C125.896 33.7105 125.643 33.3146 125.726 32.9115C125.81 32.5083 126.198 32.2505 126.594 32.3356C127.862 32.6085 129.011 32.6148 130.097 32.615C134.332 31.9775 136.955 30.9084 138.559 29.6763C140.139 28.4623 140.768 27.0608 140.96 25.6238C141.257 23.4179 141.009 21.8863 140.497 20.8203C139.99 19.7668 139.189 19.0937 138.224 18.6644C136.234 17.7784 133.641 17.9644 131.866 18.132C131.866 18.132 131.866 18.132 131.866 18.132L131.594 18.1576C128.441 18.4553 126.518 18.6368 124.66 18.5842C122.779 18.5309 120.983 18.2389 118.055 17.622C118.028 17.6164 118.002 17.6093 117.976 17.6006C112.673 15.8358 109.585 16.1125 107.67 17.0999ZM130.908 33.9968C130.909 34.017 130.909 34.0372 130.91 34.0574C131.098 38.8122 131.233 42.2431 129.9 47.7996C129.147 50.9368 127.011 52.894 124.698 54.0188C122.413 55.1302 119.896 55.4636 118.175 55.3357C115.206 55.3293 113.197 54.2854 111.915 52.9109C110.65 51.554 110.137 49.9234 110.057 48.7955C110.056 48.7777 110.056 48.7599 110.056 48.7421C110.056 41.0348 111.323 37.13 112.262 34.2331C112.444 33.6736 112.613 33.1517 112.759 32.6473C110.067 32.0644 107.062 30.9766 104.925 29.2805C103.745 28.3436 102.789 27.1883 102.334 25.789C101.874 24.3731 101.953 22.7896 102.703 21.0676C103.493 19.2533 104.596 17.0129 107.009 15.7684C109.419 14.5256 112.95 14.3645 118.391 16.1692C121.277 16.7764 122.962 17.0434 124.701 17.0926C126.461 17.1425 128.296 16.9705 131.508 16.6672L131.731 16.6462C133.453 16.4836 136.422 16.2342 138.81 17.2969C140.035 17.842 141.126 18.7394 141.811 20.1636C142.49 21.5753 142.733 23.4286 142.411 25.8261C142.17 27.624 141.357 29.3951 139.44 30.8678C137.649 32.2441 134.933 33.3305 130.908 33.9968Z" fill="#3A3A3A"/>
<path d="M219.329 43.5485C222.354 30.9148 226.608 21.6219 228.356 18.5547C229.576 16.6066 232.504 12.5859 236.774 12.5859C239.702 12.5859 242.142 12.7103 245.802 18.5547C250.863 26.6372 252.479 33.9199 254.83 42.305C256.05 46.6572 254.83 50.7607 249.828 51.2581C247.882 51.3407 241.84 50.5085 241.897 44.199C237.891 45.0908 234.455 44.6772 232.504 44.068C231.65 52.648 225.957 51.5896 222.989 50.7607C219.28 49.169 218.841 45.4552 219.329 43.5485Z" fill="#ECECEC"/>
<path fill-rule="evenodd" clip-rule="evenodd" d="M228.982 18.943C227.267 21.9566 223.046 31.1731 220.04 43.7254C220.039 43.7277 220.039 43.73 220.038 43.7322C220.038 43.7338 220.037 43.7353 220.037 43.7369C219.611 45.4022 220.001 48.6414 223.229 50.0542C224.707 50.4638 226.644 50.8511 228.289 50.2415C229.842 49.6663 231.367 48.1021 231.776 43.9927C231.798 43.7705 231.917 43.57 232.099 43.4465C232.282 43.3229 232.509 43.2892 232.719 43.3547C234.508 43.9133 237.707 44.3157 241.475 43.5275C241.597 43.4389 241.748 43.3878 241.909 43.3904C241.952 43.3911 241.993 43.3953 242.033 43.403C242.67 43.2516 243.322 43.0658 243.984 42.8407C244.368 42.7104 244.783 42.9217 244.91 43.3126C245.038 43.7035 244.831 44.126 244.447 44.2563C243.837 44.4637 243.235 44.6399 242.643 44.7883C242.791 47.2687 244.034 48.6638 245.466 49.473C247.049 50.3669 248.886 50.5475 249.777 50.5134C252.055 50.2816 253.357 49.2586 254.003 47.9011C254.675 46.4917 254.707 44.5824 254.126 42.51C253.847 41.5147 253.579 40.5371 253.314 39.5737C251.342 32.3825 249.586 25.9846 245.185 18.9561C243.387 16.0844 241.946 14.7156 240.675 14.0403C239.415 13.3707 238.236 13.332 236.774 13.332C234.876 13.332 233.24 14.2244 231.9 15.4044C230.566 16.5793 229.576 17.9949 228.982 18.943ZM241.198 45.1011C241.44 48.0136 242.982 49.776 244.757 50.7782C246.655 51.8503 248.796 52.0486 249.858 52.0035C249.872 52.0029 249.885 52.0019 249.899 52.0006C252.611 51.731 254.414 50.4556 255.32 48.553C256.204 46.6983 256.173 44.3798 255.533 42.1001C255.257 41.1136 254.99 40.1403 254.726 39.1772C252.757 31.9926 250.944 25.3796 246.419 18.1533C244.557 15.1806 242.948 13.565 241.352 12.7171C239.745 11.8633 238.24 11.8398 236.774 11.8398C234.403 11.8398 232.439 12.9578 230.943 14.2752C229.447 15.5922 228.366 17.1532 227.739 18.1533C227.734 18.162 227.729 18.1709 227.724 18.1798C225.937 21.3143 221.659 30.6726 218.619 43.3661C218.073 45.5084 218.559 49.6693 222.705 51.4483C222.734 51.4609 222.764 51.4716 222.795 51.4802C224.28 51.8949 226.65 52.4363 228.789 51.6439C230.889 50.8661 232.552 48.9013 233.126 45.009C235.082 45.4713 237.935 45.6962 241.198 45.1011ZM238.584 24.5556C238.884 24.8322 238.907 25.3041 238.635 25.6095C238.006 26.3172 237.363 27.2191 236.931 28.583C236.497 29.955 236.264 31.8386 236.527 34.5215C236.567 34.9315 236.273 35.297 235.871 35.3378C235.469 35.3787 235.11 35.0794 235.07 34.6694C234.792 31.8322 235.029 29.7352 235.538 28.1251C236.05 26.507 236.824 25.4254 237.55 24.6077C237.822 24.3023 238.285 24.279 238.584 24.5556Z" fill="#3A3A3A"/>
<path d="M194.766 42.2143C194.766 31.6069 198.193 21.5021 199.906 17.7757C200.804 15.6958 203.388 12.8677 208.106 12.836C214.548 12.7926 224.928 14.1359 226.397 23.3654C226.761 27.7512 226.129 34.6138 216.821 35.8124C221.483 38.4505 224.276 41.5405 225.021 45.1466C225.509 47.5092 223.949 53.6123 215.627 50.8824C213.687 50.1629 210.112 47.6796 208.054 45.2082C207.151 51.0783 202.673 51.6592 200.518 51.3137C195.133 51.1057 194.766 45.5941 194.766 42.2143Z" fill="#ECECEC"/>
<path fill-rule="evenodd" clip-rule="evenodd" d="M218.841 15.3146C215.389 13.8852 211.297 13.5606 208.111 13.582C203.72 13.6115 201.374 16.2279 200.576 18.076C200.574 18.0815 200.572 18.0869 200.569 18.0923C198.888 21.7476 195.498 31.7434 195.498 42.2142C195.498 43.9018 195.595 45.9872 196.296 47.6605C196.641 48.4838 197.121 49.1787 197.784 49.6803C198.442 50.1783 199.328 50.5211 200.546 50.5682C200.575 50.5693 200.604 50.5721 200.632 50.5767C201.596 50.7312 203.081 50.6737 204.405 49.937C205.638 49.251 206.812 47.9325 207.276 45.4194C206.68 44.6642 206.195 43.8746 205.943 43.0986C205.816 42.7074 206.024 42.2853 206.408 42.1559C206.791 42.0264 207.206 42.2386 207.333 42.6298C207.511 43.1793 207.887 43.8159 208.429 44.4999C208.578 44.5875 208.692 44.726 208.751 44.8888C209.717 46.0115 211.013 47.1457 212.312 48.0962C213.674 49.093 214.984 49.8476 215.864 50.1766C219.847 51.4795 221.983 50.6142 223.095 49.4123C224.276 48.1366 224.507 46.2803 224.305 45.3003C223.634 42.0492 221.122 39.1442 216.671 36.5821C216.67 36.5822 216.669 36.5823 216.668 36.5824C215.11 36.7232 213.074 36.4496 211.016 35.8366C208.952 35.2215 206.807 34.2473 205.039 32.9386C204.711 32.6965 204.639 32.2299 204.876 31.8965C205.114 31.5631 205.572 31.489 205.899 31.7311C207.503 32.9182 209.487 33.8262 211.427 34.4044C213.369 34.9831 215.21 35.2142 216.529 35.0969C216.597 35.089 216.663 35.0808 216.729 35.0722C221.189 34.4979 223.446 32.5974 224.592 30.4302C225.76 28.2192 225.845 25.5981 225.67 23.4569C224.981 19.1896 222.257 16.7291 218.841 15.3146ZM218.873 36.193C222.514 35.3051 224.676 33.4158 225.88 31.138C227.258 28.5314 227.312 25.5418 227.126 23.3024C227.125 23.2835 227.122 23.2646 227.119 23.2459C226.332 18.301 223.136 15.4827 219.392 13.9321C215.676 12.3933 211.357 12.068 208.101 12.0899C203.063 12.1238 200.241 15.1564 199.24 17.4669C197.493 21.2708 194.034 31.4777 194.034 42.2142C194.034 43.9065 194.121 46.2668 194.95 48.2463C195.37 49.2494 195.991 50.1826 196.912 50.8786C197.828 51.5714 198.993 51.9941 200.448 52.0575C201.639 52.2401 203.447 52.1702 205.106 51.2466C206.546 50.4457 207.81 49.0372 208.467 46.7545C209.377 47.6742 210.426 48.5531 211.458 49.3083C212.876 50.3461 214.317 51.1905 215.376 51.5835C215.385 51.5867 215.394 51.5898 215.402 51.5926C219.733 53.0133 222.535 52.1926 224.16 50.4361C225.719 48.752 226.023 46.3754 225.738 44.9929C225.031 41.5704 222.64 38.665 218.873 36.193ZM214.586 21.0402C214.856 21.3464 214.832 21.8182 214.531 22.0938C213.924 22.6509 213.41 23.1449 212.986 23.8361C212.567 24.5201 212.212 25.4389 212.013 26.8514C211.955 27.2593 211.584 27.5423 211.184 27.4836C210.784 27.425 210.506 27.0468 210.564 26.6389C210.786 25.0616 211.198 23.937 211.745 23.0453C212.287 22.1608 212.939 21.5467 213.552 20.9847C213.852 20.7091 214.315 20.7339 214.586 21.0402Z" fill="#3A3A3A"/>
<path d="M190.803 12.8546C186.815 12.966 184.905 17.5424 184.822 19.399C183.576 27.6142 183.269 36.1078 182.828 44.323C182.529 49.8927 186.068 52.0127 189.058 52.1205C196.161 52.3765 196.576 46.5973 196.659 45.0192C197.033 36.2471 197.448 26.5002 197.033 19.399C196.634 13.7179 192.713 12.669 190.803 12.8546Z" fill="#ECECEC"/>
<path fill-rule="evenodd" clip-rule="evenodd" d="M194.052 14.5282C192.95 13.7043 191.679 13.5189 190.872 13.5973C190.856 13.5989 190.839 13.5999 190.823 13.6004C189.131 13.6476 187.845 14.636 186.941 15.9095C186.025 17.2001 185.587 18.6709 185.553 19.4329C185.552 19.4596 185.549 19.4863 185.545 19.5128C184.474 26.5785 184.101 33.8513 183.733 41.0164C183.676 42.1352 183.619 43.2514 183.559 44.3637C183.419 46.9711 184.176 48.6745 185.226 49.7413C186.293 50.8241 187.737 51.3263 189.084 51.3748C192.4 51.4943 194.023 50.2246 194.873 48.8579C195.764 47.4262 195.887 45.7624 195.928 44.983C196.302 36.1995 196.715 26.5006 196.303 19.4477C196.116 16.7973 195.124 15.3301 194.052 14.5282ZM194.918 13.3252C196.383 14.4212 197.551 16.3178 197.763 19.3456L197.764 19.3545C198.181 26.4941 197.765 36.27 197.392 45.0198L197.391 45.0515L197.39 45.0591C197.348 45.8595 197.221 47.8712 196.109 49.6572C194.956 51.5107 192.82 53.0026 189.032 52.8661C187.389 52.8068 185.569 52.195 184.193 50.7985C182.802 49.3858 181.938 47.2444 182.097 44.2822C182.157 43.1764 182.214 42.0642 182.271 40.9473C182.637 33.8002 183.013 26.4572 184.093 19.3225C184.154 18.2257 184.712 16.5056 185.755 15.035C186.82 13.5337 188.475 12.1825 190.758 12.1095C191.862 12.0083 193.492 12.2588 194.918 13.3252Z" fill="#3A3A3A"/>
<path d="M153.111 42.1958C153.111 31.5674 156.515 21.4427 158.217 17.7089C159.109 15.6249 161.987 11.7174 166.364 12.7594C168.35 13.1501 172.22 14.9973 171.831 19.4779C173.939 17.7941 176.93 16.2691 180.955 16.1459L180.956 16.1459C182.416 16.1893 186.24 16.3031 186.792 20.4441C187.434 25.2633 186.971 31.6823 172.259 32.8546C182.263 35.313 183.473 40.6854 183.543 42.847C183.948 46.494 182.417 53.6202 174.149 50.885C172.213 50.161 168.46 47.6526 166.333 45.165C165.458 51.1044 160.974 51.6606 158.825 51.3133C153.475 51.1049 152.786 45.1481 153.111 42.1958Z" fill="#ECECEC"/>
<path fill-rule="evenodd" clip-rule="evenodd" d="M161.437 14.6481C160.171 15.6648 159.296 17.0549 158.888 18.0074C158.886 18.0128 158.884 18.0182 158.881 18.0236C157.211 21.6865 153.842 31.7031 153.842 42.1961C153.842 42.2238 153.841 42.2515 153.838 42.2791C153.685 43.6723 153.778 45.7589 154.512 47.4873C154.875 48.3426 155.385 49.085 156.075 49.6239C156.758 50.1576 157.656 50.5214 158.853 50.568C158.882 50.5692 158.911 50.5721 158.94 50.5767C159.902 50.7323 161.386 50.6802 162.704 49.9428C163.932 49.2567 165.103 47.9307 165.556 45.3845C164.951 44.6376 164.459 43.8539 164.21 43.0799C164.084 42.6884 164.293 42.2669 164.677 42.1384C165.061 42.01 165.475 42.2232 165.601 42.6147C165.792 43.2093 166.234 43.9133 166.885 44.6751C167.896 45.8579 169.315 47.0674 170.732 48.0748C172.147 49.0816 173.504 49.847 174.388 50.1801C176.357 50.8293 177.853 50.8686 178.98 50.5735C180.098 50.2805 180.914 49.6425 181.508 48.8181C182.726 47.1284 183.006 44.6485 182.815 42.9313C182.813 42.9115 182.812 42.8916 182.811 42.8717C182.78 41.9147 182.497 40.203 181.063 38.4385C179.626 36.6722 176.978 34.782 172.087 33.5802C171.259 33.3768 170.368 33.1932 169.408 33.0335C169.009 32.9671 168.738 32.5836 168.803 32.1769C168.868 31.7703 169.245 31.4944 169.644 31.5608C170.594 31.7189 171.484 31.9003 172.316 32.1018C179.525 31.5109 183.04 29.651 184.715 27.5471C186.388 25.4464 186.382 22.9115 186.066 20.5449C185.828 18.7575 184.918 17.8975 183.915 17.4396C182.867 16.9606 181.696 16.9148 180.956 16.8926C177.125 17.0149 174.287 18.4644 172.282 20.0655C170.889 21.1781 169.898 22.3656 169.261 23.2351C169.019 23.5654 168.561 23.6333 168.237 23.3868C167.913 23.1404 167.846 22.6729 168.088 22.3427C168.737 21.4556 169.734 20.2551 171.121 19.1012C171.192 17.2926 170.464 16.0257 169.499 15.1398C168.452 14.1799 167.12 13.6682 166.225 13.4922C166.216 13.4904 166.207 13.4884 166.198 13.4862C164.275 13.0286 162.684 13.6458 161.437 14.6481ZM172.544 18.0406C174.648 16.6417 177.417 15.5081 180.933 15.4004C180.948 15.4 180.962 15.4 180.977 15.4004L181.003 15.4012C181.733 15.4228 183.173 15.4655 184.514 16.0779C185.926 16.7229 187.203 17.9904 187.517 20.3439C187.844 22.7966 187.928 25.8807 185.852 28.4875C184.139 30.6386 181.062 32.3317 175.821 33.1838C178.92 34.3839 180.917 35.921 182.19 37.4863C183.865 39.5459 184.23 41.5844 184.273 42.793C184.481 44.7228 184.194 47.6106 182.688 49.7012C181.917 50.7723 180.825 51.6309 179.344 52.0188C177.874 52.4038 176.082 52.309 173.923 51.5949C173.914 51.592 173.905 51.5889 173.897 51.5857C172.845 51.1922 171.364 50.344 169.894 49.2985C168.814 48.5308 167.711 47.6353 166.759 46.699C166.115 49.0178 164.853 50.4437 163.409 51.2511C161.75 52.1785 159.941 52.2408 158.754 52.0573C157.296 51.9925 156.116 51.5354 155.185 50.8085C154.251 50.0797 153.605 49.1092 153.168 48.0803C152.309 46.0584 152.214 43.7146 152.379 42.1551C152.387 31.4138 155.816 21.2088 157.55 17.4026C158.036 16.2716 159.044 14.6709 160.531 13.4762C162.036 12.2666 164.068 11.4518 166.517 12.0299C167.608 12.2471 169.196 12.8542 170.478 14.0307C171.513 14.98 172.344 16.2996 172.544 18.0406Z" fill="#3A3A3A"/>
<path d="M159.848 34.9713C158.049 45.7355 149.777 53.2785 141.372 51.8192C132.967 50.3599 127.612 40.4507 129.411 29.6866C131.21 18.9224 139.482 11.3793 147.887 12.8386C156.292 14.298 161.647 24.2071 159.848 34.9713Z" fill="#ECECEC"/>
<path fill-rule="evenodd" clip-rule="evenodd" d="M146.691 24.9719C147.004 25.2326 147.051 25.7026 146.795 26.0217C145.604 27.5078 143.374 31.8842 144.324 37.0991C144.398 37.5042 144.136 37.8937 143.738 37.969C143.341 38.0442 142.959 37.7769 142.885 37.3717C141.837 31.6227 144.27 26.8139 145.661 25.0779C145.917 24.7587 146.378 24.7113 146.691 24.9719ZM141.618 50.3482C148.936 51.6188 156.687 45.0035 158.405 34.7207C160.124 24.4379 154.959 15.5802 147.641 14.3096C140.323 13.039 132.573 19.6544 130.854 29.9371C129.136 40.2199 134.3 49.0776 141.618 50.3482ZM141.372 51.8192C149.777 53.2785 158.049 45.7355 159.848 34.9713C161.647 24.2071 156.292 14.298 147.887 12.8386C139.482 11.3793 131.21 18.9224 129.411 29.6866C127.612 40.4507 132.967 50.3599 141.372 51.8192Z" fill="#3A3A3A"/>
<path d="M118.203 13.907C107.437 10.3238 104.944 14.7779 103.372 18.386C100.626 24.6888 108.026 28.0405 113.671 29.0858C112.847 32.4994 110.787 35.9287 110.787 45.7576C110.925 47.7068 112.6 51.6052 118.203 51.6052C121.407 51.8541 127.816 50.3611 129.189 44.6379C130.562 38.9147 130.349 35.5177 130.15 30.3766C138.802 29.0858 141.251 25.9754 141.686 22.7406C142.921 13.5338 135.296 14.0746 131.798 14.4047L131.576 14.4257C125.181 15.0294 124.041 15.137 118.203 13.907Z" fill="#ECECEC"/>
<path fill-rule="evenodd" clip-rule="evenodd" d="M107.67 14.1155C105.753 15.1043 104.822 16.8951 104.041 18.6888C103.418 20.1182 103.393 21.3173 103.724 22.3351C104.06 23.3696 104.792 24.2994 105.825 25.1189C107.904 26.7694 111.032 27.8389 113.802 28.3518C114.298 28.4436 114.614 28.4426 114.938 28.42C115.021 28.4141 115.113 28.4059 115.212 28.397C115.497 28.3714 115.85 28.3398 116.281 28.3398C116.685 28.3398 117.013 28.6738 117.013 29.0858C117.013 29.4979 116.685 29.8319 116.281 29.8319C115.918 29.8319 115.662 29.855 115.395 29.879C115.281 29.8893 115.165 29.8997 115.038 29.9086C114.782 29.9266 114.52 29.9333 114.214 29.91C114.044 30.5186 113.846 31.1307 113.635 31.781C112.701 34.6676 111.522 38.3067 111.52 45.7296C111.584 46.552 111.979 47.8298 112.976 48.8983C113.963 49.956 115.585 50.8592 118.203 50.8592C118.222 50.8592 118.24 50.8599 118.259 50.8613C119.742 50.9765 122.016 50.6854 124.067 49.6877C126.103 48.6975 127.858 47.0466 128.478 44.4607C129.761 39.1136 129.634 35.8626 129.447 31.1202C128.51 31.1102 127.448 31.0601 126.291 30.8112C125.896 30.7261 125.643 30.3303 125.726 29.9271C125.81 29.5239 126.198 29.2661 126.594 29.3512C127.862 29.6241 129.011 29.6304 130.097 29.6306C134.332 28.9931 136.955 27.9241 138.559 26.6919C140.139 25.4779 140.768 24.0765 140.96 22.6395C141.257 20.4336 141.009 18.9019 140.497 17.8359C139.99 16.7825 139.189 16.1094 138.224 15.68C136.234 14.7941 133.641 14.98 131.866 15.1476C131.866 15.1476 131.866 15.1476 131.866 15.1476L131.594 15.1732C128.441 15.4709 126.518 15.6525 124.66 15.5998C122.779 15.5465 120.983 15.2546 118.055 14.6377C118.028 14.632 118.002 14.6249 117.976 14.6163C112.673 12.8515 109.585 13.1281 107.67 14.1155ZM130.908 31.0124C130.909 31.0327 130.909 31.0529 130.91 31.0731C131.098 35.8278 131.233 39.2587 129.9 44.8152C129.147 47.9524 127.011 49.9096 124.698 51.0344C122.413 52.1459 119.896 52.4792 118.175 52.3513C115.206 52.3449 113.197 51.301 111.915 49.9265C110.65 48.5696 110.137 46.939 110.057 45.8111C110.056 45.7933 110.056 45.7755 110.056 45.7577C110.056 38.0504 111.323 34.1456 112.262 31.2487C112.444 30.6892 112.613 30.1674 112.759 29.6629C110.067 29.08 107.062 27.9922 104.925 26.2961C103.745 25.3592 102.789 24.2039 102.334 22.8047C101.874 21.3887 101.953 19.8052 102.703 18.0832C103.493 16.2689 104.596 14.0286 107.009 12.7841C109.419 11.5412 112.95 11.3802 118.391 13.1848C121.277 13.792 122.962 14.059 124.701 14.1082C126.461 14.1581 128.296 13.9861 131.508 13.6828L131.731 13.6618C133.453 13.4993 136.422 13.2498 138.81 14.3126C140.035 14.8576 141.126 15.755 141.811 17.1792C142.49 18.5909 142.733 20.4442 142.411 22.8418C142.17 24.6396 141.357 26.4108 139.44 27.8834C137.649 29.2598 134.933 30.3461 130.908 31.0124Z" fill="#3A3A3A"/>
<path d="M56.3362 56.3596H91.9963C94.2044 54.531 96.2196 50.4517 95.2537 42.2931C95.6954 39.5547 95.5961 32.531 88.3533 32.8686C91.9963 30.4773 94.1496 25.9761 95.2536 21.4748C96.7453 15.3931 94.7823 12.4087 94.2044 11.6283C89.0982 4.73217 81.0939 9.79964 79.7817 12.7536C79.8184 11.4541 79.7027 10.1724 79.383 8.95567C78.693 5.6735 75.8225 -0.553249 69.8607 0.797131C65.8125 1.80202 55.6461 8.95567 58.5991 29.352C57.4084 30.4553 54.9606 31.6451 53.2815 36.315C52.8198 37.5991 52.4162 39.1463 52.1128 41.0272C51.1635 46.9138 53.2685 53.687 56.3362 56.3596Z" fill="#ECECEC"/>
<path fill-rule="evenodd" clip-rule="evenodd" d="M76.1508 3.53969C77.6141 5.23821 78.4696 7.5104 78.8001 9.08257L78.8033 9.09761L78.8072 9.11247C79.1093 10.262 79.2212 11.4834 79.1858 12.7357C79.1106 15.3974 78.6318 18.4271 77.9589 21.116C77.2817 23.8215 76.4258 26.1094 75.6297 27.3266C75.4471 27.6058 75.5211 27.983 75.7951 28.1692C76.069 28.3553 76.4391 28.2799 76.6217 28.0007C77.5331 26.6072 78.4285 24.1556 79.1141 21.4164C79.7931 18.7034 80.2838 15.6374 80.3736 12.9002C80.6708 12.3041 81.3125 11.554 82.2305 10.8459C83.1914 10.1047 84.4063 9.44766 85.7262 9.0832C87.0443 8.71924 88.4498 8.65126 89.8123 9.06168C91.1685 9.47022 92.5222 10.3645 93.7286 11.9939C94.2167 12.6531 96.1163 15.4521 94.6753 21.327C93.5978 25.7201 91.5319 29.9941 88.1444 32.2816C87.1955 32.4204 85.8037 33.073 84.3049 34.4865C82.7079 35.9927 80.9585 38.3895 79.4407 42.0566L79.4325 42.0764L79.4257 42.0967C78.6742 44.3434 79.1156 46.9056 80.9482 48.407C82.7904 49.9162 85.8186 50.1793 89.8923 48.3339C92.2815 47.2516 93.8646 45.7617 94.8431 44.3374C95.2593 50.856 93.5427 54.1858 91.779 55.7516H56.562C55.2159 54.4945 54.034 52.3256 53.2904 49.728C52.5207 47.0396 52.2428 43.967 52.701 41.1253C52.8483 40.2124 53.0191 39.3821 53.2082 38.6257C53.7797 40.6033 54.5526 42.076 55.5101 43.1865C56.7991 44.6814 58.3742 45.4634 60.089 45.9709C61.2619 46.3179 62.3213 46.2898 63.2354 45.952C64.1476 45.6148 64.8714 44.9855 65.4023 44.2033C66.454 42.6538 66.7769 40.4713 66.3579 38.5064C65.0233 32.2492 62.0631 29.3196 59.1248 28.808C56.4265 9.03594 66.315 2.30672 69.9959 1.38849C72.7129 0.775352 74.7102 1.86751 76.1508 3.53969ZM58.7923 29.9853C61.0889 30.3194 63.8859 32.6368 65.1929 38.7645C65.5538 40.4569 65.2557 42.2833 64.4219 43.512C64.0099 44.1188 63.4749 44.5708 62.829 44.8096C62.1852 45.0475 61.3875 45.0898 60.4214 44.8039C58.8399 44.3359 57.4956 43.6484 56.4056 42.3843C55.3299 41.1368 54.4554 39.2737 53.8983 36.367C54.698 34.204 55.66 32.8544 56.5511 31.9189C57.0103 31.4368 57.4574 31.0575 57.8708 30.7257C57.9755 30.6416 58.0812 30.5583 58.1858 30.4758C58.3975 30.3088 58.605 30.1451 58.7923 29.9853ZM52.6723 36.2447C52.672 36.0964 52.7252 35.9565 52.8163 35.8483C53.6675 33.5805 54.7038 32.1138 55.6957 31.0724C56.2073 30.5354 56.7003 30.1184 57.1332 29.771C57.262 29.6676 57.3818 29.5731 57.4939 29.4847C57.6676 29.3477 57.8224 29.2256 57.9623 29.1085C55.1291 8.70183 65.3512 1.29076 69.7196 0.206384L69.7254 0.20493L69.7313 0.203597C72.9732 -0.530696 75.3901 0.814958 77.0467 2.73788C78.6768 4.63013 79.601 7.10345 79.9627 8.81294C80.1448 9.5095 80.2628 10.2231 80.3264 10.9452C80.6717 10.5768 81.0718 10.2157 81.5111 9.8769C82.5796 9.05262 83.931 8.31994 85.4144 7.9103C86.8997 7.50017 88.5347 7.40968 90.1502 7.89633C91.7719 8.38486 93.3336 9.44314 94.6802 11.2619C95.3479 12.1635 97.3743 15.3333 95.8319 21.6218C94.8552 25.604 93.0489 29.6791 90.0559 32.3228C91.1651 32.4644 92.0947 32.8047 92.8663 33.2988C94.0088 34.0304 94.7569 35.0687 95.232 36.1852C96.1526 38.3484 96.0753 40.8637 95.8554 42.3048C96.8107 50.5194 94.7927 54.8262 92.3722 56.8308L92.208 56.9668H56.1161L55.9488 56.8211C54.2941 55.3794 52.9547 52.8939 52.1459 50.0684C51.3334 47.2304 51.0336 43.9731 51.5246 40.9282C51.8224 39.0816 52.2169 37.5409 52.6723 36.2447ZM94.6752 42.1325C94.0803 43.6657 92.5369 45.806 89.4081 47.2234C85.5327 48.979 83.0408 48.5623 81.6951 47.4598C80.3446 46.3534 79.9284 44.3822 80.5475 42.5087C82.0085 38.9854 83.6643 36.7462 85.1146 35.3784C86.5718 34.0041 87.7927 33.534 88.3943 33.4745C90.1015 33.3972 91.3357 33.7537 92.232 34.3278C93.1314 34.9037 93.7385 35.7292 94.1383 36.6687C94.9363 38.5441 94.8792 40.8097 94.6752 42.1325Z" fill="#3A3A3A"/>
<path d="M80.8274 35.4186C80.8274 38.526 82.5574 41.0452 84.6915 41.0452C86.8256 41.0452 88.5557 38.526 88.5557 35.4186C88.5557 32.3111 86.8256 29.792 84.6915 29.792C82.5574 29.792 80.8274 32.3111 80.8274 35.4186Z" fill="#ECECEC"/>
<path fill-rule="evenodd" clip-rule="evenodd" d="M82.9359 38.7003C82.3931 37.91 82.0196 36.7536 82.0196 35.4186C82.0196 34.0836 82.3931 32.9271 82.9359 32.1368C83.4812 31.3427 84.1203 31.0072 84.6915 31.0072C85.2628 31.0072 85.9018 31.3427 86.4472 32.1368C86.9899 32.9271 87.3635 34.0836 87.3635 35.4186C87.3635 36.7536 86.9899 37.91 86.4472 38.7003C85.9018 39.4944 85.2628 39.83 84.6915 39.83C84.1203 39.83 83.4812 39.4944 82.9359 38.7003ZM84.6915 41.0452C82.5574 41.0452 80.8274 38.526 80.8274 35.4186C80.8274 32.3111 82.5574 29.792 84.6915 29.792C86.8256 29.792 88.5557 32.3111 88.5557 35.4186C88.5557 38.526 86.8256 41.0452 84.6915 41.0452Z" fill="#3A3A3A"/>
<path d="M80.8276 35.419C80.8276 37.4389 82.0015 39.0763 83.4497 39.0763C84.8978 39.0763 86.0718 37.4389 86.0718 35.419C86.0718 33.3991 84.8978 31.7617 83.4497 31.7617C82.0015 31.7617 80.8276 33.3991 80.8276 35.419Z" fill="#3A3A3A"/>
<path fill-rule="evenodd" clip-rule="evenodd" d="M82.5582 37.2881C82.248 36.8556 82.0198 36.1987 82.0198 35.419C82.0198 34.6393 82.248 33.9824 82.5582 33.5499C82.8689 33.1164 83.1985 32.9769 83.4497 32.9769C83.7009 32.9769 84.0304 33.1164 84.3412 33.5499C84.6513 33.9824 84.8796 34.6393 84.8796 35.419C84.8796 36.1987 84.6513 36.8556 84.3412 37.2881C84.0304 37.7216 83.7009 37.8611 83.4497 37.8611C83.1985 37.8611 82.8689 37.7216 82.5582 37.2881ZM83.4497 39.0763C82.0015 39.0763 80.8276 37.4389 80.8276 35.419C80.8276 33.3991 82.0015 31.7617 83.4497 31.7617C84.8978 31.7617 86.0718 33.3991 86.0718 35.419C86.0718 37.4389 84.8978 39.0763 83.4497 39.0763Z" fill="#3A3A3A"/>
<path d="M96.4597 63.3926C97.1448 59.7916 93.7955 57.2034 92.0351 56.3594H74.194V63.3926H96.4597Z" fill="#ECECEC"/>
<path fill-rule="evenodd" clip-rule="evenodd" d="M92.1681 55.752H73.5977V64.0004H96.9512L97.0447 63.5084C97.4317 61.4745 96.6685 59.7482 95.6244 58.456C94.5861 57.1709 93.2322 56.2621 92.2887 55.8097L92.1681 55.752ZM91.8985 56.9671C92.7099 57.3773 93.8414 58.1608 94.7041 59.2285C95.5082 60.2236 96.0481 61.4226 95.9406 62.7852H74.7899V56.9671H91.8985Z" fill="#3A3A3A"/>
<path d="M78.5188 63.3926C79.2039 59.7916 75.8545 57.2034 74.0942 56.3594H56.253V63.3926H78.5188Z" fill="#ECECEC"/>
<path fill-rule="evenodd" clip-rule="evenodd" d="M74.2272 55.752H55.6567V64.0004H79.0102L79.1038 63.5084C79.4908 61.4745 78.7275 59.7482 77.6835 58.456C76.6452 57.1709 75.2913 56.2621 74.3477 55.8097L74.2272 55.752ZM73.9576 56.9671C74.769 57.3773 75.9005 58.1608 76.7632 59.2285C77.5672 60.2236 78.1071 61.4226 77.9997 62.7852H56.8489V56.9671H73.9576Z" fill="#3A3A3A"/>
<path fill-rule="evenodd" clip-rule="evenodd" d="M73.0105 30.3435C71.6145 29.5277 70.0285 29.2002 69.0104 29.1522C68.6815 29.1367 68.4272 28.8525 68.4424 28.5172C68.4576 28.182 68.7366 27.9229 69.0654 27.9384C70.2339 27.9934 72.0124 28.3595 73.6035 29.2893C75.2079 30.227 76.6581 31.7642 77.0322 34.1482C77.0699 34.3888 76.963 34.6292 76.7605 34.7588C76.558 34.8883 76.2992 34.8821 76.1029 34.7428C75.5727 34.3665 74.6067 33.8532 73.4872 33.5805C72.368 33.308 71.1552 33.2896 70.0742 33.8155C69.7771 33.9601 69.4213 33.8318 69.2794 33.529C69.1376 33.2261 69.2635 32.8635 69.5606 32.7189C70.971 32.0327 72.4859 32.0873 73.7643 32.3986C74.3853 32.5498 74.9646 32.7648 75.4695 32.998C74.9497 31.8017 74.0423 30.9465 73.0105 30.3435Z" fill="#3A3A3A"/>
<path fill-rule="evenodd" clip-rule="evenodd" d="M71.5273 35.8505C71.827 35.7117 72.1804 35.8467 72.3167 36.1522C72.6144 36.8199 73.3249 37.7919 74.4616 38.4363C75.5778 39.069 77.1364 39.4045 79.193 38.7756C79.5083 38.6792 79.8406 38.8616 79.9352 39.183C80.0298 39.5044 79.8509 39.8431 79.5356 39.9396C77.176 40.6611 75.2844 40.2932 73.8821 39.4982C72.5002 38.7149 71.6236 37.5347 71.2313 36.6551C71.0951 36.3496 71.2276 35.9894 71.5273 35.8505Z" fill="#3A3A3A"/>
<path d="M62.6013 29.6333C67.2934 23.4745 60.4852 21.4279 57.3571 21.4748C55.193 21.6065 53.4171 22.3674 51.9749 23.4745C51.7541 7.74435 43.6026 1.80202 39.5544 0.797131C33.5926 -0.553249 30.7221 5.6735 30.0321 8.95567C29.7123 10.1724 29.5967 11.4541 29.6334 12.7536C26.5819 10.081 18.8536 6.14236 13.3334 13.5976C12.7555 14.378 10.4353 17.8175 11.5393 22.3188C6.70918 21.4748 -1.70918 27.5234 1.18893 37.2292C2.43698 41.409 8.6763 41.9471 13.3004 40.742C10.1808 48.3474 13.2446 53.6963 14.1615 56.3596H53.0789C55.7286 51.2957 54.229 45.4347 53.7689 43.1372C53.9897 40.3239 59.7492 32.9624 62.6013 29.6333Z" fill="#ECECEC"/>
<path fill-rule="evenodd" clip-rule="evenodd" d="M33.2643 3.53969C31.801 5.23821 30.9455 7.5104 30.615 9.08257L30.6118 9.09761L30.6079 9.11247C30.3058 10.262 30.1939 11.4834 30.2293 12.7357C30.3782 18.005 33.1279 23.6353 34.8063 26.2013C34.9889 26.4805 34.9149 26.8577 34.6409 27.0439C34.367 27.23 33.9969 27.1546 33.8143 26.8754C32.1059 24.2634 29.2895 18.5547 29.0475 13.045C27.5528 11.7943 25.0646 10.3316 22.3345 9.98003C19.5285 9.61865 16.4322 10.4207 13.8092 13.9632C13.2608 14.7038 11.0814 17.9462 12.1177 22.171C12.6561 24.3663 13.504 26.449 14.9215 28.201C16.3337 29.9463 18.3357 31.3941 21.2342 32.2866C21.5493 32.3836 21.7276 32.7227 21.6324 33.0439C21.5372 33.3651 21.2046 33.5469 20.8894 33.4498C17.78 32.4924 15.5728 30.9159 14.0017 28.9741C12.5272 27.1516 11.6348 25.0346 11.0634 22.868C8.92602 22.6764 6.02825 23.8575 3.90635 26.227C1.69208 28.6997 0.375668 32.4183 1.75924 37.0519C2.2928 38.8388 3.90995 39.9262 6.10486 40.4107C8.2208 40.8778 10.7442 40.7465 12.9372 40.2075C13.0782 40.0799 13.2739 40.0252 13.4634 40.0685C14.2874 39.8354 15.0429 39.5466 15.689 39.2173C15.9834 39.0673 16.3415 39.1889 16.4887 39.4891C16.636 39.7892 16.5166 40.1542 16.2221 40.3042C15.4854 40.6797 14.6415 40.9989 13.7398 41.2514C11.2975 47.4653 13.1109 52.04 14.2528 54.9206C14.3696 55.2154 14.4794 55.4924 14.5769 55.7516H52.715C54.8611 51.3201 53.8185 46.309 53.2919 43.7785C53.2529 43.5911 53.2168 43.4172 53.1849 43.2582L53.1681 43.174L53.1748 43.0883C53.2411 42.2437 53.7016 41.1561 54.3191 40.0147C54.9502 38.8483 55.7944 37.5392 56.713 36.2256C58.5463 33.604 60.7056 30.9228 62.1409 29.2466C63.26 27.7736 63.6276 26.6304 63.6054 25.7693C63.5836 24.9272 63.1857 24.2483 62.5309 23.6939C61.8652 23.1302 60.9549 22.7172 59.998 22.4492C59.0508 22.1838 58.1007 22.0724 57.3792 22.0817C55.3458 22.2082 53.6853 22.9218 52.3335 23.9594C49.0257 26.4985 47.531 31.0124 47.1835 33.6523C47.1398 33.9849 46.8398 34.2183 46.5135 34.1737C46.1872 34.1291 45.9581 33.8233 46.0019 33.4908C46.3622 30.7532 47.8792 26.0209 51.3736 23.1805C51.0572 7.92077 43.1426 2.31656 39.4192 1.3885C36.7023 0.775345 34.7049 1.8675 33.2643 3.53969ZM52.5418 22.3523C51.9576 7.21099 43.9439 1.26097 39.6955 0.206383L39.6897 0.20493L39.6838 0.203597C36.4419 -0.530696 34.025 0.814958 32.3684 2.73788C30.7383 4.63013 29.8142 7.10345 29.4524 8.81294C29.2224 9.69293 29.0946 10.6001 29.0496 11.5173C27.4143 10.3247 25.0675 9.10718 22.4839 8.77444C19.2828 8.36216 15.7548 9.31838 12.8576 13.2312C12.286 14.0032 10.0722 17.27 10.7909 21.6351C8.26203 21.5612 5.2173 22.9606 3.02579 25.4078C0.547869 28.1749 -0.895846 32.3335 0.61869 37.4057C1.33318 39.7986 3.45972 41.0701 5.85251 41.5983C7.89253 42.0487 10.2277 41.9885 12.3445 41.5799C10.1566 47.8911 12.0537 52.6432 13.1562 55.4052C13.3299 55.8402 13.4838 56.2258 13.599 56.5604L13.7389 56.9668H53.4366L53.6049 56.6451C56.1806 51.7226 55.0003 46.1035 54.4619 43.5408C54.4289 43.3838 54.3984 43.2383 54.3712 43.1051C54.4395 42.5405 54.7779 41.6831 55.3631 40.6015C55.9632 39.4923 56.7785 38.2255 57.6838 36.9309C59.4936 34.3431 61.6334 31.6864 63.0503 30.0326L63.0616 30.0194L63.0721 30.0056C64.2909 28.4058 64.8295 26.988 64.7972 25.7373C64.7643 24.465 64.1445 23.4803 63.2927 22.7591C62.4518 22.0471 61.3669 21.5724 60.314 21.2774C59.2574 20.9814 58.1893 20.8543 57.3484 20.8669L57.335 20.8671L57.3216 20.8679C55.4745 20.9803 53.889 21.5279 52.5418 22.3523Z" fill="#3A3A3A"/>
<path d="M28.6521 34.4156C28.6521 37.5231 26.9221 40.0422 24.788 40.0422C22.6539 40.0422 20.9238 37.5231 20.9238 34.4156C20.9238 31.3082 22.6539 28.7891 24.788 28.7891C26.9221 28.7891 28.6521 31.3082 28.6521 34.4156Z" fill="#ECECEC"/>
<path fill-rule="evenodd" clip-rule="evenodd" d="M26.5436 37.6974C27.0864 36.9071 27.4599 35.7506 27.4599 34.4156C27.4599 33.0807 27.0864 31.9242 26.5436 31.1339C25.9983 30.3398 25.3592 30.0042 24.788 30.0042C24.2167 30.0042 23.5777 30.3398 23.0323 31.1339C22.4896 31.9242 22.116 33.0807 22.116 34.4156C22.116 35.7506 22.4896 36.9071 23.0323 37.6974C23.5777 38.4915 24.2167 38.827 24.788 38.827C25.3592 38.827 25.9983 38.4915 26.5436 37.6974ZM24.788 40.0422C26.9221 40.0422 28.6521 37.5231 28.6521 34.4156C28.6521 31.3082 26.9221 28.7891 24.788 28.7891C22.6539 28.7891 20.9238 31.3082 20.9238 34.4156C20.9238 37.5231 22.6539 40.0422 24.788 40.0422Z" fill="#3A3A3A"/>
<path d="M28.6519 34.4151C28.6519 36.4349 27.478 38.0724 26.0298 38.0724C24.5817 38.0724 23.4077 36.4349 23.4077 34.4151C23.4077 32.3952 24.5817 30.7578 26.0298 30.7578C27.478 30.7578 28.6519 32.3952 28.6519 34.4151Z" fill="#3A3A3A"/>
<path fill-rule="evenodd" clip-rule="evenodd" d="M26.9213 36.2842C27.2315 35.8517 27.4597 35.1948 27.4597 34.4151C27.4597 33.6354 27.2315 32.9785 26.9213 32.546C26.6106 32.1125 26.281 31.973 26.0298 31.973C25.7786 31.973 25.4491 32.1125 25.1383 32.546C24.8282 32.9785 24.5999 33.6354 24.5999 34.4151C24.5999 35.1948 24.8282 35.8517 25.1383 36.2842C25.4491 36.7177 25.7786 36.8572 26.0298 36.8572C26.281 36.8572 26.6106 36.7177 26.9213 36.2842ZM26.0298 38.0724C27.478 38.0724 28.6519 36.4349 28.6519 34.4151C28.6519 32.3952 27.478 30.7578 26.0298 30.7578C24.5817 30.7578 23.4077 32.3952 23.4077 34.4151C23.4077 36.4349 24.5817 38.0724 26.0298 38.0724Z" fill="#3A3A3A"/>
<path d="M37.4841 31.8834C37.4841 34.9909 35.7541 37.51 33.62 37.51C31.4859 37.51 29.7559 34.9909 29.7559 31.8834C29.7559 28.7759 31.4859 26.2568 33.62 26.2568C35.7541 26.2568 37.4841 28.7759 37.4841 31.8834Z" fill="#ECECEC"/>
<path fill-rule="evenodd" clip-rule="evenodd" d="M35.3757 35.1651C35.9184 34.3749 36.2919 33.2184 36.2919 31.8834C36.2919 30.5484 35.9184 29.392 35.3757 28.6017C34.8303 27.8076 34.1912 27.472 33.62 27.472C33.0488 27.472 32.4097 27.8076 31.8643 28.6017C31.3216 29.392 30.9481 30.5484 30.9481 31.8834C30.9481 33.2184 31.3216 34.3749 31.8643 35.1651C32.4097 35.9593 33.0488 36.2948 33.62 36.2948C34.1912 36.2948 34.8303 35.9593 35.3757 35.1651ZM33.62 37.51C35.7541 37.51 37.4841 34.9909 37.4841 31.8834C37.4841 28.7759 35.7541 26.2568 33.62 26.2568C31.4859 26.2568 29.7559 28.7759 29.7559 31.8834C29.7559 34.9909 31.4859 37.51 33.62 37.51Z" fill="#3A3A3A"/>
<path d="M37.4844 31.8838C37.4844 33.9037 36.3105 35.5411 34.8623 35.5411C33.4142 35.5411 32.2402 33.9037 32.2402 31.8838C32.2402 29.864 33.4142 28.2266 34.8623 28.2266C36.3105 28.2266 37.4844 29.864 37.4844 31.8838Z" fill="#3A3A3A"/>
<path fill-rule="evenodd" clip-rule="evenodd" d="M35.7539 33.753C36.064 33.3204 36.2922 32.6635 36.2922 31.8838C36.2922 31.1042 36.064 30.4473 35.7539 30.0147C35.4431 29.5813 35.1135 29.4417 34.8623 29.4417C34.6111 29.4417 34.2816 29.5813 33.9708 30.0147C33.6607 30.4473 33.4324 31.1042 33.4324 31.8838C33.4324 32.6635 33.6607 33.3204 33.9708 33.753C34.2816 34.1864 34.6111 34.3259 34.8623 34.3259C35.1135 34.3259 35.4431 34.1864 35.7539 33.753ZM34.8623 35.5411C36.3105 35.5411 37.4844 33.9037 37.4844 31.8838C37.4844 29.864 36.3105 28.2266 34.8623 28.2266C33.4142 28.2266 32.2402 29.864 32.2402 31.8838C32.2402 33.9037 33.4142 35.5411 34.8623 35.5411Z" fill="#3A3A3A"/>
<path fill-rule="evenodd" clip-rule="evenodd" d="M40.8543 36.0136C41.0555 36.2792 41.0073 36.6608 40.7468 36.8659C31.9054 43.8243 24.7099 43.4793 22.0626 42.2859C21.7616 42.1501 21.6254 41.7913 21.7586 41.4844C21.8918 41.1776 22.2438 41.0388 22.5449 41.1746C24.6818 42.138 31.4157 42.6745 40.0181 35.9041C40.2787 35.699 40.6531 35.748 40.8543 36.0136Z" fill="#3A3A3A"/>
<path d="M9.70633 63.3926C8.96202 59.7916 12.6009 57.2034 14.5133 56.3594H33.8963V63.3926H9.70633Z" fill="#ECECEC"/>
<path d="M9.22257 64.0004L9.12287 63.518C8.69792 61.4621 9.53881 59.7248 10.6691 58.4371C11.7949 57.1547 13.2602 56.2504 14.2763 55.802L14.3897 55.752H34.4923L33.3 56.9671H14.6393C13.7482 57.3788 12.5035 58.1699 11.5576 59.2474C10.6799 60.2473 10.1021 61.4389 10.2187 62.7852H33.3L34.4923 64.0004H9.22257Z" fill="#3A3A3A"/>
<path d="M29.0271 63.3926C28.2828 59.7916 31.9217 57.2034 33.8341 56.3594H53.2171V63.3926H29.0271Z" fill="#ECECEC"/>
<path fill-rule="evenodd" clip-rule="evenodd" d="M33.7105 55.752H53.8131V64.0004H28.5434L28.4437 63.518C28.0187 61.4621 28.8596 59.7248 29.9899 58.4371C31.1157 57.1547 32.581 56.2504 33.5971 55.802L33.7105 55.752ZM33.9601 56.9671C33.069 57.3788 31.8243 58.1699 30.8784 59.2474C30.0007 60.2473 29.4229 61.4389 29.5395 62.7852H52.6209V56.9671H33.9601Z" fill="#3A3A3A"/>
</svg>
