<svg width="24" height="28" viewBox="0 0 24 28" fill="none" xmlns="http://www.w3.org/2000/svg">
<path d="M12.034 27.3328C12.4169 27.3328 12.784 27.1783 13.0547 26.9033C13.3254 26.6283 13.4775 26.2553 13.4775 25.8664V5.94277L21.1164 13.7063C21.3875 13.9817 21.7551 14.1364 22.1384 14.1364C22.5217 14.1364 22.8893 13.9817 23.1604 13.7063C23.4314 13.4309 23.5837 13.0575 23.5837 12.668C23.5837 12.2786 23.4314 11.9051 23.1604 11.6298L13.056 1.36443C12.9219 1.22786 12.7627 1.11951 12.5873 1.04558C12.4119 0.971648 12.2239 0.933594 12.034 0.933594C11.8442 0.933594 11.6562 0.971648 11.4808 1.04558C11.3054 1.11951 11.1461 1.22786 11.0121 1.36443L0.907694 11.6298C0.773485 11.7661 0.667026 11.928 0.594392 12.1061C0.521759 12.2843 0.484375 12.4752 0.484375 12.668C0.484375 13.0575 0.636647 13.4309 0.907694 13.7063C1.17874 13.9817 1.54636 14.1364 1.92968 14.1364C2.313 14.1364 2.68062 13.9817 2.95166 13.7063L10.5906 5.94277V25.8664C10.5906 26.2553 10.7426 26.6283 11.0133 26.9033C11.2841 27.1783 11.6512 27.3328 12.034 27.3328Z" fill="white"/>
</svg>
