<svg width="173" height="87" viewBox="0 0 173 87" fill="none" xmlns="http://www.w3.org/2000/svg">
<path d="M108.978 20.8422C113.345 15.2619 117.572 11.6295 119.14 10.5108C120.19 9.8258 122.564 8.50747 124.702 9.50177C126.169 10.1836 127.362 10.8136 127.877 14.5733C128.588 19.7727 127.754 23.7719 127.039 28.4905C126.668 30.9397 125.131 32.6969 122.513 31.7796C121.52 31.3677 118.682 29.5467 120.134 26.4212C117.927 25.932 116.299 24.926 115.46 24.1688C113.096 28.2382 110.484 26.386 109.184 25.2823C107.686 23.6269 108.304 21.6771 108.978 20.8422Z" fill="#3A3A3A"/>
<path fill-rule="evenodd" clip-rule="evenodd" d="M119.445 10.9685C117.916 12.0618 113.734 15.6531 109.406 21.1847C109.405 21.187 109.403 21.1893 109.401 21.1915C108.842 21.8835 108.335 23.4985 109.563 24.8823C110.209 25.4279 111.058 26.0387 111.968 26.1143C112.803 26.1837 113.875 25.807 114.99 23.8882C115.072 23.7456 115.214 23.6481 115.375 23.6224C115.537 23.5968 115.701 23.6457 115.823 23.7558C116.572 24.4312 118.052 25.36 120.08 25.8416C120.181 25.8285 120.286 25.8436 120.385 25.8913C120.403 25.9002 120.421 25.91 120.438 25.9206C120.779 25.9904 121.134 26.0471 121.502 26.0878C121.801 26.1209 122.018 26.3937 121.985 26.697C121.952 27.0003 121.683 27.2194 121.383 27.1863C121.069 27.1515 120.764 27.1061 120.467 27.0515C120.06 28.2141 120.353 29.1105 120.847 29.79C121.416 30.5737 122.267 31.0768 122.707 31.2621C123.858 31.6616 124.686 31.4575 125.272 30.9702C125.89 30.4558 126.326 29.5518 126.499 28.4062C126.584 27.8453 126.671 27.2961 126.756 26.7553C127.39 22.7177 127.952 19.1474 127.336 14.6485C127.085 12.8126 126.678 11.8249 126.215 11.2214C125.759 10.6253 125.206 10.3436 124.475 10.0033C123.566 9.58072 122.583 9.63742 121.665 9.90669C120.752 10.1744 119.952 10.6387 119.445 10.9685ZM119.397 26.8062C118.918 28.2949 119.302 29.5291 119.968 30.4449C120.696 31.4478 121.749 32.0588 122.307 32.2903C122.316 32.2942 122.325 32.2978 122.335 32.3012C123.793 32.8121 125.037 32.5959 125.965 31.8237C126.863 31.0765 127.381 29.8772 127.578 28.5737C127.662 28.0195 127.748 27.4736 127.833 26.9331C128.468 22.9011 129.056 19.1681 128.417 14.4969C128.154 12.5732 127.708 11.3661 127.078 10.5442C126.442 9.71486 125.665 9.34068 124.93 8.99915C123.701 8.42744 122.427 8.53275 121.361 8.84534C120.296 9.1578 119.389 9.69093 118.844 10.0458C118.838 10.05 118.832 10.0543 118.825 10.0587C117.211 11.2105 112.948 14.8795 108.553 20.4954C107.768 21.4708 107.045 23.7361 108.782 25.655C108.798 25.6728 108.815 25.6895 108.834 25.7051C109.484 26.2573 110.579 27.1076 111.878 27.2155C113.142 27.3205 114.43 26.7223 115.594 24.9884C116.461 25.642 117.759 26.3554 119.397 26.8062ZM123.039 15.8206C123.157 16.1011 123.029 16.4258 122.752 16.5458C122.29 16.7458 121.783 17.0342 121.276 17.5933C120.765 18.157 120.232 19.0211 119.763 20.4026C119.665 20.6912 119.355 20.8447 119.07 20.7454C118.785 20.6462 118.633 20.3319 118.731 20.0433C119.237 18.5532 119.838 17.5464 120.472 16.8462C121.111 16.1415 121.761 15.7731 122.322 15.5299C122.599 15.4099 122.92 15.54 123.039 15.8206Z" fill="#3A3A3A"/>
<path d="M95.5186 19.5948C96.0228 13.8105 98.3843 8.46851 99.502 6.52052C100.094 5.43039 101.647 4.01498 104.238 4.22912C107.777 4.52145 113.411 5.76312 113.779 10.868C113.77 13.2774 113.097 16.9886 107.93 17.1857C110.364 18.8529 111.751 20.6749 111.988 22.6778C112.144 23.9901 110.997 27.2416 106.558 25.3448C105.528 24.8573 103.683 23.3278 102.671 21.8792C101.896 25.0358 99.4102 25.1329 98.2438 24.8389C95.2975 24.4613 95.3579 21.4378 95.5186 19.5948Z" fill="#3A3A3A"/>
<path fill-rule="evenodd" clip-rule="evenodd" d="M109.949 6.23573C108.146 5.29982 105.937 4.9241 104.194 4.78006C101.845 4.58598 100.483 5.86101 99.9803 6.78685C99.9782 6.7907 99.9761 6.79453 99.9739 6.79834C98.885 8.69602 96.5576 13.9602 96.0622 19.6436C95.982 20.5634 95.9395 21.679 96.2348 22.5952C96.3792 23.0432 96.5979 23.4215 96.9149 23.7066C97.2285 23.9887 97.6705 24.2088 98.3123 24.291C98.3337 24.2938 98.3548 24.2978 98.3757 24.303C98.8759 24.4291 99.6602 24.4679 100.386 24.147C101.042 23.8569 101.711 23.2471 102.079 21.9806C101.799 21.5485 101.576 21.0979 101.474 20.6586C101.405 20.3616 101.586 20.0641 101.88 19.994C102.173 19.924 102.467 20.108 102.536 20.405C102.601 20.6853 102.763 21.0273 103.015 21.4108C103.101 21.4785 103.164 21.5706 103.198 21.6741C103.665 22.3162 104.308 22.9825 104.964 23.5539C105.658 24.1593 106.33 24.625 106.78 24.8402C108.871 25.7309 110.021 25.3539 110.634 24.802C111.302 24.2003 111.506 23.2489 111.447 22.744C111.241 21.0062 110.049 19.339 107.767 17.7422C106.888 17.7345 105.784 17.4809 104.691 17.0486C103.575 16.6073 102.429 15.9631 101.505 15.1496C101.278 14.9493 101.254 14.6003 101.452 14.3701C101.65 14.1399 101.994 14.1157 102.222 14.3159C103.031 15.0289 104.062 15.6135 105.088 16.0194C106.115 16.4258 107.096 16.6363 107.802 16.6374C107.838 16.6364 107.874 16.6352 107.91 16.6339C110.348 16.5409 111.631 15.6334 112.333 14.553C113.056 13.4416 113.227 12.0534 113.233 10.8876C113.06 8.59438 111.725 7.15834 109.949 6.23573ZM109.378 17.5829C111.271 17.2266 112.492 16.3189 113.245 15.1606C114.148 13.7715 114.32 12.1095 114.324 10.8702C114.325 10.8562 114.324 10.8421 114.323 10.8281C114.121 8.0286 112.458 6.29727 110.447 5.25255C108.455 4.21833 106.078 3.82705 104.283 3.67875C101.453 3.44493 99.71 4.99544 99.027 6.24883C97.8792 8.2516 95.4875 13.6669 94.975 19.5465C94.8945 20.4697 94.8264 21.7874 95.1973 22.938C95.386 23.5235 95.6947 24.0871 96.19 24.5327C96.6823 24.9755 97.3273 25.2731 98.1437 25.3831C98.8109 25.545 99.8359 25.596 100.823 25.1596C101.636 24.7999 102.38 24.1279 102.867 23.0135C103.293 23.5037 103.775 23.9755 104.252 24.3914C104.985 25.0307 105.748 25.5713 106.327 25.8456C106.33 25.847 106.334 25.8485 106.337 25.8498C106.34 25.8513 106.343 25.8527 106.346 25.8541C108.688 26.8548 110.329 26.5548 111.359 25.6279C112.334 24.75 112.626 23.4196 112.53 22.6123C112.309 20.744 111.197 19.0778 109.378 17.5829ZM107.519 8.93441C107.7 9.17828 107.652 9.52464 107.411 9.70803C107.052 9.9816 106.761 10.2154 106.508 10.554C106.259 10.8875 106.028 11.3518 105.855 12.0966C105.786 12.3937 105.493 12.5778 105.199 12.508C104.906 12.4382 104.724 12.1408 104.793 11.8437C104.994 10.9789 105.28 10.3665 105.637 9.88826C105.99 9.41497 106.391 9.10176 106.755 8.82491C106.996 8.64151 107.338 8.69054 107.519 8.93441Z" fill="#3A3A3A"/>
<path d="M93.7321 3.57931C91.5371 3.45923 90.2865 5.86947 90.1593 6.87865C89.1138 11.3044 88.5721 15.9247 87.9687 20.387C87.5597 23.4123 89.4103 24.7295 91.048 24.924C94.9382 25.3858 95.4203 22.2515 95.5353 21.3942C96.1262 16.625 96.7826 11.3259 96.8666 7.43254C96.8973 4.31484 94.7897 3.56468 93.7321 3.57931Z" fill="#3A3A3A"/>
<path fill-rule="evenodd" clip-rule="evenodd" d="M95.3502 4.74848C94.8119 4.27582 94.1573 4.12578 93.7398 4.13156C93.7275 4.13173 93.7152 4.13148 93.7029 4.13081C92.8304 4.08307 92.1197 4.53171 91.5852 5.16443C91.0407 5.80901 90.749 6.56611 90.7008 6.94842C90.6983 6.96811 90.6948 6.98766 90.6902 7.00697C89.7929 10.8058 89.2694 14.749 88.7527 18.6421C88.6719 19.2501 88.5914 19.8569 88.5096 20.4617C88.3227 21.844 88.6564 22.7647 89.1563 23.3584C89.6671 23.9649 90.4028 24.2909 91.1118 24.375C92.8821 24.5852 93.7779 23.9834 94.2721 23.3207C94.8002 22.6124 94.9378 21.7438 94.9944 21.3225C95.5863 16.5449 96.2377 11.281 96.3212 7.42362C96.3345 6.00586 95.8679 5.20317 95.3502 4.74848ZM96.0653 3.91375C96.8576 4.60956 97.4292 5.73992 97.4125 7.43785L97.4124 7.44441C97.3278 11.3662 96.6687 16.6867 96.0799 21.4395L96.077 21.4628L96.0763 21.4684C96.0177 21.9053 95.8561 23.0303 95.1431 23.9865C94.3949 24.9898 93.1046 25.7242 90.9847 25.4725C90.056 25.3622 89.0475 24.9323 88.3258 24.0753C87.5933 23.2054 87.2062 21.9549 87.4283 20.3119C87.5095 19.7118 87.5896 19.108 87.6701 18.5014C88.1849 14.6212 88.715 10.6263 89.6224 6.77691C89.7105 6.14994 90.1055 5.21599 90.7558 4.44621C91.4241 3.65517 92.4299 2.96147 93.7436 3.02649C94.3831 3.0221 95.3005 3.24215 96.0653 3.91375Z" fill="#3A3A3A"/>
<path d="M71.6282 21.2725C70.7857 15.5172 71.8391 9.75609 72.4711 7.59495C72.792 6.39351 74.051 4.04217 76.5199 4.24831C77.6336 4.29744 79.8896 4.98114 80.0327 7.43922C81.0484 6.35495 82.5582 5.28444 84.7427 4.88845L84.7433 4.88838C85.5426 4.79247 87.6359 4.5413 88.2652 6.73849C88.9976 9.29555 89.254 12.8093 81.3263 14.6477C86.9749 15.1606 88.0608 17.9707 88.2699 19.1356C88.7799 21.0773 88.5104 25.0614 83.7861 24.2566C82.6736 24.0229 80.4286 22.9717 79.0719 21.7986C79.0654 25.0864 76.6651 25.7545 75.4665 25.7421C72.5333 26.067 71.6855 22.8977 71.6282 21.2725Z" fill="#3A3A3A"/>
<path fill-rule="evenodd" clip-rule="evenodd" d="M74.0869 5.7728C73.4967 6.40636 73.1396 7.20818 72.9978 7.73911C72.9967 7.74333 72.9955 7.74754 72.9942 7.75174C72.3785 9.85737 71.3399 15.5353 72.1679 21.1914C72.1709 21.2117 72.1728 21.2322 72.1735 21.2527C72.2 22.0035 72.4122 23.099 72.9324 23.947C73.1888 24.3649 73.509 24.7054 73.902 24.9262C74.2895 25.1438 74.7781 25.2625 75.4071 25.1929C75.4286 25.1905 75.4503 25.1894 75.4719 25.1896C75.987 25.1949 76.7577 25.0504 77.3864 24.5677C77.9543 24.1316 78.4628 23.3775 78.5207 22.0423C78.1454 21.6931 77.821 21.3107 77.6216 20.9076C77.4867 20.6347 77.5958 20.3028 77.8653 20.1662C78.1347 20.0296 78.4626 20.14 78.5975 20.4129C78.7367 20.6943 79.0169 21.0246 79.4262 21.3784C80.0595 21.926 80.918 22.4588 81.7638 22.8853C82.6086 23.3113 83.3954 23.6085 83.887 23.7135C84.9918 23.9002 85.7806 23.7981 86.3396 23.5598C86.8927 23.3239 87.2636 22.9367 87.5083 22.4678C88.0152 21.4968 87.9774 20.1718 87.7424 19.2775C87.7387 19.2633 87.7355 19.2488 87.7329 19.2343C87.6446 18.7422 87.3666 17.8702 86.4733 17.0582C85.5787 16.2451 84.0168 15.4467 81.2775 15.198C80.8139 15.1559 80.3169 15.1296 79.7841 15.1217C79.4827 15.1172 79.242 14.8662 79.2465 14.5611C79.2509 14.256 79.4988 14.0123 79.8001 14.0168C80.3255 14.0246 80.8208 14.0495 81.2877 14.0897C85.1419 13.1834 86.8581 11.9043 87.5737 10.681C88.2875 9.4608 88.0984 8.13995 87.741 6.89231C87.4846 5.99687 86.961 5.63933 86.4202 5.48531C85.8429 5.32093 85.2294 5.3865 84.8231 5.43509C82.7815 5.80898 81.3768 6.80718 80.4286 7.81936C79.7685 8.52399 79.3289 9.23674 79.0548 9.75207C78.9119 10.0207 78.581 10.1212 78.3156 9.97656C78.0503 9.83189 77.951 9.49682 78.0939 9.22817C78.3752 8.69926 78.8161 7.9776 79.4671 7.24487C79.3532 6.34439 78.8917 5.77225 78.3385 5.40074C77.7184 4.98421 76.9782 4.82148 76.4961 4.80022C76.4891 4.79991 76.482 4.79946 76.475 4.79887C75.4438 4.71277 74.6654 5.15175 74.0869 5.7728ZM80.3801 6.34825C81.4168 5.46265 82.8091 4.67761 84.6465 4.34454C84.657 4.34264 84.6676 4.34104 84.6782 4.33977L84.6969 4.33752C85.0968 4.28946 85.9088 4.19186 86.7157 4.42161C87.5786 4.66733 88.4164 5.28279 88.7892 6.58455C89.1643 7.89396 89.4696 9.60854 88.5127 11.2441C87.7705 12.5129 86.3259 13.6375 83.8141 14.5127C85.3555 14.9215 86.441 15.544 87.2024 16.236C88.3044 17.2376 88.6779 18.34 88.8027 19.0148C89.0734 20.063 89.1501 21.6876 88.4732 22.9841C88.1239 23.6534 87.5734 24.2326 86.7632 24.5781C85.9606 24.9204 84.9474 25.0146 83.6955 24.8014C83.6929 24.801 83.6903 24.8005 83.6877 24.8C83.6835 24.7992 83.6793 24.7984 83.6751 24.7975C83.0535 24.6669 82.1665 24.3228 81.2772 23.8744C80.6912 23.5788 80.0844 23.2281 79.5321 22.8453C79.3245 24.0625 78.7576 24.9016 78.0459 25.4481C77.187 26.1076 76.177 26.2956 75.4936 26.2947C74.6698 26.38 73.9631 26.2241 73.3726 25.8924C72.7799 25.5595 72.3347 25.067 72.0053 24.53C71.3617 23.481 71.1194 22.1975 71.084 21.3235C70.2357 15.4845 71.2987 9.6617 71.946 7.44418C72.1261 6.77389 72.5585 5.80305 73.2929 5.01465C74.0396 4.21316 75.1217 3.58067 76.5542 3.69677C77.1857 3.72643 78.1244 3.93091 78.9419 4.47995C79.5559 4.89234 80.0982 5.49927 80.3801 6.34825Z" fill="#3A3A3A"/>
<path d="M73.2048 15.4942C73.4358 21.467 69.8169 26.4599 65.1218 26.646C60.4266 26.8321 56.4332 22.1411 56.2022 16.1683C55.9712 10.1954 59.5901 5.20262 64.2852 5.01648C68.9804 4.83034 72.9738 9.52138 73.2048 15.4942Z" fill="#3A3A3A"/>
<path fill-rule="evenodd" clip-rule="evenodd" d="M65.0595 11.5252C65.3272 11.6653 65.4321 11.9986 65.2937 12.2697C64.8316 13.1751 64.1279 15.7311 65.2027 18.3665C65.3177 18.6485 65.1851 18.9716 64.9065 19.088C64.628 19.2045 64.3089 19.0703 64.1939 18.7882C62.9675 15.7811 63.7537 12.8801 64.3242 11.7624C64.4625 11.4913 64.7917 11.3852 65.0595 11.5252ZM65.0791 25.5419C68.9529 25.3883 72.3313 21.1489 72.1143 15.5374C71.8973 9.92596 68.2017 5.96703 64.3279 6.12061C60.4542 6.27418 57.0757 10.5136 57.2928 16.125C57.5098 21.7365 61.2053 25.6955 65.0791 25.5419ZM65.1218 26.646C69.8169 26.4599 73.4358 21.467 73.2048 15.4942C72.9738 9.52138 68.9804 4.83034 64.2852 5.01648C59.5901 5.20262 55.9712 10.1955 56.2022 16.1683C56.4332 22.1411 60.4266 26.8321 65.1218 26.646Z" fill="#3A3A3A"/>
<path d="M44.3379 9.91721C38.1139 10.3911 37.7606 13.1753 37.7025 15.3356C37.6008 19.1094 42.062 19.2336 45.1539 18.5632C45.4368 20.4662 45.0933 22.6397 47.117 27.6148C47.5883 28.5723 49.2447 30.1896 52.0998 28.9991C53.7839 28.4442 56.7421 26.3269 56.2635 23.1381C55.785 19.9494 54.9769 18.2753 53.8171 15.7152C57.96 13.2236 58.5678 11.1287 58.123 9.39905C56.8572 4.47619 53.0828 6.37014 51.3683 7.28047L51.2592 7.33837C48.1249 9.00269 47.5661 9.29942 44.3379 9.91721Z" fill="#3A3A3A"/>
<path fill-rule="evenodd" clip-rule="evenodd" d="M39.1212 12.3555C38.3829 13.2221 38.2768 14.2795 38.248 15.3514C38.2257 16.1763 38.4505 16.7524 38.8026 17.1665C39.1632 17.5905 39.6995 17.8938 40.3767 18.0844C41.7443 18.4691 43.5328 18.3504 45.0396 18.0237C45.2979 17.9677 45.4475 17.9045 45.599 17.8287C45.637 17.8096 45.6797 17.7872 45.727 17.7624C45.8676 17.6885 46.0496 17.5929 46.2757 17.4987C46.5544 17.3825 46.8733 17.517 46.9881 17.7991C47.1028 18.0813 46.97 18.4042 46.6913 18.5204C46.5127 18.5948 46.3946 18.6569 46.2659 18.7246C46.2089 18.7545 46.1499 18.7855 46.0827 18.8192C45.9805 18.8704 45.8745 18.9189 45.7538 18.9641C45.7865 19.2769 45.8092 19.596 45.8332 19.9319C45.9513 21.5894 46.0984 23.6545 47.6136 27.3856C47.8039 27.7617 48.245 28.2958 48.937 28.6086C49.619 28.917 50.5907 29.0315 51.892 28.4889C51.9048 28.4836 51.9178 28.4787 51.931 28.4744C52.6886 28.2248 53.7658 27.6074 54.5879 26.6865C55.4014 25.7751 55.9322 24.6084 55.7241 23.2218C55.2879 20.3158 54.5788 18.7179 53.5387 16.4259C53.0847 16.6053 52.5636 16.7857 51.9659 16.8974C51.6696 16.9529 51.385 16.7545 51.3302 16.4545C51.2755 16.1544 51.4714 15.8663 51.7677 15.8108C52.4503 15.6832 53.0216 15.4499 53.5724 15.2204C55.5834 14.0062 56.6752 12.9246 57.2208 11.9908C57.755 11.0763 57.7838 10.2732 57.595 9.53892C57.2963 8.3775 56.8663 7.68362 56.4131 7.2776C55.9675 6.87841 55.4548 6.71713 54.9024 6.70535C53.7478 6.68072 52.4967 7.30587 51.6217 7.77042C51.6217 7.77043 51.6217 7.77042 51.6217 7.77042L51.4807 7.84533C49.9425 8.66207 48.9933 9.16615 48.0275 9.53742C47.0457 9.91485 46.06 10.1506 44.4393 10.4608C44.4193 10.4646 44.3992 10.4673 44.3789 10.4688C41.3298 10.701 39.8581 11.4907 39.1212 12.3555ZM54.5158 15.9322C55.5713 18.2571 56.3409 19.9766 56.8031 23.0558C57.0735 24.8579 56.3644 26.3443 55.3975 27.4274C54.4459 28.4935 53.2129 29.2096 52.2886 29.5185C50.7434 30.1577 49.4659 30.0579 48.492 29.6176C47.5344 29.1847 46.9144 28.4425 46.6286 27.862C46.6228 27.8501 46.6174 27.8381 46.6124 27.8259C45.0158 23.9007 44.8559 21.6281 44.7386 19.962C44.7202 19.7008 44.7029 19.4545 44.6812 19.219C43.2112 19.4761 41.5017 19.5477 40.0845 19.149C39.2727 18.9206 38.5195 18.5271 37.9755 17.8874C37.4232 17.2379 37.1284 16.3832 37.157 15.3213C37.1863 14.2327 37.2859 12.8179 38.2948 11.6338C39.3018 10.4518 41.1103 9.6141 44.2664 9.36931C45.8553 9.06464 46.7574 8.84375 47.6401 8.5044C48.5376 8.15935 49.4285 7.68732 51.0058 6.84976L51.1148 6.79186C51.9544 6.34608 53.4477 5.56909 54.9254 5.60062C55.6892 5.61691 56.4646 5.84829 57.1363 6.45009C57.8004 7.04507 58.3169 7.96051 58.6512 9.26053C58.9071 10.2558 58.8543 11.365 58.1601 12.5533C57.5266 13.6377 56.377 14.7577 54.5158 15.9322Z" fill="#3A3A3A"/>
<path d="M109.21 19.0151C113.576 13.4348 117.803 9.80235 119.371 8.68369C120.421 7.99866 122.795 6.68032 124.933 7.67462C126.4 8.35642 127.594 8.98648 128.108 12.7461C128.819 17.9455 127.985 21.9447 127.27 26.6634C126.899 29.1125 125.362 30.8698 122.745 29.9525C121.752 29.5405 118.913 27.7196 120.366 24.5941C118.158 24.1048 116.53 23.0989 115.691 22.3416C113.327 26.411 110.715 24.5588 109.415 23.4552C107.917 21.7997 108.535 19.85 109.21 19.0151Z" fill="#ECECEC"/>
<path fill-rule="evenodd" clip-rule="evenodd" d="M119.676 9.14237C118.147 10.2356 113.966 13.8269 109.638 19.3586C109.636 19.3609 109.634 19.3631 109.632 19.3654C109.073 20.0573 108.566 21.6723 109.794 23.0562C110.44 23.6017 111.289 24.2125 112.199 24.2881C113.034 24.3575 114.106 23.9808 115.221 22.062C115.304 21.9194 115.445 21.8219 115.607 21.7963C115.768 21.7706 115.932 21.8195 116.054 21.9296C116.803 22.605 118.283 23.5338 120.311 24.0154C120.412 24.0023 120.517 24.0175 120.616 24.0651C120.634 24.074 120.652 24.0838 120.669 24.0945C121.01 24.1642 121.365 24.2209 121.733 24.2616C122.033 24.2948 122.249 24.5675 122.216 24.8708C122.184 25.1742 121.914 25.3932 121.615 25.3601C121.3 25.3253 120.995 25.2799 120.698 25.2253C120.291 26.388 120.584 27.2843 121.078 27.9639C121.647 28.7476 122.499 29.2507 122.938 29.4359C124.09 29.8354 124.918 29.6313 125.503 29.144C126.121 28.6296 126.557 27.7257 126.731 26.58C126.816 26.0191 126.902 25.4699 126.987 24.9291C127.622 20.8915 128.183 17.3212 127.567 12.8223C127.316 10.9865 126.909 9.99871 126.447 9.39524C125.99 8.79915 125.438 8.5174 124.706 8.17713C123.797 7.75454 122.814 7.81125 121.896 8.08051C120.983 8.34821 120.183 8.81258 119.676 9.14237ZM119.628 24.98C119.15 26.4687 119.533 27.703 120.199 28.6187C120.927 29.6216 121.98 30.2326 122.538 30.4641C122.547 30.468 122.557 30.4716 122.566 30.475C124.024 30.9859 125.269 30.7697 126.196 29.9975C127.094 29.2503 127.612 28.0511 127.809 26.7476C127.893 26.1933 127.979 25.6475 128.064 25.107C128.699 21.075 129.287 17.3419 128.649 12.6708C128.385 10.747 127.939 9.5399 127.309 8.71798C126.674 7.88869 125.896 7.51451 125.161 7.17298C123.932 6.60126 122.658 6.70658 121.593 7.01917C120.527 7.33163 119.62 7.86476 119.075 8.21963C119.069 8.22379 119.063 8.22809 119.057 8.23251C117.442 9.38432 113.179 13.0533 108.785 18.6692C107.999 19.6446 107.276 21.9099 109.013 23.8288C109.029 23.8466 109.046 23.8634 109.065 23.8789C109.715 24.4311 110.81 25.2814 112.11 25.3894C113.373 25.4944 114.661 24.8961 115.825 23.1623C116.693 23.8159 117.99 24.5292 119.628 24.98ZM123.27 13.9944C123.388 14.2749 123.26 14.5996 122.983 14.7197C122.521 14.9196 122.014 15.208 121.507 15.7671C120.997 16.3308 120.464 17.1949 119.994 18.5765C119.896 18.865 119.586 19.0185 119.301 18.9193C119.016 18.82 118.864 18.5057 118.962 18.2171C119.468 16.727 120.069 15.7202 120.703 15.0201C121.342 14.3153 121.992 13.947 122.554 13.7038C122.831 13.5837 123.151 13.7139 123.27 13.9944Z" fill="#3A3A3A"/>
<path d="M95.5186 17.753C96.0228 11.9687 98.3843 6.62672 99.502 4.67873C100.094 3.58859 101.647 2.17319 104.238 2.38732C107.777 2.67966 113.411 3.92132 113.779 9.02618C113.77 11.4356 113.097 15.1468 107.93 15.3439C110.364 17.0111 111.751 18.8331 111.988 20.836C112.144 22.1483 110.997 25.3998 106.558 23.503C105.528 23.0155 103.683 21.486 102.671 20.0374C101.896 23.194 99.4102 23.2911 98.2438 22.9971C95.2975 22.6195 95.3579 19.596 95.5186 17.753Z" fill="#ECECEC"/>
<path fill-rule="evenodd" clip-rule="evenodd" d="M109.949 4.39394C108.146 3.45802 105.937 3.0823 104.194 2.93826C101.845 2.74419 100.483 4.01921 99.9803 4.94505C99.9782 4.94891 99.9761 4.95274 99.9739 4.95654C98.885 6.85423 96.5576 12.1184 96.0622 17.8018C95.982 18.7216 95.9395 19.8372 96.2348 20.7534C96.3792 21.2014 96.5979 21.5797 96.9149 21.8648C97.2285 22.1469 97.6705 22.367 98.3123 22.4492C98.3337 22.452 98.3548 22.456 98.3757 22.4612C98.8759 22.5873 99.6602 22.6261 100.386 22.3052C101.042 22.0151 101.711 21.4053 102.079 20.1388C101.799 19.7067 101.576 19.2561 101.474 18.8168C101.405 18.5198 101.586 18.2223 101.88 18.1522C102.173 18.0822 102.467 18.2662 102.536 18.5632C102.601 18.8435 102.763 19.1856 103.015 19.569C103.101 19.6367 103.164 19.7288 103.198 19.8323C103.665 20.4744 104.308 21.1407 104.964 21.7121C105.658 22.3175 106.33 22.7832 106.78 22.9984C108.871 23.8891 110.021 23.5121 110.634 22.9602C111.302 22.3586 111.506 21.4071 111.447 20.9022C111.241 19.1644 110.049 17.4972 107.767 15.9004C106.888 15.8927 105.784 15.6391 104.691 15.2068C103.575 14.7655 102.429 14.1213 101.505 13.3078C101.278 13.1075 101.254 12.7585 101.452 12.5283C101.65 12.2981 101.994 12.2739 102.222 12.4741C103.031 13.1871 104.062 13.7717 105.088 14.1776C106.115 14.584 107.096 14.7945 107.802 14.7956C107.838 14.7946 107.874 14.7934 107.91 14.7921C110.348 14.6991 111.631 13.7916 112.333 12.7112C113.056 11.5999 113.227 10.2116 113.233 9.04581C113.06 6.75258 111.725 5.31655 109.949 4.39394ZM109.378 15.7411C111.271 15.3848 112.492 14.4771 113.245 13.3188C114.148 11.9297 114.32 10.2677 114.324 9.02843C114.325 9.01438 114.324 9.00032 114.323 8.9863C114.121 6.18681 112.458 4.45548 110.447 3.41075C108.455 2.37653 106.078 1.98525 104.283 1.83695C101.453 1.60313 99.71 3.15364 99.027 4.40704C97.8792 6.4098 95.4875 11.8251 94.975 17.7047C94.8945 18.6279 94.8264 19.9456 95.1973 21.0962C95.386 21.6817 95.6947 22.2453 96.19 22.6909C96.6823 23.1337 97.3273 23.4313 98.1437 23.5413C98.8109 23.7032 99.8359 23.7542 100.823 23.3178C101.636 22.9581 102.38 22.2861 102.867 21.1717C103.293 21.6619 103.775 22.1337 104.252 22.5496C104.985 23.189 105.748 23.7295 106.327 24.0038C106.33 24.0053 106.334 24.0067 106.337 24.008C106.34 24.0095 106.343 24.0109 106.346 24.0123C108.688 25.013 110.329 24.713 111.359 23.7861C112.334 22.9082 112.626 21.5778 112.53 20.7705C112.309 18.9022 111.197 17.236 109.378 15.7411ZM107.519 7.09261C107.7 7.33648 107.652 7.68284 107.411 7.86624C107.052 8.13981 106.761 8.37362 106.508 8.71218C106.259 9.04573 106.028 9.51004 105.855 10.2548C105.786 10.5519 105.493 10.736 105.199 10.6662C104.906 10.5964 104.724 10.299 104.793 10.0019C104.994 9.13709 105.28 8.52475 105.637 8.04646C105.99 7.57318 106.391 7.25996 106.755 6.98311C106.996 6.79972 107.338 6.84874 107.519 7.09261Z" fill="#3A3A3A"/>
<path d="M93.7321 1.73752C91.5371 1.61743 90.2865 4.02768 90.1593 5.03685C89.1138 9.46262 88.5721 14.0829 87.9687 18.5452C87.5597 21.5705 89.4103 22.8877 91.048 23.0822C94.9382 23.544 95.4203 20.4097 95.5353 19.5524C96.1262 14.7832 96.7826 9.48409 96.8666 5.59074C96.8973 2.47305 94.7897 1.72288 93.7321 1.73752Z" fill="#ECECEC"/>
<path fill-rule="evenodd" clip-rule="evenodd" d="M95.3502 2.90668C94.8119 2.43402 94.1573 2.28399 93.7398 2.28976C93.7275 2.28993 93.7152 2.28968 93.7029 2.28901C92.8304 2.24128 92.1197 2.68991 91.5852 3.32263C91.0406 3.96721 90.749 4.72431 90.7008 5.10662C90.6983 5.12631 90.6948 5.14586 90.6902 5.16517C89.7929 8.96399 89.2694 12.9072 88.7527 16.8003C88.6719 17.4083 88.5914 18.0151 88.5096 18.6199C88.3227 20.0022 88.6564 20.9229 89.1563 21.5166C89.6671 22.1231 90.4028 22.4491 91.1118 22.5332C92.8821 22.7434 93.7779 22.1416 94.2721 21.4789C94.8002 20.7706 94.9378 19.902 94.9944 19.4807C95.5863 14.7031 96.2377 9.43925 96.3212 5.58182C96.3345 4.16407 95.8679 3.36137 95.3502 2.90668ZM96.0653 2.07195C96.8576 2.76776 97.4292 3.89812 97.4125 5.59606L97.4124 5.60261C97.3278 9.52445 96.6687 14.8449 96.0799 19.5977L96.077 19.621L96.0763 19.6266C96.0177 20.0635 95.8561 21.1885 95.1431 22.1447C94.3949 23.148 93.1046 23.8824 90.9847 23.6307C90.056 23.5204 89.0475 23.0905 88.3258 22.2335C87.5933 21.3636 87.2062 20.1131 87.4283 18.4701C87.5095 17.87 87.5896 17.2662 87.6701 16.6596C88.1849 12.7794 88.715 8.78452 89.6224 4.93511C89.7105 4.30814 90.1055 3.37419 90.7558 2.60441C91.4241 1.81338 92.4299 1.11968 93.7436 1.1847C94.3831 1.1803 95.3005 1.40035 96.0653 2.07195Z" fill="#3A3A3A"/>
<path d="M71.6282 19.4307C70.7857 13.6754 71.8391 7.91429 72.4711 5.75315C72.792 4.55171 74.051 2.20037 76.5199 2.40652C77.6336 2.45564 79.8896 3.13934 80.0327 5.59743C81.0484 4.51316 82.5582 3.44264 84.7427 3.04665L84.7433 3.04658C85.5426 2.95067 87.6359 2.6995 88.2652 4.89669C88.9976 7.45375 89.254 10.9675 81.3263 12.8059C86.9749 13.3188 88.0608 16.1289 88.2699 17.2938C88.7799 19.2355 88.5104 23.2196 83.7861 22.4148C82.6736 22.1811 80.4286 21.1299 79.0719 19.9568C79.0654 23.2446 76.6651 23.9127 75.4665 23.9003C72.5333 24.2252 71.6855 21.0559 71.6282 19.4307Z" fill="#ECECEC"/>
<path fill-rule="evenodd" clip-rule="evenodd" d="M74.0869 3.931C73.4967 4.56456 73.1396 5.36638 72.9978 5.89731C72.9967 5.90154 72.9955 5.90575 72.9942 5.90994C72.3785 8.01557 71.3399 13.6935 72.1679 19.3496C72.1709 19.37 72.1728 19.3904 72.1735 19.4109C72.2 20.1617 72.4122 21.2572 72.9324 22.1052C73.1888 22.5231 73.509 22.8636 73.902 23.0844C74.2895 23.302 74.7781 23.4207 75.4071 23.3511C75.4286 23.3487 75.4503 23.3476 75.4719 23.3478C75.987 23.3531 76.7577 23.2086 77.3864 22.7259C77.9543 22.2898 78.4628 21.5357 78.5207 20.2005C78.1454 19.8513 77.821 19.4689 77.6216 19.0658C77.4867 18.7929 77.5958 18.461 77.8653 18.3244C78.1347 18.1878 78.4626 18.2982 78.5975 18.5711C78.7367 18.8525 79.0169 19.1828 79.4262 19.5366C80.0595 20.0842 80.918 20.617 81.7638 21.0435C82.6086 21.4695 83.3954 21.7667 83.887 21.8717C84.9918 22.0584 85.7806 21.9564 86.3396 21.718C86.8927 21.4821 87.2636 21.0949 87.5083 20.626C88.0152 19.655 87.9774 18.33 87.7424 17.4357C87.7387 17.4215 87.7355 17.407 87.7329 17.3925C87.6446 16.9004 87.3666 16.0284 86.4733 15.2164C85.5787 14.4033 84.0168 13.6049 81.2775 13.3562C80.8139 13.3141 80.3169 13.2878 79.7841 13.2799C79.4827 13.2754 79.242 13.0244 79.2465 12.7193C79.2509 12.4142 79.4988 12.1705 79.8001 12.175C80.3255 12.1828 80.8208 12.2077 81.2877 12.2479C85.1419 11.3416 86.8581 10.0625 87.5737 8.8392C88.2875 7.61901 88.0984 6.29816 87.741 5.05051C87.4846 4.15507 86.961 3.79753 86.4202 3.64352C85.8429 3.47913 85.2294 3.54471 84.8231 3.59329C82.7815 3.96718 81.3768 4.96538 80.4286 5.97756C79.7685 6.68219 79.3289 7.39494 79.0548 7.91028C78.9119 8.17893 78.581 8.27944 78.3156 8.13476C78.0503 7.99009 77.951 7.65502 78.0939 7.38637C78.3752 6.85747 78.8161 6.1358 79.4671 5.40308C79.3532 4.50259 78.8917 3.93045 78.3385 3.55894C77.7184 3.14242 76.9782 2.97969 76.4961 2.95842C76.4891 2.95811 76.482 2.95766 76.475 2.95707C75.4438 2.87097 74.6654 3.30996 74.0869 3.931ZM80.3801 4.50646C81.4168 3.62086 82.8091 2.83581 84.6465 2.50275C84.657 2.50084 84.6676 2.49925 84.6782 2.49797L84.6969 2.49572C85.0968 2.44766 85.9088 2.35007 86.7157 2.57981C87.5786 2.82553 88.4164 3.441 88.7892 4.74275C89.1643 6.05217 89.4696 7.76674 88.5127 9.40231C87.7705 10.6711 86.3259 11.7957 83.8141 12.6709C85.3555 13.0797 86.441 13.7022 87.2024 14.3942C88.3044 15.3958 88.6779 16.4982 88.8027 17.173C89.0734 18.2212 89.1501 19.8458 88.4732 21.1423C88.1239 21.8116 87.5734 22.3908 86.7632 22.7363C85.9606 23.0786 84.9474 23.1728 83.6955 22.9596C83.6929 22.9592 83.6903 22.9587 83.6877 22.9582C83.6835 22.9574 83.6793 22.9566 83.6751 22.9557C83.0535 22.8251 82.1665 22.481 81.2772 22.0326C80.6912 21.7371 80.0844 21.3863 79.5321 21.0035C79.3245 22.2207 78.7576 23.0599 78.0459 23.6063C77.187 24.2658 76.177 24.4538 75.4936 24.4529C74.6698 24.5382 73.9631 24.3823 73.3726 24.0506C72.7799 23.7177 72.3347 23.2252 72.0053 22.6882C71.3617 21.6392 71.1194 20.3557 71.084 19.4818C70.2357 13.6427 71.2987 7.8199 71.946 5.60239C72.1261 4.93209 72.5585 3.96125 73.2929 3.17286C74.0396 2.37136 75.1217 1.73888 76.5542 1.85498C77.1857 1.88464 78.1244 2.08911 78.9419 2.63815C79.5559 3.05054 80.0982 3.65747 80.3801 4.50646Z" fill="#3A3A3A"/>
<path d="M73.2048 13.6524C73.4358 19.6252 69.8169 24.6181 65.1218 24.8042C60.4266 24.9903 56.4332 20.2993 56.2022 14.3265C55.9712 8.35365 59.5901 3.36082 64.2852 3.17468C68.9804 2.98854 72.9738 7.67958 73.2048 13.6524Z" fill="#ECECEC"/>
<path fill-rule="evenodd" clip-rule="evenodd" d="M65.0595 9.68343C65.3272 9.82352 65.4321 10.1568 65.2937 10.4279C64.8316 11.3333 64.1279 13.8893 65.2027 16.5247C65.3177 16.8067 65.1851 17.1298 64.9065 17.2462C64.628 17.3627 64.3089 17.2285 64.1939 16.9464C62.9675 13.9393 63.7537 11.0383 64.3242 9.92062C64.4625 9.64954 64.7917 9.54335 65.0595 9.68343ZM65.0791 23.7001C68.9529 23.5465 72.3313 19.3071 72.1143 13.6956C71.8973 8.08416 68.2017 4.12524 64.3279 4.27881C60.4542 4.43239 57.0757 8.67176 57.2928 14.2832C57.5098 19.8947 61.2053 23.8537 65.0791 23.7001ZM65.1218 24.8042C69.8169 24.6181 73.4358 19.6252 73.2048 13.6524C72.9738 7.67958 68.9804 2.98854 64.2852 3.17468C59.5901 3.36082 55.9712 8.35365 56.2022 14.3265C56.4332 20.2993 60.4266 24.9903 65.1218 24.8042Z" fill="#3A3A3A"/>
<path d="M44.3379 8.07541C38.1139 8.54928 37.7606 11.3335 37.7025 13.4938C37.6008 17.2677 42.062 17.3918 45.1539 16.7214C45.4368 18.6244 45.0933 20.7979 47.117 25.773C47.5883 26.7305 49.2447 28.3478 52.0998 27.1573C53.7839 26.6024 56.7421 24.4851 56.2635 21.2964C55.785 18.1076 54.9769 16.4335 53.8171 13.8734C57.96 11.3818 58.5678 9.2869 58.123 7.55725C56.8572 2.63439 53.0828 4.52834 51.3683 5.43867L51.2592 5.49657C48.1249 7.16089 47.5661 7.45762 44.3379 8.07541Z" fill="#ECECEC"/>
<path fill-rule="evenodd" clip-rule="evenodd" d="M39.1212 10.5138C38.3829 11.3803 38.2768 12.4378 38.248 13.5096C38.2257 14.3345 38.4505 14.9106 38.8026 15.3247C39.1632 15.7487 39.6995 16.052 40.3767 16.2426C41.7443 16.6273 43.5328 16.5086 45.0396 16.1819C45.2979 16.1259 45.4475 16.0627 45.599 15.9869C45.637 15.9678 45.6797 15.9454 45.727 15.9206C45.8676 15.8467 46.0496 15.7511 46.2757 15.6569C46.5544 15.5407 46.8733 15.6752 46.9881 15.9573C47.1028 16.2395 46.97 16.5624 46.6913 16.6786C46.5127 16.753 46.3946 16.8151 46.2659 16.8828C46.209 16.9127 46.1499 16.9437 46.0827 16.9774C45.9805 17.0286 45.8745 17.0771 45.7538 17.1223C45.7865 17.4351 45.8092 17.7542 45.8332 18.0901C45.9513 19.7476 46.0984 21.8127 47.6136 25.5438C47.8039 25.9199 48.245 26.454 48.937 26.7668C49.619 27.0752 50.5907 27.1897 51.892 26.6471C51.9048 26.6418 51.9178 26.6369 51.931 26.6326C52.6886 26.383 53.7658 25.7656 54.5879 24.8447C55.4014 23.9333 55.9322 22.7666 55.7241 21.38C55.2879 18.474 54.5788 16.8761 53.5387 14.5841C53.0847 14.7635 52.5636 14.9439 51.9659 15.0556C51.6696 15.1111 51.385 14.9127 51.3302 14.6127C51.2755 14.3126 51.4714 14.0245 51.7677 13.969C52.4503 13.8414 53.0216 13.6081 53.5724 13.3786C55.5834 12.1644 56.6752 11.0828 57.2208 10.149C57.755 9.23453 57.7838 8.43144 57.595 7.69712C57.2963 6.5357 56.8663 5.84182 56.4131 5.43581C55.9675 5.03662 55.4548 4.87534 54.9024 4.86355C53.7478 4.83892 52.4967 5.46407 51.6217 5.92863C51.6217 5.92863 51.6217 5.92862 51.6217 5.92863L51.4807 6.00353C49.9425 6.82027 48.9933 7.32435 48.0275 7.69562C47.0457 8.07306 46.06 8.30879 44.4393 8.61896C44.4193 8.62279 44.3992 8.62548 44.3789 8.62702C41.3298 8.85916 39.8581 9.64888 39.1212 10.5138ZM54.5158 14.0904C55.5713 16.4153 56.3409 18.1348 56.8031 21.214C57.0735 23.0161 56.3644 24.5025 55.3975 25.5856C54.4459 26.6517 53.2129 27.3678 52.2886 27.6767C50.7434 28.3159 49.4659 28.2161 48.492 27.7758C47.5344 27.3429 46.9144 26.6007 46.6286 26.0202C46.6228 26.0083 46.6174 25.9963 46.6124 25.9841C45.0158 22.0589 44.8559 19.7863 44.7386 18.1202C44.7202 17.859 44.7029 17.6127 44.6812 17.3772C43.2112 17.6343 41.5017 17.706 40.0845 17.3072C39.2727 17.0788 38.5195 16.6853 37.9755 16.0456C37.4232 15.3961 37.1284 14.5414 37.157 13.4795C37.1863 12.391 37.2859 10.9761 38.2948 9.79201C39.3018 8.61004 41.1103 7.7723 44.2664 7.52751C45.8553 7.22284 46.7574 7.00195 47.6401 6.66261C48.5376 6.31755 49.4285 5.84552 51.0058 5.00797L51.1148 4.95006C51.9544 4.50429 53.4477 3.7273 54.9254 3.75882C55.6892 3.77512 56.4646 4.00649 57.1363 4.60829C57.8004 5.20327 58.3169 6.11872 58.6512 7.41873C58.9071 8.41405 58.8543 9.52323 58.1601 10.7115C57.5266 11.7959 56.377 12.9159 54.5158 14.0904Z" fill="#3A3A3A"/>
<path d="M90.3256 80.0525H122.97C124.991 78.3896 126.836 74.6803 125.952 67.2617C126.356 64.7716 126.265 58.3849 119.635 58.6919C122.97 56.5175 124.941 52.4244 125.952 48.3314C127.317 42.8013 125.52 40.0875 124.991 39.3779C120.317 33.1072 112.99 37.7151 111.788 40.4011C111.822 39.2195 111.716 38.054 111.423 36.9477C110.792 33.9632 108.164 28.3011 102.706 29.529C99.0005 30.4428 89.6939 36.9477 92.3972 55.4942C91.3072 56.4974 89.0664 57.5794 87.5293 61.8258C87.1066 62.9934 86.7371 64.4003 86.4595 66.1105C85.5904 71.4633 87.5174 77.6222 90.3256 80.0525Z" fill="#ECECEC"/>
<path fill-rule="evenodd" clip-rule="evenodd" d="M108.464 32.0234C109.804 33.5678 110.587 35.634 110.89 37.0635L110.893 37.0772L110.896 37.0907C111.173 38.136 111.275 39.2466 111.243 40.3854C111.174 42.8057 110.736 45.5606 110.12 48.0056C109.5 50.4658 108.716 52.5462 107.987 53.653C107.82 53.9069 107.888 54.2499 108.139 54.4191C108.39 54.5884 108.728 54.5198 108.896 54.2659C109.73 52.9988 110.549 50.7695 111.177 48.2788C111.799 45.8119 112.248 43.0239 112.33 40.535C112.602 39.9929 113.19 39.3108 114.03 38.6669C114.91 37.993 116.022 37.3955 117.23 37.0641C118.437 36.7332 119.723 36.6713 120.971 37.0445C122.212 37.416 123.451 38.2292 124.556 39.7108C125.002 40.3102 126.741 42.8554 125.422 48.1975C124.436 52.1922 122.545 56.0786 119.444 58.1586C118.575 58.2848 117.301 58.8782 115.929 60.1635C114.467 61.5331 112.866 63.7125 111.476 67.0471L111.469 67.0651L111.462 67.0835C110.774 69.1265 111.178 71.4563 112.856 72.8215C114.542 74.1939 117.315 74.4331 121.044 72.7551C123.231 71.7709 124.68 70.4161 125.576 69.121C125.957 75.0485 124.386 78.0763 122.771 79.5001H90.5322C89.2999 78.357 88.218 76.3848 87.5373 74.0228C86.8327 71.5782 86.5783 68.7842 86.9978 66.2003C87.1326 65.3701 87.289 64.6151 87.4621 63.9274C87.9852 65.7256 88.6927 67.0648 89.5693 68.0745C90.7493 69.4338 92.1912 70.145 93.7609 70.6064C94.8347 70.922 95.8045 70.8964 96.6413 70.5892C97.4763 70.2826 98.1389 69.7104 98.6249 68.9991C99.5877 67.5901 99.8833 65.6056 99.4997 63.8189C98.278 58.1291 95.5681 55.4653 92.8783 55.0001C90.4082 37.0211 99.4604 30.9022 102.83 30.0673C105.317 29.5097 107.146 30.5028 108.464 32.0234ZM92.574 56.0705C94.6763 56.3744 97.2368 58.4816 98.4332 64.0536C98.7636 65.5925 98.4908 67.2533 97.7274 68.3705C97.3503 68.9223 96.8605 69.3333 96.2693 69.5504C95.6799 69.7668 94.9497 69.8052 94.0652 69.5452C92.6175 69.1197 91.3869 68.4946 90.389 67.3451C89.4044 66.2107 88.6038 64.5165 88.0938 61.8735C88.8259 59.9066 89.7065 58.6795 90.5223 57.8288C90.9426 57.3904 91.3519 57.0455 91.7304 56.7438C91.8262 56.6673 91.923 56.5916 92.0187 56.5165C92.2125 56.3647 92.4025 56.2159 92.574 56.0705ZM86.9715 61.7623C86.9712 61.6274 87.0199 61.5002 87.1033 61.4018C87.8825 59.3397 88.8312 58.006 89.7392 57.0591C90.2075 56.5707 90.6589 56.1916 91.0552 55.8757C91.173 55.7817 91.2827 55.6957 91.3853 55.6154C91.5443 55.4908 91.6861 55.3797 91.8141 55.2733C89.2205 36.7173 98.5782 29.9784 102.577 28.9924L102.582 28.991L102.588 28.9898C105.556 28.3221 107.768 29.5457 109.285 31.2943C110.777 33.0149 111.623 35.2639 111.954 36.8184C112.121 37.4518 112.229 38.1006 112.287 38.7572C112.603 38.4223 112.969 38.0939 113.371 37.7858C114.35 37.0363 115.587 36.3701 116.945 35.9976C118.304 35.6247 119.801 35.5424 121.28 35.9849C122.764 36.4291 124.194 37.3914 125.427 39.0452C126.038 39.8651 127.893 42.7474 126.481 48.4655C125.587 52.0866 123.933 55.7922 121.194 58.196C122.209 58.3249 123.06 58.6343 123.766 59.0836C124.812 59.7488 125.497 60.693 125.932 61.7082C126.775 63.6752 126.704 65.9624 126.503 67.2728C127.377 74.7424 125.53 78.6586 123.314 80.4814L123.164 80.6051H90.1241L89.9709 80.4726C88.4561 79.1616 87.23 76.9015 86.4896 74.3323C85.7458 71.7517 85.4713 68.7898 85.9209 66.021C86.1935 64.3419 86.5546 62.9409 86.9715 61.7623ZM125.422 67.1161C124.878 68.5102 123.465 70.4565 120.601 71.7453C117.053 73.3417 114.772 72.9628 113.54 71.9603C112.304 70.9542 111.923 69.1618 112.489 67.4582C113.827 64.2545 115.343 62.2183 116.67 60.9746C118.004 59.7249 119.122 59.2974 119.672 59.2434C121.235 59.173 122.365 59.4972 123.186 60.0192C124.009 60.5429 124.565 61.2935 124.931 62.1479C125.661 63.8531 125.609 65.9132 125.422 67.1161Z" fill="#3A3A3A"/>
<path d="M112.745 61.0108C112.745 63.8365 114.329 66.1271 116.283 66.1271C118.236 66.1271 119.82 63.8365 119.82 61.0108C119.82 58.1852 118.236 55.8945 116.283 55.8945C114.329 55.8945 112.745 58.1852 112.745 61.0108Z" fill="#ECECEC"/>
<path fill-rule="evenodd" clip-rule="evenodd" d="M114.676 63.9949C114.179 63.2763 113.837 62.2247 113.837 61.0108C113.837 59.7969 114.179 58.7453 114.676 58.0267C115.175 57.3046 115.76 56.9995 116.283 56.9995C116.806 56.9995 117.391 57.3046 117.89 58.0267C118.387 58.7453 118.729 59.7969 118.729 61.0108C118.729 62.2247 118.387 63.2763 117.89 63.9949C117.391 64.717 116.806 65.0222 116.283 65.0222C115.76 65.0222 115.175 64.717 114.676 63.9949ZM116.283 66.1271C114.329 66.1271 112.745 63.8365 112.745 61.0108C112.745 58.1852 114.329 55.8945 116.283 55.8945C118.236 55.8945 119.82 58.1852 119.82 61.0108C119.82 63.8365 118.236 66.1271 116.283 66.1271Z" fill="#3A3A3A"/>
<path d="M112.745 61.0111C112.745 62.8478 113.82 64.3367 115.146 64.3367C116.471 64.3367 117.546 62.8478 117.546 61.0111C117.546 59.1745 116.471 57.6855 115.146 57.6855C113.82 57.6855 112.745 59.1745 112.745 61.0111Z" fill="#3A3A3A"/>
<path fill-rule="evenodd" clip-rule="evenodd" d="M114.33 62.7107C114.046 62.3174 113.837 61.7201 113.837 61.0111C113.837 60.3022 114.046 59.7049 114.33 59.3115C114.614 58.9174 114.916 58.7905 115.146 58.7905C115.376 58.7905 115.677 58.9174 115.962 59.3115C116.246 59.7049 116.455 60.3022 116.455 61.0111C116.455 61.7201 116.246 62.3174 115.962 62.7107C115.677 63.1049 115.376 63.2318 115.146 63.2318C114.916 63.2318 114.614 63.1049 114.33 62.7107ZM115.146 64.3367C113.82 64.3367 112.745 62.8478 112.745 61.0111C112.745 59.1745 113.82 57.6855 115.146 57.6855C116.471 57.6855 117.546 59.1745 117.546 61.0111C117.546 62.8478 116.471 64.3367 115.146 64.3367Z" fill="#3A3A3A"/>
<path d="M127.056 86.4481C127.683 83.1737 124.617 80.8202 123.005 80.0527H106.673V86.4481H127.056Z" fill="#ECECEC"/>
<path fill-rule="evenodd" clip-rule="evenodd" d="M123.127 79.5H106.127V87.0004H127.506L127.591 86.553C127.945 84.7036 127.247 83.1338 126.291 81.9588C125.341 80.7903 124.101 79.9639 123.237 79.5525L123.127 79.5ZM122.88 80.605C123.623 80.9779 124.659 81.6903 125.449 82.6613C126.185 83.5662 126.679 84.6564 126.58 85.8954H107.218V80.605H122.88Z" fill="#3A3A3A"/>
<path d="M110.632 86.4481C111.259 83.1737 108.193 80.8202 106.582 80.0527H90.2492V86.4481H110.632Z" fill="#ECECEC"/>
<path fill-rule="evenodd" clip-rule="evenodd" d="M106.704 79.5H89.7037V87.0004H111.082L111.168 86.553C111.522 84.7036 110.823 83.1338 109.868 81.9588C108.917 80.7903 107.678 79.9639 106.814 79.5525L106.704 79.5ZM106.457 80.605C107.2 80.9779 108.235 81.6903 109.025 82.6613C109.761 83.5662 110.255 84.6564 110.157 85.8954H90.7951V80.605H106.457Z" fill="#3A3A3A"/>
<path fill-rule="evenodd" clip-rule="evenodd" d="M105.59 56.3958C104.312 55.654 102.86 55.3562 101.928 55.3126C101.627 55.2985 101.394 55.04 101.408 54.7352C101.422 54.4304 101.677 54.1947 101.978 54.2088C103.048 54.2589 104.676 54.5917 106.132 55.4373C107.601 56.2899 108.929 57.6876 109.271 59.8555C109.306 60.0743 109.208 60.2928 109.022 60.4107C108.837 60.5285 108.6 60.5228 108.421 60.3962C107.935 60.054 107.051 59.5872 106.026 59.3393C105.001 59.0915 103.891 59.0747 102.902 59.553C102.63 59.6844 102.304 59.5678 102.174 59.2924C102.044 59.017 102.159 58.6872 102.431 58.5558C103.723 57.9318 105.109 57.9815 106.28 58.2646C106.848 58.4021 107.378 58.5975 107.841 58.8096C107.365 57.7217 106.534 56.9442 105.59 56.3958Z" fill="#3A3A3A"/>
<path fill-rule="evenodd" clip-rule="evenodd" d="M104.232 61.4032C104.506 61.2769 104.83 61.3997 104.954 61.6775C105.227 62.2846 105.877 63.1685 106.918 63.7544C107.94 64.3298 109.366 64.6348 111.249 64.063C111.538 63.9753 111.842 64.1412 111.928 64.4334C112.015 64.7257 111.851 65.0337 111.563 65.1214C109.403 65.7775 107.671 65.4429 106.387 64.7201C105.122 64.0077 104.32 62.9346 103.961 62.1348C103.836 61.857 103.957 61.5294 104.232 61.4032Z" fill="#3A3A3A"/>
<path d="M96.0609 55.75C100.356 50.1497 94.1237 48.2888 91.2602 48.3314C89.2791 48.4512 87.6534 49.1431 86.3332 50.1497C86.131 35.8462 78.6689 30.4428 74.9631 29.529C69.5055 28.3011 66.8777 33.9632 66.2461 36.9477C65.9534 38.054 65.8475 39.2195 65.8811 40.4011C63.0877 37.9709 56.0129 34.3895 50.9596 41.1686C50.4306 41.8782 48.3066 45.0058 49.3172 49.0988C44.8956 48.3314 37.1891 53.8314 39.8422 62.657C40.9847 66.4577 46.6963 66.947 50.9294 65.8512C48.0736 72.7669 50.8783 77.6307 51.7176 80.0525H87.3438C89.7694 75.4478 88.3966 70.1183 87.9755 68.0292C88.1776 65.471 93.45 58.7772 96.0609 55.75Z" fill="#ECECEC"/>
<path fill-rule="evenodd" clip-rule="evenodd" d="M69.2048 32.0234C67.8653 33.5678 67.0821 35.634 66.7795 37.0635L66.7766 37.0772L66.7731 37.0907C66.4965 38.136 66.3941 39.2466 66.4265 40.3854C66.5628 45.1768 69.08 50.2965 70.6164 52.6297C70.7835 52.8836 70.7158 53.2267 70.465 53.3959C70.2142 53.5652 69.8754 53.4966 69.7083 53.2427C68.1444 50.8676 65.5662 45.6766 65.3446 40.6666C63.9763 39.5294 61.6986 38.1993 59.1993 37.8796C56.6306 37.551 53.7962 38.2804 51.3951 41.5015C50.893 42.175 48.898 45.1233 49.8465 48.965C50.3395 50.9612 51.1157 52.855 52.4133 54.4481C53.706 56.0351 55.5387 57.3516 58.1921 58.1631C58.4806 58.2514 58.6438 58.5597 58.5566 58.8518C58.4695 59.1439 58.1649 59.3091 57.8764 59.2209C55.03 58.3503 53.0095 56.9168 51.5713 55.1511C50.2214 53.4939 49.4045 51.5688 48.8814 49.5988C46.9248 49.4245 44.2721 50.4985 42.3297 52.6531C40.3026 54.9015 39.0976 58.2829 40.3641 62.4963C40.8526 64.1211 42.3329 65.1099 44.3422 65.5505C46.2792 65.9752 48.5893 65.8558 50.5968 65.3657C50.7258 65.2497 50.905 65.1999 51.0785 65.2393C51.8328 65.0274 52.5244 64.7647 53.1158 64.4653C53.3854 64.3289 53.7132 64.4395 53.8479 64.7124C53.9827 64.9853 53.8735 65.3172 53.6039 65.4536C52.9295 65.7951 52.157 66.0853 51.3315 66.3149C49.0957 71.9653 50.7558 76.1251 51.8011 78.7444C51.908 79.0125 52.0086 79.2644 52.0978 79.5001H87.0105C88.9752 75.4705 88.0207 70.9139 87.5387 68.6128C87.503 68.4424 87.4699 68.2843 87.4407 68.1398L87.4253 68.0632L87.4315 67.9852C87.4921 67.2173 87.9137 66.2283 88.479 65.1903C89.0567 64.1297 89.8295 62.9394 90.6704 61.7449C92.3487 59.3611 94.3254 56.923 95.6393 55.3989C96.6638 54.0594 97.0003 53.0199 96.9799 52.2369C96.96 51.4712 96.5958 50.8539 95.9963 50.3497C95.3869 49.8372 94.5536 49.4616 93.6777 49.2179C92.8105 48.9766 91.9408 48.8753 91.2803 48.8838C89.4188 48.9987 87.8988 49.6477 86.6614 50.5912C83.6332 52.9 82.2649 57.0045 81.9469 59.405C81.9068 59.7074 81.6322 59.9197 81.3335 59.8791C81.0348 59.8386 80.8251 59.5605 80.8652 59.2581C81.195 56.7689 82.5838 52.4657 85.7826 49.8829C85.493 36.0071 78.2477 30.9112 74.8392 30.0673C72.352 29.5097 70.5235 30.5028 69.2048 32.0234ZM86.852 49.1298C86.3172 35.3617 78.9812 29.9513 75.0921 28.9924L75.0868 28.991L75.0814 28.9898C72.1137 28.3221 69.9012 29.5457 68.3847 31.2943C66.8924 33.0149 66.0464 35.2639 65.7153 36.8184C65.5047 37.6185 65.3877 38.4434 65.3465 39.2775C63.8495 38.193 61.7012 37.0859 59.3361 36.7834C56.4057 36.4085 53.1761 37.278 50.5239 40.8359C50.0006 41.5379 47.9741 44.5085 48.632 48.4776C46.317 48.4105 43.5297 49.6829 41.5236 51.9082C39.2552 54.4243 37.9336 58.2058 39.32 62.818C39.9741 64.9939 41.9208 66.1501 44.1112 66.6304C45.9787 67.0399 48.1164 66.9852 50.0542 66.6136C48.0513 72.3525 49.7879 76.6736 50.7973 79.1851C50.9562 79.5806 51.0972 79.9313 51.2026 80.2355L51.3307 80.6051H87.6711L87.8252 80.3126C90.1831 75.8365 89.1025 70.727 88.6097 68.3967C88.5795 68.2539 88.5516 68.1216 88.5267 68.0005C88.5892 67.4871 88.899 66.7075 89.4347 65.7239C89.984 64.7154 90.7304 63.5634 91.5592 62.3863C93.2159 60.0332 95.1748 57.6174 96.4718 56.1136L96.4821 56.1016L96.4918 56.089C97.6075 54.6343 98.1005 53.3451 98.071 52.2078C98.0409 51.0509 97.4734 50.1556 96.6937 49.4998C95.924 48.8523 94.9307 48.4206 93.9669 48.1524C92.9997 47.8833 92.0219 47.7676 91.2521 47.7791L91.2398 47.7793L91.2276 47.78C89.5367 47.8822 88.0853 48.3802 86.852 49.1298Z" fill="#3A3A3A"/>
<path d="M64.9827 60.0987C64.9827 62.9244 63.3989 65.215 61.4453 65.215C59.4917 65.215 57.908 62.9244 57.908 60.0987C57.908 57.2731 59.4917 54.9824 61.4453 54.9824C63.3989 54.9824 64.9827 57.2731 64.9827 60.0987Z" fill="#ECECEC"/>
<path fill-rule="evenodd" clip-rule="evenodd" d="M63.0525 63.0828C63.5493 62.3642 63.8913 61.3126 63.8913 60.0987C63.8913 58.8848 63.5493 57.8332 63.0525 57.1146C62.5533 56.3925 61.9682 56.0874 61.4453 56.0874C60.9224 56.0874 60.3374 56.3925 59.8381 57.1146C59.3413 57.8332 58.9993 58.8848 58.9993 60.0987C58.9993 61.3126 59.3413 62.3642 59.8381 63.0828C60.3374 63.8049 60.9224 64.11 61.4453 64.11C61.9682 64.11 62.5533 63.8049 63.0525 63.0828ZM61.4453 65.215C63.3989 65.215 64.9827 62.9244 64.9827 60.0987C64.9827 57.2731 63.3989 54.9824 61.4453 54.9824C59.4917 54.9824 57.908 57.2731 57.908 60.0987C57.908 62.9244 59.4917 65.215 61.4453 65.215Z" fill="#3A3A3A"/>
<path d="M64.9826 60.099C64.9826 61.9357 63.9079 63.4246 62.5822 63.4246C61.2566 63.4246 60.1819 61.9357 60.1819 60.099C60.1819 58.2624 61.2566 56.7734 62.5822 56.7734C63.9079 56.7734 64.9826 58.2624 64.9826 60.099Z" fill="#3A3A3A"/>
<path fill-rule="evenodd" clip-rule="evenodd" d="M63.3984 61.7986C63.6822 61.4053 63.8912 60.808 63.8912 60.099C63.8912 59.3901 63.6822 58.7928 63.3984 58.3994C63.1139 58.0053 62.8122 57.8784 62.5822 57.8784C62.3523 57.8784 62.0506 58.0053 61.7661 58.3994C61.4822 58.7928 61.2733 59.3901 61.2733 60.099C61.2733 60.808 61.4822 61.4053 61.7661 61.7986C62.0506 62.1928 62.3523 62.3196 62.5822 62.3196C62.8122 62.3196 63.1139 62.1928 63.3984 61.7986ZM62.5822 63.4246C63.9079 63.4246 64.9826 61.9357 64.9826 60.099C64.9826 58.2624 63.9079 56.7734 62.5822 56.7734C61.2566 56.7734 60.1819 58.2624 60.1819 60.099C60.1819 61.9357 61.2566 63.4246 62.5822 63.4246Z" fill="#3A3A3A"/>
<path d="M73.0679 57.797C73.0679 60.6226 71.4841 62.9133 69.5305 62.9133C67.5769 62.9133 65.9932 60.6226 65.9932 57.797C65.9932 54.9713 67.5769 52.6807 69.5305 52.6807C71.4841 52.6807 73.0679 54.9713 73.0679 57.797Z" fill="#ECECEC"/>
<path fill-rule="evenodd" clip-rule="evenodd" d="M71.1377 60.7811C71.6345 60.0625 71.9765 59.0109 71.9765 57.797C71.9765 56.583 71.6345 55.5315 71.1377 54.8129C70.6385 54.0908 70.0535 53.7856 69.5305 53.7856C69.0076 53.7856 68.4226 54.0908 67.9233 54.8129C67.4265 55.5315 67.0845 56.583 67.0845 57.797C67.0845 59.0109 67.4265 60.0625 67.9233 60.7811C68.4226 61.5032 69.0076 61.8083 69.5305 61.8083C70.0535 61.8083 70.6385 61.5032 71.1377 60.7811ZM69.5305 62.9133C71.4841 62.9133 73.0679 60.6226 73.0679 57.797C73.0679 54.9713 71.4841 52.6807 69.5305 52.6807C67.5769 52.6807 65.9932 54.9713 65.9932 57.797C65.9932 60.6226 67.5769 62.9133 69.5305 62.9133Z" fill="#3A3A3A"/>
<path d="M73.068 57.7963C73.068 59.633 71.9934 61.1219 70.6677 61.1219C69.342 61.1219 68.2673 59.633 68.2673 57.7963C68.2673 55.9596 69.342 54.4707 70.6677 54.4707C71.9934 54.4707 73.068 55.9596 73.068 57.7963Z" fill="#3A3A3A"/>
<path fill-rule="evenodd" clip-rule="evenodd" d="M71.4838 59.4959C71.7677 59.1026 71.9766 58.5053 71.9766 57.7963C71.9766 57.0873 71.7677 56.49 71.4838 56.0967C71.1993 55.7026 70.8976 55.5757 70.6677 55.5757C70.4377 55.5757 70.136 55.7026 69.8516 56.0967C69.5677 56.49 69.3587 57.0873 69.3587 57.7963C69.3587 58.5053 69.5677 59.1026 69.8516 59.4959C70.136 59.89 70.4377 60.0169 70.6677 60.0169C70.8976 60.0169 71.1993 59.89 71.4838 59.4959ZM70.6677 61.1219C71.9934 61.1219 73.068 59.633 73.068 57.7963C73.068 55.9596 71.9934 54.4707 70.6677 54.4707C69.342 54.4707 68.2673 55.9596 68.2673 57.7963C68.2673 59.633 69.342 61.1219 70.6677 61.1219Z" fill="#3A3A3A"/>
<path fill-rule="evenodd" clip-rule="evenodd" d="M76.153 61.5518C76.3372 61.7933 76.2931 62.1402 76.0546 62.3267C67.9609 68.6541 61.3739 68.3404 58.9506 67.2552C58.675 67.1318 58.5504 66.8055 58.6723 66.5264C58.7942 66.2474 59.1164 66.1212 59.3921 66.2446C61.3483 67.1207 67.5126 67.6085 75.3876 61.4521C75.6261 61.2656 75.9688 61.3103 76.153 61.5518Z" fill="#3A3A3A"/>
<path d="M47.6391 86.4481C46.9578 83.1737 50.2889 80.8202 52.0396 80.0527H69.7834V86.4481H47.6391Z" fill="#ECECEC"/>
<path fill-rule="evenodd" clip-rule="evenodd" d="M51.9265 79.5H70.329V87.0004H47.1964L47.1051 86.5618C46.7161 84.6923 47.4858 83.1125 48.5206 81.9417C49.5511 80.7755 50.8925 79.9532 51.8227 79.5455L51.9265 79.5ZM52.155 80.605C51.3393 80.9793 50.1998 81.6987 49.3339 82.6784C48.5305 83.5876 48.0015 84.6712 48.1082 85.8954H69.2376V80.605H52.155Z" fill="#3A3A3A"/>
<path d="M65.3259 86.4481C64.6445 83.1737 67.9756 80.8202 69.7264 80.0527H87.4701V86.4481H65.3259Z" fill="#ECECEC"/>
<path fill-rule="evenodd" clip-rule="evenodd" d="M69.6132 79.5H88.0158V87.0004H64.8831L64.7919 86.5618C64.4028 84.6923 65.1726 83.1125 66.2074 81.9417C67.2379 80.7755 68.5793 79.9532 69.5095 79.5455L69.6132 79.5ZM69.8418 80.605C69.026 80.9793 67.8866 81.6987 67.0207 82.6784C66.2172 83.5876 65.6883 84.6712 65.795 85.8954H86.9244V80.605H69.8418Z" fill="#3A3A3A"/>
<path fill-rule="evenodd" clip-rule="evenodd" d="M15.3253 17.5739C16.4794 17.7261 17.2874 18.7957 17.1301 19.9628C17.0498 20.559 17.0281 20.9325 17.0356 21.1895C19.4252 19.8176 21.5894 18.3838 24.4073 16.3128C25.3518 15.6186 26.67 15.8264 27.3515 16.7769C28.0331 17.7274 27.8198 19.0607 26.8753 19.7548C25.2762 20.9301 23.8666 21.9168 22.5034 22.8077C22.7908 22.7889 23.0816 22.7646 23.3742 22.7346C24.6979 22.5989 25.9386 22.3582 26.9327 22.0448C27.9998 21.7084 28.5121 21.3715 28.6604 21.2155C29.2803 20.5637 30.2368 20.3742 31.049 20.7421C31.8612 21.1101 32.3535 21.9561 32.2785 22.8547L31.9849 26.3685C31.8868 27.5418 30.8665 28.4182 29.7058 28.3259C28.6108 28.2388 27.7821 27.3205 27.7743 26.2315C26.5417 26.5861 25.1598 26.8332 23.776 26.9751C21.942 27.1631 19.9121 27.1849 18.0995 26.9413C17.7499 30.4459 15.9096 34.3225 11.558 37.9854C10.9035 38.5363 9.98811 38.6386 9.23558 38.2449L7.64883 37.4148C6.61692 36.8749 6.21834 35.5894 6.75856 34.5435C7.29879 33.4976 8.57325 33.0874 9.60516 33.6273L9.90765 33.7856C12.156 31.6293 13.253 29.5622 13.6955 27.7409C10.4797 29.2847 8.32268 30.0174 6.60703 30.5774C5.49681 30.9399 4.31124 30.3259 3.959 29.206C3.60676 28.0862 4.22123 26.8847 5.33145 26.5222C7.12551 25.9366 9.43344 25.1556 13.1759 23.266C13.0992 23.0487 13.0325 22.8265 12.9791 22.598C12.7426 21.5858 12.791 20.5971 12.9508 19.4115C13.1081 18.2444 14.1712 17.4217 15.3253 17.5739Z" fill="#ECECEC"/>
<path fill-rule="evenodd" clip-rule="evenodd" d="M12.4098 19.3401C12.6078 17.8709 13.946 16.8352 15.3988 17.0269C16.8516 17.2185 17.8688 18.5648 17.6708 20.034C17.6633 20.0899 17.6563 20.1435 17.6499 20.195C19.6842 18.9845 21.6341 17.6707 24.0881 15.8672C25.2771 14.9934 26.9365 15.2549 27.7944 16.4514C28.6523 17.6479 28.3839 19.3263 27.1948 20.2002C26.3051 20.8541 25.4727 21.4506 24.6736 22.0054C25.4493 21.8763 26.1631 21.7107 26.7731 21.5184C27.2817 21.3581 27.6463 21.2013 27.8936 21.0725C28.0173 21.0082 28.1089 20.9522 28.1732 20.908C28.2052 20.886 28.2289 20.868 28.2455 20.8544C28.2617 20.8412 28.2683 20.8344 28.2683 20.8345L28.2682 20.8346C29.0486 20.014 30.2526 19.7754 31.275 20.2387C32.2975 20.7019 32.9172 21.7668 32.8227 22.8981L32.5291 26.4119C32.4057 27.889 31.1212 28.9922 29.6602 28.876C28.5187 28.7853 27.6074 27.9773 27.3221 26.9235C26.214 27.2029 25.019 27.4019 23.8281 27.524C22.1442 27.6966 20.2907 27.7327 18.5747 27.5538C18.0748 31.0688 16.1256 34.8569 11.9056 38.4091C11.0817 39.1026 9.92938 39.2314 8.98209 38.7358L7.39528 37.9056C6.0963 37.226 5.59456 35.6077 6.2746 34.2911L6.75812 34.5441L6.2746 34.2911C6.94659 32.9901 8.52109 32.4705 9.81167 33.1141C11.3495 31.5769 12.2747 30.1073 12.7991 28.7679C10.1625 29.9732 8.29182 30.6063 6.77164 31.1026C5.37407 31.5588 3.88166 30.7859 3.43825 29.3762C2.99485 27.9666 3.76835 26.454 5.16591 25.9978C6.87539 25.4397 9.04964 24.7052 12.5131 22.9839C12.4897 22.8995 12.4678 22.8142 12.4476 22.7277L12.9788 22.5981L12.4476 22.7277C12.1881 21.6167 12.247 20.5481 12.4098 19.3401ZM15.2514 18.1206C14.3959 18.0078 13.6079 18.6176 13.4913 19.4828C13.3345 20.6462 13.2966 21.5549 13.5101 22.4685C13.5582 22.6747 13.619 22.8773 13.6899 23.0782C13.7827 23.3411 13.6656 23.6338 13.4174 23.7591C9.64222 25.6653 7.30654 26.4562 5.49602 27.0472C4.67307 27.3159 4.21759 28.2065 4.47869 29.0366C4.73979 29.8667 5.61859 30.3218 6.44154 30.0532C8.14445 29.4973 10.277 28.773 13.4634 27.2433C13.6538 27.1519 13.8786 27.1789 14.0412 27.3126C14.2039 27.4464 14.2755 27.6631 14.2253 27.8698C13.7541 29.8091 12.595 31.9666 10.2818 34.1851C10.1125 34.3475 9.86043 34.3841 9.65418 34.2762L9.35167 34.1179C8.58678 33.7178 7.64209 34.0218 7.24164 34.7971C6.8412 35.5723 7.13665 36.5252 7.90155 36.9254L9.48836 37.7556C10.0462 38.0474 10.7247 37.9716 11.2099 37.5633C15.4682 33.9788 17.2233 30.2286 17.5564 26.8894C17.5713 26.7402 17.6455 26.6032 17.7621 26.5099C17.8787 26.4166 18.0276 26.3751 18.1744 26.3948C19.9355 26.6316 21.9216 26.6114 23.7241 26.4266C25.0829 26.2873 26.4323 26.0454 27.6279 25.7014C27.7916 25.6543 27.9673 25.6868 28.103 25.7894C28.2387 25.8919 28.3191 26.0528 28.3203 26.2246C28.3261 27.0312 28.9407 27.7119 29.7521 27.7764C30.6124 27.8448 31.3687 27.1952 31.4414 26.3254L31.735 22.8116C31.7907 22.1454 31.4257 21.5184 30.8237 21.2456C30.2216 20.9728 29.5126 21.1133 29.0531 21.5965C28.9175 21.7391 28.6904 21.8956 28.3891 22.0525C28.0763 22.2153 27.6513 22.3951 27.0927 22.5712C26.0554 22.8983 24.7771 23.1448 23.4263 23.2833C23.127 23.314 22.8297 23.3389 22.5357 23.3582C22.2878 23.3744 22.0613 23.2196 21.9845 22.9815C21.9077 22.7433 21.9999 22.4819 22.209 22.3452C23.5617 21.4611 24.9629 20.4804 26.5562 19.3094C27.2563 18.7948 27.4144 17.8065 26.9092 17.102C26.404 16.3974 25.4269 16.2434 24.7267 16.758C21.8966 18.838 19.7148 20.284 17.303 21.6686C17.1365 21.7642 16.9332 21.7652 16.7669 21.6711C16.6006 21.5771 16.4955 21.4018 16.4899 21.2089C16.4812 20.9085 16.5071 20.501 16.5892 19.8914L17.13 19.9627L16.5892 19.8914C16.7058 19.0263 16.1069 18.2335 15.2514 18.1206Z" fill="#3A3A3A"/>
<path fill-rule="evenodd" clip-rule="evenodd" d="M8.68546 37.8316C8.42937 36.6844 9.14321 35.5393 10.2799 35.2738C13.2079 34.5901 20.1648 32.1124 26.3368 27.4632C27.2557 26.7711 28.1538 26.0333 29.0161 25.2492C29.8847 24.4593 31.2184 24.527 31.995 25.4003C32.7716 26.2736 32.6969 27.6218 31.8283 28.4117C31.4693 28.7381 31.1058 29.0565 30.7386 29.3669C32.7174 31.5904 35.1399 34.9883 36.3412 39.2924C36.4949 39.843 36.4225 40.4342 36.1403 40.9328C35.1643 42.657 32.9408 45.0737 29.9335 47.0393C26.8864 49.0309 22.8479 50.6827 18.2015 50.5997C17.0366 50.5789 16.1145 49.6076 16.1418 48.4303C16.1691 47.2529 17.1356 46.3154 18.3004 46.3362C21.8994 46.4006 25.1204 45.1204 27.6565 43.4627C29.7052 42.1237 31.1895 40.6163 31.9953 39.5535C30.8907 36.3094 28.9406 33.6946 27.3493 31.9575C21.039 36.3265 14.3541 38.6934 11.2073 39.4282C10.0706 39.6936 8.94155 38.9788 8.68546 37.8316Z" fill="#ECECEC"/>
<path fill-rule="evenodd" clip-rule="evenodd" d="M8.1526 37.9554C7.83023 36.5113 8.72881 35.0697 10.1596 34.7356C13.027 34.066 19.9112 31.6165 26.0123 27.0207C26.9188 26.3378 27.8036 25.6109 28.6523 24.8391C29.7458 23.8448 31.4246 23.9299 32.4022 25.0293C33.3797 26.1286 33.2858 27.8258 32.1923 28.82C31.9687 29.0234 31.7434 29.2236 31.5167 29.4207C33.4529 31.6802 35.71 34.9938 36.867 39.1392C37.0604 39.8323 36.9693 40.5765 36.614 41.2041C35.5848 43.0224 33.2913 45.4996 30.2283 47.5017C27.115 49.5365 22.9707 51.2365 18.1886 51.151C16.7223 51.1248 15.5615 49.9021 15.5959 48.4201C15.6303 46.9381 16.8468 45.7579 18.3131 45.7841C21.7767 45.846 24.892 44.6138 27.362 42.9994C29.2098 41.7917 30.5785 40.4477 31.3801 39.4525C30.3676 36.6409 28.7085 34.3227 27.2614 32.6818C21.0057 36.9221 14.4665 39.232 11.327 39.9651C9.89622 40.2993 8.47497 39.3995 8.1526 37.9554ZM10.3996 35.8107C9.5571 36.0074 9.02797 36.8563 9.2178 37.7066C9.40762 38.557 10.2445 39.0868 11.0871 38.8901C14.1753 38.1689 20.7954 35.8275 27.0426 31.5021C27.2664 31.3472 27.5677 31.3806 27.751 31.5806C29.3719 33.3501 31.3741 36.0293 32.5118 39.3707C32.5714 39.5455 32.5399 39.7394 32.4281 39.8869C31.5832 41.0012 30.052 42.5519 27.9512 43.925C25.3488 45.6259 22.022 46.9542 18.2875 46.8874C17.4241 46.872 16.7078 47.5669 16.6875 48.4396C16.6672 49.3123 17.3508 50.0323 18.2142 50.0477C22.7251 50.1283 26.6579 48.5246 29.639 46.5761C32.5906 44.6469 34.7443 42.2906 35.667 40.6603C35.8762 40.2908 35.9299 39.8526 35.816 39.4445C34.6451 35.2494 32.2787 31.9238 30.3319 29.7364C30.2331 29.6253 30.1834 29.4781 30.1943 29.3286C30.2053 29.1791 30.2759 29.0402 30.3899 28.9438C30.7521 28.6375 31.1106 28.3235 31.4646 28.0016C32.1085 27.4162 32.1638 26.4168 31.5882 25.7695C31.0125 25.1221 30.024 25.072 29.3801 25.6575C28.5042 26.454 27.5929 27.2025 26.6616 27.9041C20.4184 32.6069 13.3884 35.1127 10.3996 35.8107Z" fill="#3A3A3A"/>
<path d="M18.1236 26.9457C17.7725 30.4479 15.9309 34.3225 11.5789 37.9847C10.9244 38.5355 10.0092 38.6381 9.25705 38.2451L7.67114 37.4163C6.63979 36.8773 6.24192 35.593 6.78247 34.5476C7.32302 33.5023 8.59731 33.0918 9.62866 33.6308L9.93099 33.7888L18.1236 26.9457Z" fill="#ECECEC"/>
<path fill-rule="evenodd" clip-rule="evenodd" d="M13.8493 27.2048C14.142 27.2757 14.3208 27.5732 14.2487 27.8693C13.7766 29.8083 12.6165 31.9657 10.3023 34.1846C10.1328 34.347 9.88078 34.3837 9.67457 34.2759L9.37214 34.1179C8.60742 33.7182 7.66258 34.0226 7.26178 34.7978C6.86098 35.573 7.15598 36.5255 7.9207 36.9252L9.50713 37.7543C10.0648 38.0458 10.7434 37.9697 11.2287 37.5612C15.4888 33.9758 17.2456 30.226 17.5802 26.8876C17.6106 26.5845 17.8784 26.362 18.1783 26.3906C18.4782 26.4193 18.6966 26.6883 18.6662 26.9914C18.2984 30.6607 16.3709 34.6639 11.9241 38.4065C11.0999 39.1002 9.94748 39.2294 9.00041 38.7344L7.41397 37.9052C6.1153 37.2265 5.6143 35.609 6.29496 34.2925C6.96756 32.9916 8.54231 32.4714 9.8326 33.1142C11.8273 31.1209 12.7922 29.2417 13.1888 27.6127C13.2609 27.3166 13.5566 27.134 13.8493 27.2048Z" fill="#3A3A3A"/>
<path fill-rule="evenodd" clip-rule="evenodd" d="M18.0415 25.2291C18.3411 25.1897 18.6139 25.4029 18.6508 25.7052C18.712 26.2054 18.6715 26.8277 18.6454 27.0751L17.5586 26.9653C17.5815 26.7488 17.6122 26.2242 17.5661 25.8479C17.5292 25.5455 17.742 25.2685 18.0415 25.2291Z" fill="#3A3A3A"/>
<path d="M23.9487 39.3282C25.3903 42.1042 24.7823 45.3045 22.5907 46.4762C20.399 47.6479 17.4536 46.3474 16.012 43.5714C14.5703 40.7953 15.1783 37.5951 17.37 36.4233C19.5616 35.2516 22.507 36.5522 23.9487 39.3282Z" fill="#ECECEC"/>
<path d="M23.9487 39.3282C25.3903 42.1042 24.7823 45.3045 22.5907 46.4762C20.399 47.6479 17.4536 46.3474 16.012 43.5714C14.5703 40.7953 15.1783 37.5951 17.37 36.4233C19.5616 35.2516 22.507 36.5522 23.9487 39.3282Z" fill="#ECECEC"/>
<path fill-rule="evenodd" clip-rule="evenodd" d="M22.0841 45.5007C23.546 44.7191 24.2566 42.3031 22.9804 39.8458C21.7043 37.3885 19.3386 36.6173 17.8766 37.3989C16.4146 38.1805 15.7041 40.5964 16.9802 43.0537C18.2563 45.511 20.6221 46.2823 22.0841 45.5007ZM22.5907 46.4762C24.7823 45.3045 25.3903 42.1042 23.9487 39.3282C22.507 36.5522 19.5616 35.2516 17.37 36.4233C15.1783 37.5951 14.5703 40.7953 16.012 43.5714C17.4536 46.3474 20.399 47.6479 22.5907 46.4762Z" fill="#3A3A3A"/>
<path d="M23.9884 39.3824C24.9222 41.1805 24.5117 43.2623 23.0715 44.0323C21.6313 44.8023 19.7068 43.9688 18.773 42.1707C17.8393 40.3727 18.2498 38.2909 19.69 37.5209C21.1302 36.7509 23.0547 37.5843 23.9884 39.3824Z" fill="#3A3A3A"/>
<path fill-rule="evenodd" clip-rule="evenodd" d="M22.5649 43.0568C23.2868 42.6708 23.7811 41.3651 23.0202 39.9001C22.2594 38.435 20.9185 38.1104 20.1966 38.4964C19.4747 38.8824 18.9804 40.1881 19.7412 41.6531C20.5021 43.1181 21.843 43.4427 22.5649 43.0568ZM23.0715 44.0323C24.5117 43.2623 24.9222 41.1805 23.9884 39.3824C23.0547 37.5843 21.1302 36.7509 19.69 37.5209C18.2498 38.2909 17.8393 40.3727 18.773 42.1707C19.7068 43.9688 21.6313 44.8023 23.0715 44.0323Z" fill="#3A3A3A"/>
<path d="M29.8281 36.1924C31.2697 38.9685 30.6617 42.1688 28.4701 43.3405C26.2784 44.5122 23.333 43.2117 21.8914 40.4356C20.4497 37.6596 21.0577 34.4593 23.2493 33.2876C25.441 32.1159 28.3864 33.4164 29.8281 36.1924Z" fill="#ECECEC"/>
<path d="M29.8281 36.1924C31.2697 38.9685 30.6617 42.1688 28.4701 43.3405C26.2784 44.5122 23.333 43.2117 21.8914 40.4356C20.4497 37.6596 21.0577 34.4593 23.2493 33.2876C25.441 32.1159 28.3864 33.4164 29.8281 36.1924Z" fill="#ECECEC"/>
<path fill-rule="evenodd" clip-rule="evenodd" d="M27.9635 42.3649C29.4254 41.5833 30.136 39.1674 28.8598 36.7101C27.5837 34.2528 25.218 33.4815 23.756 34.2631C22.294 35.0448 21.5835 37.4607 22.8596 39.918C24.1357 42.3753 26.5015 43.1466 27.9635 42.3649ZM28.4701 43.3405C30.6617 42.1688 31.2697 38.9685 29.8281 36.1924C28.3864 33.4164 25.441 32.1159 23.2493 33.2876C21.0577 34.4593 20.4497 37.6596 21.8914 40.4356C23.333 43.2117 26.2784 44.5122 28.4701 43.3405Z" fill="#3A3A3A"/>
<path d="M29.8678 36.2457C30.8016 38.0438 30.3911 40.1256 28.9509 40.8956C27.5107 41.6655 25.5862 40.8321 24.6524 39.034C23.7187 37.2359 24.1292 35.1541 25.5694 34.3842C27.0096 33.6142 28.9341 34.4476 29.8678 36.2457Z" fill="#3A3A3A"/>
<path fill-rule="evenodd" clip-rule="evenodd" d="M28.4443 39.92C29.1662 39.5341 29.6605 38.2284 28.8996 36.7633C28.1388 35.2983 26.7979 34.9737 26.076 35.3597C25.3541 35.7456 24.8598 37.0513 25.6206 38.5164C26.3815 39.9814 27.7224 40.306 28.4443 39.92ZM28.9509 40.8956C30.3911 40.1256 30.8016 38.0438 29.8678 36.2457C28.9341 34.4476 27.0096 33.6142 25.5694 34.3842C24.1292 35.1541 23.7187 37.2359 24.6524 39.034C25.5862 40.8321 27.5107 41.6655 28.9509 40.8956Z" fill="#3A3A3A"/>
<path fill-rule="evenodd" clip-rule="evenodd" d="M32.8506 38.0612C33.1291 38.1766 33.261 38.4988 33.1453 38.7809C33.0429 39.0304 32.8652 39.3036 32.709 39.5221C32.5467 39.7489 32.3793 39.9556 32.271 40.0806L31.451 39.3563C31.5389 39.2549 31.6847 39.0752 31.8251 38.8789C31.9715 38.6742 32.0858 38.4874 32.1368 38.3631C32.2526 38.081 32.5722 37.9459 32.8506 38.0612Z" fill="#3A3A3A"/>
<path fill-rule="evenodd" clip-rule="evenodd" d="M159.455 42.8679C159.213 44.0195 158.093 44.7511 156.954 44.5019C154.427 43.9488 151.979 42.586 150.012 41.2849C149.885 41.2013 149.759 41.117 149.635 41.0324C150.451 43.2305 152.05 45.9153 155.174 48.7313C156.045 49.5162 156.125 50.8649 155.352 51.7436C154.579 52.6222 153.246 52.6982 152.376 51.9133C148.633 48.5401 146.678 45.2277 145.66 42.4456C145.171 43.0276 144.642 43.5654 144.079 44.0365C142.971 44.9648 141.615 45.7323 140.083 45.9513C138.485 46.1796 136.867 45.7835 135.407 44.6734C134.474 43.9646 134.284 42.627 134.981 41.6858C135.679 40.7447 137 40.5563 137.932 41.2652C138.519 41.7108 139.016 41.7926 139.48 41.7264C140.009 41.6508 140.661 41.3513 141.385 40.7457C141.647 40.5263 141.902 40.2797 142.148 40.0123C138.55 40.1985 134.385 38.833 130.864 35.5552C130.005 34.7563 129.947 33.4066 130.734 32.5406C131.521 31.6746 132.854 31.6203 133.713 32.4193C136.842 35.3317 140.18 36.0206 142.596 35.6717C141.199 34.5074 140.02 33.4325 139.065 32.4721C138.294 31.6977 137.65 30.9787 137.148 30.3314C136.669 29.7134 136.232 29.0498 135.984 28.3944C135.568 27.2928 136.111 26.0609 137.198 25.6429C138.286 25.2248 139.505 25.7789 139.922 26.8805C139.944 26.9405 140.076 27.2064 140.463 27.7053C140.827 28.1748 141.345 28.76 142.031 29.4501C143.4 30.8262 145.364 32.5439 147.929 34.495C148.265 34.7422 148.631 35.0233 149.028 35.3291C149.943 36.0328 151.027 36.8667 152.31 37.7156C154.136 38.9236 156.066 39.945 157.832 40.3316C158.971 40.5808 159.698 41.7163 159.455 42.8679Z" fill="#ECECEC"/>
<path fill-rule="evenodd" clip-rule="evenodd" d="M157.946 39.7922C159.38 40.1059 160.295 41.5353 159.989 42.985C159.684 44.4346 158.275 45.3555 156.841 45.0418C154.703 44.5739 152.639 43.5545 150.874 42.483C151.782 44.2434 153.228 46.2394 155.537 48.3199C156.633 49.308 156.733 51.0057 155.76 52.1118C154.787 53.2179 153.11 53.3136 152.014 52.3255C148.571 49.2221 146.599 46.1548 145.478 43.4745C145.143 43.8257 144.793 44.157 144.428 44.4626C143.27 45.4325 141.824 46.2607 140.161 46.4983C138.416 46.7476 136.653 46.3108 135.08 45.1148C133.906 44.2225 133.667 42.5387 134.544 41.3539C135.422 40.1692 137.085 39.9321 138.259 40.8244C138.732 41.184 139.084 41.2253 139.402 41.1799C139.739 41.1317 140.192 40.9536 140.731 40.5593C137.348 40.367 133.661 38.9079 130.495 35.9611C129.414 34.9553 129.341 33.2563 130.332 32.1663C131.322 31.0762 133.001 31.0078 134.081 32.0136C136.542 34.3038 139.111 35.1453 141.195 35.1998C140.237 34.3666 139.398 33.5843 138.681 32.8632C137.899 32.0778 137.239 31.3415 136.719 30.6712C136.228 30.0375 135.752 29.3225 135.475 28.5902C134.95 27.2035 135.635 25.6528 137.003 25.1266C138.372 24.6003 139.906 25.2978 140.431 26.6845C140.43 26.6824 140.431 26.6836 140.433 26.6881C140.45 26.7215 140.561 26.9386 140.892 27.3654C141.238 27.812 141.739 28.3798 142.415 29.059C143.761 30.4123 145.703 32.1125 148.253 34.0515C148.592 34.3016 148.961 34.5848 149.354 34.8876L149.357 34.8901C150.273 35.5943 151.343 36.4171 152.608 37.2539C154.416 38.45 156.278 39.4272 157.946 39.7922ZM158.922 42.7514C159.102 41.8978 158.563 41.0561 157.719 40.8714C155.854 40.4633 153.857 39.3975 152.013 38.1776C150.713 37.3179 149.616 36.4741 148.703 35.7714L148.699 35.7683C148.3 35.4616 147.94 35.1843 147.609 34.9413C147.607 34.9396 147.605 34.9378 147.602 34.9361C145.022 32.9737 143.038 31.2394 141.647 29.8411C140.95 29.1401 140.416 28.5376 140.034 28.045C139.636 27.5314 139.464 27.2138 139.412 27.0763C139.103 26.2597 138.2 25.849 137.394 26.1589C136.588 26.4688 136.185 27.3819 136.494 28.1984C136.713 28.777 137.11 29.3893 137.577 29.9916C138.061 30.6159 138.689 31.3176 139.448 32.0811C140.389 33.0272 141.555 34.0906 142.942 35.2461C143.109 35.3853 143.179 35.6109 143.121 35.8214C143.063 36.0318 142.888 36.1875 142.674 36.2184C140.091 36.5915 136.59 35.8462 133.344 32.8251C132.708 32.2329 131.719 32.2731 131.136 32.915C130.553 33.5569 130.596 34.5573 131.232 35.1496C134.651 38.3321 138.675 39.6394 142.119 39.4612C142.341 39.4497 142.548 39.5758 142.642 39.7799C142.737 39.9839 142.699 40.2252 142.548 40.3896C142.288 40.6723 142.015 40.9355 141.733 41.1717C140.96 41.8193 140.216 42.1792 139.558 42.2733C138.947 42.3605 138.305 42.2382 137.606 41.7064C136.914 41.181 135.935 41.3206 135.418 42.0182C134.901 42.7159 135.042 43.7073 135.734 44.2328C137.081 45.2569 138.554 45.6123 140.005 45.4049C141.407 45.2045 142.672 44.4976 143.731 43.611C144.266 43.1626 144.773 42.6479 145.244 42.0874C145.37 41.9382 145.564 41.8678 145.755 41.9024C145.946 41.937 146.105 42.0715 146.172 42.2557C147.158 44.9508 149.061 48.1877 152.738 51.502C153.384 52.0839 154.371 52.0275 154.944 51.3762C155.517 50.7249 155.458 49.7252 154.812 49.1434C151.625 46.2709 149.974 43.512 149.124 41.2253C149.041 41.0007 149.11 40.7476 149.296 40.5991C149.481 40.4506 149.741 40.4406 149.938 40.5744C150.061 40.6579 150.185 40.7409 150.309 40.8233C152.258 42.1122 154.639 43.431 157.068 43.9626C157.912 44.1473 158.742 43.605 158.922 42.7514Z" fill="#3A3A3A"/>
<path fill-rule="evenodd" clip-rule="evenodd" d="M145.791 18.6993C145.793 18.6974 145.795 18.6939 145.804 18.6875C145.813 18.6805 145.835 18.6661 145.876 18.6499C145.962 18.6162 146.123 18.579 146.37 18.5909C146.873 18.6151 147.57 18.8398 148.26 19.3643C148.95 19.8889 149.357 20.5038 149.521 20.9866C149.601 21.2231 149.611 21.3901 149.603 21.4829C149.599 21.5275 149.591 21.5529 149.587 21.564C149.584 21.5741 149.581 21.5777 149.58 21.5796C149.578 21.5815 149.575 21.585 149.567 21.5914C149.558 21.5984 149.536 21.6128 149.494 21.629C149.409 21.6626 149.248 21.6999 149.001 21.688C148.501 21.6639 147.81 21.4418 147.124 20.9241C147.119 20.9209 147.115 20.9177 147.111 20.9145C147.107 20.9113 147.103 20.9081 147.098 20.9049C146.416 20.3825 146.013 19.7721 145.85 19.2923C145.77 19.0557 145.76 18.8888 145.768 18.796C145.772 18.7514 145.779 18.726 145.783 18.7149C145.787 18.7048 145.79 18.7012 145.791 18.6993ZM141.706 19.3901C141.591 18.3275 141.786 17.1914 142.515 16.2082C143.536 14.8292 145.137 14.3871 146.55 14.4552C147.977 14.524 149.449 15.0985 150.71 16.0572C151.971 17.0159 152.927 18.2875 153.391 19.6557C153.85 21.0117 153.878 22.6916 152.856 24.0707C152.128 25.0538 151.105 25.5608 150.066 25.7461C150.181 26.8087 149.986 27.9448 149.257 28.928C148.235 30.307 146.635 30.7491 145.221 30.681C143.795 30.6122 142.323 30.0377 141.062 29.079C139.801 28.1203 138.845 26.8487 138.381 25.4805C137.922 24.1245 137.894 22.4446 138.916 21.0655C139.644 20.0824 140.667 19.5754 141.706 19.3901ZM144.648 24.2121C143.962 23.6943 143.271 23.4723 142.771 23.4482C142.524 23.4363 142.363 23.4736 142.277 23.5072C142.236 23.5234 142.214 23.5378 142.205 23.5448C142.196 23.5512 142.194 23.5547 142.192 23.5566C142.191 23.5585 142.188 23.5621 142.184 23.5722C142.18 23.5833 142.173 23.6087 142.169 23.6533C142.161 23.7461 142.171 23.9131 142.251 24.1496C142.415 24.6324 142.822 25.2473 143.512 25.7719C144.202 26.2964 144.899 26.5211 145.402 26.5453C145.649 26.5572 145.81 26.52 145.895 26.4863C145.937 26.4701 145.959 26.4557 145.968 26.4487C145.977 26.4423 145.979 26.4388 145.981 26.4369C145.982 26.435 145.985 26.4314 145.988 26.4213C145.992 26.4102 146 26.3848 146.004 26.3402C146.012 26.2474 146.002 26.0805 145.922 25.8439C145.759 25.3641 145.356 24.7537 144.673 24.2313C144.669 24.2281 144.665 24.2249 144.661 24.2217C144.656 24.2185 144.652 24.2153 144.648 24.2121Z" fill="#ECECEC"/>
<path fill-rule="evenodd" clip-rule="evenodd" d="M150.383 16.4986C149.198 15.5978 147.829 15.07 146.526 15.0072C145.23 14.9447 143.832 15.3523 142.952 16.5408C142.322 17.3905 142.146 18.3792 142.248 19.3321C142.28 19.6208 142.085 19.8839 141.802 19.9343C140.87 20.1005 139.982 20.5483 139.353 21.398C138.472 22.5865 138.476 24.0595 138.898 25.3029C139.321 26.5529 140.204 27.7369 141.389 28.6377C142.573 29.5385 143.942 30.0663 145.245 30.1291C146.542 30.1916 147.939 29.7841 148.82 28.5956C149.449 27.7458 149.626 26.7572 149.523 25.8042C149.492 25.5155 149.687 25.2524 149.969 25.2021C150.901 25.0358 151.789 24.5881 152.419 23.7383C153.299 22.5498 153.295 21.0768 152.874 19.8334C152.45 18.5835 151.568 17.3995 150.383 16.4986ZM146.574 13.9036C148.124 13.9783 149.7 14.5996 151.037 15.6161C152.374 16.6326 153.403 17.9918 153.907 19.4783C154.404 20.9468 154.456 22.8336 153.293 24.4031C152.581 25.3642 151.624 25.9175 150.641 26.1833C150.664 27.2144 150.406 28.2992 149.694 29.2603C148.531 30.8298 146.728 31.3066 145.197 31.2328C143.648 31.1581 142.072 30.5368 140.735 29.5203C139.398 28.5037 138.369 27.1445 137.865 25.6581C137.367 24.1895 137.316 22.3027 138.478 20.7333C139.191 19.7721 140.147 19.2189 141.131 18.953C141.108 17.9219 141.365 16.8371 142.077 15.876C143.24 14.3065 145.043 13.8298 146.574 13.9036ZM146.394 18.0392C147.02 18.0694 147.82 18.3405 148.586 18.9232C149.353 19.5058 149.833 20.2084 150.037 20.8091C150.138 21.1063 150.162 21.351 150.146 21.5326C150.139 21.6223 150.121 21.6957 150.1 21.7554C150.078 21.815 150.051 21.8663 150.017 21.9121C149.983 21.9578 149.942 21.9992 149.891 22.0368C149.841 22.0744 149.776 22.1117 149.693 22.1442C149.525 22.2101 149.287 22.2548 148.977 22.2399C148.354 22.2099 147.56 21.9418 146.798 21.3666L146.796 21.3649L146.784 21.3559L146.772 21.3469L146.77 21.3452C146.012 20.7647 145.536 20.0671 145.333 19.47C145.233 19.1728 145.209 18.9281 145.224 18.7465C145.232 18.6568 145.249 18.5834 145.271 18.5237C145.292 18.4641 145.32 18.4128 145.354 18.367C145.388 18.3212 145.429 18.2799 145.479 18.2423C145.53 18.2046 145.594 18.1674 145.677 18.1349C145.845 18.069 146.084 18.0242 146.394 18.0392ZM146.377 19.1447C146.507 19.5056 146.836 20.0126 147.426 20.4643L147.438 20.4733L147.45 20.4824C148.043 20.9297 148.615 21.1083 148.994 21.1344C148.862 20.771 148.53 20.2596 147.933 19.8057C147.336 19.3518 146.758 19.171 146.377 19.1447Z" fill="#3A3A3A"/>
<path fill-rule="evenodd" clip-rule="evenodd" d="M142.822 22.9039C143.448 22.9341 144.248 23.2052 145.015 23.7879C145.781 24.3706 146.262 25.0731 146.465 25.6739C146.566 25.9711 146.59 26.2157 146.574 26.3973C146.567 26.487 146.55 26.5605 146.528 26.6201C146.506 26.6797 146.479 26.731 146.445 26.7768C146.411 26.8226 146.37 26.8639 146.32 26.9015C146.269 26.9392 146.204 26.9764 146.121 27.009C145.954 27.0748 145.715 27.1196 145.405 27.1046C144.782 27.0746 143.988 26.8066 143.226 26.2314L143.224 26.2296L143.212 26.2206L143.2 26.2117L143.198 26.2099C142.44 25.6295 141.964 24.9318 141.762 24.3347C141.661 24.0375 141.637 23.7928 141.652 23.6113C141.66 23.5215 141.677 23.4481 141.699 23.3884C141.72 23.3288 141.748 23.2776 141.782 23.2318C141.816 23.186 141.857 23.1446 141.907 23.1071C141.958 23.0694 142.023 23.0321 142.105 22.9996C142.273 22.9337 142.512 22.889 142.822 22.9039ZM142.805 24.0094C142.935 24.3703 143.265 24.8773 143.854 25.329L143.866 25.3381L143.878 25.3471C144.471 25.7945 145.043 25.973 145.422 25.9992C145.291 25.6357 144.958 25.1243 144.361 24.6705C143.764 24.2166 143.186 24.0357 142.805 24.0094Z" fill="#3A3A3A"/>
<path fill-rule="evenodd" clip-rule="evenodd" d="M160.612 29.962C160.614 29.9601 160.616 29.9566 160.625 29.9502C160.634 29.9432 160.656 29.9287 160.697 29.9126C160.783 29.8789 160.944 29.8417 161.191 29.8536C161.694 29.8778 162.391 30.1025 163.081 30.627C163.771 31.1516 164.178 31.7665 164.342 32.2493C164.422 32.4858 164.432 32.6528 164.424 32.7456C164.42 32.7901 164.412 32.8156 164.408 32.8267C164.405 32.8368 164.402 32.8404 164.401 32.8423C164.399 32.8442 164.397 32.8477 164.388 32.8541C164.379 32.8611 164.357 32.8755 164.315 32.8917C164.23 32.9253 164.069 32.9626 163.822 32.9507C163.322 32.9266 162.631 32.7045 161.945 32.1868C161.941 32.1836 161.936 32.1804 161.932 32.1772C161.928 32.174 161.924 32.1708 161.919 32.1676C161.237 31.6452 160.834 31.0348 160.671 30.555C160.591 30.3184 160.581 30.1515 160.589 30.0587C160.593 30.0141 160.6 29.9886 160.604 29.9776C160.608 29.9675 160.611 29.9639 160.612 29.962ZM156.527 30.6528C156.412 29.5902 156.607 28.4541 157.336 27.4709C158.357 26.0919 159.958 25.6498 161.371 25.7179C162.798 25.7867 164.27 26.3612 165.531 27.3199C166.792 28.2786 167.748 29.5502 168.212 30.9184C168.671 32.2744 168.699 33.9543 167.677 35.3333C166.949 36.3165 165.926 36.8234 164.887 37.0088C165.002 38.0714 164.807 39.2075 164.078 40.1907C163.056 41.5697 161.456 42.0118 160.042 41.9437C158.616 41.8749 157.144 41.3004 155.883 40.3417C154.622 39.383 153.666 38.1114 153.202 36.7432C152.743 35.3872 152.715 33.7073 153.737 32.3282C154.465 31.3451 155.488 30.8381 156.527 30.6528ZM159.469 35.4748C158.783 34.957 158.092 34.735 157.592 34.7109C157.345 34.699 157.184 34.7363 157.098 34.7699C157.057 34.7861 157.035 34.8005 157.026 34.8075C157.017 34.8139 157.015 34.8174 157.013 34.8193C157.012 34.8212 157.009 34.8248 157.006 34.8349C157.002 34.846 156.994 34.8714 156.99 34.916C156.982 35.0088 156.992 35.1757 157.072 35.4123C157.236 35.8951 157.643 36.51 158.333 37.0346C159.023 37.5591 159.72 37.7838 160.223 37.808C160.47 37.8199 160.631 37.7827 160.716 37.749C160.758 37.7328 160.78 37.7184 160.789 37.7114C160.798 37.705 160.8 37.7015 160.802 37.6996C160.803 37.6977 160.806 37.6941 160.809 37.684C160.813 37.6729 160.821 37.6475 160.825 37.6029C160.833 37.5101 160.823 37.3432 160.743 37.1066C160.58 36.6268 160.177 36.0164 159.494 35.494C159.49 35.4908 159.486 35.4876 159.482 35.4844C159.477 35.4812 159.473 35.478 159.469 35.4748Z" fill="#ECECEC"/>
<path fill-rule="evenodd" clip-rule="evenodd" d="M165.204 27.7613C164.019 26.8605 162.65 26.3327 161.347 26.2699C160.051 26.2074 158.653 26.615 157.773 27.8035C157.143 28.6532 156.967 29.6419 157.069 30.5948C157.101 30.8835 156.906 31.1466 156.623 31.197C155.691 31.3632 154.803 31.811 154.174 32.6607C153.293 33.8492 153.297 35.3222 153.719 36.5656C154.142 37.8156 155.025 38.9996 156.21 39.9004C157.394 40.8012 158.763 41.329 160.066 41.3918C161.363 41.4543 162.76 41.0467 163.641 39.8583C164.27 39.0085 164.447 38.0199 164.344 37.0669C164.313 36.7782 164.508 36.5151 164.79 36.4648C165.722 36.2985 166.61 35.8508 167.24 35.001C168.12 33.8125 168.116 32.3395 167.695 31.0961C167.271 29.8462 166.389 28.6622 165.204 27.7613ZM161.395 25.1663C162.945 25.241 164.521 25.8623 165.858 26.8788C167.195 27.8953 168.224 29.2545 168.728 30.7409C169.225 32.2095 169.277 34.0963 168.114 35.6658C167.402 36.6269 166.446 37.1802 165.462 37.446C165.485 38.4771 165.227 39.5619 164.515 40.523C163.352 42.0925 161.549 42.5693 160.018 42.4955C158.469 42.4208 156.893 41.7995 155.556 40.783C154.219 39.7664 153.19 38.4072 152.686 36.9208C152.188 35.4522 152.137 33.5654 153.299 31.9959C154.012 31.0348 154.968 30.4816 155.952 30.2157C155.929 29.1846 156.186 28.0998 156.898 27.1387C158.061 25.5692 159.864 25.0925 161.395 25.1663ZM161.215 29.3019C161.841 29.3321 162.641 29.6032 163.408 30.1859C164.174 30.7685 164.654 31.4711 164.858 32.0718C164.959 32.369 164.983 32.6137 164.967 32.7953C164.96 32.885 164.942 32.9584 164.921 33.0181C164.899 33.0777 164.872 33.129 164.838 33.1748C164.804 33.2205 164.763 33.2619 164.712 33.2995C164.662 33.3371 164.597 33.3744 164.514 33.4069C164.346 33.4728 164.108 33.5175 163.798 33.5026C163.175 33.4726 162.381 33.2045 161.619 32.6293L161.617 32.6276L161.605 32.6186L161.593 32.6096L161.591 32.6079C160.833 32.0274 160.357 31.3298 160.155 30.7327C160.054 30.4355 160.03 30.1908 160.045 30.0092C160.053 29.9195 160.07 29.8461 160.092 29.7864C160.113 29.7268 160.141 29.6755 160.175 29.6297C160.209 29.5839 160.25 29.5426 160.3 29.505C160.351 29.4673 160.415 29.4301 160.498 29.3975C160.666 29.3317 160.905 29.2869 161.215 29.3019ZM161.198 30.4074C161.328 30.7683 161.657 31.2753 162.247 31.727L162.259 31.736L162.271 31.7451C162.864 32.1924 163.436 32.371 163.815 32.3971C163.683 32.0337 163.351 31.5223 162.754 31.0684C162.157 30.6145 161.579 30.4337 161.198 30.4074Z" fill="#3A3A3A"/>
<path fill-rule="evenodd" clip-rule="evenodd" d="M157.643 34.1666C158.269 34.1968 159.069 34.4679 159.836 35.0506C160.602 35.6333 161.083 36.3358 161.286 36.9366C161.387 37.2338 161.411 37.4784 161.396 37.66C161.388 37.7497 161.371 37.8231 161.349 37.8828C161.328 37.9424 161.3 37.9937 161.266 38.0395C161.232 38.0853 161.191 38.1266 161.141 38.1642C161.09 38.2019 161.025 38.2391 160.942 38.2717C160.775 38.3375 160.536 38.3823 160.226 38.3673C159.603 38.3373 158.809 38.0692 158.047 37.4941L158.045 37.4923L158.033 37.4833L158.021 37.4743L158.019 37.4726C157.261 36.8922 156.785 36.1945 156.583 35.5974C156.482 35.3002 156.458 35.0555 156.473 34.874C156.481 34.7842 156.498 34.7108 156.52 34.6511C156.541 34.5915 156.569 34.5402 156.603 34.4945C156.637 34.4487 156.678 34.4073 156.728 34.3697C156.779 34.3321 156.844 34.2948 156.927 34.2623C157.094 34.1964 157.333 34.1517 157.643 34.1666ZM157.626 35.2721C157.756 35.633 158.086 36.14 158.675 36.5917L158.687 36.6008L158.699 36.6098C159.292 37.0572 159.864 37.2357 160.243 37.2619C160.112 36.8984 159.779 36.387 159.182 35.9332C158.585 35.4793 158.007 35.2984 157.626 35.2721Z" fill="#3A3A3A"/>
<path d="M154.325 28.9825C152.084 32.0079 148.57 33.1708 146.477 31.5799C144.385 29.9889 144.506 26.2466 146.747 23.2212C148.989 20.1958 152.503 19.0329 154.595 20.6238C156.688 22.2148 156.567 25.9571 154.325 28.9825Z" fill="#ECECEC"/>
<path d="M154.325 28.9825C152.084 32.0079 148.57 33.1708 146.477 31.5799C144.385 29.9889 144.506 26.2466 146.747 23.2212C148.989 20.1958 152.503 19.0329 154.595 20.6238C156.688 22.2148 156.567 25.9571 154.325 28.9825Z" fill="#ECECEC"/>
<path fill-rule="evenodd" clip-rule="evenodd" d="M150.003 30.9619C151.186 30.5703 152.447 29.672 153.451 28.3176C154.454 26.9633 154.954 25.4854 154.994 24.2253C155.035 22.9607 154.623 22.0246 153.941 21.5065C153.26 20.9883 152.257 20.8488 151.07 21.2418C149.887 21.6333 148.625 22.5317 147.622 23.8861C146.618 25.2404 146.119 26.7183 146.079 27.9784C146.038 29.243 146.45 30.1791 147.131 30.6972C147.813 31.2154 148.816 31.3549 150.003 30.9619ZM146.477 31.5799C148.57 33.1708 152.084 32.0079 154.325 28.9825C156.567 25.9571 156.688 22.2148 154.595 20.6238C152.503 19.0329 148.989 20.1958 146.747 23.2212C144.506 26.2466 144.385 29.9889 146.477 31.5799Z" fill="#3A3A3A"/>
<path d="M151.729 27.0897C150.27 29.059 147.964 29.8015 146.578 28.7481C145.193 27.6946 145.252 25.2442 146.711 23.2748C148.171 21.3055 150.477 20.563 151.862 21.6164C153.248 22.6699 153.188 25.1203 151.729 27.0897Z" fill="#3A3A3A"/>
<path fill-rule="evenodd" clip-rule="evenodd" d="M148.792 27.9993C149.484 27.7764 150.245 27.2479 150.855 26.4248C151.465 25.6018 151.753 24.7143 151.771 23.9786C151.789 23.2397 151.543 22.7536 151.208 22.4991C150.874 22.2445 150.344 22.1413 149.649 22.3652C148.956 22.5881 148.196 23.1166 147.586 23.9397C146.976 24.7627 146.688 25.6502 146.67 26.3859C146.652 27.1248 146.897 27.6109 147.232 27.8655C147.567 28.12 148.096 28.2232 148.792 27.9993ZM146.578 28.7481C147.964 29.8015 150.27 29.059 151.729 27.0897C153.188 25.1203 153.248 22.6699 151.862 21.6164C150.477 20.563 148.171 21.3055 146.711 23.2748C145.252 25.2442 145.193 27.6946 146.578 28.7481Z" fill="#3A3A3A"/>
<path d="M159.947 33.255C157.706 36.2804 154.192 37.4433 152.099 35.8523C150.007 34.2614 150.128 30.5191 152.369 27.4937C154.611 24.4682 158.125 23.3053 160.217 24.8963C162.31 26.4872 162.189 30.2295 159.947 33.255Z" fill="#ECECEC"/>
<path d="M159.947 33.255C157.706 36.2804 154.192 37.4433 152.099 35.8523C150.007 34.2614 150.128 30.5191 152.369 27.4937C154.611 24.4682 158.125 23.3053 160.217 24.8963C162.31 26.4872 162.189 30.2295 159.947 33.255Z" fill="#ECECEC"/>
<path fill-rule="evenodd" clip-rule="evenodd" d="M155.625 35.2344C156.808 34.8428 158.069 33.9444 159.073 32.5901C160.076 31.2358 160.575 29.7579 160.616 28.4978C160.657 27.2332 160.245 26.2971 159.563 25.7789C158.882 25.2608 157.879 25.1213 156.692 25.5142C155.509 25.9058 154.247 26.8042 153.244 28.1585C152.24 29.5129 151.741 30.9907 151.7 32.2508C151.66 33.5154 152.072 34.4515 152.753 34.9697C153.435 35.4878 154.437 35.6273 155.625 35.2344ZM152.099 35.8523C154.192 37.4433 157.706 36.2804 159.947 33.255C162.189 30.2295 162.31 26.4872 160.217 24.8963C158.125 23.3053 154.611 24.4682 152.369 27.4937C150.128 30.5191 150.007 34.2614 152.099 35.8523Z" fill="#3A3A3A"/>
<path d="M157.249 31.2844C155.79 33.2538 153.506 34.0137 152.149 32.9818C150.792 31.9498 150.874 29.5167 152.333 27.5473C153.793 25.578 156.076 24.818 157.433 25.85C158.791 26.8819 158.708 29.315 157.249 31.2844Z" fill="#3A3A3A"/>
<path fill-rule="evenodd" clip-rule="evenodd" d="M154.316 32.2088C155.003 31.9803 155.762 31.4465 156.374 30.6196C156.987 29.7926 157.281 28.9053 157.306 28.1739C157.331 27.4377 157.092 26.9702 156.779 26.7326C156.467 26.495 155.957 26.3931 155.266 26.623C154.58 26.8514 153.821 27.3852 153.208 28.2122C152.595 29.0392 152.301 29.9265 152.276 30.6578C152.251 31.394 152.491 31.8615 152.803 32.0991C153.116 32.3367 153.625 32.4387 154.316 32.2088ZM152.149 32.9818C153.506 34.0137 155.79 33.2538 157.249 31.2844C158.708 29.315 158.791 26.8819 157.433 25.85C156.076 24.818 153.793 25.578 152.333 27.5473C150.874 29.5167 150.792 31.9498 152.149 32.9818Z" fill="#3A3A3A"/>
<path fill-rule="evenodd" clip-rule="evenodd" d="M155.934 18.7158C155.599 18.4575 155.176 18.2804 154.462 18.1428C154.046 18.0625 153.772 17.6564 153.85 17.2357C153.928 16.815 154.328 16.5389 154.744 16.6192C155.584 16.7812 156.265 17.0238 156.861 17.4836C157.447 17.9355 157.887 18.5487 158.334 19.3251C158.547 19.6957 158.424 20.1702 158.058 20.3849C157.693 20.5997 157.223 20.4733 157.01 20.1027C156.597 19.3854 156.279 18.982 155.934 18.7158Z" fill="#ECECEC"/>
<path fill-rule="evenodd" clip-rule="evenodd" d="M154.844 16.0768C155.73 16.2476 156.502 16.5135 157.191 17.045C157.862 17.5631 158.346 18.251 158.805 19.0488C159.171 19.6833 158.96 20.4956 158.334 20.8632C157.708 21.2308 156.905 21.0144 156.539 20.38C156.138 19.6833 155.864 19.3547 155.604 19.1547C155.362 18.9679 155.03 18.8141 154.361 18.6851C153.649 18.5478 153.18 17.8525 153.313 17.1322C153.447 16.4119 154.132 15.9394 154.844 16.0768ZM156.531 17.9221C156.028 17.534 155.439 17.3146 154.644 17.1612C154.524 17.1381 154.408 17.2177 154.386 17.339C154.363 17.4604 154.442 17.5775 154.562 17.6007C155.321 17.747 155.836 17.9474 156.264 18.2775C156.695 18.61 157.056 19.0883 157.481 19.8265C157.543 19.9334 157.678 19.9698 157.784 19.9079L158.044 20.3596L157.784 19.9079C157.889 19.846 157.925 19.7091 157.863 19.6022C157.428 18.8469 157.032 18.3081 156.531 17.9221Z" fill="#3A3A3A"/>
<path fill-rule="evenodd" clip-rule="evenodd" d="M161.556 22.9873C161.221 22.7289 160.797 22.5519 160.084 22.4142C159.668 22.334 159.394 21.9279 159.471 21.5072C159.549 21.0864 159.95 20.8104 160.366 20.8907C161.206 21.0527 161.887 21.2953 162.483 21.7551C163.069 22.207 163.508 22.8202 163.956 23.5966C164.169 23.9672 164.046 24.4417 163.68 24.6564C163.315 24.8711 162.845 24.7448 162.632 24.3742C162.219 23.6569 161.901 23.2535 161.556 22.9873Z" fill="#ECECEC"/>
<path fill-rule="evenodd" clip-rule="evenodd" d="M160.466 20.3482C161.351 20.519 162.124 20.785 162.813 21.3165C163.484 21.8345 163.967 22.5225 164.427 23.3202C164.792 23.9547 164.581 24.767 163.955 25.1346C163.33 25.5022 162.526 25.2859 162.161 24.6514C161.76 23.9548 161.485 23.6262 161.226 23.4261C160.984 23.2393 160.652 23.0856 159.983 22.9566C159.271 22.8192 158.801 22.124 158.935 21.4037C159.068 20.6834 159.754 20.2109 160.466 20.3482ZM162.153 22.1936C161.65 21.8054 161.061 21.5861 160.265 21.4327C160.145 21.4096 160.03 21.4892 160.007 21.6105C159.985 21.7319 160.064 21.849 160.184 21.8721C160.943 22.0185 161.458 22.2189 161.886 22.549C162.317 22.8814 162.678 23.3597 163.103 24.098C163.164 24.2048 163.3 24.2413 163.405 24.1794L163.665 24.631L163.405 24.1794C163.511 24.1174 163.546 23.9806 163.485 23.8737C163.05 23.1184 162.653 22.5796 162.153 22.1936Z" fill="#3A3A3A"/>
<path d="M156.955 44.5024C154.427 43.9491 151.979 42.5862 150.012 41.285C149.885 41.2014 149.76 41.1171 149.635 41.0325C150.451 43.2306 152.05 45.9154 155.175 48.7315C156.046 49.5165 156.125 50.8651 155.352 51.7438C154.58 52.6224 153.247 52.6983 152.376 51.9133C148.634 48.5399 146.678 45.2275 145.66 42.4454C145.172 43.0274 144.642 43.5652 144.079 44.0362C142.971 44.9644 141.616 45.7318 140.083 45.9507C138.485 46.1789 136.867 45.7827 135.407 44.6726C134.475 43.9637 134.284 42.6262 134.982 41.6851C135.679 40.744 137 40.5557 137.933 41.2646C138.519 41.7103 139.016 41.7921 139.48 41.7258C140.009 41.6503 140.661 41.3509 141.385 40.7453C141.647 40.5259 141.902 40.2794 142.148 40.012C138.55 40.198 134.385 38.8323 130.864 35.5544C130.005 34.7554 129.947 33.4057 130.734 32.5398C131.52 31.6739 132.854 31.6197 133.712 32.4187C136.841 35.3312 140.18 36.0203 142.595 35.6716C141.198 34.5072 140.02 33.4322 139.064 32.4718C138.294 31.6973 137.65 30.9784 137.148 30.331C136.669 29.713 136.232 29.0494 135.984 28.394C135.567 27.2925 136.111 26.0606 137.198 25.6426C138.285 25.2247 139.504 25.7788 139.921 26.8804C139.944 26.9404 140.076 27.2064 140.462 27.7052C140.826 28.1748 141.344 28.76 142.031 29.4501C143.4 30.8262 145.363 32.544 147.929 34.4952C148.265 34.7424 148.63 35.0236 149.028 35.3293L149.028 35.3293C149.943 36.0331 151.027 36.8671 152.31 37.716L156.955 44.5024Z" fill="#ECECEC"/>
<path fill-rule="evenodd" clip-rule="evenodd" d="M137.002 25.1263C138.371 24.6001 139.906 25.2977 140.43 26.6844C140.429 26.6823 140.43 26.6835 140.432 26.688C140.449 26.7215 140.56 26.9385 140.891 27.3653C141.237 27.8119 141.739 28.3798 142.414 29.059C143.761 30.4123 145.703 32.1127 148.252 34.0518C148.592 34.3018 148.96 34.5851 149.354 34.8879L149.357 34.8904C150.272 35.5946 151.342 36.4175 152.607 37.2544C153.216 37.6568 153.833 38.0365 154.45 38.377C154.715 38.5233 154.813 38.8587 154.669 39.1263C154.526 39.3938 154.194 39.4921 153.93 39.3458C153.283 38.9887 152.641 38.5933 152.013 38.178C150.713 37.3182 149.616 36.4744 148.703 35.7716L148.698 35.7685C148.3 35.4618 147.939 35.1845 147.609 34.9415C147.608 34.9406 147.607 34.9398 147.606 34.9389C147.604 34.938 147.603 34.9371 147.602 34.9362C145.022 32.9737 143.038 31.2394 141.647 29.841C140.949 29.14 140.415 28.5374 140.033 28.0449C139.635 27.5312 139.463 27.2136 139.411 27.0761C139.102 26.2596 138.199 25.8488 137.393 26.1586C136.587 26.4684 136.184 27.3815 136.493 28.1981C136.712 28.7766 137.11 29.3889 137.577 29.9912C138.06 30.6156 138.688 31.3173 139.448 32.0809C140.389 33.0269 141.555 34.0904 142.941 35.246C143.108 35.3852 143.179 35.6108 143.121 35.8212C143.063 36.0317 142.888 36.1873 142.674 36.2182C140.091 36.5911 136.589 35.8456 133.344 32.8244C132.707 32.2322 131.719 32.2724 131.136 32.9142C130.553 33.556 130.596 34.5564 131.232 35.1487C134.651 38.3314 138.675 39.6389 142.119 39.4609C142.341 39.4494 142.548 39.5755 142.642 39.7796C142.737 39.9837 142.699 40.2249 142.548 40.3893C142.288 40.672 142.015 40.9351 141.733 41.1714C140.96 41.8189 140.216 42.1787 139.558 42.2728C138.947 42.3599 138.305 42.2376 137.606 41.7058C136.914 41.1803 135.935 41.3199 135.418 42.0175C134.901 42.715 135.043 43.7065 135.734 44.232C137.081 45.2562 138.554 45.6116 140.005 45.4044C141.408 45.2041 142.672 44.4973 143.731 43.6107C144.266 43.1623 144.773 42.6477 145.244 42.0873C145.37 41.9381 145.564 41.8677 145.755 41.9023C145.946 41.937 146.105 42.0715 146.172 42.2556C147.158 44.9507 149.061 48.1877 152.738 51.5021C153.384 52.084 154.372 52.0277 154.944 51.3765C155.517 50.7252 155.458 49.7256 154.813 49.1437C151.626 46.271 149.974 43.5121 149.124 41.2255C149.041 41.0008 149.11 40.7477 149.295 40.5993C149.481 40.4508 149.74 40.4408 149.938 40.5745C150.061 40.658 150.185 40.7411 150.309 40.8235C152.258 42.1125 154.639 43.4314 157.068 43.9631C157.363 44.0276 157.551 44.3215 157.488 44.6195C157.426 44.9175 157.136 45.1068 156.841 45.0423C154.703 44.5743 152.639 43.5548 150.874 42.4832C151.782 44.2436 153.229 46.2397 155.537 48.3203C156.633 49.3084 156.733 51.0061 155.761 52.1121C154.788 53.2181 153.111 53.3137 152.014 52.3255C148.571 49.222 146.6 46.1546 145.478 43.4743C145.143 43.8255 144.793 44.1568 144.428 44.4624C143.27 45.4322 141.824 46.2603 140.161 46.4977C138.416 46.7469 136.654 46.31 135.08 45.1139C133.907 44.2216 133.667 42.5378 134.544 41.3531C135.422 40.1685 137.085 39.9315 138.259 40.8238C138.732 41.1834 139.084 41.2247 139.402 41.1794C139.739 41.1313 140.192 40.9531 140.731 40.5589C137.348 40.3664 133.661 38.9071 130.495 35.9602C129.414 34.9544 129.341 33.2554 130.331 32.1654C131.321 31.0754 133 31.0072 134.081 32.0129C136.541 34.3033 139.111 35.1449 141.194 35.1996C140.237 34.3663 139.398 33.584 138.68 32.8628C137.899 32.0774 137.238 31.3411 136.719 30.6707C136.228 30.037 135.751 29.322 135.474 28.5898C134.95 27.2031 135.634 25.6524 137.002 25.1263Z" fill="#3A3A3A"/>
<path fill-rule="evenodd" clip-rule="evenodd" d="M137.497 40.4373C138.847 40.9952 139.345 41.9174 139.616 42.612C139.727 42.8958 139.59 43.2161 139.31 43.3273C139.03 43.4386 138.713 43.2987 138.602 43.0149C138.395 42.4847 138.064 41.8627 137.088 41.4591C136.809 41.3437 136.674 41.0214 136.787 40.7392C136.9 40.4571 137.218 40.3219 137.497 40.4373Z" fill="#3A3A3A"/>
<path fill-rule="evenodd" clip-rule="evenodd" d="M146.447 41.0801C146.712 41.2274 146.809 41.5636 146.665 41.8309C146.64 41.8769 146.616 41.9214 146.593 41.9651C146.41 42.3082 146.252 42.6052 145.728 43.2092C145.529 43.4382 145.184 43.4603 144.957 43.2585C144.73 43.0567 144.707 42.7074 144.906 42.4784C145.35 41.9664 145.466 41.7487 145.631 41.4376C145.655 41.3932 145.679 41.3468 145.706 41.2974C145.851 41.03 146.183 40.9328 146.447 41.0801Z" fill="#3A3A3A"/>
<path d="M151.354 35.1377C150.508 36.2791 148.906 36.5075 147.775 35.6479C146.645 34.7882 146.414 33.1661 147.259 32.0247C148.105 30.8833 149.707 30.6549 150.838 31.5145C151.969 32.3742 152.2 33.9963 151.354 35.1377Z" fill="#ECECEC"/>
<path fill-rule="evenodd" clip-rule="evenodd" d="M150.511 31.9558C149.622 31.2797 148.362 31.4594 147.697 32.3571C147.031 33.2548 147.213 34.5306 148.102 35.2067C148.992 35.8828 150.252 35.7032 150.917 34.8055C151.582 33.9078 151.401 32.6319 150.511 31.9558ZM146.822 31.6925C147.849 30.3074 149.793 30.0302 151.165 31.0734C152.537 32.1165 152.817 34.085 151.791 35.4701C150.765 36.8552 148.821 37.1323 147.449 36.0892C146.077 35.046 145.796 33.0775 146.822 31.6925Z" fill="#3A3A3A"/>
</svg>
