<svg width="19" height="21" viewBox="0 0 19 21" fill="none" xmlns="http://www.w3.org/2000/svg">
<path d="M9.84007 20.4701C10.1346 20.4701 10.4171 20.3512 10.6254 20.1396C10.8337 19.928 10.9507 19.641 10.9507 19.3418L10.9507 4.01232L16.8282 9.98568C17.0367 10.1975 17.3196 10.3166 17.6145 10.3166C17.9094 10.3166 18.1923 10.1975 18.4008 9.98568C18.6094 9.77381 18.7265 9.48645 18.7265 9.18682C18.7265 8.8872 18.6094 8.59984 18.4008 8.38797L10.6264 0.48969C10.5232 0.384613 10.4007 0.301246 10.2657 0.244363C10.1308 0.187481 9.98615 0.158202 9.84006 0.158202C9.69398 0.158202 9.54933 0.187481 9.41439 0.244364C9.27946 0.301246 9.1569 0.384613 9.05374 0.48969L1.27932 8.38797C1.17606 8.49288 1.09415 8.61742 1.03826 8.75449C0.982378 8.89156 0.953615 9.03847 0.953615 9.18683C0.953615 9.48646 1.07078 9.77381 1.27932 9.98568C1.48787 10.1976 1.77072 10.3166 2.06565 10.3166C2.36058 10.3166 2.64343 10.1976 2.85198 9.98568L8.72943 4.01232L8.72944 19.3418C8.72944 19.641 8.84645 19.928 9.05473 20.1396C9.26302 20.3512 9.54551 20.4701 9.84007 20.4701Z" fill="#3A3A3A"/>
</svg>
