<svg width="222" height="222" viewBox="0 0 222 222" fill="none" xmlns="http://www.w3.org/2000/svg">
<path fill-rule="evenodd" clip-rule="evenodd" d="M148.9 40.2978C148.152 38.4057 146.102 37.3766 144.138 37.9066L122.427 43.7642C121.343 44.0565 120.187 43.8803 119.24 43.2786L100.259 31.2199C98.5417 30.1288 96.2789 30.5008 95.0012 32.0842L80.8795 49.5846C80.1748 50.4579 79.1357 50.995 78.0158 51.0649L55.572 52.466C53.5413 52.5928 51.9293 54.2237 51.8263 56.2558L50.6881 78.7144C50.6313 79.8351 50.1064 80.8804 49.2414 81.5953L31.9075 95.9209C30.3392 97.217 29.9937 99.484 31.1048 101.188L43.3848 120.027C43.9976 120.967 44.1873 122.121 43.9077 123.208L38.3047 144.986C37.7978 146.957 38.8508 148.994 40.7515 149.72L61.7592 157.742C62.8075 158.143 63.6395 158.965 64.052 160.008L72.32 180.921C73.0681 182.813 75.1174 183.842 77.0818 183.312L98.793 177.454C99.8763 177.162 101.033 177.338 101.98 177.94L120.961 189.999C122.678 191.09 124.941 190.718 126.219 189.134L140.34 171.634C141.045 170.761 142.084 170.224 143.204 170.154L165.648 168.753C167.679 168.626 169.291 166.995 169.393 164.963L170.532 142.504C170.589 141.383 171.113 140.338 171.978 139.623L189.312 125.298C190.881 124.002 191.226 121.735 190.115 120.03L177.835 101.192C177.222 100.252 177.032 99.0974 177.312 98.0106L182.915 76.2324C183.422 74.2619 182.369 72.2248 180.468 71.4989L159.461 63.4763C158.412 63.076 157.58 62.2537 157.168 61.2102L148.9 40.2978ZM143.541 50.9693C142.793 49.0772 140.744 48.0481 138.779 48.5781L120.961 53.3854C119.877 53.6777 118.721 53.5015 117.774 52.8998L102.196 43.0032C100.479 41.9121 98.216 42.2841 96.9382 43.8675L85.3485 58.2302C84.6438 59.1034 83.6048 59.6405 82.4848 59.7105L64.0651 60.8603C62.0344 60.9871 60.4225 62.618 60.3195 64.6501L59.3853 83.0819C59.3285 84.2026 58.8036 85.2479 57.9387 85.9628L43.7127 97.7198C42.1443 99.016 41.7989 101.283 42.91 102.987L52.9882 118.448C53.601 119.388 53.7907 120.542 53.5111 121.629L48.9127 139.503C48.4058 141.473 49.4588 143.51 51.3595 144.236L68.6006 150.82C69.6489 151.221 70.4808 152.043 70.8934 153.086L77.679 170.249C78.427 172.141 80.4763 173.17 82.4407 172.64L100.259 167.833C101.343 167.541 102.499 167.717 103.446 168.319L119.024 178.215C120.741 179.306 123.004 178.934 124.282 177.351L135.871 162.988C136.576 162.115 137.615 161.578 138.735 161.508L157.155 160.358C159.185 160.231 160.797 158.6 160.9 156.568L161.834 138.137C161.891 137.016 162.416 135.971 163.281 135.256L177.507 123.499C179.075 122.203 179.421 119.936 178.31 118.231L168.232 102.77C167.619 101.83 167.429 100.676 167.709 99.5893L172.307 81.7158C172.814 79.7454 171.761 77.7083 169.86 76.9824L152.619 70.3982C151.571 69.9979 150.739 69.1757 150.326 68.1321L143.541 50.9693Z" fill="white"/>
</svg>
