<svg width="124" height="124" viewBox="0 0 124 124" fill="none" xmlns="http://www.w3.org/2000/svg">
<rect x="123.634" y="0.632812" width="123" height="123" transform="rotate(90 123.634 0.632812)" fill="#93ADA4"/>
<path d="M110.986 24.5709C110.986 25.6432 110.868 26.5978 110.633 27.4345C110.397 28.2632 110.064 28.9862 109.634 29.6036C109.211 30.221 108.699 30.745 108.098 31.1756C107.505 31.6062 106.843 31.9514 106.112 32.2114C105.381 32.4713 104.593 32.6623 103.748 32.7841C102.903 32.8978 102.022 32.9547 101.104 32.9547L90.4775 32.9547L90.4775 16.2114L101.079 16.2114C101.997 16.2114 102.879 16.2724 103.724 16.3942C104.568 16.5079 105.356 16.6948 106.088 16.9548C106.827 17.2147 107.497 17.56 108.098 17.9906C108.699 18.413 109.211 18.937 109.634 19.5625C110.064 20.1799 110.397 20.903 110.633 21.7316C110.868 22.5602 110.986 23.5067 110.986 24.5709ZM106.429 24.5709C106.429 23.7666 106.323 23.068 106.112 22.4749C105.909 21.8819 105.576 21.3945 105.113 21.0126C104.658 20.6227 104.061 20.3343 103.321 20.1474C102.582 19.9525 101.68 19.855 100.616 19.855L94.9985 19.855L94.9985 29.3112L100.616 29.3112C101.68 29.3112 102.582 29.2177 103.321 29.0309C104.061 28.8359 104.658 28.5435 105.113 28.1535C105.576 27.7554 105.909 27.2599 106.112 26.6668C106.323 26.0738 106.429 25.3751 106.429 24.5709Z" fill="white"/>
<path d="M86.3587 24.5955C86.3587 26.0334 86.0947 27.3048 85.5667 28.4096C85.0386 29.5064 84.2831 30.4244 83.3001 31.1636C82.3171 31.9029 81.1229 32.4635 79.7175 32.8453C78.3202 33.219 76.7482 33.4058 75.0016 33.4058C73.2549 33.4058 71.6748 33.219 70.2613 32.8453C68.8559 32.4635 67.6576 31.9029 66.6665 31.1636C65.6754 30.4244 64.9117 29.5064 64.3756 28.4096C63.8394 27.3048 63.5713 26.0334 63.5713 24.5955C63.5713 23.1576 63.8394 21.8902 64.3756 20.7935C64.9117 19.6887 65.6754 18.7666 66.6665 18.0273C67.6576 17.2881 68.8559 16.7316 70.2613 16.3579C71.6748 15.9761 73.2549 15.7852 75.0016 15.7852C76.7482 15.7852 78.3202 15.9761 79.7175 16.3579C81.1229 16.7316 82.3171 17.2881 83.3001 18.0273C84.2831 18.7666 85.0386 19.6887 85.5667 20.7935C86.0947 21.8902 86.3587 23.1576 86.3587 24.5955ZM81.7891 24.5955C81.7891 23.97 81.6875 23.3485 81.4844 22.7311C81.2894 22.1055 80.9361 21.545 80.4243 21.0494C79.9206 20.5539 79.23 20.1517 78.3527 19.843C77.4753 19.5343 76.3583 19.38 75.0016 19.38C74.0917 19.38 73.2915 19.4531 72.601 19.5993C71.9104 19.7374 71.3133 19.9324 70.8097 20.1842C70.306 20.4361 69.8835 20.7326 69.5423 21.0738C69.2011 21.4069 68.929 21.7684 68.7259 22.1583C68.5228 22.5402 68.3766 22.9423 68.2872 23.3647C68.206 23.779 68.1653 24.1893 68.1653 24.5955C68.1653 25.0098 68.206 25.4282 68.2872 25.8506C68.3766 26.2731 68.5228 26.6793 68.7259 27.0692C68.929 27.451 69.2011 27.8085 69.5423 28.1416C69.8835 28.4746 70.306 28.7671 70.8097 29.0189C71.3133 29.2627 71.9104 29.4576 72.601 29.6039C73.2915 29.742 74.0917 29.811 75.0016 29.811C76.3583 29.811 77.4753 29.6567 78.3527 29.348C79.23 29.0392 79.9206 28.6371 80.4243 28.1416C80.9361 27.646 81.2894 27.0895 81.4844 26.4721C81.6875 25.8466 81.7891 25.221 81.7891 24.5955Z" fill="white"/>
<path d="M60.5736 24.5955C60.5736 26.0334 60.3096 27.3048 59.7815 28.4096C59.2535 29.5064 58.4979 30.4244 57.5149 31.1636C56.532 31.9029 55.3377 32.4635 53.9323 32.8453C52.535 33.219 50.963 33.4058 49.2164 33.4058C47.4698 33.4058 45.8897 33.219 44.4761 32.8453C43.0707 32.4635 41.8724 31.9029 40.8813 31.1636C39.8902 30.4244 39.1266 29.5064 38.5904 28.4096C38.0542 27.3048 37.7861 26.0334 37.7861 24.5955C37.7861 23.1576 38.0542 21.8902 38.5904 20.7935C39.1266 19.6887 39.8902 18.7666 40.8813 18.0273C41.8724 17.2881 43.0707 16.7316 44.4761 16.3579C45.8897 15.9761 47.4698 15.7852 49.2164 15.7852C50.963 15.7852 52.535 15.9761 53.9323 16.3579C55.3377 16.7316 56.532 17.2881 57.5149 18.0273C58.4979 18.7666 59.2535 19.6887 59.7815 20.7935C60.3096 21.8902 60.5736 23.1576 60.5736 24.5955ZM56.0039 24.5955C56.0039 23.97 55.9024 23.3485 55.6993 22.7311C55.5043 22.1055 55.1509 21.545 54.6391 21.0494C54.1354 20.5539 53.4449 20.1517 52.5675 19.843C51.6901 19.5343 50.5731 19.38 49.2164 19.38C48.3065 19.38 47.5063 19.4531 46.8158 19.5993C46.1253 19.7374 45.5282 19.9324 45.0245 20.1842C44.5208 20.4361 44.0984 20.7326 43.7572 21.0738C43.416 21.4069 43.1438 21.7684 42.9407 22.1583C42.7376 22.5402 42.5914 22.9423 42.502 23.3647C42.4208 23.779 42.3802 24.1893 42.3802 24.5955C42.3802 25.0098 42.4208 25.4282 42.502 25.8506C42.5914 26.2731 42.7376 26.6793 42.9407 27.0692C43.1438 27.451 43.416 27.8085 43.7572 28.1416C44.0984 28.4746 44.5208 28.7671 45.0245 29.0189C45.5282 29.2627 46.1253 29.4576 46.8158 29.6039C47.5063 29.742 48.3065 29.811 49.2164 29.811C50.5731 29.811 51.6901 29.6567 52.5675 29.348C53.4449 29.0392 54.1354 28.6371 54.6391 28.1416C55.1509 27.646 55.5043 27.0895 55.6993 26.4721C55.9024 25.8466 56.0039 25.221 56.0039 24.5955Z" fill="white"/>
<path d="M25.1741 15.7852C26.8151 15.7852 28.3383 15.9273 29.7438 16.2117C31.1573 16.4879 32.4531 16.8453 33.631 17.284L33.631 21.3784C33.168 21.1185 32.644 20.8666 32.0591 20.6229C31.4823 20.3792 30.8527 20.1639 30.1703 19.9771C29.4879 19.7902 28.7567 19.6399 27.9768 19.5262C27.1969 19.4125 26.3764 19.3556 25.5153 19.3556C24.4429 19.3556 23.5087 19.4328 22.7126 19.5871C21.9164 19.7415 21.234 19.9486 20.6653 20.2086C20.0967 20.4686 19.6295 20.7732 19.264 21.1225C18.8984 21.4637 18.61 21.8293 18.3988 22.2193C18.1876 22.6092 18.0413 23.0073 17.9601 23.4135C17.8789 23.8197 17.8382 24.2137 17.8382 24.5955C17.8382 24.9286 17.8707 25.2901 17.9357 25.68C18.0088 26.07 18.1388 26.4599 18.3257 26.8499C18.5206 27.2398 18.7887 27.6135 19.1299 27.971C19.4711 28.3284 19.9139 28.6452 20.4582 28.9214C21.0106 29.1977 21.6727 29.4211 22.4445 29.5917C23.2162 29.7541 24.1342 29.8354 25.1985 29.8354C25.7346 29.8354 26.2018 29.8191 26.5998 29.7866C26.9979 29.7541 27.3594 29.7095 27.6844 29.6526C28.0174 29.5957 28.3261 29.5267 28.6105 29.4454C28.9029 29.3642 29.2035 29.2789 29.5122 29.1895L29.5122 27.1667L24.4429 27.1667L24.4429 23.4988L34.0332 23.4988L34.0332 32.0532C33.432 32.2563 32.7577 32.4431 32.0103 32.6137C31.2711 32.7762 30.5033 32.9143 29.7072 33.0281C28.9192 33.1499 28.1271 33.2433 27.331 33.3083C26.5348 33.3733 25.7834 33.4058 25.0766 33.4058C23.9799 33.4058 22.9278 33.3327 21.9205 33.1865C20.9131 33.0403 19.9707 32.8168 19.0934 32.5163C18.2241 32.2076 17.428 31.8176 16.705 31.3464C15.9901 30.8752 15.3767 30.3147 14.8649 29.6648C14.3612 29.0149 13.9672 28.2715 13.6829 27.4348C13.4067 26.5899 13.2686 25.6435 13.2686 24.5955C13.2686 23.5556 13.4148 22.6133 13.7072 21.7684C13.9997 20.9235 14.4059 20.1761 14.9258 19.5262C15.4539 18.8763 16.0835 18.3157 16.8146 17.8446C17.5539 17.3734 18.3622 16.9875 19.2396 16.6869C20.1251 16.3782 21.0675 16.1507 22.0667 16.0045C23.0741 15.8583 24.1099 15.7852 25.1741 15.7852Z" fill="white"/>
<path d="M110.986 49.5274C110.986 50.5998 110.868 51.5543 110.633 52.3911C110.397 53.2197 110.064 53.9428 109.634 54.5602C109.211 55.1776 108.699 55.7016 108.098 56.1321C107.505 56.5627 106.843 56.908 106.112 57.1679C105.381 57.4279 104.593 57.6188 103.748 57.7407C102.903 57.8544 102.022 57.9113 101.104 57.9113L90.4775 57.9113L90.4775 41.168L101.079 41.168C101.997 41.168 102.879 41.2289 103.724 41.3508C104.568 41.4645 105.356 41.6513 106.088 41.9113C106.827 42.1713 107.497 42.5165 108.098 42.9471C108.699 43.3695 109.211 43.8935 109.634 44.5191C110.064 45.1365 110.397 45.8595 110.633 46.6881C110.868 47.5168 110.986 48.4632 110.986 49.5274ZM106.429 49.5274C106.429 48.7232 106.323 48.0245 106.112 47.4315C105.909 46.8384 105.576 46.351 105.113 45.9692C104.658 45.5792 104.061 45.2908 103.321 45.104C102.582 44.909 101.68 44.8115 100.616 44.8115L94.9985 44.8115L94.9985 54.2677L100.616 54.2677C101.68 54.2677 102.582 54.1743 103.321 53.9874C104.061 53.7925 104.658 53.5 105.113 53.1101C105.576 52.712 105.909 52.2164 106.112 51.6234C106.323 51.0303 106.429 50.3317 106.429 49.5274Z" fill="white"/>
<path d="M86.3587 49.552C86.3587 50.99 86.0947 52.2613 85.5667 53.3662C85.0386 54.4629 84.2831 55.3809 83.3001 56.1202C82.3171 56.8595 81.1229 57.42 79.7175 57.8018C78.3202 58.1755 76.7482 58.3624 75.0016 58.3624C73.2549 58.3624 71.6748 58.1755 70.2613 57.8018C68.8559 57.42 67.6576 56.8595 66.6665 56.1202C65.6754 55.3809 64.9117 54.4629 64.3756 53.3662C63.8394 52.2613 63.5713 50.99 63.5713 49.552C63.5713 48.1141 63.8394 46.8468 64.3756 45.7501C64.9117 44.6452 65.6754 43.7232 66.6665 42.9839C67.6576 42.2446 68.8559 41.6881 70.2613 41.3144C71.6748 40.9326 73.2549 40.7417 75.0016 40.7417C76.7482 40.7417 78.3202 40.9326 79.7175 41.3144C81.1229 41.6881 82.3171 42.2446 83.3001 42.9839C84.2831 43.7232 85.0386 44.6452 85.5667 45.7501C86.0947 46.8468 86.3587 48.1141 86.3587 49.552ZM81.7891 49.552C81.7891 48.9265 81.6875 48.305 81.4844 47.6876C81.2894 47.0621 80.9361 46.5015 80.4243 46.006C79.9206 45.5104 79.23 45.1083 78.3527 44.7996C77.4753 44.4909 76.3583 44.3365 75.0016 44.3365C74.0917 44.3365 73.2915 44.4096 72.601 44.5559C71.9104 44.694 71.3133 44.8889 70.8097 45.1408C70.306 45.3926 69.8835 45.6891 69.5423 46.0303C69.2011 46.3634 68.929 46.7249 68.7259 47.1149C68.5228 47.4967 68.3766 47.8988 68.2872 48.3213C68.206 48.7356 68.1653 49.1458 68.1653 49.552C68.1653 49.9664 68.206 50.3847 68.2872 50.8072C68.3766 51.2296 68.5228 51.6358 68.7259 52.0258C68.929 52.4076 69.2011 52.765 69.5423 53.0981C69.8835 53.4312 70.306 53.7236 70.8097 53.9755C71.3133 54.2192 71.9104 54.4142 72.601 54.5604C73.2915 54.6985 74.0917 54.7676 75.0016 54.7676C76.3583 54.7676 77.4753 54.6132 78.3527 54.3045C79.23 53.9958 79.9206 53.5937 80.4243 53.0981C80.9361 52.6025 81.2894 52.0461 81.4844 51.4286C81.6875 50.8031 81.7891 50.1776 81.7891 49.552Z" fill="white"/>
<path d="M60.5736 49.552C60.5736 50.99 60.3096 52.2613 59.7815 53.3662C59.2535 54.4629 58.4979 55.3809 57.5149 56.1202C56.532 56.8595 55.3377 57.42 53.9323 57.8018C52.535 58.1755 50.963 58.3624 49.2164 58.3624C47.4698 58.3624 45.8897 58.1755 44.4761 57.8018C43.0707 57.42 41.8724 56.8595 40.8813 56.1202C39.8902 55.3809 39.1266 54.4629 38.5904 53.3662C38.0542 52.2613 37.7861 50.99 37.7861 49.552C37.7861 48.1141 38.0542 46.8468 38.5904 45.7501C39.1266 44.6452 39.8902 43.7232 40.8813 42.9839C41.8724 42.2446 43.0707 41.6881 44.4761 41.3144C45.8897 40.9326 47.4698 40.7417 49.2164 40.7417C50.963 40.7417 52.535 40.9326 53.9323 41.3144C55.3377 41.6881 56.532 42.2446 57.5149 42.9839C58.4979 43.7232 59.2535 44.6452 59.7815 45.7501C60.3096 46.8468 60.5736 48.1141 60.5736 49.552ZM56.0039 49.552C56.0039 48.9265 55.9024 48.305 55.6993 47.6876C55.5043 47.0621 55.1509 46.5015 54.6391 46.006C54.1354 45.5104 53.4449 45.1083 52.5675 44.7996C51.6901 44.4909 50.5731 44.3365 49.2164 44.3365C48.3065 44.3365 47.5063 44.4096 46.8158 44.5559C46.1253 44.694 45.5282 44.8889 45.0245 45.1408C44.5208 45.3926 44.0984 45.6891 43.7572 46.0303C43.416 46.3634 43.1438 46.7249 42.9407 47.1149C42.7376 47.4967 42.5914 47.8988 42.502 48.3213C42.4208 48.7356 42.3802 49.1458 42.3802 49.552C42.3802 49.9664 42.4208 50.3847 42.502 50.8072C42.5914 51.2296 42.7376 51.6358 42.9407 52.0258C43.1438 52.4076 43.416 52.765 43.7572 53.0981C44.0984 53.4312 44.5208 53.7236 45.0245 53.9755C45.5282 54.2192 46.1253 54.4142 46.8158 54.5604C47.5063 54.6985 48.3065 54.7676 49.2164 54.7676C50.5731 54.7676 51.6901 54.6132 52.5675 54.3045C53.4449 53.9958 54.1354 53.5937 54.6391 53.0981C55.1509 52.6025 55.5043 52.0461 55.6993 51.4286C55.9024 50.8031 56.0039 50.1776 56.0039 49.552Z" fill="white"/>
<path d="M25.1741 40.7417C26.8151 40.7417 28.3383 40.8839 29.7438 41.1682C31.1573 41.4444 32.4531 41.8019 33.631 42.2406L33.631 46.335C33.168 46.075 32.644 45.8232 32.0591 45.5795C31.4823 45.3357 30.8527 45.1205 30.1703 44.9336C29.4879 44.7468 28.7567 44.5965 27.9768 44.4827C27.1969 44.369 26.3764 44.3121 25.5153 44.3121C24.4429 44.3121 23.5087 44.3893 22.7125 44.5437C21.9164 44.698 21.234 44.9052 20.6653 45.1651C20.0967 45.4251 19.6295 45.7298 19.264 46.0791C18.8984 46.4203 18.61 46.7859 18.3988 47.1758C18.1876 47.5657 18.0413 47.9638 17.9601 48.37C17.8788 48.7762 17.8382 49.1702 17.8382 49.552C17.8382 49.8851 17.8707 50.2466 17.9357 50.6366C18.0088 51.0265 18.1388 51.4165 18.3257 51.8064C18.5206 52.1964 18.7887 52.5701 19.1299 52.9275C19.4711 53.285 19.9139 53.6018 20.4582 53.878C21.0106 54.1542 21.6727 54.3776 22.4445 54.5482C23.2162 54.7107 24.1342 54.7919 25.1985 54.7919C25.7346 54.7919 26.2018 54.7757 26.5998 54.7432C26.9979 54.7107 27.3594 54.666 27.6844 54.6091C28.0174 54.5523 28.3261 54.4832 28.6105 54.402C28.9029 54.3207 29.2035 54.2354 29.5122 54.1461L29.5122 52.1232L24.4429 52.1232L24.4429 48.4553L34.0332 48.4553L34.0332 57.0097C33.432 57.2128 32.7577 57.3997 32.0103 57.5703C31.271 57.7328 30.5033 57.8709 29.7072 57.9846C28.9192 58.1065 28.1271 58.1999 27.331 58.2649C26.5348 58.3299 25.7834 58.3624 25.0766 58.3624C23.9799 58.3624 22.9278 58.2893 21.9205 58.143C20.9131 57.9968 19.9707 57.7734 19.0934 57.4728C18.2241 57.1641 17.428 56.7742 16.705 56.303C15.9901 55.8318 15.3767 55.2712 14.8649 54.6213C14.3612 53.9714 13.9672 53.2281 13.6829 52.3913C13.4067 51.5464 13.2686 50.6 13.2686 49.552C13.2686 48.5122 13.4148 47.5698 13.7072 46.7249C13.9997 45.88 14.4059 45.1327 14.9258 44.4827C15.4539 43.8328 16.0835 43.2723 16.8146 42.8011C17.5539 42.3299 18.3622 41.944 19.2396 41.6434C20.1251 41.3347 21.0675 41.1073 22.0667 40.961C23.0741 40.8148 24.1099 40.7417 25.1741 40.7417Z" fill="white"/>
<path d="M110.986 74.484C110.986 75.5563 110.868 76.5109 110.633 77.3476C110.397 78.1763 110.064 78.8993 109.634 79.5167C109.211 80.1341 108.699 80.6581 108.098 81.0887C107.505 81.5192 106.843 81.8645 106.112 82.1245C105.381 82.3844 104.593 82.5753 103.748 82.6972C102.903 82.8109 102.022 82.8678 101.104 82.8678L90.4775 82.8678L90.4775 66.1245L101.079 66.1245C101.997 66.1245 102.879 66.1854 103.724 66.3073C104.568 66.421 105.356 66.6079 106.088 66.8678C106.827 67.1278 107.497 67.4731 108.098 67.9036C108.699 68.3261 109.211 68.8501 109.634 69.4756C110.064 70.093 110.397 70.816 110.633 71.6447C110.868 72.4733 110.986 73.4197 110.986 74.484ZM106.429 74.484C106.429 73.6797 106.323 72.9811 106.112 72.388C105.909 71.795 105.576 71.3075 105.113 70.9257C104.658 70.5358 104.061 70.2474 103.321 70.0605C102.582 69.8656 101.68 69.7681 100.616 69.7681L94.9985 69.7681L94.9985 79.2243L100.616 79.2243C101.68 79.2243 102.582 79.1308 103.321 78.944C104.061 78.749 104.658 78.4565 105.113 78.0666C105.576 77.6685 105.909 77.173 106.112 76.5799C106.323 75.9869 106.429 75.2882 106.429 74.484Z" fill="white"/>
<path d="M86.3587 74.5086C86.3587 75.9465 86.0947 77.2179 85.5667 78.3227C85.0386 79.4195 84.2831 80.3375 83.3001 81.0767C82.3171 81.816 81.1229 82.3765 79.7175 82.7584C78.3202 83.1321 76.7482 83.3189 75.0016 83.3189C73.2549 83.3189 71.6748 83.1321 70.2613 82.7584C68.8559 82.3765 67.6576 81.816 66.6665 81.0767C65.6754 80.3375 64.9117 79.4195 64.3756 78.3227C63.8394 77.2179 63.5713 75.9465 63.5713 74.5086C63.5713 73.0707 63.8394 71.8033 64.3756 70.7066C64.9117 69.6018 65.6754 68.6797 66.6665 67.9404C67.6576 67.2012 68.8559 66.6447 70.2613 66.271C71.6748 65.8892 73.2549 65.6982 75.0016 65.6982C76.7482 65.6982 78.3202 65.8892 79.7175 66.271C81.1229 66.6447 82.3171 67.2012 83.3001 67.9404C84.2831 68.6797 85.0386 69.6018 85.5667 70.7066C86.0947 71.8033 86.3587 73.0707 86.3587 74.5086ZM81.7891 74.5086C81.7891 73.883 81.6875 73.2616 81.4844 72.6441C81.2894 72.0186 80.9361 71.4581 80.4243 70.9625C79.9206 70.467 79.23 70.0648 78.3527 69.7561C77.4753 69.4474 76.3583 69.2931 75.0016 69.2931C74.0917 69.2931 73.2915 69.3662 72.601 69.5124C71.9104 69.6505 71.3133 69.8455 70.8097 70.0973C70.306 70.3492 69.8835 70.6457 69.5423 70.9869C69.2011 71.32 68.929 71.6815 68.7259 72.0714C68.5228 72.4532 68.3766 72.8554 68.2872 73.2778C68.206 73.6921 68.1653 74.1024 68.1653 74.5086C68.1653 74.9229 68.206 75.3413 68.2872 75.7637C68.3766 76.1862 68.5228 76.5924 68.7259 76.9823C68.929 77.3641 69.2011 77.7216 69.5423 78.0546C69.8835 78.3877 70.306 78.6802 70.8097 78.932C71.3133 79.1757 71.9104 79.3707 72.601 79.5169C73.2915 79.655 74.0917 79.7241 75.0016 79.7241C76.3583 79.7241 77.4753 79.5697 78.3527 79.261C79.23 78.9523 79.9206 78.5502 80.4243 78.0546C80.9361 77.5591 81.2894 77.0026 81.4844 76.3852C81.6875 75.7597 81.7891 75.1341 81.7891 74.5086Z" fill="white"/>
<path d="M60.5736 74.5086C60.5736 75.9465 60.3096 77.2179 59.7815 78.3227C59.2535 79.4195 58.4979 80.3375 57.5149 81.0767C56.532 81.816 55.3377 82.3765 53.9323 82.7584C52.535 83.1321 50.963 83.3189 49.2164 83.3189C47.4698 83.3189 45.8897 83.1321 44.4761 82.7584C43.0707 82.3765 41.8724 81.816 40.8813 81.0767C39.8902 80.3375 39.1266 79.4195 38.5904 78.3227C38.0542 77.2179 37.7861 75.9465 37.7861 74.5086C37.7861 73.0707 38.0542 71.8033 38.5904 70.7066C39.1266 69.6018 39.8902 68.6797 40.8813 67.9404C41.8724 67.2012 43.0707 66.6447 44.4761 66.271C45.8897 65.8892 47.4698 65.6982 49.2164 65.6982C50.963 65.6982 52.535 65.8892 53.9323 66.271C55.3377 66.6447 56.532 67.2012 57.5149 67.9404C58.4979 68.6797 59.2535 69.6018 59.7815 70.7066C60.3096 71.8033 60.5736 73.0707 60.5736 74.5086ZM56.0039 74.5086C56.0039 73.883 55.9024 73.2616 55.6993 72.6441C55.5043 72.0186 55.1509 71.4581 54.6391 70.9625C54.1354 70.467 53.4449 70.0648 52.5675 69.7561C51.6901 69.4474 50.5731 69.2931 49.2164 69.2931C48.3065 69.2931 47.5063 69.3662 46.8158 69.5124C46.1253 69.6505 45.5282 69.8455 45.0245 70.0973C44.5208 70.3492 44.0984 70.6457 43.7572 70.9869C43.416 71.32 43.1438 71.6815 42.9407 72.0714C42.7376 72.4532 42.5914 72.8554 42.502 73.2778C42.4208 73.6921 42.3802 74.1024 42.3802 74.5086C42.3802 74.9229 42.4208 75.3413 42.502 75.7637C42.5914 76.1862 42.7376 76.5924 42.9407 76.9823C43.1438 77.3641 43.416 77.7216 43.7572 78.0546C44.0984 78.3877 44.5208 78.6802 45.0245 78.932C45.5282 79.1757 46.1253 79.3707 46.8158 79.5169C47.5063 79.655 48.3065 79.7241 49.2164 79.7241C50.5731 79.7241 51.6901 79.5697 52.5675 79.261C53.4449 78.9523 54.1354 78.5502 54.6391 78.0546C55.1509 77.5591 55.5043 77.0026 55.6993 76.3852C55.9024 75.7597 56.0039 75.1341 56.0039 74.5086Z" fill="white"/>
<path d="M25.1741 65.6982C26.8151 65.6982 28.3383 65.8404 29.7438 66.1247C31.1573 66.401 32.4531 66.7584 33.631 67.1971L33.631 71.2915C33.168 71.0316 32.644 70.7797 32.0591 70.536C31.4823 70.2923 30.8527 70.077 30.1703 69.8902C29.4879 69.7033 28.7567 69.553 27.9768 69.4393C27.1969 69.3255 26.3764 69.2687 25.5153 69.2687C24.4429 69.2687 23.5087 69.3459 22.7125 69.5002C21.9164 69.6546 21.234 69.8617 20.6653 70.1217C20.0967 70.3817 19.6295 70.6863 19.264 71.0356C18.8984 71.3768 18.61 71.7424 18.3988 72.1323C18.1876 72.5223 18.0413 72.9204 17.9601 73.3266C17.8788 73.7327 17.8382 74.1268 17.8382 74.5086C17.8382 74.8417 17.8707 75.2032 17.9357 75.5931C18.0088 75.9831 18.1388 76.373 18.3257 76.763C18.5206 77.1529 18.7887 77.5266 19.1299 77.884C19.4711 78.2415 19.9139 78.5583 20.4582 78.8345C21.0106 79.1108 21.6727 79.3342 22.4445 79.5048C23.2162 79.6672 24.1342 79.7485 25.1985 79.7485C25.7346 79.7485 26.2018 79.7322 26.5998 79.6997C26.9979 79.6672 27.3594 79.6226 27.6844 79.5657C28.0174 79.5088 28.3261 79.4398 28.6105 79.3585C28.9029 79.2773 29.2035 79.192 29.5122 79.1026L29.5122 77.0798L24.4429 77.0798L24.4429 73.4119L34.0332 73.4119L34.0332 81.9663C33.432 82.1694 32.7577 82.3562 32.0103 82.5268C31.271 82.6893 30.5033 82.8274 29.7072 82.9412C28.9192 83.063 28.1271 83.1564 27.331 83.2214C26.5348 83.2864 25.7834 83.3189 25.0766 83.3189C23.9799 83.3189 22.9278 83.2458 21.9205 83.0996C20.9131 82.9533 19.9707 82.7299 19.0934 82.4294C18.2241 82.1206 17.428 81.7307 16.705 81.2595C15.9901 80.7883 15.3767 80.2278 14.8649 79.5779C14.3612 78.928 13.9672 78.1846 13.6829 77.3479C13.4067 76.503 13.2686 75.5566 13.2686 74.5086C13.2686 73.4687 13.4148 72.5264 13.7072 71.6815C13.9997 70.8366 14.4059 70.0892 14.9258 69.4393C15.4539 68.7894 16.0835 68.2288 16.8146 67.7576C17.5539 67.2865 18.3622 66.9006 19.2396 66.6C20.1251 66.2913 21.0675 66.0638 22.0667 65.9176C23.0741 65.7714 24.1099 65.6982 25.1741 65.6982Z" fill="white"/>
<path d="M110.986 99.4405C110.986 100.513 110.868 101.467 110.633 102.304C110.397 103.133 110.064 103.856 109.634 104.473C109.211 105.091 108.699 105.615 108.098 106.045C107.505 106.476 106.843 106.821 106.112 107.081C105.381 107.341 104.593 107.532 103.748 107.654C102.903 107.767 102.022 107.824 101.104 107.824L90.4775 107.824L90.4775 91.0811L101.079 91.0811C101.997 91.0811 102.879 91.142 103.724 91.2638C104.568 91.3776 105.356 91.5644 106.088 91.8244C106.827 92.0844 107.497 92.4296 108.098 92.8602C108.699 93.2826 109.211 93.8066 109.634 94.4321C110.064 95.0496 110.397 95.7726 110.633 96.6012C110.868 97.4299 110.986 98.3763 110.986 99.4405ZM106.429 99.4405C106.429 98.6362 106.323 97.9376 106.112 97.3446C105.909 96.7515 105.576 96.2641 105.113 95.8823C104.658 95.4923 104.061 95.2039 103.321 95.0171C102.582 94.8221 101.68 94.7246 100.616 94.7246L94.9985 94.7246L94.9985 104.181L100.616 104.181C101.68 104.181 102.582 104.087 103.321 103.901C104.061 103.706 104.658 103.413 105.113 103.023C105.576 102.625 105.909 102.13 106.112 101.536C106.323 100.943 106.429 100.245 106.429 99.4405Z" fill="white"/>
<path d="M86.3587 99.4651C86.3587 100.903 86.0947 102.174 85.5667 103.279C85.0386 104.376 84.2831 105.294 83.3001 106.033C82.3171 106.773 81.1229 107.333 79.7175 107.715C78.3202 108.089 76.7482 108.275 75.0016 108.275C73.2549 108.275 71.6748 108.089 70.2613 107.715C68.8559 107.333 67.6576 106.773 66.6665 106.033C65.6754 105.294 64.9117 104.376 64.3756 103.279C63.8394 102.174 63.5713 100.903 63.5713 99.4651C63.5713 98.0272 63.8394 96.7599 64.3756 95.6632C64.9117 94.5583 65.6754 93.6362 66.6665 92.897C67.6576 92.1577 68.8559 91.6012 70.2613 91.2275C71.6748 90.8457 73.2549 90.6548 75.0016 90.6548C76.7482 90.6548 78.3202 90.8457 79.7175 91.2275C81.1229 91.6012 82.3171 92.1577 83.3001 92.897C84.2831 93.6362 85.0386 94.5583 85.5667 95.6631C86.0947 96.7599 86.3587 98.0272 86.3587 99.4651ZM81.7891 99.4651C81.7891 98.8396 81.6875 98.2181 81.4844 97.6007C81.2894 96.9752 80.9361 96.4146 80.4243 95.9191C79.9206 95.4235 79.23 95.0214 78.3527 94.7127C77.4753 94.404 76.3583 94.2496 75.0016 94.2496C74.0917 94.2496 73.2915 94.3227 72.601 94.4689C71.9104 94.607 71.3133 94.802 70.8097 95.0539C70.306 95.3057 69.8835 95.6022 69.5423 95.9434C69.2011 96.2765 68.929 96.638 68.7259 97.028C68.5228 97.4098 68.3766 97.8119 68.2872 98.2344C68.206 98.6487 68.1653 99.0589 68.1653 99.4651C68.1653 99.8794 68.206 100.298 68.2872 100.72C68.3766 101.143 68.5228 101.549 68.7259 101.939C68.929 102.321 69.2011 102.678 69.5423 103.011C69.8835 103.344 70.306 103.637 70.8097 103.889C71.3133 104.132 71.9104 104.327 72.601 104.473C73.2915 104.612 74.0917 104.681 75.0016 104.681C76.3583 104.681 77.4753 104.526 78.3527 104.218C79.23 103.909 79.9206 103.507 80.4243 103.011C80.9361 102.516 81.2894 101.959 81.4844 101.342C81.6875 100.716 81.7891 100.091 81.7891 99.4651Z" fill="white"/>
<path d="M60.5736 99.4651C60.5736 100.903 60.3096 102.174 59.7815 103.279C59.2535 104.376 58.4979 105.294 57.515 106.033C56.532 106.773 55.3378 107.333 53.9323 107.715C52.535 108.089 50.963 108.275 49.2164 108.275C47.4698 108.275 45.8897 108.089 44.4761 107.715C43.0707 107.333 41.8724 106.773 40.8813 106.033C39.8902 105.294 39.1266 104.376 38.5904 103.279C38.0542 102.174 37.7861 100.903 37.7861 99.4651C37.7861 98.0272 38.0542 96.7599 38.5904 95.6632C39.1266 94.5583 39.8902 93.6362 40.8813 92.897C41.8724 92.1577 43.0707 91.6012 44.4761 91.2275C45.8897 90.8457 47.4698 90.6548 49.2164 90.6548C50.963 90.6548 52.535 90.8457 53.9323 91.2275C55.3378 91.6012 56.532 92.1577 57.5149 92.897C58.4979 93.6362 59.2535 94.5583 59.7815 95.6631C60.3096 96.7599 60.5736 98.0272 60.5736 99.4651ZM56.0039 99.4651C56.0039 98.8396 55.9024 98.2181 55.6993 97.6007C55.5043 96.9752 55.1509 96.4146 54.6391 95.9191C54.1354 95.4235 53.4449 95.0214 52.5675 94.7127C51.6901 94.404 50.5731 94.2496 49.2164 94.2496C48.3065 94.2496 47.5063 94.3227 46.8158 94.4689C46.1253 94.607 45.5282 94.802 45.0245 95.0539C44.5208 95.3057 44.0984 95.6022 43.7572 95.9434C43.416 96.2765 43.1438 96.638 42.9407 97.028C42.7376 97.4098 42.5914 97.8119 42.502 98.2344C42.4208 98.6487 42.3802 99.0589 42.3802 99.4651C42.3802 99.8794 42.4208 100.298 42.502 100.72C42.5914 101.143 42.7376 101.549 42.9407 101.939C43.1438 102.321 43.416 102.678 43.7572 103.011C44.0984 103.344 44.5208 103.637 45.0245 103.889C45.5282 104.132 46.1253 104.327 46.8158 104.473C47.5063 104.612 48.3065 104.681 49.2164 104.681C50.5731 104.681 51.6901 104.526 52.5675 104.218C53.4449 103.909 54.1354 103.507 54.6391 103.011C55.1509 102.516 55.5043 101.959 55.6993 101.342C55.9024 100.716 56.0039 100.091 56.0039 99.4651Z" fill="white"/>
<path d="M25.1741 90.6548C26.8151 90.6548 28.3383 90.797 29.7438 91.0813C31.1573 91.3575 32.4531 91.7149 33.631 92.1536L33.631 96.2481C33.168 95.9881 32.644 95.7363 32.0591 95.4925C31.4823 95.2488 30.8527 95.0336 30.1703 94.8467C29.4879 94.6599 28.7567 94.5096 27.9768 94.3958C27.1969 94.2821 26.3764 94.2252 25.5153 94.2252C24.4429 94.2252 23.5087 94.3024 22.7125 94.4568C21.9164 94.6111 21.234 94.8183 20.6653 95.0782C20.0967 95.3382 19.6295 95.6428 19.264 95.9922C18.8984 96.3334 18.61 96.6989 18.3988 97.0889C18.1876 97.4788 18.0413 97.8769 17.9601 98.2831C17.8788 98.6893 17.8382 99.0833 17.8382 99.4651C17.8382 99.7982 17.8707 100.16 17.9357 100.55C18.0088 100.94 18.1388 101.33 18.3257 101.719C18.5206 102.109 18.7887 102.483 19.1299 102.841C19.4711 103.198 19.9139 103.515 20.4582 103.791C21.0106 104.067 21.6727 104.291 22.4445 104.461C23.2162 104.624 24.1342 104.705 25.1985 104.705C25.7346 104.705 26.2018 104.689 26.5998 104.656C26.9979 104.624 27.3594 104.579 27.6844 104.522C28.0174 104.465 28.3261 104.396 28.6105 104.315C28.9029 104.234 29.2035 104.149 29.5122 104.059L29.5122 102.036L24.4429 102.036L24.4429 98.3684L34.0332 98.3684L34.0332 106.923C33.432 107.126 32.7577 107.313 32.0103 107.483C31.271 107.646 30.5033 107.784 29.7072 107.898C28.9192 108.02 28.1271 108.113 27.331 108.178C26.5348 108.243 25.7834 108.275 25.0766 108.275C23.9799 108.275 22.9278 108.202 21.9205 108.056C20.9131 107.91 19.9707 107.686 19.0934 107.386C18.2241 107.077 17.428 106.687 16.705 106.216C15.9901 105.745 15.3767 105.184 14.8649 104.534C14.3612 103.885 13.9672 103.141 13.6829 102.304C13.4067 101.46 13.2686 100.513 13.2686 99.4651C13.2686 98.4253 13.4148 97.4829 13.7072 96.638C13.9997 95.7931 14.4059 95.0457 14.9258 94.3958C15.4539 93.7459 16.0835 93.1854 16.8146 92.7142C17.5539 92.243 18.3622 91.8571 19.2396 91.5565C20.1251 91.2478 21.0675 91.0204 22.0667 90.8741C23.0741 90.7279 24.1099 90.6548 25.1741 90.6548Z" fill="white"/>
<path fill-rule="evenodd" clip-rule="evenodd" d="M110.634 27.4343C110.869 26.5975 110.987 25.6429 110.987 24.5706C110.987 23.5064 110.869 22.5599 110.634 21.7313C110.398 20.9027 110.065 20.1796 109.634 19.5622C109.212 18.9367 108.7 18.4127 108.099 17.9903C107.498 17.5597 106.828 17.2144 106.088 16.9545C105.357 16.6945 104.569 16.5076 103.724 16.3939C102.879 16.2721 101.998 16.2111 101.08 16.2111L90.4782 16.2111L90.4782 32.9544L101.104 32.9544C102.022 32.9544 102.904 32.8976 103.749 32.7838C104.593 32.662 105.381 32.471 106.113 32.2111C106.844 31.9511 107.506 31.6059 108.099 31.1753C108.7 30.7447 109.212 30.2207 109.634 29.6033C110.065 28.9859 110.398 28.2629 110.634 27.4343ZM110.368 30.1096C109.888 30.8098 109.305 31.4075 108.62 31.8984C107.955 32.381 107.217 32.7644 106.411 33.0509C105.619 33.3325 104.773 33.5365 103.876 33.666L103.867 33.6672C102.98 33.7866 102.059 33.8457 101.104 33.8457L89.5869 33.8457L89.5869 15.3198L101.08 15.3198C102.036 15.3198 102.958 15.3832 103.847 15.5111C104.745 15.6323 105.592 15.8322 106.385 16.1141C107.198 16.3999 107.942 16.7822 108.615 17.2634C109.304 17.7483 109.889 18.3484 110.369 19.0577C110.862 19.7658 111.233 20.5796 111.491 21.4875C111.754 22.4115 111.878 23.4425 111.878 24.5706C111.878 25.7064 111.754 26.7446 111.491 27.6758L111.491 27.678C111.233 28.5867 110.861 29.4011 110.368 30.1096ZM106.113 22.4746C106.324 23.0677 106.429 23.7663 106.429 24.5706C106.429 25.3749 106.324 26.0735 106.113 26.6665C105.91 27.2596 105.576 27.7551 105.113 28.1532C104.658 28.5432 104.061 28.8356 103.322 29.0306C102.583 29.2174 101.681 29.3109 100.617 29.3109L94.9992 29.3109L94.9992 19.8547L100.617 19.8547C101.681 19.8547 102.583 19.9522 103.322 20.1471C104.061 20.334 104.658 20.6224 105.113 21.0123C105.576 21.3942 105.91 21.8816 106.113 22.4746ZM95.8905 20.746L100.617 20.746C101.632 20.746 102.452 20.8395 103.095 21.009L103.104 21.0113C103.745 21.1733 104.207 21.4097 104.533 21.6891L104.546 21.7C104.876 21.9722 105.117 22.3191 105.269 22.7634L105.273 22.7737C105.442 23.2483 105.538 23.8413 105.538 24.5706C105.538 25.2999 105.442 25.8929 105.273 26.3675L105.269 26.3778C105.116 26.8245 104.872 27.1848 104.533 27.4765C104.205 27.7575 103.741 27.9978 103.099 28.1676C102.454 28.3301 101.632 28.4196 100.617 28.4196L95.8905 28.4196L95.8905 20.746Z" fill="#3A3A3A"/>
<path fill-rule="evenodd" clip-rule="evenodd" d="M85.5673 28.4093C86.0954 27.3045 86.3594 26.0331 86.3594 24.5952C86.3594 23.1573 86.0954 21.8899 85.5673 20.7932C85.0393 19.6884 84.2838 18.7663 83.3008 18.027C82.3178 17.2878 81.1236 16.7313 79.7182 16.3576C78.3208 15.9758 76.7489 15.7849 75.0022 15.7849C73.2556 15.7849 71.6755 15.9758 70.262 16.3576C68.8565 16.7313 67.6583 17.2878 66.6672 18.027C65.676 18.7663 64.9124 19.6884 64.3762 20.7932C63.8401 21.8899 63.572 23.1573 63.572 24.5952C63.572 26.0331 63.8401 27.3045 64.3762 28.4093C64.9124 29.5061 65.676 30.4241 66.6672 31.1633C67.6583 31.9026 68.8565 32.4632 70.262 32.845C71.6755 33.2187 73.2556 33.4055 75.0023 33.4055C76.7489 33.4055 78.3208 33.2187 79.7182 32.845C81.1236 32.4632 82.3178 31.9026 83.3008 31.1633C84.2838 30.4241 85.0393 29.5061 85.5673 28.4093ZM63.5745 20.4038C62.9697 21.6418 62.6807 23.0464 62.6807 24.5952C62.6807 26.145 62.9701 27.5533 63.5744 28.7985L63.5755 28.8008C64.1748 30.0267 65.031 31.0548 66.1343 31.8778C67.2295 32.6947 68.5337 33.2991 70.0283 33.7051L70.0342 33.7067C71.5348 34.1034 73.1931 34.2968 75.0023 34.2968C76.8111 34.2968 78.4624 34.1035 79.9484 33.706L79.9518 33.7051C81.4467 33.299 82.7481 32.6942 83.8365 31.8757C84.9321 31.0517 85.7799 30.0225 86.3704 28.796L86.3715 28.7937C86.9661 27.5497 87.2507 26.1431 87.2507 24.5952C87.2507 23.0479 86.9663 21.6447 86.371 20.4077M63.5745 20.4038C64.1734 19.1698 65.0296 18.1365 66.1343 17.3126C67.2305 16.4949 68.5358 15.8945 70.0312 15.4967C71.533 15.0912 73.1924 14.8936 75.0022 14.8936C76.8114 14.8936 78.4634 15.0911 79.9504 15.4971C81.4455 15.895 82.7475 16.4957 83.8365 17.3147C84.9332 18.1395 85.7808 19.1735 86.371 20.4077M81.4851 22.7308C81.6882 23.3482 81.7897 23.9697 81.7897 24.5952C81.7897 25.2207 81.6882 25.8463 81.4851 26.4718C81.2901 27.0892 80.9367 27.6457 80.4249 28.1413C79.9213 28.6368 79.2307 29.0389 78.3533 29.3477C77.476 29.6564 76.3589 29.8107 75.0023 29.8107C74.0924 29.8107 73.2922 29.7417 72.6016 29.6036C71.9111 29.4573 71.314 29.2624 70.8103 29.0186C70.3067 28.7668 69.8842 28.4743 69.543 28.1413C69.2018 27.8082 68.9297 27.4507 68.7266 27.0689C68.5235 26.679 68.3772 26.2728 68.2879 25.8503C68.2066 25.4279 68.166 25.0095 68.166 24.5952C68.166 24.189 68.2066 23.7787 68.2879 23.3644C68.3772 22.942 68.5235 22.5399 68.7266 22.158C68.9297 21.7681 69.2018 21.4066 69.543 21.0735C69.8842 20.7323 70.3067 20.4358 70.8103 20.1839C71.314 19.9321 71.9111 19.7371 72.6016 19.599C73.2922 19.4528 74.0924 19.3797 75.0022 19.3797C76.3589 19.3797 77.476 19.534 78.3533 19.8427C79.2307 20.1514 79.9213 20.5536 80.4249 21.0491C80.9367 21.5447 81.2901 22.1052 81.4851 22.7308ZM69.1613 23.5424C69.2334 23.2041 69.3505 22.8829 69.5135 22.5766L69.5171 22.5698C69.673 22.2704 69.8863 21.984 70.1656 21.7113L70.1657 21.7113L70.1733 21.7037C70.4365 21.4405 70.777 21.1971 71.2089 20.9811C71.6267 20.7723 72.1451 20.5993 72.7764 20.473L72.7765 20.4731L72.7863 20.471C73.4016 20.3407 74.1376 20.271 75.0022 20.271C76.3002 20.271 77.308 20.4198 78.0575 20.6835C78.8487 20.9619 79.4141 21.305 79.7998 21.6845L79.8049 21.6895C80.2192 22.0906 80.4874 22.5251 80.6342 22.996L80.6341 22.996L80.6384 23.0093C80.8131 23.5404 80.8984 24.0679 80.8984 24.5952C80.8984 25.1226 80.8131 25.6553 80.6373 26.1966L80.6352 26.2034C80.4891 26.6659 80.2213 27.0978 79.8049 27.5009L79.7998 27.5059C79.4141 27.8854 78.8487 28.2285 78.0575 28.5069C77.308 28.7706 76.3002 28.9194 75.0023 28.9194C74.1374 28.9194 73.3996 28.8538 72.7815 28.7306C72.1487 28.5963 71.6264 28.4227 71.2038 28.2189C70.7705 28.0017 70.4291 27.7607 70.1656 27.5035C69.8846 27.2291 69.6709 26.9454 69.5153 26.6538C69.3511 26.3378 69.2338 26.0118 69.1616 25.674C69.0917 25.3077 69.0573 24.9483 69.0573 24.5952C69.0573 24.2509 69.0915 23.9002 69.1613 23.5424Z" fill="#3A3A3A"/>
<path fill-rule="evenodd" clip-rule="evenodd" d="M59.7822 28.4093C60.3102 27.3045 60.5743 26.0331 60.5743 24.5952C60.5743 23.1573 60.3102 21.8899 59.7822 20.7932C59.2541 19.6884 58.4986 18.7663 57.5156 18.027C56.5326 17.2878 55.3384 16.7313 53.933 16.3576C52.5357 15.9758 50.9637 15.7849 49.2171 15.7849C47.4705 15.7849 45.8904 15.9758 44.4768 16.3576C43.0714 16.7313 41.8731 17.2878 40.882 18.027C39.8909 18.7663 39.1273 19.6884 38.5911 20.7932C38.0549 21.8899 37.7868 23.1573 37.7868 24.5952C37.7868 26.0331 38.0549 27.3045 38.5911 28.4093C39.1273 29.5061 39.8909 30.4241 40.882 31.1633C41.8731 31.9026 43.0714 32.4632 44.4768 32.845C45.8904 33.2187 47.4705 33.4055 49.2171 33.4055C50.9637 33.4055 52.5357 33.2187 53.933 32.845C55.3384 32.4632 56.5326 31.9026 57.5156 31.1633C58.4986 30.4241 59.2541 29.5061 59.7822 28.4093ZM37.7896 20.4033C37.1846 21.6414 36.8955 23.0462 36.8955 24.5952C36.8955 26.145 37.1849 27.5533 37.7892 28.7985L37.7903 28.8008C38.3896 30.0267 39.2458 31.0548 40.3491 31.8778C41.4444 32.6947 42.7486 33.2991 44.2431 33.7051L44.249 33.7067C45.7497 34.1034 47.408 34.2968 49.2171 34.2968C51.026 34.2968 52.6772 34.1035 54.1633 33.706L54.1667 33.7051C55.6616 33.299 56.963 32.6942 58.0513 31.8757C59.147 31.0517 59.9947 30.0225 60.5853 28.796L60.5864 28.7937C61.1809 27.5497 61.4656 26.1431 61.4656 24.5952C61.4656 23.0479 61.1812 21.6447 60.5858 20.4077C59.9957 19.1735 59.148 18.1395 58.0513 17.3147C56.9623 16.4957 55.6603 15.8949 54.1651 15.497C52.6782 15.091 51.0262 14.8936 49.2171 14.8936C47.4073 14.8936 45.7479 15.0912 44.2461 15.4967C42.7506 15.8945 41.4453 16.4949 40.3491 17.3126C39.2446 18.1364 38.3885 19.1695 37.7896 20.4033ZM55.6999 22.7308C55.903 23.3482 56.0046 23.9697 56.0046 24.5952C56.0046 25.2207 55.903 25.8463 55.6999 26.4718C55.505 27.0892 55.1516 27.6457 54.6398 28.1413C54.1361 28.6368 53.4456 29.0389 52.5682 29.3477C51.6908 29.6564 50.5738 29.8107 49.2171 29.8107C48.3072 29.8107 47.507 29.7417 46.8165 29.6036C46.126 29.4573 45.5289 29.2624 45.0252 29.0186C44.5215 28.7668 44.0991 28.4743 43.7579 28.1413C43.4167 27.8082 43.1445 27.4507 42.9414 27.0689C42.7383 26.679 42.5921 26.2728 42.5027 25.8503C42.4215 25.4279 42.3809 25.0095 42.3809 24.5952C42.3809 24.189 42.4215 23.7787 42.5027 23.3644C42.5921 22.942 42.7383 22.5399 42.9414 22.158C43.1445 21.7681 43.4167 21.4066 43.7579 21.0735C44.0991 20.7323 44.5215 20.4358 45.0252 20.1839C45.5289 19.9321 46.126 19.7371 46.8165 19.599C47.507 19.4528 48.3072 19.3797 49.2171 19.3797C50.5738 19.3797 51.6908 19.534 52.5682 19.8427C53.4456 20.1514 54.1361 20.5536 54.6398 21.0491C55.1516 21.5447 55.505 22.1052 55.6999 22.7308ZM43.3761 23.5425C43.4482 23.2042 43.5654 22.883 43.7283 22.5766L43.7319 22.5698C43.8878 22.2704 44.1012 21.984 44.3805 21.7113L44.3805 21.7113L44.3881 21.7037C44.6513 21.4405 44.9918 21.1971 45.4238 20.9811C45.8415 20.7723 46.3599 20.5993 46.9913 20.473L46.9913 20.4731L47.0011 20.471C47.6165 20.3407 48.3525 20.271 49.2171 20.271C50.515 20.271 51.5229 20.4198 52.2724 20.6835C53.0636 20.9619 53.629 21.305 54.0147 21.6845L54.0198 21.6895C54.434 22.0906 54.7022 22.5251 54.849 22.996L54.8489 22.996L54.8533 23.0093C55.028 23.5404 55.1133 24.0679 55.1133 24.5952C55.1133 25.1226 55.0279 25.6553 54.8522 26.1966L54.85 26.2034C54.704 26.6659 54.4361 27.0978 54.0198 27.5009L54.0198 27.5009L54.0147 27.5059C53.629 27.8854 53.0636 28.2285 52.2724 28.5069C51.5229 28.7706 50.515 28.9194 49.2171 28.9194C48.3522 28.9194 47.6144 28.8537 46.9963 28.7306C46.3636 28.5963 45.8412 28.4227 45.4186 28.2189C44.9853 28.0017 44.644 27.7607 44.3805 27.5035C44.0993 27.229 43.8857 26.9453 43.73 26.6536C43.5659 26.3376 43.4486 26.0115 43.3764 25.6737C43.3065 25.3075 43.2722 24.9482 43.2722 24.5952C43.2722 24.2509 43.3063 23.9003 43.3761 23.5425Z" fill="#3A3A3A"/>
<path fill-rule="evenodd" clip-rule="evenodd" d="M29.7435 16.2114C28.338 15.927 26.8148 15.7849 25.1738 15.7849C24.1096 15.7849 23.0738 15.858 22.0664 16.0042C21.0672 16.1504 20.1248 16.3779 19.2393 16.6866C18.3619 16.9872 17.5536 17.3731 16.8143 17.8443C16.0832 18.3154 15.4536 18.876 14.9255 19.5259C14.4056 20.1758 13.9994 20.9232 13.7069 21.7681C13.4145 22.613 13.2683 23.5553 13.2683 24.5952C13.2683 25.6432 13.4064 26.5896 13.6826 27.4345C13.9669 28.2712 14.3609 29.0146 14.8646 29.6645C15.3764 30.3144 15.9898 30.8749 16.7047 31.3461C17.4277 31.8173 18.2238 32.2073 19.0931 32.516C19.9705 32.8165 20.9128 33.04 21.9202 33.1862C22.9275 33.3324 23.9796 33.4055 25.0763 33.4055C25.7831 33.4055 26.5345 33.373 27.3307 33.308C28.1268 33.243 28.9189 33.1496 29.7069 33.0278C30.503 32.914 31.2708 32.7759 32.01 32.6135C32.7574 32.4428 33.4317 32.256 34.0329 32.0529L34.0329 23.4985L24.4426 23.4985L24.4426 27.1664L29.5119 27.1664L29.5119 29.1892C29.2032 29.2786 28.9026 29.3639 28.6102 29.4451C28.3259 29.5264 28.0171 29.5954 27.6841 29.6523C27.3591 29.7092 26.9976 29.7539 26.5995 29.7863C26.2015 29.8188 25.7343 29.8351 25.1982 29.8351C24.1339 29.8351 23.2159 29.7539 22.4442 29.5914C21.6724 29.4208 21.0103 29.1974 20.4579 28.9212C19.9136 28.6449 19.4708 28.3281 19.1296 27.9707C18.7884 27.6132 18.5203 27.2395 18.3254 26.8496C18.1385 26.4596 18.0085 26.0697 17.9354 25.6797C17.8704 25.2898 17.8379 24.9283 17.8379 24.5952C17.8379 24.2134 17.8786 23.8194 17.9598 23.4132C18.041 23.007 18.1873 22.6089 18.3985 22.219C18.6097 21.829 18.8981 21.4634 19.2637 21.1222C19.6292 20.7729 20.0964 20.4683 20.665 20.2083C21.2337 19.9483 21.9161 19.7412 22.7123 19.5868C23.5084 19.4325 24.4426 19.3553 25.515 19.3553C26.3761 19.3553 27.1966 19.4122 27.9765 19.5259C28.7564 19.6396 29.4876 19.7899 30.17 19.9768C30.8524 20.1636 31.482 20.3789 32.0588 20.6226C32.2956 20.7213 32.5225 20.8214 32.7394 20.9227C33.0581 21.0717 33.3552 21.2235 33.6307 21.3781L33.6307 17.2837C32.4528 16.845 31.157 16.4876 29.7435 16.2114ZM29.9172 15.3372C28.4468 15.0399 26.8647 14.8936 25.1738 14.8936C24.0686 14.8936 22.99 14.9695 21.9384 15.1221C20.8883 15.2758 19.8903 15.5159 18.9482 15.8442C18.0087 16.1662 17.1368 16.5818 16.3353 17.0926L16.3315 17.0951C15.5244 17.6152 14.8234 18.2381 14.2338 18.9639L14.2295 18.9691C13.6415 19.7041 13.1879 20.5427 12.8647 21.4765C12.5349 22.4291 12.377 23.472 12.377 24.5952C12.377 25.7209 12.5253 26.7628 12.8354 27.7114L12.8387 27.7213C13.1524 28.6445 13.5915 29.4768 14.1601 30.2105L14.1644 30.2159C14.7373 30.9435 15.4223 31.5684 16.2142 32.0903L16.218 32.0929C17.0038 32.605 17.8638 33.0253 18.7948 33.3559L18.8042 33.3592C19.7386 33.6793 20.7353 33.9148 21.7921 34.0682C22.845 34.2211 23.94 34.2968 25.0763 34.2968C25.8102 34.2968 26.586 34.2631 27.4032 34.1964C28.219 34.1298 29.0306 34.0341 29.8382 33.9094C30.653 33.7928 31.4408 33.6511 32.2013 33.484L32.2084 33.4824C32.9793 33.3064 33.6833 33.1118 34.3181 32.8973L34.9242 32.6926L34.9242 22.6072L34.522 22.6072L34.522 16.6645L33.9418 16.4484C32.7131 15.9909 31.3707 15.6213 29.9172 15.3372ZM33.9992 22.6072L33.1944 22.1553C32.7667 21.9152 32.2748 21.6782 31.716 21.4454L31.7119 21.4437C31.1756 21.2171 30.5838 21.0142 29.9346 20.8364C29.291 20.6602 28.5958 20.5169 27.8479 20.4079C27.1143 20.3009 26.337 20.2466 25.515 20.2466C24.4826 20.2466 23.6076 20.3211 22.8819 20.4618C22.1358 20.6065 21.5244 20.7955 21.0356 21.0189C20.5368 21.247 20.1584 21.5001 19.8794 21.7666L19.8719 21.7739C19.5678 22.0576 19.3421 22.3483 19.1822 22.6435C19.0104 22.9607 18.8964 23.275 18.8338 23.588C18.7631 23.9414 18.7292 24.2768 18.7292 24.5952C18.7292 24.8687 18.7558 25.1776 18.8131 25.524C18.8705 25.8262 18.9729 26.137 19.1259 26.4576C19.276 26.7561 19.4886 27.0558 19.7744 27.3552C20.0312 27.6243 20.3854 27.8846 20.8589 28.1251C21.3292 28.36 21.9163 28.5616 22.6322 28.7201C23.326 28.8658 24.1779 28.9438 25.1982 28.9438C25.7177 28.9438 26.1596 28.928 26.527 28.898C26.9033 28.8673 27.2372 28.8256 27.5304 28.7743L27.5341 28.7737C27.8396 28.7216 28.1162 28.6593 28.3653 28.5881L28.3716 28.5863C28.454 28.5635 28.537 28.5403 28.6206 28.5168L28.6206 28.0577L23.5513 28.0577L23.5513 22.6072L33.9992 22.6072Z" fill="#3A3A3A"/>
<path fill-rule="evenodd" clip-rule="evenodd" d="M110.634 52.3908C110.869 51.554 110.987 50.5995 110.987 49.5271C110.987 48.4629 110.869 47.5165 110.634 46.6878C110.398 45.8592 110.065 45.1362 109.634 44.5188C109.212 43.8932 108.7 43.3692 108.099 42.9468C107.498 42.5162 106.828 42.171 106.088 41.911C105.357 41.651 104.569 41.4642 103.724 41.3505C102.879 41.2286 101.998 41.1677 101.08 41.1677L90.4782 41.1677L90.4782 57.911L101.104 57.911C102.022 57.911 102.904 57.8541 103.749 57.7404C104.593 57.6185 105.381 57.4276 106.113 57.1676C106.844 56.9077 107.506 56.5624 108.099 56.1318C108.7 55.7013 109.212 55.1773 109.634 54.5599C110.065 53.9425 110.398 53.2194 110.634 52.3908ZM110.368 55.0661C109.888 55.7664 109.305 56.3641 108.62 56.855C107.955 57.3376 107.217 57.721 106.411 58.0074C105.619 58.289 104.773 58.4931 103.876 58.6225L103.867 58.6237C102.98 58.7431 102.059 58.8023 101.104 58.8023L89.5869 58.8023L89.5869 40.2764L101.08 40.2764C102.036 40.2764 102.958 40.3397 103.847 40.4677C104.745 40.5888 105.592 40.7888 106.385 41.0707C107.198 41.3564 107.942 41.7388 108.615 42.22C109.304 42.7048 109.889 43.3049 110.369 44.0143C110.862 44.7223 111.233 45.5362 111.491 46.4441C111.754 47.3681 111.878 48.399 111.878 49.5271C111.878 50.6629 111.754 51.7012 111.491 52.6323L111.491 52.6345C111.233 53.5432 110.861 54.3577 110.368 55.0661ZM106.113 47.4312C106.324 48.0242 106.429 48.7229 106.429 49.5271C106.429 50.3314 106.324 51.03 106.113 51.6231C105.91 52.2161 105.576 52.7117 105.113 53.1098C104.658 53.4997 104.061 53.7922 103.322 53.9871C102.583 54.174 101.681 54.2674 100.617 54.2674L94.9992 54.2674L94.9992 44.8112L100.617 44.8112C101.681 44.8112 102.583 44.9087 103.322 45.1037C104.061 45.2905 104.658 45.5789 105.113 45.9689C105.576 46.3507 105.91 46.8381 106.113 47.4312ZM95.8905 45.7025L100.617 45.7025C101.632 45.7025 102.452 45.7961 103.095 45.9656L103.104 45.9678C103.745 46.1299 104.207 46.3662 104.533 46.6456L104.546 46.6566C104.876 46.9287 105.117 47.2756 105.269 47.7199L105.273 47.7302C105.442 48.2048 105.538 48.7978 105.538 49.5271C105.538 50.2564 105.442 50.8494 105.273 51.324L105.269 51.3343C105.116 51.781 104.872 52.1413 104.533 52.433C104.205 52.7141 103.741 52.9544 103.099 53.1241C102.454 53.2867 101.632 53.3761 100.617 53.3761L95.8905 53.3761L95.8905 45.7025Z" fill="#3A3A3A"/>
<path fill-rule="evenodd" clip-rule="evenodd" d="M85.5673 53.3659C86.0954 52.261 86.3594 50.9897 86.3594 49.5517C86.3594 48.1138 86.0954 46.8465 85.5673 45.7498C85.0393 44.6449 84.2838 43.7229 83.3008 42.9836C82.3178 42.2443 81.1236 41.6878 79.7182 41.3141C78.3208 40.9323 76.7489 40.7414 75.0022 40.7414C73.2556 40.7414 71.6755 40.9323 70.262 41.3141C68.8565 41.6878 67.6583 42.2443 66.6672 42.9836C65.676 43.7229 64.9124 44.6449 64.3762 45.7498C63.8401 46.8465 63.572 48.1138 63.572 49.5517C63.572 50.9897 63.8401 52.261 64.3762 53.3659C64.9124 54.4626 65.676 55.3806 66.6672 56.1199C67.6583 56.8592 68.8565 57.4197 70.262 57.8015C71.6755 58.1752 73.2556 58.3621 75.0023 58.3621C76.7489 58.3621 78.3208 58.1752 79.7182 57.8015C81.1236 57.4197 82.3178 56.8592 83.3008 56.1199C84.2838 55.3806 85.0393 54.4626 85.5673 53.3659ZM63.5745 45.3603C62.9697 46.5983 62.6807 48.003 62.6807 49.5517C62.6807 51.1015 62.9701 52.5098 63.5744 53.755L63.5755 53.7574C64.1748 54.9832 65.031 56.0114 66.1343 56.8343C67.2295 57.6513 68.5337 58.2556 70.0283 58.6617L70.0342 58.6632C71.5348 59.0599 73.1931 59.2534 75.0023 59.2534C76.8111 59.2534 78.4624 59.06 79.9484 58.6626L79.9518 58.6616C81.4467 58.2555 82.7481 57.6508 83.8365 56.8322C84.9321 56.0082 85.7799 54.979 86.3704 53.7526L86.3715 53.7502C86.9661 52.5062 87.2507 51.0997 87.2507 49.5517C87.2507 48.0045 86.9663 46.6013 86.371 45.3643M63.5745 45.3603C64.1734 44.1263 65.0296 43.0931 66.1343 42.2691C67.2305 41.4515 68.5358 40.851 70.0312 40.4532C71.533 40.0477 73.1924 39.8501 75.0022 39.8501C76.8114 39.8501 78.4634 40.0476 79.9504 40.4536C81.4455 40.8515 82.7475 41.4523 83.8365 42.2713C84.9332 43.096 85.7808 44.13 86.371 45.3643M81.4851 47.6873C81.6882 48.3047 81.7897 48.9262 81.7897 49.5517C81.7897 50.1773 81.6882 50.8028 81.4851 51.4283C81.2901 52.0458 80.9367 52.6022 80.4249 53.0978C79.9213 53.5934 79.2307 53.9955 78.3533 54.3042C77.476 54.6129 76.3589 54.7673 75.0023 54.7673C74.0924 54.7673 73.2922 54.6982 72.6016 54.5601C71.9111 54.4139 71.314 54.2189 70.8103 53.9752C70.3067 53.7233 69.8842 53.4309 69.543 53.0978C69.2018 52.7647 68.9297 52.4073 68.7266 52.0255C68.5235 51.6355 68.3772 51.2293 68.2879 50.8069C68.2066 50.3844 68.166 49.9661 68.166 49.5517C68.166 49.1455 68.2066 48.7353 68.2879 48.321C68.3772 47.8985 68.5235 47.4964 68.7266 47.1146C68.9297 46.7246 69.2018 46.3631 69.543 46.03C69.8842 45.6888 70.3067 45.3923 70.8103 45.1405C71.314 44.8886 71.9111 44.6937 72.6016 44.5556C73.2922 44.4093 74.0924 44.3362 75.0022 44.3362C76.3589 44.3362 77.476 44.4906 78.3533 44.7993C79.2307 45.108 79.9213 45.5101 80.4249 46.0057C80.9367 46.5012 81.2901 47.0618 81.4851 47.6873ZM69.1613 48.4989C69.2334 48.1606 69.3505 47.8394 69.5135 47.5332L69.5171 47.5263C69.673 47.2269 69.8863 46.9405 70.1656 46.6678L70.1657 46.6679L70.1733 46.6603C70.4365 46.3971 70.777 46.1537 71.2089 45.9377C71.6267 45.7288 72.1451 45.5558 72.7764 45.4296L72.7765 45.4296L72.7863 45.4275C73.4016 45.2972 74.1376 45.2275 75.0022 45.2275C76.3002 45.2275 77.308 45.3763 78.0575 45.6401C78.8487 45.9184 79.4141 46.2615 79.7998 46.641L79.8049 46.646C80.2192 47.0471 80.4874 47.4816 80.6342 47.9525L80.6341 47.9526L80.6384 47.9658C80.8131 48.4969 80.8984 49.0245 80.8984 49.5517C80.8984 50.0791 80.8131 50.6119 80.6373 51.1531L80.6352 51.1599C80.4891 51.6224 80.2213 52.0543 79.8049 52.4575L79.7998 52.4625C79.4141 52.842 78.8487 53.185 78.0575 53.4634C77.308 53.7271 76.3002 53.876 75.0023 53.876C74.1374 53.876 73.3996 53.8103 72.7815 53.6871C72.1487 53.5528 71.6264 53.3792 71.2038 53.1754C70.7705 52.9582 70.4291 52.7172 70.1656 52.46C69.8846 52.1857 69.6709 51.902 69.5153 51.6104C69.3511 51.2944 69.2338 50.9683 69.1616 50.6305C69.0917 50.2642 69.0573 49.9049 69.0573 49.5517C69.0573 49.2074 69.0915 48.8567 69.1613 48.4989Z" fill="#3A3A3A"/>
<path fill-rule="evenodd" clip-rule="evenodd" d="M59.7822 53.3659C60.3102 52.261 60.5743 50.9897 60.5743 49.5517C60.5743 48.1138 60.3102 46.8465 59.7822 45.7498C59.2541 44.6449 58.4986 43.7229 57.5156 42.9836C56.5326 42.2443 55.3384 41.6878 53.933 41.3141C52.5357 40.9323 50.9637 40.7414 49.2171 40.7414C47.4705 40.7414 45.8904 40.9323 44.4768 41.3141C43.0714 41.6878 41.8731 42.2443 40.882 42.9836C39.8909 43.7229 39.1273 44.6449 38.5911 45.7498C38.0549 46.8465 37.7868 48.1138 37.7868 49.5517C37.7868 50.9897 38.0549 52.261 38.5911 53.3659C39.1273 54.4626 39.8909 55.3806 40.882 56.1199C41.8731 56.8592 43.0714 57.4197 44.4768 57.8015C45.8904 58.1752 47.4705 58.3621 49.2171 58.3621C50.9637 58.3621 52.5357 58.1752 53.933 57.8015C55.3384 57.4197 56.5326 56.8592 57.5156 56.1199C58.4986 55.3806 59.2541 54.4626 59.7822 53.3659ZM37.7896 45.3598C37.1846 46.5979 36.8955 48.0028 36.8955 49.5517C36.8955 51.1015 37.1849 52.5098 37.7892 53.755L37.7903 53.7574C38.3896 54.9832 39.2458 56.0114 40.3491 56.8343C41.4444 57.6513 42.7486 58.2556 44.2431 58.6617L44.249 58.6632C45.7497 59.0599 47.408 59.2534 49.2171 59.2534C51.026 59.2534 52.6772 59.06 54.1633 58.6626L54.1667 58.6616C55.6616 58.2555 56.963 57.6508 58.0513 56.8322C59.147 56.0082 59.9947 54.979 60.5853 53.7526L60.5864 53.7502C61.1809 52.5062 61.4656 51.0997 61.4656 49.5517C61.4656 48.0045 61.1812 46.6013 60.5858 45.3643C59.9957 44.13 59.148 43.096 58.0513 42.2713C56.9623 41.4522 55.6603 40.8515 54.1651 40.4536C52.6782 40.0476 51.0262 39.8501 49.2171 39.8501C47.4073 39.8501 45.7479 40.0477 44.2461 40.4532C42.7506 40.851 41.4453 41.4515 40.3491 42.2691C39.2446 43.093 38.3885 44.126 37.7896 45.3598ZM55.6999 47.6873C55.903 48.3047 56.0046 48.9262 56.0046 49.5517C56.0046 50.1773 55.903 50.8028 55.6999 51.4283C55.505 52.0458 55.1516 52.6022 54.6398 53.0978C54.1361 53.5934 53.4456 53.9955 52.5682 54.3042C51.6908 54.6129 50.5738 54.7673 49.2171 54.7673C48.3072 54.7673 47.507 54.6982 46.8165 54.5601C46.126 54.4139 45.5289 54.2189 45.0252 53.9752C44.5215 53.7233 44.0991 53.4309 43.7579 53.0978C43.4167 52.7647 43.1445 52.4073 42.9414 52.0255C42.7383 51.6355 42.5921 51.2293 42.5027 50.8069C42.4215 50.3844 42.3809 49.9661 42.3809 49.5517C42.3809 49.1455 42.4215 48.7353 42.5027 48.321C42.5921 47.8985 42.7383 47.4964 42.9414 47.1146C43.1445 46.7246 43.4167 46.3631 43.7579 46.03C44.0991 45.6888 44.5215 45.3923 45.0252 45.1405C45.5289 44.8886 46.126 44.6937 46.8165 44.5556C47.507 44.4093 48.3072 44.3362 49.2171 44.3362C50.5738 44.3362 51.6908 44.4906 52.5682 44.7993C53.4456 45.108 54.1361 45.5101 54.6398 46.0057C55.1516 46.5012 55.505 47.0618 55.6999 47.6873ZM43.3761 48.4991C43.4482 48.1607 43.5654 47.8395 43.7283 47.5332L43.7319 47.5263C43.8878 47.2269 44.1012 46.9405 44.3805 46.6678L44.3805 46.6679L44.3881 46.6603C44.6513 46.3971 44.9918 46.1537 45.4238 45.9377C45.8415 45.7288 46.3599 45.5558 46.9913 45.4296L46.9913 45.4296L47.0011 45.4275C47.6165 45.2972 48.3525 45.2275 49.2171 45.2275C50.515 45.2275 51.5229 45.3763 52.2724 45.6401C53.0636 45.9184 53.629 46.2615 54.0147 46.641L54.0198 46.646C54.434 47.0471 54.7022 47.4816 54.849 47.9525L54.8489 47.9526L54.8533 47.9658C55.028 48.4969 55.1133 49.0245 55.1133 49.5517C55.1133 50.0791 55.0279 50.6119 54.8522 51.1531L54.85 51.1599C54.704 51.6224 54.4361 52.0543 54.0198 52.4575L54.0198 52.4575L54.0147 52.4625C53.629 52.842 53.0636 53.185 52.2724 53.4634C51.5229 53.7271 50.515 53.876 49.2171 53.876C48.3522 53.876 47.6144 53.8103 46.9963 53.6871C46.3636 53.5528 45.8412 53.3792 45.4186 53.1754C44.9853 52.9582 44.644 52.7172 44.3805 52.46C44.0993 52.1856 43.8857 51.9018 43.73 51.6101C43.5659 51.2941 43.4486 50.968 43.3764 50.6302C43.3065 50.264 43.2722 49.9048 43.2722 49.5517C43.2722 49.2075 43.3063 48.8568 43.3761 48.4991Z" fill="#3A3A3A"/>
<path fill-rule="evenodd" clip-rule="evenodd" d="M29.7435 41.1679C28.338 40.8836 26.8148 40.7414 25.1738 40.7414C24.1096 40.7414 23.0738 40.8145 22.0664 40.9607C21.0672 41.107 20.1248 41.3344 19.2393 41.6432C18.3619 41.9437 17.5536 42.3296 16.8143 42.8008C16.0832 43.272 15.4536 43.8325 14.9255 44.4824C14.4056 45.1324 13.9994 45.8797 13.7069 46.7246C13.4145 47.5695 13.2683 48.5119 13.2683 49.5517C13.2683 50.5997 13.4064 51.5461 13.6826 52.391C13.9669 53.2278 14.3609 53.9711 14.8646 54.621C15.3764 55.2709 15.9898 55.8315 16.7047 56.3027C17.4277 56.7739 18.2238 57.1638 19.0931 57.4725C19.9704 57.7731 20.9128 57.9965 21.9202 58.1427C22.9275 58.289 23.9796 58.3621 25.0763 58.3621C25.7831 58.3621 26.5345 58.3296 27.3307 58.2646C28.1268 58.1996 28.9189 58.1062 29.7069 57.9843C30.503 57.8706 31.2707 57.7325 32.01 57.57C32.7574 57.3994 33.4317 57.2125 34.0329 57.0094L34.0329 48.455L24.4426 48.455L24.4426 52.1229L29.5119 52.1229L29.5119 54.1458C29.2032 54.2351 28.9026 54.3204 28.6102 54.4017C28.3258 54.4829 28.0171 54.552 27.6841 54.6088C27.3591 54.6657 26.9976 54.7104 26.5995 54.7429C26.2015 54.7754 25.7343 54.7916 25.1982 54.7916C24.1339 54.7916 23.2159 54.7104 22.4442 54.5479C21.6724 54.3773 21.0103 54.1539 20.4579 53.8777C19.9136 53.6015 19.4708 53.2847 19.1296 52.9272C18.7884 52.5698 18.5203 52.1961 18.3254 51.8061C18.1385 51.4162 18.0085 51.0262 17.9354 50.6363C17.8704 50.2463 17.8379 49.8848 17.8379 49.5517C17.8379 49.1699 17.8786 48.7759 17.9598 48.3697C18.041 47.9635 18.1873 47.5654 18.3985 47.1755C18.6097 46.7856 18.8981 46.42 19.2637 46.0788C19.6292 45.7295 20.0964 45.4248 20.665 45.1648C21.2337 44.9049 21.9161 44.6977 22.7123 44.5434C23.5084 44.389 24.4426 44.3118 25.515 44.3118C26.3761 44.3118 27.1966 44.3687 27.9765 44.4824C28.7564 44.5962 29.4876 44.7465 30.17 44.9333C30.8524 45.1202 31.482 45.3354 32.0588 45.5792C32.2956 45.6779 32.5225 45.7779 32.7394 45.8793C33.0581 46.0282 33.3552 46.18 33.6307 46.3347L33.6307 42.2403C32.4528 41.8016 31.157 41.4441 29.7435 41.1679ZM29.9172 40.2937C28.4468 39.9965 26.8647 39.8501 25.1738 39.8501C24.0686 39.8501 22.99 39.926 21.9384 40.0787C20.8883 40.2324 19.8903 40.4725 18.9482 40.8007C18.0087 41.1228 17.1368 41.5383 16.3353 42.0492L16.3315 42.0516C15.5244 42.5718 14.8234 43.1947 14.2338 43.9204L14.2295 43.9256C13.6415 44.6607 13.1879 45.4992 12.8647 46.4331C12.5349 47.3856 12.377 48.4285 12.377 49.5517C12.377 50.6774 12.5253 51.7193 12.8354 52.668L12.8387 52.6778C13.1524 53.6011 13.5915 54.4334 14.1601 55.167L14.1644 55.1725C14.7373 55.9001 15.4223 56.525 16.2142 57.0469L16.218 57.0494C17.0038 57.5615 17.8638 57.9818 18.7948 58.3124L18.8042 58.3157C19.7386 58.6358 20.7353 58.8714 21.7921 59.0248C22.845 59.1776 23.94 59.2534 25.0763 59.2534C25.8101 59.2534 26.586 59.2196 27.4032 59.1529C28.2189 59.0863 29.0306 58.9907 29.8382 58.8659C30.653 58.7494 31.4408 58.6077 32.2013 58.4405L32.2084 58.4389C32.9793 58.263 33.6833 58.0683 34.3181 57.8539L34.9242 57.6491L34.9242 47.5637L34.522 47.5637L34.522 41.6211L33.9418 41.405C32.7131 40.9474 31.3706 40.5778 29.9172 40.2937ZM33.9992 47.5637L33.1944 47.1119C32.7667 46.8718 32.2747 46.6347 31.716 46.4019L31.7118 46.4002C31.1756 46.1736 30.5838 45.9707 29.9346 45.793C29.291 45.6168 28.5958 45.4735 27.8479 45.3644C27.1143 45.2574 26.337 45.2031 25.515 45.2031C24.4826 45.2031 23.6076 45.2777 22.8819 45.4184C22.1358 45.563 21.5244 45.752 21.0356 45.9755C20.5368 46.2035 20.1584 46.4566 19.8794 46.7232L19.8719 46.7304C19.5678 47.0142 19.3421 47.3048 19.1822 47.6C19.0104 47.9172 18.8964 48.2315 18.8338 48.5445C18.7631 48.898 18.7292 49.2333 18.7292 49.5517C18.7292 49.8252 18.7558 50.1341 18.8131 50.4806C18.8705 50.7827 18.9729 51.0935 19.1259 51.4141C19.276 51.7126 19.4886 52.0124 19.7744 52.3118C20.0312 52.5809 20.3854 52.8412 20.8589 53.0817C21.3292 53.3165 21.9162 53.5181 22.6322 53.6766C23.326 53.8223 24.1779 53.9003 25.1982 53.9003C25.7177 53.9003 26.1596 53.8845 26.527 53.8545C26.9033 53.8238 27.2372 53.7822 27.5304 53.7309L27.5341 53.7302C27.8396 53.6781 28.1162 53.6158 28.3653 53.5447L28.3716 53.5429C28.4539 53.52 28.537 53.4968 28.6206 53.4733L28.6206 53.0142L23.5513 53.0142L23.5513 47.5637L33.9992 47.5637Z" fill="#3A3A3A"/>
<path fill-rule="evenodd" clip-rule="evenodd" d="M110.634 77.3473C110.869 76.5106 110.987 75.556 110.987 74.4837C110.987 73.4194 110.869 72.473 110.634 71.6444C110.398 70.8157 110.065 70.0927 109.634 69.4753C109.212 68.8498 108.7 68.3258 108.099 67.9033C107.498 67.4728 106.828 67.1275 106.088 66.8675C105.357 66.6076 104.569 66.4207 103.724 66.307C102.879 66.1851 101.998 66.1242 101.08 66.1242L90.4782 66.1242L90.4782 82.8675L101.104 82.8675C102.022 82.8675 102.904 82.8106 103.749 82.6969C104.593 82.575 105.381 82.3841 106.113 82.1242C106.844 81.8642 107.506 81.5189 108.099 81.0884C108.7 80.6578 109.212 80.1338 109.634 79.5164C110.065 78.899 110.398 78.176 110.634 77.3473ZM110.368 80.0227C109.888 80.7229 109.305 81.3206 108.62 81.8115C107.955 82.2941 107.217 82.6775 106.411 82.964C105.619 83.2455 104.773 83.4496 103.876 83.5791L103.867 83.5803C102.98 83.6997 102.059 83.7588 101.104 83.7588L89.5869 83.7588L89.5869 65.2329L101.08 65.2329C102.036 65.2329 102.958 65.2963 103.847 65.4242C104.745 65.5454 105.592 65.7453 106.385 66.0272C107.198 66.313 107.942 66.6953 108.615 67.1765C109.304 67.6613 109.889 68.2615 110.369 68.9708C110.862 69.6788 111.233 70.4927 111.491 71.4006C111.754 72.3246 111.878 73.3556 111.878 74.4837C111.878 75.6195 111.754 76.6577 111.491 77.5889L111.491 77.5911C111.233 78.4998 110.861 79.3142 110.368 80.0227ZM106.113 72.3877C106.324 72.9808 106.429 73.6794 106.429 74.4837C106.429 75.2879 106.324 75.9866 106.113 76.5796C105.91 77.1727 105.576 77.6682 105.113 78.0663C104.658 78.4562 104.061 78.7487 103.322 78.9437C102.583 79.1305 101.681 79.2239 100.617 79.2239L94.9992 79.224L94.9992 69.7678L100.617 69.7678C101.681 69.7678 102.583 69.8653 103.322 70.0602C104.061 70.2471 104.658 70.5355 105.113 70.9254C105.576 71.3072 105.91 71.7947 106.113 72.3877ZM95.8905 70.6591L100.617 70.6591C101.632 70.6591 102.452 70.7526 103.095 70.9221L103.104 70.9244C103.745 71.0864 104.207 71.3228 104.533 71.6021L104.546 71.6131C104.876 71.8853 105.117 72.2321 105.269 72.6765L105.273 72.6868C105.442 73.1614 105.538 73.7544 105.538 74.4837C105.538 75.213 105.442 75.806 105.273 76.2806L105.269 76.2909C105.116 76.7376 104.872 77.0979 104.533 77.3896C104.205 77.6706 103.741 77.9109 103.099 78.0807C102.454 78.2432 101.632 78.3326 100.617 78.3326L95.8905 78.3326L95.8905 70.6591Z" fill="#3A3A3A"/>
<path fill-rule="evenodd" clip-rule="evenodd" d="M85.5673 78.3224C86.0954 77.2176 86.3594 75.9462 86.3594 74.5083C86.3594 73.0704 86.0954 71.803 85.5673 70.7063C85.0393 69.6015 84.2838 68.6794 83.3008 67.9401C82.3178 67.2009 81.1236 66.6444 79.7182 66.2707C78.3208 65.8889 76.7489 65.6979 75.0022 65.6979C73.2556 65.6979 71.6755 65.8889 70.262 66.2707C68.8565 66.6444 67.6583 67.2009 66.6672 67.9401C65.676 68.6794 64.9124 69.6015 64.3762 70.7063C63.8401 71.803 63.572 73.0704 63.572 74.5083C63.572 75.9462 63.8401 77.2176 64.3762 78.3224C64.9124 79.4192 65.676 80.3372 66.6672 81.0764C67.6583 81.8157 68.8565 82.3762 70.262 82.7581C71.6755 83.1318 73.2556 83.3186 75.0023 83.3186C76.7489 83.3186 78.3208 83.1318 79.7182 82.7581C81.1236 82.3762 82.3178 81.8157 83.3008 81.0764C84.2838 80.3372 85.0393 79.4192 85.5673 78.3224ZM63.5745 70.3169C62.9697 71.5549 62.6807 72.9595 62.6807 74.5083C62.6807 76.0581 62.9701 77.4664 63.5744 78.7116L63.5755 78.7139C64.1748 79.9398 65.031 80.9679 66.1343 81.7909C67.2295 82.6078 68.5337 83.2122 70.0283 83.6182L70.0342 83.6198C71.5348 84.0165 73.1931 84.2099 75.0023 84.2099C76.8111 84.2099 78.4624 84.0165 79.9484 83.6191L79.9518 83.6182C81.4467 83.2121 82.7481 82.6073 83.8365 81.7888C84.9321 80.9648 85.7799 79.9356 86.3704 78.7091L86.3715 78.7068C86.9661 77.4628 87.2507 76.0562 87.2507 74.5083C87.2507 72.961 86.9663 71.5578 86.371 70.3208M63.5745 70.3169C64.1734 69.0829 65.0296 68.0496 66.1343 67.2257C67.2305 66.408 68.5358 65.8076 70.0312 65.4098C71.533 65.0043 73.1924 64.8066 75.0022 64.8066C76.8114 64.8066 78.4634 65.0041 79.9504 65.4102C81.4455 65.8081 82.7475 66.4088 83.8365 67.2278C84.9332 68.0526 85.7808 69.0865 86.371 70.3208M81.4851 72.6439C81.6882 73.2613 81.7897 73.8827 81.7897 74.5083C81.7897 75.1338 81.6882 75.7594 81.4851 76.3849C81.2901 77.0023 80.9367 77.5588 80.4249 78.0543C79.9213 78.5499 79.2307 78.952 78.3533 79.2607C77.476 79.5695 76.3589 79.7238 75.0023 79.7238C74.0924 79.7238 73.2922 79.6548 72.6016 79.5166C71.9111 79.3704 71.314 79.1754 70.8103 78.9317C70.3067 78.6799 69.8842 78.3874 69.543 78.0543C69.2018 77.7213 68.9297 77.3638 68.7266 76.982C68.5235 76.5921 68.3772 76.1859 68.2879 75.7634C68.2066 75.341 68.166 74.9226 68.166 74.5083C68.166 74.1021 68.2066 73.6918 68.2879 73.2775C68.3772 72.8551 68.5235 72.4529 68.7266 72.0711C68.9297 71.6812 69.2018 71.3197 69.543 70.9866C69.8842 70.6454 70.3067 70.3489 70.8103 70.097C71.314 69.8452 71.9111 69.6502 72.6016 69.5121C73.2922 69.3659 74.0924 69.2928 75.0022 69.2928C76.3589 69.2928 77.476 69.4471 78.3533 69.7558C79.2307 70.0645 79.9213 70.4667 80.4249 70.9622C80.9367 71.4578 81.2901 72.0183 81.4851 72.6439ZM69.1613 73.4555C69.2334 73.1172 69.3505 72.796 69.5135 72.4897L69.5171 72.4828C69.673 72.1835 69.8863 71.897 70.1656 71.6244L70.1657 71.6244L70.1733 71.6168C70.4365 71.3536 70.777 71.1102 71.2089 70.8942C71.6267 70.6854 72.1451 70.5124 72.7764 70.3861L72.7765 70.3862L72.7863 70.3841C73.4016 70.2538 74.1376 70.1841 75.0022 70.1841C76.3002 70.1841 77.308 70.3329 78.0575 70.5966C78.8487 70.875 79.4141 71.2181 79.7998 71.5976L79.8049 71.6025C80.2192 72.0036 80.4874 72.4381 80.6342 72.9091L80.6341 72.9091L80.6384 72.9224C80.8131 73.4534 80.8984 73.981 80.8984 74.5083C80.8984 75.0356 80.8131 75.5684 80.6373 76.1096L80.6352 76.1165C80.4891 76.579 80.2213 77.0109 79.8049 77.414L79.7998 77.419C79.4141 77.7985 78.8487 78.1416 78.0575 78.42C77.308 78.6837 76.3002 78.8325 75.0023 78.8325C74.1374 78.8325 73.3996 78.7668 72.7815 78.6437C72.1487 78.5094 71.6264 78.3358 71.2038 78.1319C70.7705 77.9147 70.4291 77.6738 70.1656 77.4166C69.8846 77.1422 69.6709 76.8585 69.5153 76.5669C69.3511 76.2509 69.2338 75.9249 69.1616 75.5871C69.0917 75.2208 69.0573 74.8614 69.0573 74.5083C69.0573 74.1639 69.0915 73.8133 69.1613 73.4555Z" fill="#3A3A3A"/>
<path fill-rule="evenodd" clip-rule="evenodd" d="M59.7822 78.3224C60.3102 77.2176 60.5743 75.9462 60.5743 74.5083C60.5743 73.0704 60.3102 71.803 59.7822 70.7063C59.2541 69.6015 58.4986 68.6794 57.5156 67.9401C56.5326 67.2009 55.3384 66.6444 53.933 66.2707C52.5357 65.8889 50.9637 65.6979 49.2171 65.6979C47.4705 65.6979 45.8904 65.8889 44.4768 66.2707C43.0714 66.6444 41.8731 67.2009 40.882 67.9401C39.8909 68.6794 39.1273 69.6015 38.5911 70.7063C38.0549 71.803 37.7868 73.0704 37.7868 74.5083C37.7868 75.9462 38.0549 77.2176 38.5911 78.3224C39.1273 79.4192 39.8909 80.3372 40.882 81.0764C41.8731 81.8157 43.0714 82.3762 44.4768 82.7581C45.8904 83.1318 47.4705 83.3186 49.2171 83.3186C50.9637 83.3186 52.5357 83.1318 53.933 82.7581C55.3384 82.3762 56.5326 81.8157 57.5156 81.0764C58.4986 80.3372 59.2541 79.4192 59.7822 78.3224ZM37.7896 70.3164C37.1846 71.5545 36.8955 72.9593 36.8955 74.5083C36.8955 76.0581 37.1849 77.4664 37.7892 78.7116L37.7903 78.7139C38.3896 79.9398 39.2458 80.9679 40.3491 81.7909C41.4444 82.6078 42.7486 83.2122 44.2431 83.6182L44.249 83.6198C45.7497 84.0165 47.408 84.2099 49.2171 84.2099C51.026 84.2099 52.6772 84.0165 54.1633 83.6191L54.1667 83.6182C55.6616 83.2121 56.963 82.6073 58.0514 81.7888C59.147 80.9648 59.9947 79.9356 60.5853 78.7091L60.5864 78.7068C61.1809 77.4628 61.4656 76.0562 61.4656 74.5083C61.4656 72.961 61.1812 71.5578 60.5858 70.3208C59.9957 69.0865 59.148 68.0526 58.0513 67.2278C56.9623 66.4088 55.6603 65.808 54.1651 65.4101C52.6782 65.0041 51.0262 64.8066 49.2171 64.8066C47.4073 64.8066 45.7479 65.0043 44.2461 65.4098C42.7506 65.8076 41.4453 66.408 40.3491 67.2257C39.2446 68.0495 38.3885 69.0826 37.7896 70.3164ZM55.6999 72.6439C55.903 73.2613 56.0046 73.8827 56.0046 74.5083C56.0046 75.1338 55.903 75.7594 55.6999 76.3849C55.505 77.0023 55.1516 77.5588 54.6398 78.0543C54.1361 78.5499 53.4456 78.952 52.5682 79.2607C51.6908 79.5695 50.5738 79.7238 49.2171 79.7238C48.3072 79.7238 47.507 79.6548 46.8165 79.5166C46.126 79.3704 45.5289 79.1754 45.0252 78.9317C44.5215 78.6799 44.0991 78.3874 43.7579 78.0543C43.4167 77.7213 43.1445 77.3638 42.9414 76.982C42.7383 76.5921 42.5921 76.1859 42.5027 75.7634C42.4215 75.341 42.3809 74.9226 42.3809 74.5083C42.3809 74.1021 42.4215 73.6918 42.5027 73.2775C42.5921 72.8551 42.7383 72.4529 42.9414 72.0711C43.1445 71.6812 43.4167 71.3197 43.7579 70.9866C44.0991 70.6454 44.5215 70.3489 45.0252 70.097C45.5289 69.8452 46.126 69.6502 46.8165 69.5121C47.507 69.3659 48.3072 69.2928 49.2171 69.2928C50.5738 69.2928 51.6908 69.4471 52.5682 69.7558C53.4456 70.0645 54.1361 70.4667 54.6398 70.9622C55.1516 71.4578 55.505 72.0183 55.6999 72.6439ZM43.3761 73.4556C43.4483 73.1173 43.5654 72.796 43.7283 72.4897L43.7319 72.4828C43.8878 72.1835 44.1012 71.897 44.3805 71.6244L44.3805 71.6244L44.3881 71.6168C44.6513 71.3536 44.9918 71.1102 45.4238 70.8942C45.8415 70.6854 46.3599 70.5124 46.9913 70.3861L46.9913 70.3862L47.0011 70.3841C47.6165 70.2538 48.3525 70.1841 49.2171 70.1841C50.515 70.1841 51.5229 70.3329 52.2724 70.5966C53.0636 70.875 53.629 71.2181 54.0147 71.5976L54.0198 71.6025C54.434 72.0036 54.7022 72.4381 54.849 72.9091L54.8489 72.9091L54.8533 72.9224C55.028 73.4534 55.1133 73.981 55.1133 74.5083C55.1133 75.0356 55.0279 75.5684 54.8522 76.1096L54.85 76.1165C54.704 76.579 54.4361 77.0109 54.0198 77.414L54.0198 77.414L54.0147 77.419C53.629 77.7985 53.0636 78.1416 52.2724 78.42C51.5229 78.6837 50.515 78.8325 49.2171 78.8325C48.3522 78.8325 47.6144 78.7668 46.9963 78.6436C46.3636 78.5093 45.8412 78.3358 45.4186 78.1319C44.9853 77.9147 44.644 77.6738 44.3805 77.4166C44.0993 77.1421 43.8857 76.8584 43.73 76.5667C43.5659 76.2507 43.4486 75.9246 43.3764 75.5868C43.3065 75.2206 43.2722 74.8613 43.2722 74.5083C43.2722 74.164 43.3063 73.8134 43.3761 73.4556Z" fill="#3A3A3A"/>
<path fill-rule="evenodd" clip-rule="evenodd" d="M29.7435 66.1244C28.338 65.8401 26.8148 65.6979 25.1738 65.6979C24.1096 65.6979 23.0738 65.7711 22.0664 65.9173C21.0672 66.0635 20.1248 66.291 19.2393 66.5997C18.3619 66.9003 17.5536 67.2862 16.8143 67.7573C16.0832 68.2285 15.4536 68.7891 14.9255 69.439C14.4056 70.0889 13.9994 70.8363 13.7069 71.6812C13.4145 72.5261 13.2683 73.4684 13.2683 74.5083C13.2683 75.5563 13.4064 76.5027 13.6826 77.3476C13.9669 78.1843 14.3609 78.9277 14.8646 79.5776C15.3764 80.2275 15.9898 80.788 16.7047 81.2592C17.4277 81.7304 18.2238 82.1203 19.0931 82.4291C19.9704 82.7296 20.9128 82.953 21.9202 83.0993C22.9275 83.2455 23.9796 83.3186 25.0763 83.3186C25.7831 83.3186 26.5345 83.2861 27.3307 83.2211C28.1268 83.1561 28.9189 83.0627 29.7069 82.9409C30.503 82.8271 31.2707 82.689 32.01 82.5265C32.7574 82.3559 33.4317 82.1691 34.0329 81.966L34.0329 73.4116L24.4426 73.4116L24.4426 77.0795L29.5119 77.0795L29.5119 79.1023C29.2032 79.1917 28.9026 79.277 28.6102 79.3582C28.3258 79.4395 28.0171 79.5085 27.6841 79.5654C27.3591 79.6223 26.9976 79.6669 26.5995 79.6994C26.2015 79.7319 25.7343 79.7482 25.1982 79.7482C24.1339 79.7482 23.2159 79.6669 22.4442 79.5045C21.6724 79.3339 21.0103 79.1105 20.4579 78.8342C19.9136 78.558 19.4708 78.2412 19.1296 77.8837C18.7884 77.5263 18.5203 77.1526 18.3254 76.7627C18.1385 76.3727 18.0085 75.9828 17.9354 75.5928C17.8704 75.2029 17.8379 74.8414 17.8379 74.5083C17.8379 74.1265 17.8786 73.7325 17.9598 73.3263C18.041 72.9201 18.1873 72.522 18.3985 72.132C18.6097 71.7421 18.8981 71.3765 19.2637 71.0353C19.6292 70.686 20.0964 70.3814 20.665 70.1214C21.2337 69.8614 21.9161 69.6543 22.7123 69.4999C23.5084 69.3456 24.4426 69.2684 25.515 69.2684C26.3761 69.2684 27.1966 69.3253 27.9765 69.439C28.7564 69.5527 29.4876 69.703 30.17 69.8899C30.8524 70.0767 31.482 70.292 32.0588 70.5357C32.2956 70.6344 32.5225 70.7344 32.7394 70.8358C33.0581 70.9847 33.3552 71.1365 33.6307 71.2912L33.6307 67.1968C32.4528 66.7581 31.157 66.4007 29.7435 66.1244ZM29.9172 65.2502C28.4468 64.953 26.8647 64.8066 25.1738 64.8066C24.0686 64.8066 22.99 64.8826 21.9384 65.0352C20.8883 65.1889 19.8903 65.429 18.9482 65.7573C18.0087 66.0793 17.1368 66.4949 16.3353 67.0057L16.3315 67.0081C15.5244 67.5283 14.8234 68.1512 14.2338 68.8769L14.2295 68.8822C13.6415 69.6172 13.1879 70.4558 12.8647 71.3896C12.5349 72.3422 12.377 73.385 12.377 74.5083C12.377 75.6339 12.5253 76.6759 12.8354 77.6245L12.8387 77.6343C13.1524 78.5576 13.5915 79.3899 14.1601 80.1236L14.1644 80.129C14.7373 80.8566 15.4223 81.4815 16.2142 82.0034L16.218 82.0059C17.0038 82.518 17.8638 82.9383 18.7948 83.269L18.8042 83.2722C19.7386 83.5924 20.7353 83.8279 21.7921 83.9813C22.845 84.1342 23.94 84.2099 25.0763 84.2099C25.8101 84.2099 26.586 84.1762 27.4032 84.1095C28.2189 84.0429 29.0306 83.9472 29.8382 83.8225C30.653 83.7059 31.4408 83.5642 32.2013 83.3971L32.2084 83.3955C32.9793 83.2195 33.6833 83.0249 34.3181 82.8104L34.9242 82.6057L34.9242 72.5203L34.522 72.5203L34.522 66.5776L33.9418 66.3615C32.7131 65.9039 31.3706 65.5344 29.9172 65.2502ZM33.9992 72.5203L33.1944 72.0684C32.7667 71.8283 32.2747 71.5913 31.716 71.3585L31.7118 71.3567C31.1756 71.1302 30.5838 70.9273 29.9346 70.7495C29.291 70.5733 28.5958 70.43 27.8479 70.321C27.1143 70.214 26.337 70.1597 25.515 70.1597C24.4826 70.1597 23.6076 70.2342 22.8819 70.3749C22.1358 70.5196 21.5244 70.7086 21.0356 70.932C20.5368 71.16 20.1584 71.4132 19.8794 71.6797L19.8719 71.687C19.5678 71.9707 19.3421 72.2613 19.1822 72.5566C19.0104 72.8738 18.8964 73.1881 18.8338 73.5011C18.7631 73.8545 18.7292 74.1899 18.7292 74.5083C18.7292 74.7818 18.7558 75.0907 18.8131 75.4371C18.8705 75.7392 18.9729 76.0501 19.1259 76.3707C19.276 76.6692 19.4886 76.9689 19.7744 77.2683C20.0312 77.5374 20.3854 77.7977 20.8589 78.0382C21.3292 78.2731 21.9162 78.4746 22.6322 78.6332C23.326 78.7788 24.1779 78.8569 25.1982 78.8569C25.7177 78.8569 26.1596 78.8411 26.527 78.8111C26.9033 78.7804 27.2372 78.7387 27.5304 78.6874L27.5341 78.6868C27.8396 78.6346 28.1162 78.5724 28.3653 78.5012L28.3716 78.4994C28.4539 78.4766 28.537 78.4534 28.6206 78.4298L28.6206 77.9708L23.5513 77.9708L23.5513 72.5203L33.9992 72.5203Z" fill="#3A3A3A"/>
<path fill-rule="evenodd" clip-rule="evenodd" d="M110.634 102.304C110.869 101.467 110.987 100.513 110.987 99.4402C110.987 98.376 110.869 97.4296 110.634 96.6009C110.398 95.7723 110.065 95.0493 109.634 94.4319C109.212 93.8063 108.7 93.2823 108.099 92.8599C107.498 92.4293 106.828 92.0841 106.088 91.8241C105.357 91.5641 104.569 91.3773 103.724 91.2635C102.879 91.1417 101.998 91.0808 101.08 91.0808L90.4782 91.0808L90.4782 107.824L101.104 107.824C102.022 107.824 102.904 107.767 103.749 107.653C104.593 107.532 105.381 107.341 106.113 107.081C106.844 106.821 107.506 106.475 108.099 106.045C108.7 105.614 109.212 105.09 109.634 104.473C110.065 103.856 110.398 103.133 110.634 102.304ZM110.368 104.979C109.888 105.679 109.305 106.277 108.62 106.768C107.955 107.251 107.217 107.634 106.411 107.921C105.619 108.202 104.773 108.406 103.876 108.536L103.867 108.537C102.98 108.656 102.059 108.715 101.104 108.715L89.5869 108.715L89.5869 90.1895L101.08 90.1895C102.036 90.1895 102.958 90.2528 103.847 90.3808C104.745 90.5019 105.592 90.7019 106.385 90.9837C107.198 91.2695 107.942 91.6518 108.615 92.1331C109.304 92.6179 109.889 93.218 110.369 93.9273C110.862 94.6354 111.233 95.4493 111.491 96.3572C111.754 97.2811 111.878 98.3121 111.878 99.4402C111.878 100.576 111.754 101.614 111.491 102.545L111.491 102.548C111.233 103.456 110.861 104.271 110.368 104.979ZM106.113 97.3443C106.324 97.9373 106.429 98.636 106.429 99.4402C106.429 100.244 106.324 100.943 106.113 101.536C105.91 102.129 105.576 102.625 105.113 103.023C104.658 103.413 104.061 103.705 103.322 103.9C102.583 104.087 101.681 104.18 100.617 104.18L94.9992 104.18L94.9992 94.7243L100.617 94.7243C101.681 94.7243 102.583 94.8218 103.322 95.0168C104.061 95.2036 104.658 95.492 105.113 95.882C105.576 96.2638 105.91 96.7512 106.113 97.3443ZM95.8905 95.6156L100.617 95.6156C101.632 95.6156 102.452 95.7092 103.095 95.8786L103.104 95.8809C103.745 96.043 104.207 96.2793 104.533 96.5587L104.546 96.5696C104.876 96.8418 105.117 97.1887 105.269 97.633L105.273 97.6433C105.442 98.1179 105.538 98.7109 105.538 99.4402C105.538 100.17 105.442 100.763 105.273 101.237L105.269 101.247C105.116 101.694 104.872 102.054 104.533 102.346C104.205 102.627 103.741 102.867 103.099 103.037C102.454 103.2 101.632 103.289 100.617 103.289L95.8905 103.289L95.8905 95.6156Z" fill="#3A3A3A"/>
<path fill-rule="evenodd" clip-rule="evenodd" d="M85.5673 103.279C86.0954 102.174 86.3594 100.903 86.3594 99.4648C86.3594 98.0269 86.0954 96.7596 85.5673 95.6629C85.0393 94.558 84.2838 93.6359 83.3008 92.8967C82.3178 92.1574 81.1236 91.6009 79.7182 91.2272C78.3208 90.8454 76.7489 90.6545 75.0023 90.6545C73.2556 90.6545 71.6755 90.8454 70.262 91.2272C68.8565 91.6009 67.6583 92.1574 66.6672 92.8967C65.676 93.6359 64.9124 94.558 64.3762 95.6629C63.8401 96.7596 63.572 98.0269 63.572 99.4648C63.572 100.903 63.8401 102.174 64.3762 103.279C64.9124 104.376 65.676 105.294 66.6672 106.033C67.6583 106.772 68.8565 107.333 70.262 107.715C71.6755 108.088 73.2556 108.275 75.0023 108.275C76.7489 108.275 78.3209 108.088 79.7182 107.715C81.1236 107.333 82.3178 106.772 83.3008 106.033C84.2838 105.294 85.0393 104.376 85.5673 103.279ZM63.5745 95.2734C62.9697 96.5114 62.6807 97.9161 62.6807 99.4648C62.6807 101.015 62.9701 102.423 63.5744 103.668L63.5755 103.67C64.1748 104.896 65.031 105.924 66.1343 106.747C67.2295 107.564 68.5337 108.169 70.0283 108.575L70.0342 108.576C71.5348 108.973 73.1931 109.166 75.0023 109.166C76.8111 109.166 78.4624 108.973 79.9484 108.576L79.9518 108.575C81.4467 108.169 82.7481 107.564 83.8365 106.745C84.9321 105.921 85.7799 104.892 86.3704 103.666L86.3715 103.663C86.9661 102.419 87.2507 101.013 87.2507 99.4648C87.2507 97.9176 86.9663 96.5144 86.371 95.2773M63.5745 95.2734C64.1734 94.0394 65.0296 93.0062 66.1343 92.1822C67.2305 91.3645 68.5358 90.7641 70.0312 90.3663C71.533 89.9608 73.1924 89.7632 75.0023 89.7632C76.8114 89.7632 78.4634 89.9607 79.9504 90.3667C81.4455 90.7646 82.7475 91.3653 83.8365 92.1843C84.9332 93.0091 85.7808 94.0431 86.371 95.2773M81.4851 97.6004C81.6882 98.2178 81.7897 98.8393 81.7897 99.4648C81.7897 100.09 81.6882 100.716 81.4851 101.341C81.2901 101.959 80.9367 102.515 80.4249 103.011C79.9213 103.506 79.2307 103.909 78.3533 104.217C77.476 104.526 76.3589 104.68 75.0023 104.68C74.0924 104.68 73.2922 104.611 72.6016 104.473C71.9111 104.327 71.314 104.132 70.8103 103.888C70.3067 103.636 69.8842 103.344 69.543 103.011C69.2018 102.678 68.9297 102.32 68.7266 101.939C68.5235 101.549 68.3772 101.142 68.2879 100.72C68.2066 100.298 68.166 99.8791 68.166 99.4648C68.166 99.0586 68.2066 98.6484 68.2879 98.2341C68.3772 97.8116 68.5235 97.4095 68.7266 97.0277C68.9297 96.6377 69.2018 96.2762 69.543 95.9431C69.8842 95.6019 70.3067 95.3054 70.8103 95.0536C71.314 94.8017 71.9111 94.6068 72.6016 94.4686C73.2922 94.3224 74.0924 94.2493 75.0023 94.2493C76.3589 94.2493 77.476 94.4037 78.3533 94.7124C79.2307 95.0211 79.9213 95.4232 80.4249 95.9188C80.9367 96.4143 81.2901 96.9749 81.4851 97.6004ZM69.1613 98.412C69.2335 98.0737 69.3505 97.7525 69.5135 97.4462L69.5171 97.4394C69.673 97.14 69.8863 96.8536 70.1656 96.5809L70.1657 96.581L70.1733 96.5734C70.4365 96.3101 70.777 96.0668 71.2089 95.8508C71.6267 95.6419 72.1451 95.4689 72.7764 95.3426L72.7765 95.3427L72.7863 95.3406C73.4016 95.2103 74.1376 95.1406 75.0023 95.1406C76.3002 95.1406 77.308 95.2894 78.0575 95.5531C78.8487 95.8315 79.4141 96.1746 79.7998 96.5541L79.8049 96.5591C80.2192 96.9602 80.4874 97.3947 80.6342 97.8656L80.6341 97.8657L80.6384 97.8789C80.8131 98.41 80.8984 98.9376 80.8984 99.4648C80.8984 99.9922 80.8131 100.525 80.6373 101.066L80.6352 101.073C80.4891 101.536 80.2213 101.967 79.8049 102.371L79.7998 102.376C79.4141 102.755 78.8487 103.098 78.0575 103.377C77.308 103.64 76.3002 103.789 75.0023 103.789C74.1374 103.789 73.3996 103.723 72.7815 103.6C72.1487 103.466 71.6264 103.292 71.2038 103.088C70.7705 102.871 70.4291 102.63 70.1656 102.373C69.8846 102.099 69.6709 101.815 69.5153 101.523C69.3511 101.207 69.2338 100.881 69.1616 100.544C69.0917 100.177 69.0573 99.818 69.0573 99.4648C69.0573 99.1205 69.0915 98.7698 69.1613 98.412Z" fill="#3A3A3A"/>
<path fill-rule="evenodd" clip-rule="evenodd" d="M59.7822 103.279C60.3102 102.174 60.5743 100.903 60.5743 99.4648C60.5743 98.0269 60.3102 96.7596 59.7822 95.6629C59.2541 94.558 58.4986 93.6359 57.5156 92.8967C56.5326 92.1574 55.3384 91.6009 53.933 91.2272C52.5357 90.8454 50.9637 90.6545 49.2171 90.6545C47.4705 90.6545 45.8904 90.8454 44.4768 91.2272C43.0714 91.6009 41.8731 92.1574 40.882 92.8967C39.8909 93.6359 39.1273 94.558 38.5911 95.6629C38.0549 96.7596 37.7868 98.0269 37.7868 99.4648C37.7868 100.903 38.0549 102.174 38.5911 103.279C39.1273 104.376 39.8909 105.294 40.882 106.033C41.8731 106.772 43.0714 107.333 44.4768 107.715C45.8904 108.088 47.4705 108.275 49.2171 108.275C50.9637 108.275 52.5357 108.088 53.933 107.715C55.3384 107.333 56.5326 106.772 57.5156 106.033C58.4986 105.294 59.2541 104.376 59.7822 103.279ZM37.7896 95.2729C37.1846 96.511 36.8955 97.9158 36.8955 99.4648C36.8955 101.015 37.1849 102.423 37.7892 103.668L37.7903 103.67C38.3896 104.896 39.2458 105.924 40.3491 106.747C41.4444 107.564 42.7486 108.169 44.2431 108.575L44.249 108.576C45.7497 108.973 47.408 109.166 49.2171 109.166C51.026 109.166 52.6772 108.973 54.1633 108.576L54.1667 108.575C55.6616 108.169 56.963 107.564 58.0514 106.745C59.147 105.921 59.9947 104.892 60.5853 103.666L60.5864 103.663C61.1809 102.419 61.4656 101.013 61.4656 99.4648C61.4656 97.9176 61.1812 96.5144 60.5858 95.2773C59.9957 94.0431 59.148 93.0091 58.0513 92.1843C56.9623 91.3653 55.6603 90.7646 54.1651 90.3667C52.6782 89.9607 51.0262 89.7632 49.2171 89.7632C47.4073 89.7632 45.7479 89.9608 44.2461 90.3663C42.7506 90.7641 41.4453 91.3645 40.3491 92.1822C39.2446 93.006 38.3885 94.0391 37.7896 95.2729ZM55.6999 97.6004C55.903 98.2178 56.0046 98.8393 56.0046 99.4648C56.0046 100.09 55.903 100.716 55.6999 101.341C55.505 101.959 55.1516 102.515 54.6398 103.011C54.1361 103.506 53.4456 103.909 52.5682 104.217C51.6908 104.526 50.5738 104.68 49.2171 104.68C48.3072 104.68 47.507 104.611 46.8165 104.473C46.126 104.327 45.5289 104.132 45.0252 103.888C44.5215 103.636 44.0991 103.344 43.7579 103.011C43.4167 102.678 43.1445 102.32 42.9414 101.939C42.7383 101.549 42.5921 101.142 42.5027 100.72C42.4215 100.298 42.3809 99.8791 42.3809 99.4648C42.3809 99.0586 42.4215 98.6484 42.5027 98.2341C42.5921 97.8116 42.7383 97.4095 42.9414 97.0277C43.1445 96.6377 43.4167 96.2762 43.7579 95.9431C44.0991 95.6019 44.5215 95.3054 45.0252 95.0536C45.5289 94.8017 46.126 94.6068 46.8165 94.4686C47.507 94.3224 48.3072 94.2493 49.2171 94.2493C50.5738 94.2493 51.6908 94.4037 52.5682 94.7124C53.4456 95.0211 54.1361 95.4232 54.6398 95.9188C55.1516 96.4143 55.505 96.9749 55.6999 97.6004ZM43.3761 98.4122C43.4483 98.0738 43.5654 97.7526 43.7283 97.4462L43.7319 97.4394C43.8878 97.14 44.1012 96.8536 44.3805 96.5809L44.3805 96.581L44.3881 96.5734C44.6513 96.3101 44.9918 96.0668 45.4238 95.8508C45.8415 95.6419 46.3599 95.4689 46.9913 95.3426L46.9913 95.3427L47.0011 95.3406C47.6165 95.2103 48.3525 95.1406 49.2171 95.1406C50.515 95.1406 51.5229 95.2894 52.2724 95.5531C53.0636 95.8315 53.629 96.1746 54.0147 96.5541L54.0198 96.5591C54.434 96.9602 54.7022 97.3947 54.849 97.8656L54.8489 97.8657L54.8533 97.8789C55.028 98.41 55.1133 98.9376 55.1133 99.4648C55.1133 99.9922 55.0279 100.525 54.8522 101.066L54.85 101.073C54.704 101.536 54.4361 101.967 54.0198 102.371L54.0198 102.371L54.0147 102.376C53.629 102.755 53.0636 103.098 52.2724 103.377C51.5229 103.64 50.515 103.789 49.2171 103.789C48.3522 103.789 47.6144 103.723 46.9963 103.6C46.3636 103.466 45.8412 103.292 45.4186 103.088C44.9853 102.871 44.644 102.63 44.3805 102.373C44.0993 102.099 43.8857 101.815 43.73 101.523C43.5659 101.207 43.4486 100.881 43.3764 100.543C43.3065 100.177 43.2722 99.8179 43.2722 99.4648C43.2722 99.1205 43.3063 98.7699 43.3761 98.4122Z" fill="#3A3A3A"/>
<path fill-rule="evenodd" clip-rule="evenodd" d="M29.7435 91.081C28.338 90.7967 26.8148 90.6545 25.1738 90.6545C24.1096 90.6545 23.0738 90.7276 22.0664 90.8738C21.0672 91.0201 20.1248 91.2475 19.2393 91.5562C18.3619 91.8568 17.5536 92.2427 16.8143 92.7139C16.0832 93.1851 15.4536 93.7456 14.9255 94.3955C14.4056 95.0454 13.9994 95.7928 13.7069 96.6377C13.4145 97.4826 13.2683 98.425 13.2683 99.4648C13.2683 100.513 13.4064 101.459 13.6826 102.304C13.9669 103.141 14.3609 103.884 14.8646 104.534C15.3764 105.184 15.9898 105.745 16.7047 106.216C17.4277 106.687 18.2238 107.077 19.0931 107.386C19.9705 107.686 20.9128 107.91 21.9202 108.056C22.9275 108.202 23.9796 108.275 25.0763 108.275C25.7831 108.275 26.5345 108.243 27.3307 108.178C28.1268 108.113 28.9189 108.019 29.7069 107.897C30.503 107.784 31.2708 107.646 32.01 107.483C32.7574 107.312 33.4317 107.126 34.0329 106.923L34.0329 98.3681L24.4426 98.3681L24.4426 102.036L29.5119 102.036L29.5119 104.059C29.2032 104.148 28.9026 104.234 28.6102 104.315C28.3259 104.396 28.0171 104.465 27.6841 104.522C27.3591 104.579 26.9976 104.623 26.5995 104.656C26.2015 104.688 25.7343 104.705 25.1982 104.705C24.1339 104.705 23.2159 104.623 22.4442 104.461C21.6724 104.29 21.0103 104.067 20.4579 103.791C19.9136 103.515 19.4708 103.198 19.1296 102.84C18.7884 102.483 18.5203 102.109 18.3254 101.719C18.1385 101.329 18.0085 100.939 17.9354 100.549C17.8704 100.159 17.8379 99.7979 17.8379 99.4648C17.8379 99.083 17.8786 98.689 17.9598 98.2828C18.041 97.8766 18.1873 97.4785 18.3985 97.0886C18.6097 96.6986 18.8981 96.3331 19.2637 95.9919C19.6292 95.6425 20.0964 95.3379 20.665 95.0779C21.2337 94.818 21.9161 94.6108 22.7123 94.4565C23.5084 94.3021 24.4426 94.2249 25.515 94.2249C26.3761 94.2249 27.1966 94.2818 27.9765 94.3955C28.7564 94.5093 29.4876 94.6596 30.17 94.8464C30.8524 95.0333 31.482 95.2485 32.0588 95.4923C32.2956 95.591 32.5225 95.691 32.7394 95.7923C33.0581 95.9413 33.3552 96.0931 33.6307 96.2478L33.6307 92.1533C32.4528 91.7147 31.157 91.3572 29.7435 91.081ZM29.9172 90.2068C28.4468 89.9095 26.8647 89.7632 25.1738 89.7632C24.0686 89.7632 22.99 89.8391 21.9384 89.9918C20.8883 90.1454 19.8903 90.3855 18.9482 90.7138C18.0087 91.0359 17.1368 91.4514 16.3353 91.9623L16.3315 91.9647C15.5244 92.4848 14.8234 93.1077 14.2338 93.8335L14.2295 93.8387C13.6415 94.5738 13.1879 95.4123 12.8647 96.3462C12.5349 97.2987 12.377 98.3416 12.377 99.4648C12.377 100.59 12.5253 101.632 12.8354 102.581L12.8387 102.591C13.1524 103.514 13.5915 104.346 14.1601 105.08L14.1644 105.086C14.7373 105.813 15.4223 106.438 16.2142 106.96L16.218 106.962C17.0038 107.475 17.8638 107.895 18.7948 108.226L18.8042 108.229C19.7386 108.549 20.7353 108.784 21.7921 108.938C22.845 109.091 23.94 109.166 25.0763 109.166C25.8102 109.166 26.586 109.133 27.4032 109.066C28.219 108.999 29.0306 108.904 29.8382 108.779C30.653 108.662 31.4408 108.521 32.2013 108.354L32.2084 108.352C32.9793 108.176 33.6833 107.981 34.3181 107.767L34.9242 107.562L34.9242 97.4768L34.522 97.4768L34.522 91.5342L33.9418 91.3181C32.7131 90.8605 31.3707 90.4909 29.9172 90.2068ZM33.9992 97.4768L33.1944 97.025C32.7667 96.7849 32.2748 96.5478 31.716 96.315L31.7119 96.3133C31.1756 96.0867 30.5838 95.8838 29.9346 95.7061C29.291 95.5298 28.5958 95.3866 27.8479 95.2775C27.1143 95.1705 26.337 95.1162 25.515 95.1162C24.4826 95.1162 23.6076 95.1908 22.8819 95.3315C22.1358 95.4761 21.5244 95.6651 21.0356 95.8886C20.5368 96.1166 20.1584 96.3697 19.8794 96.6363L19.8719 96.6435C19.5678 96.9273 19.3421 97.2179 19.1822 97.5131C19.0104 97.8303 18.8964 98.1446 18.8338 98.4576C18.7631 98.8111 18.7292 99.1464 18.7292 99.4648C18.7292 99.7383 18.7558 100.047 18.8131 100.394C18.8705 100.696 18.9729 101.007 19.1259 101.327C19.276 101.626 19.4886 101.925 19.7744 102.225C20.0312 102.494 20.3854 102.754 20.8589 102.995C21.3292 103.23 21.9163 103.431 22.6322 103.59C23.326 103.735 24.1779 103.813 25.1982 103.813C25.7177 103.813 26.1596 103.798 26.527 103.768C26.9033 103.737 27.2372 103.695 27.5304 103.644L27.5341 103.643C27.8396 103.591 28.1162 103.529 28.3653 103.458L28.3716 103.456C28.454 103.433 28.537 103.41 28.6206 103.386L28.6206 102.927L23.5513 102.927L23.5513 97.4768L33.9992 97.4768Z" fill="#3A3A3A"/>
</svg>
