<svg width="177" height="187" viewBox="0 0 177 187" fill="none" xmlns="http://www.w3.org/2000/svg">
<path d="M71.4193 40.6793C77.7755 25.5415 99.2245 25.5415 105.581 40.6793C119.607 32.1693 136.926 44.874 133.218 60.855C149.597 62.2586 156.179 82.713 143.774 93.5C156.179 104.287 149.597 124.741 133.218 126.145C136.926 142.126 119.607 154.831 105.581 146.321C99.2245 161.459 77.7755 161.459 71.4193 146.321C57.3934 154.831 40.0736 142.126 43.7821 126.145C27.4034 124.741 20.8211 104.287 33.2257 93.5C20.8211 82.713 27.4034 62.2586 43.7821 60.855C40.0736 44.874 57.3934 32.1693 71.4193 40.6793Z" fill="#998675"/>
<path fill-rule="evenodd" clip-rule="evenodd" d="M52.0784 64.6449C50.9711 53.2484 62.6771 44.6 73.0887 49.2C73.7143 49.4764 74.3352 49.8007 74.9484 50.175C75.2258 49.5103 75.5385 48.8813 75.8828 48.2879C81.6203 38.3983 96.1242 38.3983 101.862 48.2879C102.206 48.8813 102.519 49.5103 102.796 50.175C103.409 49.8007 104.03 49.4764 104.656 49.2C115.067 44.6 126.773 53.2484 125.666 64.6449C125.6 65.3287 125.487 66.0223 125.325 66.7236C126.04 66.7852 126.731 66.8915 127.398 67.0388C138.548 69.4996 142.995 83.4184 135.42 92.0177C134.967 92.532 134.471 93.0272 133.931 93.4999C134.471 93.9725 134.967 94.4678 135.42 94.9821C142.995 103.581 138.548 117.5 127.398 119.961C126.731 120.108 126.04 120.215 125.325 120.276C125.487 120.977 125.6 121.671 125.666 122.355C126.773 133.751 115.067 142.4 104.656 137.8C104.03 137.523 103.409 137.199 102.796 136.825C102.519 137.489 102.206 138.118 101.862 138.712C96.1242 148.601 81.6203 148.601 75.8828 138.712C75.5385 138.118 75.2258 137.489 74.9484 136.825C74.3352 137.199 73.7143 137.523 73.0887 137.8C62.6771 142.4 50.9711 133.751 52.0784 122.355C52.1449 121.671 52.2574 120.977 52.4192 120.276C51.7049 120.215 51.0135 120.108 50.3461 119.961C39.1966 117.5 34.7495 103.581 42.3245 94.9821C42.7776 94.4678 43.2736 93.9725 43.8138 93.4999C43.2736 93.0272 42.7776 92.532 42.3245 92.0177C34.7495 83.4184 39.1966 69.4996 50.3461 67.0388C51.0135 66.8915 51.7049 66.7852 52.4192 66.7236C52.2574 66.0223 52.1449 65.3287 52.0784 64.6449ZM50.0077 64.961C48.6502 51.9161 62.0797 41.9357 74.0246 47.3167C80.5353 35.9205 97.2092 35.9205 103.72 47.3167C115.665 41.9357 129.094 51.9161 127.737 64.961C140.578 67.6927 145.664 83.7057 136.908 93.4999C145.664 103.294 140.578 119.307 127.737 122.039C129.094 135.084 115.665 145.064 103.72 139.683C97.2092 151.079 80.5353 151.079 74.0246 139.683C62.0797 145.064 48.6502 135.084 50.0077 122.039C37.1665 119.307 32.0805 103.294 40.8369 93.4999C32.0805 83.7057 37.1665 67.6927 50.0077 64.961Z" fill="#3A3A3A"/>
<path d="M109.438 99.7586H103.361L101.498 84.8866V77.5244H111.3V84.8866L109.438 99.7586ZM102.013 111.356V103.501H110.786V111.356H102.013Z" fill="#3A3A3A"/>
<path d="M90.6182 99.7586H84.5409L82.6785 84.8866V77.5244H92.4805V84.8866L90.6182 99.7586ZM83.1931 111.356V103.501H91.9659V111.356H83.1931Z" fill="#3A3A3A"/>
<path d="M71.7981 99.7586H65.7208L63.8584 84.8866V77.5244H73.6605V84.8866L71.7981 99.7586ZM64.373 111.356V103.501H73.1459V111.356H64.373Z" fill="#3A3A3A"/>
<path fill-rule="evenodd" clip-rule="evenodd" d="M110.36 100.809H102.438L100.453 84.9522V76.4736H112.346V84.9522L110.36 100.809ZM100.967 112.406V102.45H111.831V112.406H100.967ZM103.361 99.7584H109.438L111.3 84.8863V77.5242H101.498V84.8863L103.361 99.7584ZM102.013 111.356H110.786V103.501H102.013V111.356Z" fill="#3A3A3A"/>
<path fill-rule="evenodd" clip-rule="evenodd" d="M91.5403 100.809H83.6185L81.6328 84.9522V76.4736H93.526V84.9522L91.5403 100.809ZM82.1474 112.406V102.45H93.0114V112.406H82.1474ZM84.5408 99.7584H90.6181L92.4804 84.8863V77.5242H82.6784V84.8863L84.5408 99.7584ZM83.193 111.356H91.9658V103.501H83.193V111.356Z" fill="#3A3A3A"/>
<path fill-rule="evenodd" clip-rule="evenodd" d="M72.7202 100.809H64.7985L62.8127 84.9522V76.4736H74.7059V84.9522L72.7202 100.809ZM63.3274 112.406V102.45H74.1913V112.406H63.3274ZM65.7207 99.7584H71.798L73.6604 84.8863V77.5242H63.8583V84.8863L65.7207 99.7584ZM64.3729 111.356H73.1458V103.501H64.3729V111.356Z" fill="#3A3A3A"/>
<path d="M111.872 97.6619H105.794L103.932 82.7899V75.4277H113.734V82.7899L111.872 97.6619ZM104.446 109.259V101.405H113.219V109.259H104.446Z" fill="white"/>
<path d="M93.0517 97.6619H86.9745L85.1121 82.7899V75.4277H94.9141V82.7899L93.0517 97.6619ZM85.6267 109.259V101.405H94.3995V109.259H85.6267Z" fill="white"/>
<path d="M74.2317 97.6619H68.1544L66.292 82.7899V75.4277H76.0941V82.7899L74.2317 97.6619ZM66.8066 109.259V101.405H75.5795V109.259H66.8066Z" fill="white"/>
<path fill-rule="evenodd" clip-rule="evenodd" d="M112.794 98.7122H104.872L102.886 82.8555V74.377H114.779V82.8555L112.794 98.7122ZM103.401 110.309V100.354H114.265V110.309H103.401ZM105.794 97.6617H111.871L113.734 82.7897V75.4275H103.932V82.7897L105.794 97.6617ZM104.446 109.259H113.219V101.404H104.446V109.259Z" fill="#3A3A3A"/>
<path fill-rule="evenodd" clip-rule="evenodd" d="M93.9739 98.7122H86.0521L84.0664 82.8555V74.377H95.9596V82.8555L93.9739 98.7122ZM84.581 110.309V100.354H95.445V110.309H84.581ZM86.9744 97.6617H93.0516L94.914 82.7897V75.4275H85.112V82.7897L86.9744 97.6617ZM85.6266 109.259H94.3994V101.404H85.6266V109.259Z" fill="#3A3A3A"/>
<path fill-rule="evenodd" clip-rule="evenodd" d="M75.1538 98.7122H67.232L65.2463 82.8555V74.377H77.1395V82.8555L75.1538 98.7122ZM65.7609 110.309V100.354H76.6249V110.309H65.7609ZM68.1543 97.6617H74.2316L76.094 82.7897V75.4275H66.2919V82.7897L68.1543 97.6617ZM66.8065 109.259H75.5794V101.404H66.8065V109.259Z" fill="#3A3A3A"/>
</svg>
