<svg width="111" height="91" viewBox="0 0 111 91" fill="none" xmlns="http://www.w3.org/2000/svg">
<path d="M5.00034 45.5215C5.00035 67.889 17.3806 86.0215 32.6525 86.0215C47.9244 86.0215 60.3047 67.889 60.3047 45.5215C60.3047 23.154 47.9244 5.02149 32.6525 5.02149C17.3806 5.02149 5.00034 23.154 5.00034 45.5215Z" fill="white"/>
<path fill-rule="evenodd" clip-rule="evenodd" d="M9.29826 76.7766C14.8783 84.9492 23.0562 90.6497 32.6522 90.6497C42.2482 90.6497 50.4261 84.9492 56.0062 76.7766C61.6009 68.5825 64.9131 57.518 64.9131 45.5212C64.9131 33.5243 61.6008 22.4598 56.0062 14.2657C50.4261 6.09308 42.2482 0.39258 32.6522 0.392581C23.0562 0.392582 14.8783 6.09308 9.29825 14.2657C3.70359 22.4598 0.391345 33.5243 0.391346 45.5212C0.391347 57.518 3.70359 68.5825 9.29826 76.7766ZM32.6522 86.0212C17.3803 86.0212 5.00004 67.8887 5.00004 45.5212C5.00004 23.1536 17.3803 5.02115 32.6522 5.02115C47.9241 5.02115 60.3044 23.1536 60.3044 45.5212C60.3044 67.8887 47.9241 86.0212 32.6522 86.0212Z" fill="white"/>
<path d="M51.0873 45.5215C51.0873 67.889 63.4676 86.0215 78.7394 86.0215C94.0113 86.0215 106.392 67.889 106.392 45.5215C106.392 23.154 94.0113 5.02149 78.7394 5.02149C63.4676 5.02149 51.0873 23.154 51.0873 45.5215Z" fill="white"/>
<path fill-rule="evenodd" clip-rule="evenodd" d="M55.3852 76.7766C60.9652 84.9492 69.1431 90.6497 78.7391 90.6497C88.3352 90.6497 96.5131 84.9492 102.093 76.7766C107.688 68.5825 111 57.518 111 45.5212C111 33.5243 107.688 22.4598 102.093 14.2657C96.5131 6.09308 88.3351 0.39258 78.7391 0.392581C69.1431 0.392582 60.9652 6.09308 55.3852 14.2657C49.7905 22.4598 46.4783 33.5243 46.4783 45.5212C46.4783 57.518 49.7905 68.5825 55.3852 76.7766ZM78.7391 86.0212C63.4673 86.0212 51.087 67.8887 51.087 45.5212C51.087 23.1536 63.4673 5.02115 78.7391 5.02115C94.011 5.02115 106.391 23.1536 106.391 45.5212C106.391 67.8887 94.011 86.0212 78.7391 86.0212Z" fill="white"/>
<path d="M5.00034 45.5215C5.00035 67.889 17.3806 86.0215 32.6525 86.0215C47.9244 86.0215 60.3047 67.889 60.3047 45.5215C60.3047 23.154 47.9244 5.02149 32.6525 5.02149C17.3806 5.02149 5.00034 23.154 5.00034 45.5215Z" fill="white"/>
<path fill-rule="evenodd" clip-rule="evenodd" d="M16.9004 71.5417C12.487 65.0777 9.60904 55.8922 9.60904 45.5215C9.60904 35.1508 12.487 25.9653 16.9004 19.5013C21.3285 13.0158 26.9767 9.65006 32.6525 9.65006C38.3284 9.65006 43.9766 13.0158 48.4046 19.5012C52.8181 25.9653 55.696 35.1508 55.696 45.5215C55.696 55.8922 52.8181 65.0777 48.4046 71.5417C43.9766 78.0272 38.3284 81.3929 32.6525 81.3929C26.9767 81.3929 21.3285 78.0272 16.9004 71.5417ZM32.6525 86.0215C17.3806 86.0215 5.00035 67.889 5.00034 45.5215C5.00034 23.154 17.3806 5.02149 32.6525 5.02149C47.9244 5.02149 60.3047 23.154 60.3047 45.5215C60.3047 67.889 47.9244 86.0215 32.6525 86.0215Z" fill="#3A3A3A"/>
<path d="M4.99958 45.5215C4.99958 60.2202 13.2531 72.1358 23.4344 72.1358C33.6156 72.1358 41.8691 60.2202 41.8691 45.5215C41.8691 30.8228 33.6156 18.9072 23.4344 18.9072C13.2531 18.9072 4.99957 30.8229 4.99958 45.5215Z" fill="#3A3A3A"/>
<path fill-rule="evenodd" clip-rule="evenodd" d="M20.1253 56.8419C18.4504 54.4238 17.0462 50.4627 17.0462 45.5215C17.0462 40.5803 18.4504 36.6192 20.1253 34.2011C21.8069 31.7734 23.122 31.6166 23.4344 31.6166C23.7467 31.6166 25.0618 31.7734 26.7434 34.2011C28.4183 36.6192 29.8225 40.5803 29.8225 45.5215C29.8225 50.4627 28.4183 54.4238 26.7434 56.8419C25.0618 59.2696 23.7467 59.4265 23.4344 59.4265C23.122 59.4265 21.8069 59.2696 20.1253 56.8419ZM23.4344 72.1358C13.2531 72.1358 4.99958 60.2202 4.99958 45.5215C4.99957 30.8229 13.2531 18.9072 23.4344 18.9072C33.6156 18.9072 41.8691 30.8228 41.8691 45.5215C41.8691 60.2202 33.6156 72.1358 23.4344 72.1358Z" fill="#3A3A3A"/>
<path d="M51.0873 45.5215C51.0873 67.889 63.4676 86.0215 78.7394 86.0215C94.0113 86.0215 106.392 67.889 106.392 45.5215C106.392 23.154 94.0113 5.02149 78.7394 5.02149C63.4676 5.02149 51.0873 23.154 51.0873 45.5215Z" fill="white"/>
<path fill-rule="evenodd" clip-rule="evenodd" d="M62.9873 71.5417C58.5739 65.0777 55.696 55.8922 55.696 45.5215C55.696 35.1508 58.5739 25.9653 62.9873 19.5013C67.4154 13.0158 73.0636 9.65006 78.7394 9.65006C84.4153 9.65006 90.0635 13.0158 94.4915 19.5012C98.905 25.9653 101.783 35.1508 101.783 45.5215C101.783 55.8922 98.905 65.0777 94.4915 71.5417C90.0635 78.0272 84.4153 81.3929 78.7394 81.3929C73.0636 81.3929 67.4154 78.0272 62.9873 71.5417ZM78.7394 86.0215C63.4676 86.0215 51.0873 67.889 51.0873 45.5215C51.0873 23.154 63.4676 5.02149 78.7394 5.02149C94.0113 5.02149 106.392 23.154 106.392 45.5215C106.392 67.889 94.0113 86.0215 78.7394 86.0215Z" fill="#3A3A3A"/>
<path d="M51.0865 45.5215C51.0865 60.2202 59.34 72.1358 69.5213 72.1358C79.7025 72.1358 87.9561 60.2202 87.9561 45.5215C87.9561 30.8228 79.7025 18.9072 69.5213 18.9072C59.34 18.9072 51.0865 30.8229 51.0865 45.5215Z" fill="#3A3A3A"/>
<path fill-rule="evenodd" clip-rule="evenodd" d="M66.2123 56.8419C64.5373 54.4238 63.1331 50.4627 63.1331 45.5215C63.1331 40.5803 64.5373 36.6192 66.2123 34.2011C67.8938 31.7734 69.2089 31.6166 69.5213 31.6166C69.8336 31.6166 71.1487 31.7734 72.8303 34.2011C74.5053 36.6192 75.9094 40.5803 75.9094 45.5215C75.9094 50.4627 74.5053 54.4238 72.8303 56.8419C71.1487 59.2696 69.8336 59.4265 69.5213 59.4265C69.2089 59.4265 67.8938 59.2696 66.2123 56.8419ZM69.5213 72.1358C59.34 72.1358 51.0865 60.2202 51.0865 45.5215C51.0865 30.8229 59.34 18.9072 69.5213 18.9072C79.7025 18.9072 87.9561 30.8228 87.9561 45.5215C87.9561 60.2202 79.7025 72.1358 69.5213 72.1358Z" fill="#3A3A3A"/>
</svg>
