<svg width="161" height="169" viewBox="0 0 161 169" fill="none" xmlns="http://www.w3.org/2000/svg">
<path d="M65.1343 37.0437C70.8868 23.409 90.2082 23.409 95.9607 37.0437C108.629 29.3942 124.26 40.7511 120.9 55.1629C135.645 56.4205 141.615 74.7963 130.426 84.4805C141.615 94.1647 135.645 112.541 120.9 113.798C124.26 128.21 108.629 139.567 95.9607 131.917C90.2082 145.552 70.8868 145.552 65.1343 131.917C52.4663 139.567 36.8349 128.21 40.1953 113.798C25.4504 112.541 19.4797 94.1647 30.6695 84.4805C19.4797 74.7963 25.4504 56.4205 40.1953 55.1629C36.8349 40.7511 52.4663 29.3942 65.1343 37.0437Z" fill="#F3A14B"/>
<path fill-rule="evenodd" clip-rule="evenodd" d="M47.6815 58.5665C46.6822 48.3317 57.2454 40.5648 66.6405 44.6959C67.2051 44.9442 67.7654 45.2354 68.3187 45.5716C68.569 44.9746 68.8512 44.4097 69.1619 43.8768C74.3392 34.9952 87.4272 34.9952 92.6045 43.8768C92.9152 44.4097 93.1974 44.9746 93.4477 45.5716C94.001 45.2354 94.5613 44.9442 95.1259 44.6959C104.521 40.5648 115.084 48.3317 114.085 58.5665C114.025 59.1806 113.923 59.8036 113.777 60.4334C114.422 60.4887 115.046 60.5841 115.648 60.7164C125.709 62.9264 129.722 75.4265 122.887 83.1493C122.478 83.6112 122.03 84.056 121.543 84.4804C122.03 84.9049 122.478 85.3497 122.887 85.8116C129.722 93.5343 125.709 106.034 115.648 108.244C115.046 108.377 114.422 108.472 113.777 108.527C113.923 109.157 114.025 109.78 114.085 110.394C115.084 120.629 104.521 128.396 95.1259 124.265C94.5613 124.017 94.001 123.725 93.4477 123.389C93.1974 123.986 92.9152 124.551 92.6045 125.084C87.4272 133.966 74.3392 133.966 69.1619 125.084C68.8512 124.551 68.569 123.986 68.3187 123.389C67.7654 123.725 67.2051 124.017 66.6405 124.265C57.2454 128.396 46.6822 120.629 47.6815 110.394C47.7414 109.78 47.843 109.157 47.989 108.527C47.3444 108.472 46.7205 108.377 46.1182 108.244C36.0573 106.034 32.0443 93.5343 38.8798 85.8116C39.2886 85.3497 39.7363 84.9049 40.2237 84.4804C39.7363 84.056 39.2886 83.6112 38.8798 83.1493C32.0443 75.4265 36.0573 62.9264 46.1182 60.7164C46.7205 60.5841 47.3444 60.4887 47.989 60.4334C47.843 59.8036 47.7414 59.1806 47.6815 58.5665ZM45.8129 58.8505C44.5879 47.1351 56.7063 38.1721 67.4851 43.0046C73.3602 32.77 88.4062 32.77 94.2813 43.0046C105.06 38.1721 117.178 47.1351 115.953 58.8505C127.541 61.3037 132.13 75.6846 124.229 84.4804C132.13 93.2763 127.541 107.657 115.953 110.11C117.179 121.826 105.06 130.789 94.2813 125.956C88.4062 136.191 73.3602 136.191 67.4851 125.956C56.7063 130.789 44.5879 121.826 45.8129 110.11C34.2254 107.657 29.6359 93.2763 37.5375 84.4804C29.6359 75.6846 34.2254 61.3037 45.8129 58.8505Z" fill="#3A3A3A"/>
<path d="M99.4409 90.1007H93.9569L92.2764 76.7445V70.1328H101.121V76.7445L99.4409 90.1007ZM92.7407 100.516V93.4618H100.657V100.516H92.7407Z" fill="#3A3A3A"/>
<path d="M82.4585 90.1007H76.9745L75.2939 76.7445V70.1328H84.1391V76.7445L82.4585 90.1007ZM75.7583 100.516V93.4618H83.6747V100.516H75.7583Z" fill="#3A3A3A"/>
<path d="M65.4761 90.1007H59.9921L58.3115 76.7445V70.1328H67.1567V76.7445L65.4761 90.1007ZM58.7759 100.516V93.4618H66.6923V100.516H58.7759Z" fill="#3A3A3A"/>
<path fill-rule="evenodd" clip-rule="evenodd" d="M100.273 91.0443H93.1249L91.333 76.8038V69.1895H102.065V76.8038L100.273 91.0443ZM91.7974 101.459V92.5185H101.601V101.459H91.7974ZM93.9571 90.1008H99.441L101.122 76.7447V70.1329H92.2765V76.7447L93.9571 90.1008ZM92.7409 100.516H100.657V93.462H92.7409V100.516Z" fill="#3A3A3A"/>
<path fill-rule="evenodd" clip-rule="evenodd" d="M83.2908 91.0443H76.1424L74.3506 76.8038V69.1895H85.0827V76.8038L83.2908 91.0443ZM74.815 101.459V92.5185H84.6183V101.459H74.815ZM76.9746 90.1008H82.4586L84.1392 76.7447V70.1329H75.2941V76.7447L76.9746 90.1008ZM75.7584 100.516H83.6748V93.462H75.7584V100.516Z" fill="#3A3A3A"/>
<path fill-rule="evenodd" clip-rule="evenodd" d="M66.3084 91.0443H59.16L57.3682 76.8038V69.1895H68.1003V76.8038L66.3084 91.0443ZM57.8325 101.459V92.5185H67.6359V101.459H57.8325ZM59.9922 90.1008H65.4762L67.1568 76.7447V70.1329H58.3116V76.7447L59.9922 90.1008ZM58.776 100.516H66.6924V93.462H58.776V100.516Z" fill="#3A3A3A"/>
<path d="M101.637 88.2174H96.1532L94.4727 74.8612V68.2495H103.318V74.8612L101.637 88.2174ZM94.937 98.6325V91.5785H102.853V98.6325H94.937Z" fill="white"/>
<path d="M84.6548 88.2174H79.1708L77.4902 74.8612V68.2495H86.3354V74.8612L84.6548 88.2174ZM77.9546 98.6325V91.5785H85.871V98.6325H77.9546Z" fill="white"/>
<path d="M67.6724 88.2174H62.1884L60.5078 74.8612V68.2495H69.3529V74.8612L67.6724 88.2174ZM60.9722 98.6325V91.5785H68.8886V98.6325H60.9722Z" fill="white"/>
<path fill-rule="evenodd" clip-rule="evenodd" d="M102.47 89.161H95.3211L93.5293 74.9205V67.3062H104.261V74.9205L102.47 89.161ZM93.9937 99.5761V90.6352H103.797V99.5761H93.9937ZM96.1534 88.2175H101.637L103.318 74.8614V68.2496H94.4728V74.8614L96.1534 88.2175ZM94.9371 98.6327H102.854V91.5787H94.9371V98.6327Z" fill="#3A3A3A"/>
<path fill-rule="evenodd" clip-rule="evenodd" d="M85.4871 89.161H78.3387L76.5469 74.9205V67.3062H87.279V74.9205L85.4871 89.161ZM77.0112 99.5761V90.6352H86.8146V99.5761H77.0112ZM79.1709 88.2175H84.6549L86.3355 74.8614V68.2496H77.4904V74.8614L79.1709 88.2175ZM77.9547 98.6327H85.8711V91.5787H77.9547V98.6327Z" fill="#3A3A3A"/>
<path fill-rule="evenodd" clip-rule="evenodd" d="M68.5047 89.161H61.3563L59.5645 74.9205V67.3062H70.2965V74.9205L68.5047 89.161ZM60.0288 99.5761V90.6352H69.8322V99.5761H60.0288ZM62.1885 88.2175H67.6725L69.3531 74.8614V68.2496H60.5079V74.8614L62.1885 88.2175ZM60.9723 98.6327H68.8887V91.5787H60.9723V98.6327Z" fill="#3A3A3A"/>
</svg>
