<svg width="1547" height="811" viewBox="0 0 1547 811" fill="none" xmlns="http://www.w3.org/2000/svg">
<path fill-rule="evenodd" clip-rule="evenodd" d="M11 0C4.92487 0 0 4.92488 0 11V811H24C24 804.373 29.3726 799 36 799C42.6274 799 48 804.373 48 811H60C60 804.373 65.3726 799 72 799C78.6274 799 84 804.373 84 811H96C96 804.373 101.373 799 108 799C114.627 799 120 804.373 120 811H132C132 804.373 137.373 799 144 799C150.627 799 156 804.373 156 811H168C168 804.373 173.373 799 180 799C186.627 799 192 804.373 192 811H204C204 804.373 209.373 799 216 799C222.627 799 228 804.373 228 811H240C240 804.373 245.373 799 252 799C258.627 799 264 804.373 264 811H276C276 804.373 281.373 799 288 799C294.627 799 300 804.373 300 811H312C312 804.373 317.373 799 324 799C330.627 799 336 804.373 336 811H348C348 804.373 353.373 799 360 799C366.627 799 372 804.373 372 811H384C384 804.373 389.373 799 396 799C402.627 799 408 804.373 408 811H420C420 804.373 425.373 799 432 799C438.627 799 444 804.373 444 811H456C456 804.373 461.373 799 468 799C474.627 799 480 804.373 480 811H492C492 804.373 497.373 799 504 799C510.627 799 516 804.373 516 811H528C528 804.373 533.373 799 540 799C546.627 799 552 804.373 552 811H564C564 804.373 569.373 799 576 799C582.627 799 588 804.373 588 811H600C600 804.373 605.373 799 612 799C618.627 799 624 804.373 624 811H636C636 804.373 641.373 799 648 799C654.627 799 660 804.373 660 811H672C672 804.373 677.373 799 684 799C690.627 799 696 804.373 696 811H708C708 804.373 713.373 799 720 799C726.627 799 732 804.373 732 811H744C744 804.373 749.373 799 756 799C762.627 799 768 804.373 768 811H780C780 804.373 785.373 799 792 799C798.627 799 804 804.373 804 811H816C816 804.373 821.373 799 828 799C834.627 799 840 804.373 840 811H852C852 804.373 857.373 799 864 799C870.627 799 876 804.373 876 811H888C888 804.373 893.373 799 900 799C906.627 799 912 804.373 912 811H924C924 804.373 929.373 799 936 799C942.627 799 948 804.373 948 811H960C960 804.373 965.373 799 972 799C978.627 799 984 804.373 984 811H996C996 804.373 1001.37 799 1008 799C1014.63 799 1020 804.373 1020 811H1032C1032 804.373 1037.37 799 1044 799C1050.63 799 1056 804.373 1056 811H1068C1068 804.373 1073.37 799 1080 799C1086.63 799 1092 804.373 1092 811H1104C1104 804.373 1109.37 799 1116 799C1122.63 799 1128 804.373 1128 811H1140C1140 804.373 1145.37 799 1152 799C1158.63 799 1164 804.373 1164 811H1176C1176 804.373 1181.37 799 1188 799C1194.63 799 1200 804.373 1200 811H1212C1212 804.373 1217.37 799 1224 799C1230.63 799 1236 804.373 1236 811H1248C1248 804.373 1253.37 799 1260 799C1266.63 799 1272 804.373 1272 811H1284C1284 804.373 1289.37 799 1296 799C1302.63 799 1308 804.373 1308 811H1320C1320 804.373 1325.37 799 1332 799C1338.63 799 1344 804.373 1344 811H1356C1356 804.373 1361.37 799 1368 799C1374.63 799 1380 804.373 1380 811H1392C1392 804.373 1397.37 799 1404 799C1410.63 799 1416 804.373 1416 811H1428C1428 804.373 1433.37 799 1440 799C1446.63 799 1452 804.373 1452 811H1464C1464 804.373 1469.37 799 1476 799C1482.63 799 1488 804.373 1488 811H1500C1500 804.373 1505.37 799 1512 799C1518.63 799 1524 804.373 1524 811H1547V11C1547 4.92487 1542.08 0 1536 0H11Z" fill="white"/>
</svg>
