<svg width="30" height="34" viewBox="0 0 30 34" fill="none" xmlns="http://www.w3.org/2000/svg">
<path d="M1 8.25H29M11.5 15.25V25.75M18.5 15.25V25.75M2.75 8.25L4.5 29.25C4.5 30.1783 4.86875 31.0685 5.52513 31.7249C6.1815 32.3813 7.07174 32.75 8 32.75H22C22.9283 32.75 23.8185 32.3813 24.4749 31.7249C25.1313 31.0685 25.5 30.1783 25.5 29.25L27.25 8.25M9.75 8.25V3C9.75 2.53587 9.93437 2.09075 10.2626 1.76256C10.5908 1.43437 11.0359 1.25 11.5 1.25H18.5C18.9641 1.25 19.4092 1.43437 19.7374 1.76256C20.0656 2.09075 20.25 2.53587 20.25 3V8.25" stroke="#3A3A3A" stroke-width="2" stroke-linecap="round" stroke-linejoin="round"/>
</svg>
