<svg width="36" height="36" viewBox="0 0 36 36" fill="none" xmlns="http://www.w3.org/2000/svg">
<path d="M4.56949 15.2012L2.70229 32.0012L5.08789 32.2676L6.95509 15.4652L4.56949 15.2012ZM6.28069 35.9996H29.7191V33.5996H6.28069V35.9996ZM33.2975 32.0012L31.4303 15.2012L29.0447 15.4652L30.9119 32.2676L33.2975 32.0012ZM27.8495 11.9996H8.15029V14.3996H27.8543V11.9996H27.8495ZM31.4303 15.2012C31.3323 14.3208 30.913 13.5074 30.2528 12.9167C29.5926 12.326 28.7354 11.9995 27.8495 11.9996L27.8519 14.3996C28.1473 14.3996 28.4324 14.5086 28.6524 14.7056C28.8725 14.9027 29.0122 15.174 29.0447 15.4676L31.4303 15.2012ZM29.7191 35.9996C30.2253 35.9994 30.7258 35.8923 31.1878 35.6855C31.6499 35.4788 32.0631 35.1768 32.4006 34.7995C32.738 34.4222 32.9921 33.9779 33.1463 33.4958C33.3004 33.0136 33.3535 32.5043 33.2975 32.0012L30.9119 32.2676C30.9308 32.4355 30.9141 32.6031 30.8628 32.7641C30.8114 32.9251 30.7267 33.0734 30.6141 33.1994C30.5015 33.3253 30.3636 33.4261 30.2093 33.4951C30.0551 33.564 29.888 33.5997 29.7191 33.5996V35.9996ZM2.70229 32.0012C2.64625 32.5045 2.69702 33.014 2.8513 33.4963C3.00557 33.9787 3.25988 34.423 3.5976 34.8004C3.93532 35.1778 4.34886 35.4796 4.8112 35.6863C5.27354 35.8929 5.77427 35.9997 6.28069 35.9996V33.5996C6.11196 33.5996 5.94512 33.5641 5.79107 33.4952C5.63702 33.4264 5.49922 33.3258 5.38665 33.2002C5.27409 33.0745 5.1893 32.9264 5.13782 32.7657C5.08634 32.6051 5.06933 32.4353 5.08789 32.2676L2.70229 32.0036V32.0012ZM6.95509 15.4652C6.98813 15.172 7.12804 14.9013 7.34807 14.7047C7.5681 14.5082 7.85524 14.3996 8.15029 14.3996V11.9996C7.26482 12.0001 6.40818 12.3269 5.74847 12.9175C5.08877 13.5082 4.66748 14.3212 4.56949 15.2012L6.95509 15.4652ZM11.9999 12.2768V11.0768H9.59989V12.2768H11.9999ZM23.9999 11.0768V12.2768H26.3999V11.0768H23.9999ZM17.9999 5.07676C19.5912 5.07676 21.1173 5.7089 22.2425 6.83412C23.3678 7.95934 23.9999 9.48546 23.9999 11.0768H26.3999C26.3999 8.84894 25.5149 6.71237 23.9396 5.13706C22.3643 3.56176 20.2277 2.67676 17.9999 2.67676V5.07676ZM11.9999 11.0768C11.9999 9.48546 12.632 7.95934 13.7572 6.83412C14.8825 5.7089 16.4086 5.07676 17.9999 5.07676V2.67676C15.7721 2.67676 13.6355 3.56176 12.0602 5.13706C10.4849 6.71237 9.59989 8.84894 9.59989 11.0768H11.9999Z" fill="#3A3A3A"/>
</svg>
