<svg width="19" height="21" viewBox="0 0 19 21" fill="none" xmlns="http://www.w3.org/2000/svg">
<path d="M9.84006 20.4691C10.1346 20.4691 10.4171 20.3502 10.6254 20.1386C10.8337 19.927 10.9507 19.64 10.9507 19.3408V4.01135L16.8282 9.98471C17.0367 10.1966 17.3196 10.3156 17.6145 10.3156C17.9094 10.3156 18.1923 10.1966 18.4008 9.98471C18.6094 9.77284 18.7265 9.48548 18.7265 9.18585C18.7265 8.88622 18.6094 8.59887 18.4008 8.387L10.6264 0.488715C10.5232 0.383638 10.4007 0.300271 10.2657 0.243388C10.1308 0.186506 9.98615 0.157227 9.84006 0.157227C9.69398 0.157227 9.54933 0.186506 9.41439 0.243388C9.27946 0.300271 9.1569 0.383638 9.05374 0.488715L1.27932 8.387C1.17606 8.4919 1.09415 8.61645 1.03826 8.75351C0.982377 8.89058 0.953613 9.03749 0.953613 9.18585C0.953613 9.48548 1.07077 9.77284 1.27932 9.98471C1.48787 10.1966 1.77072 10.3156 2.06565 10.3156C2.36058 10.3156 2.64343 10.1966 2.85197 9.98471L8.72943 4.01135V19.3408C8.72943 19.64 8.84645 19.927 9.05473 20.1386C9.26301 20.3502 9.54551 20.4691 9.84006 20.4691Z" fill="white"/>
</svg>
