<svg width="164" height="113" viewBox="0 0 164 113" fill="none" xmlns="http://www.w3.org/2000/svg">
<path d="M82.1929 0.952148L100.83 17.5404L130.097 11.6472L130.985 32.5943L159.704 39.6472L142.503 56.9521L159.704 74.2571L130.985 81.31L130.097 102.257L100.83 96.3639L82.1929 112.952L63.5561 96.3639L34.2884 102.257L33.4011 81.31L4.68176 74.2571L21.8829 56.9521L4.68176 39.6472L33.4011 32.5943L34.2884 11.6472L63.5561 17.5404L82.1929 0.952148Z" fill="#998675"/>
<path fill-rule="evenodd" clip-rule="evenodd" d="M61.7068 41.9369C56.6482 41.9578 51.8528 43.7855 49.0112 45.4598C48.4418 45.7953 47.7066 45.6084 47.3691 45.0423C47.0316 44.4762 47.2196 43.7453 47.789 43.4098C50.9108 41.5704 56.1208 39.5769 61.6969 39.5539C67.3281 39.5307 73.3552 41.5264 77.8614 47.687C78.2506 48.2192 78.1322 48.9644 77.5969 49.3514C77.0615 49.7384 76.3119 49.6207 75.9227 49.0885C71.9475 43.6538 66.7104 41.9162 61.7068 41.9369Z" fill="white"/>
<path fill-rule="evenodd" clip-rule="evenodd" d="M106.764 46.9437C101.705 46.9646 96.9097 48.7923 94.0681 50.4666C93.4987 50.8021 92.7635 50.6152 92.426 50.0491C92.0885 49.4831 92.2765 48.7522 92.8459 48.4167C95.9677 46.5773 101.178 44.5838 106.754 44.5607C112.385 44.5375 118.412 46.5332 122.918 52.6939C123.308 53.2261 123.189 53.9712 122.654 54.3582C122.118 54.7452 121.369 54.6275 120.98 54.0953C117.004 48.6607 111.767 46.923 106.764 46.9437Z" fill="white"/>
<path fill-rule="evenodd" clip-rule="evenodd" d="M88.0146 41.3853C88.6107 41.6714 88.8607 42.3837 88.573 42.9763L80.1265 60.3728H93.457C94.119 60.3728 94.6556 60.9062 94.6556 61.5642C94.6556 62.2223 94.119 62.7557 93.457 62.7557H76.3079L86.4143 41.9404C86.702 41.3478 87.4185 41.0993 88.0146 41.3853Z" fill="white"/>
<path fill-rule="evenodd" clip-rule="evenodd" d="M44.2207 60.0821C44.6781 59.6064 45.4368 59.5893 45.9153 60.044C55.5164 69.1661 84.6667 83.1875 123.412 64.4457C124.008 64.1578 124.725 64.4041 125.015 64.9958C125.304 65.5875 125.056 66.3006 124.461 66.5885C84.7549 85.795 54.536 71.5309 44.2591 61.7667C43.7806 61.3121 43.7634 60.5579 44.2207 60.0821Z" fill="white"/>
</svg>
