<svg width="156" height="103" viewBox="0 0 156 103" fill="none" xmlns="http://www.w3.org/2000/svg">
<ellipse cx="77.99" cy="51.2026" rx="77.2663" ry="51.0317" fill="white"/>
<path fill-rule="evenodd" clip-rule="evenodd" d="M123.609 78.8327C135.236 71.5969 142.136 61.7891 142.136 51.2028C142.136 40.6165 135.236 30.8087 123.609 23.5729C112.003 16.3504 95.8778 11.8355 77.9902 11.8355C60.1026 11.8355 43.9778 16.3504 32.3717 23.5729C20.7442 30.8087 13.8446 40.6165 13.8446 51.2028C13.8446 61.7891 20.7442 71.5969 32.3717 78.8327C43.9778 86.0553 60.1026 90.5701 77.9902 90.5701C95.8778 90.5701 112.003 86.0553 123.609 78.8327ZM77.9902 92.0282C114.222 92.0282 143.594 73.75 143.594 51.2028C143.594 28.6556 114.222 10.3774 77.9902 10.3774C41.7584 10.3774 12.3867 28.6556 12.3867 51.2028C12.3867 73.75 41.7584 92.0282 77.9902 92.0282Z" fill="#FE793E"/>
<path fill-rule="evenodd" clip-rule="evenodd" d="M77.2613 90.5701C101.985 90.5701 121.726 72.7881 121.726 51.2028C121.726 29.6175 101.985 11.8355 77.2613 11.8355C52.538 11.8355 32.7967 29.6175 32.7967 51.2028C32.7967 72.7881 52.538 90.5701 77.2613 90.5701ZM77.2613 92.0282C102.624 92.0282 123.184 73.75 123.184 51.2028C123.184 28.6556 102.624 10.3774 77.2613 10.3774C51.899 10.3774 31.3389 28.6556 31.3389 51.2028C31.3389 73.75 51.899 92.0282 77.2613 92.0282Z" fill="#FE793E"/>
<path fill-rule="evenodd" clip-rule="evenodd" d="M93.0138 79.3305C97.2131 72.2035 99.8574 62.2622 99.8574 51.2028C99.8574 40.1435 97.2131 30.2022 93.0138 23.0752C88.795 15.9149 83.1768 11.8355 77.2607 11.8355C71.3445 11.8355 65.7264 15.9149 61.5075 23.0752C57.3082 30.2022 54.6639 40.1435 54.6639 51.2028C54.6639 62.2622 57.3082 72.2035 61.5075 79.3305C65.7264 86.4908 71.3445 90.5701 77.2607 90.5701C83.1768 90.5701 88.795 86.4908 93.0138 79.3305ZM77.2607 92.0282C90.5457 92.0282 101.315 73.75 101.315 51.2028C101.315 28.6556 90.5457 10.3774 77.2607 10.3774C63.9757 10.3774 53.2061 28.6556 53.2061 51.2028C53.2061 73.75 63.9757 92.0282 77.2607 92.0282Z" fill="#FE793E"/>
<path fill-rule="evenodd" clip-rule="evenodd" d="M77.2607 91.2992V10.3774H78.7186V91.2992H77.2607Z" fill="#FE793E"/>
<path fill-rule="evenodd" clip-rule="evenodd" d="M129.743 28.6031H25.5068V27.145H129.743V28.6031Z" fill="#FE793E"/>
<path fill-rule="evenodd" clip-rule="evenodd" d="M142.865 51.9317H13.8447V50.4736H142.865V51.9317Z" fill="#FE793E"/>
<path fill-rule="evenodd" clip-rule="evenodd" d="M133.389 73.0733H22.5918V71.6152H133.389V73.0733Z" fill="#FE793E"/>
</svg>
