<svg width="232" height="130" viewBox="0 0 232 130" fill="none" xmlns="http://www.w3.org/2000/svg">
<ellipse cx="115.985" cy="65.0321" rx="115.833" ry="64.741" fill="#FE793E"/>
<path fill-rule="evenodd" clip-rule="evenodd" d="M193.006 105.717C212.684 95.1074 224.258 80.7715 224.258 65.4156C224.258 50.0597 212.684 35.7238 193.006 25.1147C173.405 14.5473 146.196 7.95255 116.036 7.95255C85.8762 7.95255 58.6667 14.5473 39.066 25.1147C19.3878 35.7238 7.81387 50.0597 7.81387 65.4156C7.81387 80.7715 19.3878 95.1074 39.066 105.717C58.6667 116.284 85.8762 122.879 116.036 122.879C146.196 122.879 173.405 116.284 193.006 105.717ZM116.036 124.794C176.863 124.794 226.174 98.2095 226.174 65.4156C226.174 32.6218 176.863 6.03711 116.036 6.03711C55.2087 6.03711 5.89844 32.6218 5.89844 65.4156C5.89844 98.2095 55.2087 124.794 116.036 124.794Z" fill="#3A3A3A"/>
<mask id="path-3-outside-1_887_24406" maskUnits="userSpaceOnUse" x="24.5037" y="40.2207" width="180" height="48" fill="black">
<rect fill="white" x="24.5037" y="40.2207" width="180" height="48"/>
<path d="M65.61 59.6699V52.1671H53.2494V59.6699H48.3916V41.679H53.2494V48.2259H65.61V41.679H70.4678V59.6699H65.61Z"/>
<path d="M91.3524 59.6699V57.9022C90.7326 58.2426 90.0648 58.5438 89.349 58.8057C88.642 59.0676 87.9043 59.2901 87.1362 59.4735C86.368 59.6568 85.5736 59.7921 84.7531 59.8794C83.9413 59.9754 83.1207 60.0234 82.2915 60.0234C81.3225 60.0234 80.3841 59.9317 79.4763 59.7484C78.5772 59.5651 77.7785 59.2683 77.0801 58.858C76.3818 58.4478 75.8188 57.9109 75.391 57.2475C74.972 56.5841 74.7625 55.7723 74.7625 54.8121C74.7625 53.5987 75.0942 52.5905 75.7577 51.7874C76.4211 50.9756 77.4337 50.3122 78.7954 49.7971C80.1572 49.2821 81.8768 48.8849 83.9544 48.6056C86.0406 48.3263 88.5066 48.108 91.3524 47.9509V47.5712C91.3524 47.2744 91.2738 46.982 91.1167 46.6939C90.9596 46.3971 90.6715 46.1396 90.2525 45.9214C89.8422 45.6944 89.2748 45.5111 88.5503 45.3714C87.8345 45.2318 86.9179 45.1619 85.8006 45.1619C84.9189 45.1619 84.046 45.2099 83.1818 45.306C82.3264 45.3933 81.4971 45.5155 80.694 45.6726C79.8997 45.8297 79.1446 46.013 78.4288 46.2225C77.713 46.432 77.0627 46.6503 76.4778 46.8772V42.5563C77.0889 42.3991 77.7741 42.2464 78.5335 42.098C79.293 41.9496 80.083 41.823 80.9035 41.7183C81.7241 41.6048 82.5533 41.5175 83.3913 41.4564C84.2293 41.3866 85.0324 41.3516 85.8006 41.3516C87.3107 41.3516 88.7031 41.4782 89.9775 41.7314C91.252 41.9758 92.3475 42.3599 93.2641 42.8836C94.1894 43.4074 94.9095 44.0708 95.4245 44.8739C95.9483 45.677 96.2102 46.6328 96.2102 47.7414V59.6699H91.3524ZM91.3524 51.4601C89.4843 51.5299 87.8956 51.6303 86.5862 51.7612C85.2856 51.8921 84.2032 52.0449 83.339 52.2195C82.4748 52.3941 81.7939 52.5818 81.2963 52.7825C80.8075 52.9833 80.4409 53.1884 80.1965 53.3979C79.952 53.6074 79.7993 53.8169 79.7382 54.0264C79.6858 54.2359 79.6596 54.428 79.6596 54.6026C79.6596 54.8121 79.7163 55.0172 79.8298 55.218C79.9433 55.41 80.1397 55.5802 80.419 55.7286C80.7071 55.877 81.0868 55.9949 81.5582 56.0822C82.0296 56.1695 82.6232 56.2131 83.339 56.2131C84.1333 56.2131 84.9102 56.152 85.6697 56.0298C86.4291 55.9076 87.1493 55.7417 87.8301 55.5322C88.511 55.314 89.1482 55.0608 89.7418 54.7728C90.3441 54.476 90.881 54.1617 91.3524 53.83V51.4601Z"/>
<path d="M113.834 59.6699H108.178L99.0777 41.679H104.499L111.045 55.218L117.579 41.679H123L113.834 59.6699Z"/>
<path d="M145.757 58.7795C144.282 59.2683 142.807 59.6175 141.331 59.827C139.865 60.0452 138.363 60.1543 136.827 60.1543C134.863 60.1543 133.113 59.9448 131.577 59.5258C130.049 59.0981 128.761 58.4827 127.714 57.6796C126.666 56.8765 125.868 55.8945 125.318 54.7335C124.768 53.5725 124.493 52.2588 124.493 50.7923C124.493 49.4305 124.768 48.1691 125.318 47.0082C125.876 45.8384 126.662 44.8259 127.675 43.9704C128.696 43.1062 129.927 42.4341 131.367 41.954C132.807 41.4651 134.413 41.2207 136.186 41.2207C137.818 41.2207 139.311 41.4433 140.664 41.8885C142.025 42.3249 143.191 42.9753 144.16 43.8395C145.137 44.7037 145.892 45.7686 146.425 47.0343C146.966 48.3001 147.237 49.7579 147.237 51.4077V52.6123H129.508C129.665 53.1797 129.922 53.6991 130.28 54.1705C130.647 54.6418 131.14 55.0434 131.76 55.3751C132.38 55.7068 133.139 55.9643 134.038 56.1476C134.946 56.3309 136.028 56.4226 137.285 56.4226C138.176 56.4226 139.049 56.3702 139.904 56.2655C140.76 56.152 141.558 56.008 142.3 55.8334C143.042 55.6501 143.71 55.4493 144.304 55.2311C144.906 55.0128 145.39 54.7946 145.757 54.5764V58.7795ZM142.405 49.0508C142.361 48.6056 142.226 48.1473 141.999 47.6759C141.781 47.1958 141.432 46.7637 140.952 46.3797C140.472 45.9956 139.843 45.6813 139.066 45.4369C138.289 45.1838 137.32 45.0572 136.159 45.0572C135.068 45.0572 134.125 45.1925 133.331 45.4631C132.537 45.7337 131.869 46.0698 131.328 46.4713C130.795 46.8729 130.381 47.305 130.084 47.7676C129.787 48.2302 129.595 48.658 129.508 49.0508H142.405Z"/>
<path d="M176.986 59.6699V57.9022C176.366 58.2426 175.698 58.5438 174.982 58.8057C174.275 59.0676 173.538 59.2901 172.77 59.4735C172.001 59.6568 171.207 59.7921 170.387 59.8794C169.575 59.9754 168.754 60.0234 167.925 60.0234C166.956 60.0234 166.018 59.9317 165.11 59.7484C164.211 59.5651 163.412 59.2683 162.714 58.858C162.015 58.4478 161.452 57.9109 161.024 57.2475C160.605 56.5841 160.396 55.7723 160.396 54.8121C160.396 53.5987 160.728 52.5905 161.391 51.7874C162.055 50.9756 163.067 50.3122 164.429 49.7971C165.791 49.2821 167.51 48.8849 169.588 48.6056C171.674 48.3263 174.14 48.108 176.986 47.9509V47.5712C176.986 47.2744 176.907 46.982 176.75 46.6939C176.593 46.3971 176.305 46.1396 175.886 45.9214C175.476 45.6944 174.908 45.5111 174.184 45.3714C173.468 45.2318 172.551 45.1619 171.434 45.1619C170.552 45.1619 169.679 45.2099 168.815 45.306C167.96 45.3933 167.131 45.5155 166.327 45.6726C165.533 45.8297 164.778 46.013 164.062 46.2225C163.346 46.432 162.696 46.6503 162.111 46.8772V42.5563C162.722 42.3991 163.408 42.2464 164.167 42.098C164.926 41.9496 165.716 41.823 166.537 41.7183C167.357 41.6048 168.187 41.5175 169.025 41.4564C169.863 41.3866 170.666 41.3516 171.434 41.3516C172.944 41.3516 174.336 41.4782 175.611 41.7314C176.885 41.9758 177.981 42.3599 178.897 42.8836C179.823 43.4074 180.543 44.0708 181.058 44.8739C181.582 45.677 181.844 46.6328 181.844 47.7414V59.6699H176.986ZM176.986 51.4601C175.118 51.5299 173.529 51.6303 172.22 51.7612C170.919 51.8921 169.837 52.0449 168.972 52.2195C168.108 52.3941 167.427 52.5818 166.93 52.7825C166.441 52.9833 166.074 53.1884 165.83 53.3979C165.585 53.6074 165.433 53.8169 165.372 54.0264C165.319 54.2359 165.293 54.428 165.293 54.6026C165.293 54.8121 165.35 55.0172 165.463 55.218C165.577 55.41 165.773 55.5802 166.052 55.7286C166.341 55.877 166.72 55.9949 167.192 56.0822C167.663 56.1695 168.257 56.2131 168.972 56.2131C169.767 56.2131 170.544 56.152 171.303 56.0298C172.063 55.9076 172.783 55.7417 173.464 55.5322C174.144 55.314 174.782 55.0608 175.375 54.7728C175.978 54.476 176.514 54.1617 176.986 53.83V51.4601Z"/>
<path d="M38.2963 68.0368C40.0596 68.0368 41.6963 68.1896 43.2065 68.4951C44.7254 68.7919 46.1177 69.176 47.3834 69.6473V74.0469C46.8858 73.7675 46.3228 73.4969 45.6943 73.235C45.0745 72.9732 44.398 72.7418 43.6648 72.5411C42.9315 72.3403 42.1459 72.1788 41.3079 72.0566C40.4699 71.9344 39.5882 71.8733 38.6629 71.8733C37.5107 71.8733 36.5068 71.9562 35.6514 72.1221C34.7959 72.2879 34.0626 72.5105 33.4516 72.7899C32.8406 73.0692 32.3386 73.3965 31.9458 73.7719C31.553 74.1385 31.2431 74.5313 31.0162 74.9503C30.7892 75.3693 30.6321 75.7971 30.5448 76.2335C30.4575 76.67 30.4138 77.0933 30.4138 77.5036C30.4138 77.8615 30.4488 78.25 30.5186 78.669C30.5971 79.088 30.7368 79.507 30.9376 79.926C31.1471 80.345 31.4352 80.7465 31.8018 81.1306C32.1684 81.5147 32.6441 81.8551 33.229 82.1519C33.8226 82.4487 34.534 82.6888 35.3633 82.8721C36.1926 83.0467 37.179 83.134 38.3225 83.134C38.8986 83.134 39.4005 83.1165 39.8283 83.0816C40.256 83.0467 40.6445 82.9986 40.9936 82.9375C41.3515 82.8764 41.6832 82.8022 41.9888 82.715C42.303 82.6277 42.626 82.536 42.9577 82.44V80.2664H37.5107V76.3252H47.8155V85.517C47.1695 85.7353 46.445 85.936 45.6419 86.1193C44.8476 86.2939 44.0227 86.4423 43.1672 86.5645C42.3205 86.6955 41.4694 86.7959 40.6139 86.8657C39.7584 86.9355 38.951 86.9704 38.1916 86.9704C37.0131 86.9704 35.8827 86.8919 34.8003 86.7347C33.7178 86.5776 32.7053 86.3376 31.7625 86.0146C30.8285 85.6829 29.973 85.2639 29.1961 84.7576C28.4279 84.2513 27.7689 83.649 27.2189 82.9506C26.6777 82.2523 26.2544 81.4536 25.9489 80.5545C25.6521 79.6466 25.5037 78.6297 25.5037 77.5036C25.5037 76.3863 25.6608 75.3737 25.975 74.4659C26.2893 73.558 26.7257 72.7549 27.2844 72.0566C27.8518 71.3583 28.5283 70.7559 29.314 70.2497C30.1083 69.7434 30.9769 69.3287 31.9196 69.0057C32.8711 68.674 33.8837 68.4296 34.9574 68.2725C36.0398 68.1154 37.1528 68.0368 38.2963 68.0368Z"/>
<path d="M115.419 77.4774C115.419 78.6297 115.292 79.6554 115.039 80.5545C114.786 81.4449 114.428 82.2218 113.965 82.8852C113.511 83.5486 112.961 84.1116 112.316 84.5743C111.678 85.0369 110.967 85.4079 110.181 85.6872C109.396 85.9666 108.549 86.1717 107.641 86.3027C106.733 86.4249 105.786 86.486 104.8 86.486H93.3819V68.4951H104.774C105.76 68.4951 106.707 68.5606 107.615 68.6915C108.523 68.8137 109.369 69.0145 110.155 69.2938C110.949 69.5731 111.67 69.9441 112.316 70.4068C112.961 70.8607 113.511 71.4237 113.965 72.0959C114.428 72.7593 114.786 73.5362 115.039 74.4266C115.292 75.317 115.419 76.3339 115.419 77.4774ZM110.522 77.4774C110.522 76.6132 110.408 75.8625 110.181 75.2253C109.963 74.5881 109.605 74.0643 109.108 73.654C108.619 73.235 107.977 72.9252 107.183 72.7244C106.388 72.5149 105.419 72.4101 104.276 72.4101H98.2397V82.5709H104.276C105.419 82.5709 106.388 82.4705 107.183 82.2698C107.977 82.0603 108.619 81.746 109.108 81.327C109.605 80.8993 109.963 80.3668 110.181 79.7296C110.408 79.0923 110.522 78.3416 110.522 77.4774Z"/>
<path d="M151.977 77.4774C151.977 78.6297 151.85 79.6554 151.597 80.5545C151.344 81.4449 150.986 82.2218 150.523 82.8852C150.069 83.5486 149.519 84.1116 148.873 84.5743C148.236 85.0369 147.525 85.4079 146.739 85.6872C145.953 85.9666 145.107 86.1717 144.199 86.3027C143.291 86.4249 142.344 86.486 141.358 86.486H129.94V68.4951H141.331C142.318 68.4951 143.265 68.5606 144.173 68.6915C145.081 68.8137 145.927 69.0145 146.713 69.2938C147.507 69.5731 148.227 69.9441 148.873 70.4068C149.519 70.8607 150.069 71.4237 150.523 72.0959C150.986 72.7593 151.344 73.5362 151.597 74.4266C151.85 75.317 151.977 76.3339 151.977 77.4774ZM147.08 77.4774C147.08 76.6132 146.966 75.8625 146.739 75.2253C146.521 74.5881 146.163 74.0643 145.665 73.654C145.177 73.235 144.535 72.9252 143.741 72.7244C142.946 72.5149 141.977 72.4101 140.834 72.4101H134.798V82.5709H140.834C141.977 82.5709 142.946 82.4705 143.741 82.2698C144.535 82.0603 145.177 81.746 145.665 81.327C146.163 80.8993 146.521 80.3668 146.739 79.7296C146.966 79.0923 147.08 78.3416 147.08 77.4774Z"/>
<path d="M171.67 86.486V84.7183C171.05 85.0587 170.382 85.3599 169.666 85.6218C168.959 85.8837 168.222 86.1062 167.454 86.2896C166.685 86.4729 165.891 86.6082 165.07 86.6955C164.259 86.7915 163.438 86.8395 162.609 86.8395C161.64 86.8395 160.701 86.7478 159.794 86.5645C158.895 86.3812 158.096 86.0844 157.397 85.6741C156.699 85.2639 156.136 84.727 155.708 84.0636C155.289 83.4002 155.08 82.5884 155.08 81.6282C155.08 80.4148 155.412 79.4066 156.075 78.6035C156.738 77.7917 157.751 77.1283 159.113 76.6132C160.475 76.0982 162.194 75.701 164.272 75.4217C166.358 75.1424 168.824 74.9241 171.67 74.767V74.3873C171.67 74.0905 171.591 73.7981 171.434 73.51C171.277 73.2132 170.989 72.9557 170.57 72.7375C170.16 72.5105 169.592 72.3272 168.868 72.1875C168.152 72.0479 167.235 71.978 166.118 71.978C165.236 71.978 164.363 72.026 163.499 72.1221C162.644 72.2094 161.814 72.3316 161.011 72.4887C160.217 72.6458 159.462 72.8291 158.746 73.0386C158.03 73.2481 157.38 73.4664 156.795 73.6933V69.3724C157.406 69.2152 158.091 69.0625 158.851 68.9141C159.61 68.7657 160.4 68.6391 161.221 68.5344C162.041 68.4209 162.871 68.3336 163.709 68.2725C164.547 68.2027 165.35 68.1677 166.118 68.1677C167.628 68.1677 169.02 68.2943 170.295 68.5475C171.569 68.7919 172.665 69.176 173.581 69.6997C174.507 70.2235 175.227 70.8869 175.742 71.69C176.266 72.4931 176.528 73.4489 176.528 74.5575V86.486H171.67ZM171.67 78.2762C169.802 78.346 168.213 78.4464 166.904 78.5773C165.603 78.7082 164.521 78.861 163.656 79.0356C162.792 79.2102 162.111 79.3979 161.614 79.5986C161.125 79.7994 160.758 80.0045 160.514 80.214C160.269 80.4235 160.117 80.633 160.056 80.8425C160.003 81.052 159.977 81.2441 159.977 81.4187C159.977 81.6282 160.034 81.8333 160.147 82.0341C160.261 82.2261 160.457 82.3963 160.736 82.5447C161.024 82.6931 161.404 82.811 161.876 82.8983C162.347 82.9856 162.941 83.0292 163.656 83.0292C164.451 83.0292 165.228 82.9681 165.987 82.8459C166.746 82.7237 167.467 82.5578 168.147 82.3483C168.828 82.1301 169.466 81.8769 170.059 81.5889C170.661 81.2921 171.198 80.9778 171.67 80.6461V78.2762Z"/>
<path d="M203.448 79.5724C203.448 80.7422 203.16 81.7853 202.584 82.7019C202.008 83.6184 201.188 84.3953 200.123 85.0326C199.066 85.6611 197.783 86.1412 196.273 86.4729C194.772 86.8046 193.087 86.9704 191.219 86.9704C190.398 86.9704 189.534 86.9355 188.626 86.8657C187.727 86.8046 186.845 86.7129 185.981 86.5907C185.126 86.4772 184.323 86.3463 183.572 86.1979C182.821 86.0408 182.188 85.8706 181.673 85.6872V81.4187C182.232 81.6544 182.852 81.8769 183.533 82.0864C184.222 82.2959 184.969 82.4836 185.772 82.6495C186.575 82.8066 187.435 82.9332 188.351 83.0292C189.277 83.1165 190.254 83.1601 191.284 83.1601C192.253 83.1601 193.104 83.1034 193.838 82.9899C194.579 82.8764 195.221 82.7237 195.762 82.5316C196.304 82.3396 196.753 82.1214 197.111 81.8769C197.469 81.6238 197.757 81.3663 197.975 81.1044C198.193 80.8338 198.346 80.5676 198.433 80.3057C198.529 80.0438 198.577 79.7994 198.577 79.5724V77.9881C197.687 78.6428 196.626 79.184 195.396 79.6117C194.165 80.0307 192.764 80.2402 191.193 80.2402C189.368 80.2402 187.845 80.0656 186.623 79.7165C185.409 79.3586 184.436 78.8479 183.703 78.1845C182.97 77.5123 182.446 76.6962 182.132 75.736C181.826 74.7757 181.673 73.6933 181.673 72.4887V68.4951L186.557 68.4951V72.0042C186.557 72.7113 186.649 73.3398 186.832 73.8897C187.024 74.4397 187.321 74.9023 187.723 75.2777C188.133 75.6443 188.661 75.9236 189.307 76.1157C189.953 76.3077 190.734 76.4037 191.651 76.4037C192.428 76.4037 193.161 76.3077 193.851 76.1157C194.549 75.9236 195.191 75.6705 195.775 75.3562C196.36 75.042 196.888 74.6841 197.36 74.2825C197.831 73.881 198.237 73.4707 198.577 73.0517V68.4951H203.448V79.5724Z"/>
</mask>
<path d="M65.61 59.6699V52.1671H53.2494V59.6699H48.3916V41.679H53.2494V48.2259H65.61V41.679H70.4678V59.6699H65.61Z" fill="white"/>
<path d="M91.3524 59.6699V57.9022C90.7326 58.2426 90.0648 58.5438 89.349 58.8057C88.642 59.0676 87.9043 59.2901 87.1362 59.4735C86.368 59.6568 85.5736 59.7921 84.7531 59.8794C83.9413 59.9754 83.1207 60.0234 82.2915 60.0234C81.3225 60.0234 80.3841 59.9317 79.4763 59.7484C78.5772 59.5651 77.7785 59.2683 77.0801 58.858C76.3818 58.4478 75.8188 57.9109 75.391 57.2475C74.972 56.5841 74.7625 55.7723 74.7625 54.8121C74.7625 53.5987 75.0942 52.5905 75.7577 51.7874C76.4211 50.9756 77.4337 50.3122 78.7954 49.7971C80.1572 49.2821 81.8768 48.8849 83.9544 48.6056C86.0406 48.3263 88.5066 48.108 91.3524 47.9509V47.5712C91.3524 47.2744 91.2738 46.982 91.1167 46.6939C90.9596 46.3971 90.6715 46.1396 90.2525 45.9214C89.8422 45.6944 89.2748 45.5111 88.5503 45.3714C87.8345 45.2318 86.9179 45.1619 85.8006 45.1619C84.9189 45.1619 84.046 45.2099 83.1818 45.306C82.3264 45.3933 81.4971 45.5155 80.694 45.6726C79.8997 45.8297 79.1446 46.013 78.4288 46.2225C77.713 46.432 77.0627 46.6503 76.4778 46.8772V42.5563C77.0889 42.3991 77.7741 42.2464 78.5335 42.098C79.293 41.9496 80.083 41.823 80.9035 41.7183C81.7241 41.6048 82.5533 41.5175 83.3913 41.4564C84.2293 41.3866 85.0324 41.3516 85.8006 41.3516C87.3107 41.3516 88.7031 41.4782 89.9775 41.7314C91.252 41.9758 92.3475 42.3599 93.2641 42.8836C94.1894 43.4074 94.9095 44.0708 95.4245 44.8739C95.9483 45.677 96.2102 46.6328 96.2102 47.7414V59.6699H91.3524ZM91.3524 51.4601C89.4843 51.5299 87.8956 51.6303 86.5862 51.7612C85.2856 51.8921 84.2032 52.0449 83.339 52.2195C82.4748 52.3941 81.7939 52.5818 81.2963 52.7825C80.8075 52.9833 80.4409 53.1884 80.1965 53.3979C79.952 53.6074 79.7993 53.8169 79.7382 54.0264C79.6858 54.2359 79.6596 54.428 79.6596 54.6026C79.6596 54.8121 79.7163 55.0172 79.8298 55.218C79.9433 55.41 80.1397 55.5802 80.419 55.7286C80.7071 55.877 81.0868 55.9949 81.5582 56.0822C82.0296 56.1695 82.6232 56.2131 83.339 56.2131C84.1333 56.2131 84.9102 56.152 85.6697 56.0298C86.4291 55.9076 87.1493 55.7417 87.8301 55.5322C88.511 55.314 89.1482 55.0608 89.7418 54.7728C90.3441 54.476 90.881 54.1617 91.3524 53.83V51.4601Z" fill="white"/>
<path d="M113.834 59.6699H108.178L99.0777 41.679H104.499L111.045 55.218L117.579 41.679H123L113.834 59.6699Z" fill="white"/>
<path d="M145.757 58.7795C144.282 59.2683 142.807 59.6175 141.331 59.827C139.865 60.0452 138.363 60.1543 136.827 60.1543C134.863 60.1543 133.113 59.9448 131.577 59.5258C130.049 59.0981 128.761 58.4827 127.714 57.6796C126.666 56.8765 125.868 55.8945 125.318 54.7335C124.768 53.5725 124.493 52.2588 124.493 50.7923C124.493 49.4305 124.768 48.1691 125.318 47.0082C125.876 45.8384 126.662 44.8259 127.675 43.9704C128.696 43.1062 129.927 42.4341 131.367 41.954C132.807 41.4651 134.413 41.2207 136.186 41.2207C137.818 41.2207 139.311 41.4433 140.664 41.8885C142.025 42.3249 143.191 42.9753 144.16 43.8395C145.137 44.7037 145.892 45.7686 146.425 47.0343C146.966 48.3001 147.237 49.7579 147.237 51.4077V52.6123H129.508C129.665 53.1797 129.922 53.6991 130.28 54.1705C130.647 54.6418 131.14 55.0434 131.76 55.3751C132.38 55.7068 133.139 55.9643 134.038 56.1476C134.946 56.3309 136.028 56.4226 137.285 56.4226C138.176 56.4226 139.049 56.3702 139.904 56.2655C140.76 56.152 141.558 56.008 142.3 55.8334C143.042 55.6501 143.71 55.4493 144.304 55.2311C144.906 55.0128 145.39 54.7946 145.757 54.5764V58.7795ZM142.405 49.0508C142.361 48.6056 142.226 48.1473 141.999 47.6759C141.781 47.1958 141.432 46.7637 140.952 46.3797C140.472 45.9956 139.843 45.6813 139.066 45.4369C138.289 45.1838 137.32 45.0572 136.159 45.0572C135.068 45.0572 134.125 45.1925 133.331 45.4631C132.537 45.7337 131.869 46.0698 131.328 46.4713C130.795 46.8729 130.381 47.305 130.084 47.7676C129.787 48.2302 129.595 48.658 129.508 49.0508H142.405Z" fill="white"/>
<path d="M176.986 59.6699V57.9022C176.366 58.2426 175.698 58.5438 174.982 58.8057C174.275 59.0676 173.538 59.2901 172.77 59.4735C172.001 59.6568 171.207 59.7921 170.387 59.8794C169.575 59.9754 168.754 60.0234 167.925 60.0234C166.956 60.0234 166.018 59.9317 165.11 59.7484C164.211 59.5651 163.412 59.2683 162.714 58.858C162.015 58.4478 161.452 57.9109 161.024 57.2475C160.605 56.5841 160.396 55.7723 160.396 54.8121C160.396 53.5987 160.728 52.5905 161.391 51.7874C162.055 50.9756 163.067 50.3122 164.429 49.7971C165.791 49.2821 167.51 48.8849 169.588 48.6056C171.674 48.3263 174.14 48.108 176.986 47.9509V47.5712C176.986 47.2744 176.907 46.982 176.75 46.6939C176.593 46.3971 176.305 46.1396 175.886 45.9214C175.476 45.6944 174.908 45.5111 174.184 45.3714C173.468 45.2318 172.551 45.1619 171.434 45.1619C170.552 45.1619 169.679 45.2099 168.815 45.306C167.96 45.3933 167.131 45.5155 166.327 45.6726C165.533 45.8297 164.778 46.013 164.062 46.2225C163.346 46.432 162.696 46.6503 162.111 46.8772V42.5563C162.722 42.3991 163.408 42.2464 164.167 42.098C164.926 41.9496 165.716 41.823 166.537 41.7183C167.357 41.6048 168.187 41.5175 169.025 41.4564C169.863 41.3866 170.666 41.3516 171.434 41.3516C172.944 41.3516 174.336 41.4782 175.611 41.7314C176.885 41.9758 177.981 42.3599 178.897 42.8836C179.823 43.4074 180.543 44.0708 181.058 44.8739C181.582 45.677 181.844 46.6328 181.844 47.7414V59.6699H176.986ZM176.986 51.4601C175.118 51.5299 173.529 51.6303 172.22 51.7612C170.919 51.8921 169.837 52.0449 168.972 52.2195C168.108 52.3941 167.427 52.5818 166.93 52.7825C166.441 52.9833 166.074 53.1884 165.83 53.3979C165.585 53.6074 165.433 53.8169 165.372 54.0264C165.319 54.2359 165.293 54.428 165.293 54.6026C165.293 54.8121 165.35 55.0172 165.463 55.218C165.577 55.41 165.773 55.5802 166.052 55.7286C166.341 55.877 166.72 55.9949 167.192 56.0822C167.663 56.1695 168.257 56.2131 168.972 56.2131C169.767 56.2131 170.544 56.152 171.303 56.0298C172.063 55.9076 172.783 55.7417 173.464 55.5322C174.144 55.314 174.782 55.0608 175.375 54.7728C175.978 54.476 176.514 54.1617 176.986 53.83V51.4601Z" fill="white"/>
<path d="M38.2963 68.0368C40.0596 68.0368 41.6963 68.1896 43.2065 68.4951C44.7254 68.7919 46.1177 69.176 47.3834 69.6473V74.0469C46.8858 73.7675 46.3228 73.4969 45.6943 73.235C45.0745 72.9732 44.398 72.7418 43.6648 72.5411C42.9315 72.3403 42.1459 72.1788 41.3079 72.0566C40.4699 71.9344 39.5882 71.8733 38.6629 71.8733C37.5107 71.8733 36.5068 71.9562 35.6514 72.1221C34.7959 72.2879 34.0626 72.5105 33.4516 72.7899C32.8406 73.0692 32.3386 73.3965 31.9458 73.7719C31.553 74.1385 31.2431 74.5313 31.0162 74.9503C30.7892 75.3693 30.6321 75.7971 30.5448 76.2335C30.4575 76.67 30.4138 77.0933 30.4138 77.5036C30.4138 77.8615 30.4488 78.25 30.5186 78.669C30.5971 79.088 30.7368 79.507 30.9376 79.926C31.1471 80.345 31.4352 80.7465 31.8018 81.1306C32.1684 81.5147 32.6441 81.8551 33.229 82.1519C33.8226 82.4487 34.534 82.6888 35.3633 82.8721C36.1926 83.0467 37.179 83.134 38.3225 83.134C38.8986 83.134 39.4005 83.1165 39.8283 83.0816C40.256 83.0467 40.6445 82.9986 40.9936 82.9375C41.3515 82.8764 41.6832 82.8022 41.9888 82.715C42.303 82.6277 42.626 82.536 42.9577 82.44V80.2664H37.5107V76.3252H47.8155V85.517C47.1695 85.7353 46.445 85.936 45.6419 86.1193C44.8476 86.2939 44.0227 86.4423 43.1672 86.5645C42.3205 86.6955 41.4694 86.7959 40.6139 86.8657C39.7584 86.9355 38.951 86.9704 38.1916 86.9704C37.0131 86.9704 35.8827 86.8919 34.8003 86.7347C33.7178 86.5776 32.7053 86.3376 31.7625 86.0146C30.8285 85.6829 29.973 85.2639 29.1961 84.7576C28.4279 84.2513 27.7689 83.649 27.2189 82.9506C26.6777 82.2523 26.2544 81.4536 25.9489 80.5545C25.6521 79.6466 25.5037 78.6297 25.5037 77.5036C25.5037 76.3863 25.6608 75.3737 25.975 74.4659C26.2893 73.558 26.7257 72.7549 27.2844 72.0566C27.8518 71.3583 28.5283 70.7559 29.314 70.2497C30.1083 69.7434 30.9769 69.3287 31.9196 69.0057C32.8711 68.674 33.8837 68.4296 34.9574 68.2725C36.0398 68.1154 37.1528 68.0368 38.2963 68.0368Z" fill="white"/>
<path d="M115.419 77.4774C115.419 78.6297 115.292 79.6554 115.039 80.5545C114.786 81.4449 114.428 82.2218 113.965 82.8852C113.511 83.5486 112.961 84.1116 112.316 84.5743C111.678 85.0369 110.967 85.4079 110.181 85.6872C109.396 85.9666 108.549 86.1717 107.641 86.3027C106.733 86.4249 105.786 86.486 104.8 86.486H93.3819V68.4951H104.774C105.76 68.4951 106.707 68.5606 107.615 68.6915C108.523 68.8137 109.369 69.0145 110.155 69.2938C110.949 69.5731 111.67 69.9441 112.316 70.4068C112.961 70.8607 113.511 71.4237 113.965 72.0959C114.428 72.7593 114.786 73.5362 115.039 74.4266C115.292 75.317 115.419 76.3339 115.419 77.4774ZM110.522 77.4774C110.522 76.6132 110.408 75.8625 110.181 75.2253C109.963 74.5881 109.605 74.0643 109.108 73.654C108.619 73.235 107.977 72.9252 107.183 72.7244C106.388 72.5149 105.419 72.4101 104.276 72.4101H98.2397V82.5709H104.276C105.419 82.5709 106.388 82.4705 107.183 82.2698C107.977 82.0603 108.619 81.746 109.108 81.327C109.605 80.8993 109.963 80.3668 110.181 79.7296C110.408 79.0923 110.522 78.3416 110.522 77.4774Z" fill="white"/>
<path d="M151.977 77.4774C151.977 78.6297 151.85 79.6554 151.597 80.5545C151.344 81.4449 150.986 82.2218 150.523 82.8852C150.069 83.5486 149.519 84.1116 148.873 84.5743C148.236 85.0369 147.525 85.4079 146.739 85.6872C145.953 85.9666 145.107 86.1717 144.199 86.3027C143.291 86.4249 142.344 86.486 141.358 86.486H129.94V68.4951H141.331C142.318 68.4951 143.265 68.5606 144.173 68.6915C145.081 68.8137 145.927 69.0145 146.713 69.2938C147.507 69.5731 148.227 69.9441 148.873 70.4068C149.519 70.8607 150.069 71.4237 150.523 72.0959C150.986 72.7593 151.344 73.5362 151.597 74.4266C151.85 75.317 151.977 76.3339 151.977 77.4774ZM147.08 77.4774C147.08 76.6132 146.966 75.8625 146.739 75.2253C146.521 74.5881 146.163 74.0643 145.665 73.654C145.177 73.235 144.535 72.9252 143.741 72.7244C142.946 72.5149 141.977 72.4101 140.834 72.4101H134.798V82.5709H140.834C141.977 82.5709 142.946 82.4705 143.741 82.2698C144.535 82.0603 145.177 81.746 145.665 81.327C146.163 80.8993 146.521 80.3668 146.739 79.7296C146.966 79.0923 147.08 78.3416 147.08 77.4774Z" fill="white"/>
<path d="M171.67 86.486V84.7183C171.05 85.0587 170.382 85.3599 169.666 85.6218C168.959 85.8837 168.222 86.1062 167.454 86.2896C166.685 86.4729 165.891 86.6082 165.07 86.6955C164.259 86.7915 163.438 86.8395 162.609 86.8395C161.64 86.8395 160.701 86.7478 159.794 86.5645C158.895 86.3812 158.096 86.0844 157.397 85.6741C156.699 85.2639 156.136 84.727 155.708 84.0636C155.289 83.4002 155.08 82.5884 155.08 81.6282C155.08 80.4148 155.412 79.4066 156.075 78.6035C156.738 77.7917 157.751 77.1283 159.113 76.6132C160.475 76.0982 162.194 75.701 164.272 75.4217C166.358 75.1424 168.824 74.9241 171.67 74.767V74.3873C171.67 74.0905 171.591 73.7981 171.434 73.51C171.277 73.2132 170.989 72.9557 170.57 72.7375C170.16 72.5105 169.592 72.3272 168.868 72.1875C168.152 72.0479 167.235 71.978 166.118 71.978C165.236 71.978 164.363 72.026 163.499 72.1221C162.644 72.2094 161.814 72.3316 161.011 72.4887C160.217 72.6458 159.462 72.8291 158.746 73.0386C158.03 73.2481 157.38 73.4664 156.795 73.6933V69.3724C157.406 69.2152 158.091 69.0625 158.851 68.9141C159.61 68.7657 160.4 68.6391 161.221 68.5344C162.041 68.4209 162.871 68.3336 163.709 68.2725C164.547 68.2027 165.35 68.1677 166.118 68.1677C167.628 68.1677 169.02 68.2943 170.295 68.5475C171.569 68.7919 172.665 69.176 173.581 69.6997C174.507 70.2235 175.227 70.8869 175.742 71.69C176.266 72.4931 176.528 73.4489 176.528 74.5575V86.486H171.67ZM171.67 78.2762C169.802 78.346 168.213 78.4464 166.904 78.5773C165.603 78.7082 164.521 78.861 163.656 79.0356C162.792 79.2102 162.111 79.3979 161.614 79.5986C161.125 79.7994 160.758 80.0045 160.514 80.214C160.269 80.4235 160.117 80.633 160.056 80.8425C160.003 81.052 159.977 81.2441 159.977 81.4187C159.977 81.6282 160.034 81.8333 160.147 82.0341C160.261 82.2261 160.457 82.3963 160.736 82.5447C161.024 82.6931 161.404 82.811 161.876 82.8983C162.347 82.9856 162.941 83.0292 163.656 83.0292C164.451 83.0292 165.228 82.9681 165.987 82.8459C166.746 82.7237 167.467 82.5578 168.147 82.3483C168.828 82.1301 169.466 81.8769 170.059 81.5889C170.661 81.2921 171.198 80.9778 171.67 80.6461V78.2762Z" fill="white"/>
<path d="M203.448 79.5724C203.448 80.7422 203.16 81.7853 202.584 82.7019C202.008 83.6184 201.188 84.3953 200.123 85.0326C199.066 85.6611 197.783 86.1412 196.273 86.4729C194.772 86.8046 193.087 86.9704 191.219 86.9704C190.398 86.9704 189.534 86.9355 188.626 86.8657C187.727 86.8046 186.845 86.7129 185.981 86.5907C185.126 86.4772 184.323 86.3463 183.572 86.1979C182.821 86.0408 182.188 85.8706 181.673 85.6872V81.4187C182.232 81.6544 182.852 81.8769 183.533 82.0864C184.222 82.2959 184.969 82.4836 185.772 82.6495C186.575 82.8066 187.435 82.9332 188.351 83.0292C189.277 83.1165 190.254 83.1601 191.284 83.1601C192.253 83.1601 193.104 83.1034 193.838 82.9899C194.579 82.8764 195.221 82.7237 195.762 82.5316C196.304 82.3396 196.753 82.1214 197.111 81.8769C197.469 81.6238 197.757 81.3663 197.975 81.1044C198.193 80.8338 198.346 80.5676 198.433 80.3057C198.529 80.0438 198.577 79.7994 198.577 79.5724V77.9881C197.687 78.6428 196.626 79.184 195.396 79.6117C194.165 80.0307 192.764 80.2402 191.193 80.2402C189.368 80.2402 187.845 80.0656 186.623 79.7165C185.409 79.3586 184.436 78.8479 183.703 78.1845C182.97 77.5123 182.446 76.6962 182.132 75.736C181.826 74.7757 181.673 73.6933 181.673 72.4887V68.4951L186.557 68.4951V72.0042C186.557 72.7113 186.649 73.3398 186.832 73.8897C187.024 74.4397 187.321 74.9023 187.723 75.2777C188.133 75.6443 188.661 75.9236 189.307 76.1157C189.953 76.3077 190.734 76.4037 191.651 76.4037C192.428 76.4037 193.161 76.3077 193.851 76.1157C194.549 75.9236 195.191 75.6705 195.775 75.3562C196.36 75.042 196.888 74.6841 197.36 74.2825C197.831 73.881 198.237 73.4707 198.577 73.0517V68.4951H203.448V79.5724Z" fill="white"/>
<path d="M65.61 59.6699V52.1671H53.2494V59.6699H48.3916V41.679H53.2494V48.2259H65.61V41.679H70.4678V59.6699H65.61Z" stroke="#3A3A3A" mask="url(#path-3-outside-1_887_24406)"/>
<path d="M91.3524 59.6699V57.9022C90.7326 58.2426 90.0648 58.5438 89.349 58.8057C88.642 59.0676 87.9043 59.2901 87.1362 59.4735C86.368 59.6568 85.5736 59.7921 84.7531 59.8794C83.9413 59.9754 83.1207 60.0234 82.2915 60.0234C81.3225 60.0234 80.3841 59.9317 79.4763 59.7484C78.5772 59.5651 77.7785 59.2683 77.0801 58.858C76.3818 58.4478 75.8188 57.9109 75.391 57.2475C74.972 56.5841 74.7625 55.7723 74.7625 54.8121C74.7625 53.5987 75.0942 52.5905 75.7577 51.7874C76.4211 50.9756 77.4337 50.3122 78.7954 49.7971C80.1572 49.2821 81.8768 48.8849 83.9544 48.6056C86.0406 48.3263 88.5066 48.108 91.3524 47.9509V47.5712C91.3524 47.2744 91.2738 46.982 91.1167 46.6939C90.9596 46.3971 90.6715 46.1396 90.2525 45.9214C89.8422 45.6944 89.2748 45.5111 88.5503 45.3714C87.8345 45.2318 86.9179 45.1619 85.8006 45.1619C84.9189 45.1619 84.046 45.2099 83.1818 45.306C82.3264 45.3933 81.4971 45.5155 80.694 45.6726C79.8997 45.8297 79.1446 46.013 78.4288 46.2225C77.713 46.432 77.0627 46.6503 76.4778 46.8772V42.5563C77.0889 42.3991 77.7741 42.2464 78.5335 42.098C79.293 41.9496 80.083 41.823 80.9035 41.7183C81.7241 41.6048 82.5533 41.5175 83.3913 41.4564C84.2293 41.3866 85.0324 41.3516 85.8006 41.3516C87.3107 41.3516 88.7031 41.4782 89.9775 41.7314C91.252 41.9758 92.3475 42.3599 93.2641 42.8836C94.1894 43.4074 94.9095 44.0708 95.4245 44.8739C95.9483 45.677 96.2102 46.6328 96.2102 47.7414V59.6699H91.3524ZM91.3524 51.4601C89.4843 51.5299 87.8956 51.6303 86.5862 51.7612C85.2856 51.8921 84.2032 52.0449 83.339 52.2195C82.4748 52.3941 81.7939 52.5818 81.2963 52.7825C80.8075 52.9833 80.4409 53.1884 80.1965 53.3979C79.952 53.6074 79.7993 53.8169 79.7382 54.0264C79.6858 54.2359 79.6596 54.428 79.6596 54.6026C79.6596 54.8121 79.7163 55.0172 79.8298 55.218C79.9433 55.41 80.1397 55.5802 80.419 55.7286C80.7071 55.877 81.0868 55.9949 81.5582 56.0822C82.0296 56.1695 82.6232 56.2131 83.339 56.2131C84.1333 56.2131 84.9102 56.152 85.6697 56.0298C86.4291 55.9076 87.1493 55.7417 87.8301 55.5322C88.511 55.314 89.1482 55.0608 89.7418 54.7728C90.3441 54.476 90.881 54.1617 91.3524 53.83V51.4601Z" stroke="#3A3A3A" mask="url(#path-3-outside-1_887_24406)"/>
<path d="M113.834 59.6699H108.178L99.0777 41.679H104.499L111.045 55.218L117.579 41.679H123L113.834 59.6699Z" stroke="#3A3A3A" mask="url(#path-3-outside-1_887_24406)"/>
<path d="M145.757 58.7795C144.282 59.2683 142.807 59.6175 141.331 59.827C139.865 60.0452 138.363 60.1543 136.827 60.1543C134.863 60.1543 133.113 59.9448 131.577 59.5258C130.049 59.0981 128.761 58.4827 127.714 57.6796C126.666 56.8765 125.868 55.8945 125.318 54.7335C124.768 53.5725 124.493 52.2588 124.493 50.7923C124.493 49.4305 124.768 48.1691 125.318 47.0082C125.876 45.8384 126.662 44.8259 127.675 43.9704C128.696 43.1062 129.927 42.4341 131.367 41.954C132.807 41.4651 134.413 41.2207 136.186 41.2207C137.818 41.2207 139.311 41.4433 140.664 41.8885C142.025 42.3249 143.191 42.9753 144.16 43.8395C145.137 44.7037 145.892 45.7686 146.425 47.0343C146.966 48.3001 147.237 49.7579 147.237 51.4077V52.6123H129.508C129.665 53.1797 129.922 53.6991 130.28 54.1705C130.647 54.6418 131.14 55.0434 131.76 55.3751C132.38 55.7068 133.139 55.9643 134.038 56.1476C134.946 56.3309 136.028 56.4226 137.285 56.4226C138.176 56.4226 139.049 56.3702 139.904 56.2655C140.76 56.152 141.558 56.008 142.3 55.8334C143.042 55.6501 143.71 55.4493 144.304 55.2311C144.906 55.0128 145.39 54.7946 145.757 54.5764V58.7795ZM142.405 49.0508C142.361 48.6056 142.226 48.1473 141.999 47.6759C141.781 47.1958 141.432 46.7637 140.952 46.3797C140.472 45.9956 139.843 45.6813 139.066 45.4369C138.289 45.1838 137.32 45.0572 136.159 45.0572C135.068 45.0572 134.125 45.1925 133.331 45.4631C132.537 45.7337 131.869 46.0698 131.328 46.4713C130.795 46.8729 130.381 47.305 130.084 47.7676C129.787 48.2302 129.595 48.658 129.508 49.0508H142.405Z" stroke="#3A3A3A" mask="url(#path-3-outside-1_887_24406)"/>
<path d="M176.986 59.6699V57.9022C176.366 58.2426 175.698 58.5438 174.982 58.8057C174.275 59.0676 173.538 59.2901 172.77 59.4735C172.001 59.6568 171.207 59.7921 170.387 59.8794C169.575 59.9754 168.754 60.0234 167.925 60.0234C166.956 60.0234 166.018 59.9317 165.11 59.7484C164.211 59.5651 163.412 59.2683 162.714 58.858C162.015 58.4478 161.452 57.9109 161.024 57.2475C160.605 56.5841 160.396 55.7723 160.396 54.8121C160.396 53.5987 160.728 52.5905 161.391 51.7874C162.055 50.9756 163.067 50.3122 164.429 49.7971C165.791 49.2821 167.51 48.8849 169.588 48.6056C171.674 48.3263 174.14 48.108 176.986 47.9509V47.5712C176.986 47.2744 176.907 46.982 176.75 46.6939C176.593 46.3971 176.305 46.1396 175.886 45.9214C175.476 45.6944 174.908 45.5111 174.184 45.3714C173.468 45.2318 172.551 45.1619 171.434 45.1619C170.552 45.1619 169.679 45.2099 168.815 45.306C167.96 45.3933 167.131 45.5155 166.327 45.6726C165.533 45.8297 164.778 46.013 164.062 46.2225C163.346 46.432 162.696 46.6503 162.111 46.8772V42.5563C162.722 42.3991 163.408 42.2464 164.167 42.098C164.926 41.9496 165.716 41.823 166.537 41.7183C167.357 41.6048 168.187 41.5175 169.025 41.4564C169.863 41.3866 170.666 41.3516 171.434 41.3516C172.944 41.3516 174.336 41.4782 175.611 41.7314C176.885 41.9758 177.981 42.3599 178.897 42.8836C179.823 43.4074 180.543 44.0708 181.058 44.8739C181.582 45.677 181.844 46.6328 181.844 47.7414V59.6699H176.986ZM176.986 51.4601C175.118 51.5299 173.529 51.6303 172.22 51.7612C170.919 51.8921 169.837 52.0449 168.972 52.2195C168.108 52.3941 167.427 52.5818 166.93 52.7825C166.441 52.9833 166.074 53.1884 165.83 53.3979C165.585 53.6074 165.433 53.8169 165.372 54.0264C165.319 54.2359 165.293 54.428 165.293 54.6026C165.293 54.8121 165.35 55.0172 165.463 55.218C165.577 55.41 165.773 55.5802 166.052 55.7286C166.341 55.877 166.72 55.9949 167.192 56.0822C167.663 56.1695 168.257 56.2131 168.972 56.2131C169.767 56.2131 170.544 56.152 171.303 56.0298C172.063 55.9076 172.783 55.7417 173.464 55.5322C174.144 55.314 174.782 55.0608 175.375 54.7728C175.978 54.476 176.514 54.1617 176.986 53.83V51.4601Z" stroke="#3A3A3A" mask="url(#path-3-outside-1_887_24406)"/>
<path d="M38.2963 68.0368C40.0596 68.0368 41.6963 68.1896 43.2065 68.4951C44.7254 68.7919 46.1177 69.176 47.3834 69.6473V74.0469C46.8858 73.7675 46.3228 73.4969 45.6943 73.235C45.0745 72.9732 44.398 72.7418 43.6648 72.5411C42.9315 72.3403 42.1459 72.1788 41.3079 72.0566C40.4699 71.9344 39.5882 71.8733 38.6629 71.8733C37.5107 71.8733 36.5068 71.9562 35.6514 72.1221C34.7959 72.2879 34.0626 72.5105 33.4516 72.7899C32.8406 73.0692 32.3386 73.3965 31.9458 73.7719C31.553 74.1385 31.2431 74.5313 31.0162 74.9503C30.7892 75.3693 30.6321 75.7971 30.5448 76.2335C30.4575 76.67 30.4138 77.0933 30.4138 77.5036C30.4138 77.8615 30.4488 78.25 30.5186 78.669C30.5971 79.088 30.7368 79.507 30.9376 79.926C31.1471 80.345 31.4352 80.7465 31.8018 81.1306C32.1684 81.5147 32.6441 81.8551 33.229 82.1519C33.8226 82.4487 34.534 82.6888 35.3633 82.8721C36.1926 83.0467 37.179 83.134 38.3225 83.134C38.8986 83.134 39.4005 83.1165 39.8283 83.0816C40.256 83.0467 40.6445 82.9986 40.9936 82.9375C41.3515 82.8764 41.6832 82.8022 41.9888 82.715C42.303 82.6277 42.626 82.536 42.9577 82.44V80.2664H37.5107V76.3252H47.8155V85.517C47.1695 85.7353 46.445 85.936 45.6419 86.1193C44.8476 86.2939 44.0227 86.4423 43.1672 86.5645C42.3205 86.6955 41.4694 86.7959 40.6139 86.8657C39.7584 86.9355 38.951 86.9704 38.1916 86.9704C37.0131 86.9704 35.8827 86.8919 34.8003 86.7347C33.7178 86.5776 32.7053 86.3376 31.7625 86.0146C30.8285 85.6829 29.973 85.2639 29.1961 84.7576C28.4279 84.2513 27.7689 83.649 27.2189 82.9506C26.6777 82.2523 26.2544 81.4536 25.9489 80.5545C25.6521 79.6466 25.5037 78.6297 25.5037 77.5036C25.5037 76.3863 25.6608 75.3737 25.975 74.4659C26.2893 73.558 26.7257 72.7549 27.2844 72.0566C27.8518 71.3583 28.5283 70.7559 29.314 70.2497C30.1083 69.7434 30.9769 69.3287 31.9196 69.0057C32.8711 68.674 33.8837 68.4296 34.9574 68.2725C36.0398 68.1154 37.1528 68.0368 38.2963 68.0368Z" stroke="#3A3A3A" mask="url(#path-3-outside-1_887_24406)"/>
<path d="M115.419 77.4774C115.419 78.6297 115.292 79.6554 115.039 80.5545C114.786 81.4449 114.428 82.2218 113.965 82.8852C113.511 83.5486 112.961 84.1116 112.316 84.5743C111.678 85.0369 110.967 85.4079 110.181 85.6872C109.396 85.9666 108.549 86.1717 107.641 86.3027C106.733 86.4249 105.786 86.486 104.8 86.486H93.3819V68.4951H104.774C105.76 68.4951 106.707 68.5606 107.615 68.6915C108.523 68.8137 109.369 69.0145 110.155 69.2938C110.949 69.5731 111.67 69.9441 112.316 70.4068C112.961 70.8607 113.511 71.4237 113.965 72.0959C114.428 72.7593 114.786 73.5362 115.039 74.4266C115.292 75.317 115.419 76.3339 115.419 77.4774ZM110.522 77.4774C110.522 76.6132 110.408 75.8625 110.181 75.2253C109.963 74.5881 109.605 74.0643 109.108 73.654C108.619 73.235 107.977 72.9252 107.183 72.7244C106.388 72.5149 105.419 72.4101 104.276 72.4101H98.2397V82.5709H104.276C105.419 82.5709 106.388 82.4705 107.183 82.2698C107.977 82.0603 108.619 81.746 109.108 81.327C109.605 80.8993 109.963 80.3668 110.181 79.7296C110.408 79.0923 110.522 78.3416 110.522 77.4774Z" stroke="#3A3A3A" mask="url(#path-3-outside-1_887_24406)"/>
<path d="M151.977 77.4774C151.977 78.6297 151.85 79.6554 151.597 80.5545C151.344 81.4449 150.986 82.2218 150.523 82.8852C150.069 83.5486 149.519 84.1116 148.873 84.5743C148.236 85.0369 147.525 85.4079 146.739 85.6872C145.953 85.9666 145.107 86.1717 144.199 86.3027C143.291 86.4249 142.344 86.486 141.358 86.486H129.94V68.4951H141.331C142.318 68.4951 143.265 68.5606 144.173 68.6915C145.081 68.8137 145.927 69.0145 146.713 69.2938C147.507 69.5731 148.227 69.9441 148.873 70.4068C149.519 70.8607 150.069 71.4237 150.523 72.0959C150.986 72.7593 151.344 73.5362 151.597 74.4266C151.85 75.317 151.977 76.3339 151.977 77.4774ZM147.08 77.4774C147.08 76.6132 146.966 75.8625 146.739 75.2253C146.521 74.5881 146.163 74.0643 145.665 73.654C145.177 73.235 144.535 72.9252 143.741 72.7244C142.946 72.5149 141.977 72.4101 140.834 72.4101H134.798V82.5709H140.834C141.977 82.5709 142.946 82.4705 143.741 82.2698C144.535 82.0603 145.177 81.746 145.665 81.327C146.163 80.8993 146.521 80.3668 146.739 79.7296C146.966 79.0923 147.08 78.3416 147.08 77.4774Z" stroke="#3A3A3A" mask="url(#path-3-outside-1_887_24406)"/>
<path d="M171.67 86.486V84.7183C171.05 85.0587 170.382 85.3599 169.666 85.6218C168.959 85.8837 168.222 86.1062 167.454 86.2896C166.685 86.4729 165.891 86.6082 165.07 86.6955C164.259 86.7915 163.438 86.8395 162.609 86.8395C161.64 86.8395 160.701 86.7478 159.794 86.5645C158.895 86.3812 158.096 86.0844 157.397 85.6741C156.699 85.2639 156.136 84.727 155.708 84.0636C155.289 83.4002 155.08 82.5884 155.08 81.6282C155.08 80.4148 155.412 79.4066 156.075 78.6035C156.738 77.7917 157.751 77.1283 159.113 76.6132C160.475 76.0982 162.194 75.701 164.272 75.4217C166.358 75.1424 168.824 74.9241 171.67 74.767V74.3873C171.67 74.0905 171.591 73.7981 171.434 73.51C171.277 73.2132 170.989 72.9557 170.57 72.7375C170.16 72.5105 169.592 72.3272 168.868 72.1875C168.152 72.0479 167.235 71.978 166.118 71.978C165.236 71.978 164.363 72.026 163.499 72.1221C162.644 72.2094 161.814 72.3316 161.011 72.4887C160.217 72.6458 159.462 72.8291 158.746 73.0386C158.03 73.2481 157.38 73.4664 156.795 73.6933V69.3724C157.406 69.2152 158.091 69.0625 158.851 68.9141C159.61 68.7657 160.4 68.6391 161.221 68.5344C162.041 68.4209 162.871 68.3336 163.709 68.2725C164.547 68.2027 165.35 68.1677 166.118 68.1677C167.628 68.1677 169.02 68.2943 170.295 68.5475C171.569 68.7919 172.665 69.176 173.581 69.6997C174.507 70.2235 175.227 70.8869 175.742 71.69C176.266 72.4931 176.528 73.4489 176.528 74.5575V86.486H171.67ZM171.67 78.2762C169.802 78.346 168.213 78.4464 166.904 78.5773C165.603 78.7082 164.521 78.861 163.656 79.0356C162.792 79.2102 162.111 79.3979 161.614 79.5986C161.125 79.7994 160.758 80.0045 160.514 80.214C160.269 80.4235 160.117 80.633 160.056 80.8425C160.003 81.052 159.977 81.2441 159.977 81.4187C159.977 81.6282 160.034 81.8333 160.147 82.0341C160.261 82.2261 160.457 82.3963 160.736 82.5447C161.024 82.6931 161.404 82.811 161.876 82.8983C162.347 82.9856 162.941 83.0292 163.656 83.0292C164.451 83.0292 165.228 82.9681 165.987 82.8459C166.746 82.7237 167.467 82.5578 168.147 82.3483C168.828 82.1301 169.466 81.8769 170.059 81.5889C170.661 81.2921 171.198 80.9778 171.67 80.6461V78.2762Z" stroke="#3A3A3A" mask="url(#path-3-outside-1_887_24406)"/>
<path d="M203.448 79.5724C203.448 80.7422 203.16 81.7853 202.584 82.7019C202.008 83.6184 201.188 84.3953 200.123 85.0326C199.066 85.6611 197.783 86.1412 196.273 86.4729C194.772 86.8046 193.087 86.9704 191.219 86.9704C190.398 86.9704 189.534 86.9355 188.626 86.8657C187.727 86.8046 186.845 86.7129 185.981 86.5907C185.126 86.4772 184.323 86.3463 183.572 86.1979C182.821 86.0408 182.188 85.8706 181.673 85.6872V81.4187C182.232 81.6544 182.852 81.8769 183.533 82.0864C184.222 82.2959 184.969 82.4836 185.772 82.6495C186.575 82.8066 187.435 82.9332 188.351 83.0292C189.277 83.1165 190.254 83.1601 191.284 83.1601C192.253 83.1601 193.104 83.1034 193.838 82.9899C194.579 82.8764 195.221 82.7237 195.762 82.5316C196.304 82.3396 196.753 82.1214 197.111 81.8769C197.469 81.6238 197.757 81.3663 197.975 81.1044C198.193 80.8338 198.346 80.5676 198.433 80.3057C198.529 80.0438 198.577 79.7994 198.577 79.5724V77.9881C197.687 78.6428 196.626 79.184 195.396 79.6117C194.165 80.0307 192.764 80.2402 191.193 80.2402C189.368 80.2402 187.845 80.0656 186.623 79.7165C185.409 79.3586 184.436 78.8479 183.703 78.1845C182.97 77.5123 182.446 76.6962 182.132 75.736C181.826 74.7757 181.673 73.6933 181.673 72.4887V68.4951L186.557 68.4951V72.0042C186.557 72.7113 186.649 73.3398 186.832 73.8897C187.024 74.4397 187.321 74.9023 187.723 75.2777C188.133 75.6443 188.661 75.9236 189.307 76.1157C189.953 76.3077 190.734 76.4037 191.651 76.4037C192.428 76.4037 193.161 76.3077 193.851 76.1157C194.549 75.9236 195.191 75.6705 195.775 75.3562C196.36 75.042 196.888 74.6841 197.36 74.2825C197.831 73.881 198.237 73.4707 198.577 73.0517V68.4951H203.448V79.5724Z" stroke="#3A3A3A" mask="url(#path-3-outside-1_887_24406)"/>
<path d="M69.1078 77.8663C69.1078 84.7425 65.2488 90.3167 60.4884 90.3167C55.728 90.3167 51.8689 84.7425 51.8689 77.8663C51.8689 70.9902 55.728 65.416 60.4884 65.416C65.2488 65.416 69.1078 70.9902 69.1078 77.8663Z" fill="white"/>
<path fill-rule="evenodd" clip-rule="evenodd" d="M66.3578 85.2228C66.1809 85.5386 65.9933 85.8397 65.7958 86.1249C64.3575 88.2024 62.4654 89.359 60.4884 89.359C58.5113 89.359 56.6192 88.2024 55.1809 86.1249C53.7452 84.0512 52.8266 81.1343 52.8266 77.8663C52.8266 74.5984 53.7452 71.6815 55.1809 69.6078C56.6192 67.5303 58.5113 66.3737 60.4884 66.3737C62.4654 66.3737 64.3575 67.5303 65.7958 69.6078C65.9933 69.893 66.1809 70.1941 66.3578 70.5099C65.4853 69.7087 64.4594 69.2469 63.3615 69.2469C60.1879 69.2469 57.6152 73.1059 57.6152 77.8663C57.6152 82.6267 60.1879 86.4858 63.3615 86.4858C64.4594 86.4858 65.4853 86.024 66.3578 85.2228ZM69.1078 77.8663C69.1078 84.7425 65.2488 90.3167 60.4884 90.3167C55.728 90.3167 51.8689 84.7425 51.8689 77.8663C51.8689 70.9902 55.728 65.416 60.4884 65.416C65.2488 65.416 69.1078 70.9902 69.1078 77.8663Z" fill="#3A3A3A"/>
<path d="M88.2621 77.8663C88.2621 84.7425 84.403 90.3167 79.6427 90.3167C74.8823 90.3167 71.0232 84.7425 71.0232 77.8663C71.0232 70.9902 74.8823 65.416 79.6427 65.416C84.403 65.416 88.2621 70.9902 88.2621 77.8663Z" fill="white"/>
<path fill-rule="evenodd" clip-rule="evenodd" d="M85.512 85.2228C85.3352 85.5386 85.1475 85.8397 84.9501 86.1249C83.5118 88.2024 81.6197 89.359 79.6427 89.359C77.6656 89.359 75.7735 88.2024 74.3352 86.1249C72.8995 84.0512 71.9809 81.1343 71.9809 77.8663C71.9809 74.5984 72.8995 71.6815 74.3352 69.6078C75.7735 67.5303 77.6656 66.3737 79.6427 66.3737C81.6197 66.3737 83.5118 67.5303 84.9501 69.6078C85.1475 69.893 85.3352 70.1941 85.512 70.5099C84.6396 69.7087 83.6137 69.2469 82.5158 69.2469C79.3422 69.2469 76.7695 73.1059 76.7695 77.8663C76.7695 82.6267 79.3422 86.4858 82.5158 86.4858C83.6137 86.4858 84.6396 86.024 85.512 85.2228ZM88.2621 77.8663C88.2621 84.7425 84.403 90.3167 79.6427 90.3167C74.8823 90.3167 71.0232 84.7425 71.0232 77.8663C71.0232 70.9902 74.8823 65.416 79.6427 65.416C84.403 65.416 88.2621 70.9902 88.2621 77.8663Z" fill="#3A3A3A"/>
</svg>
