<svg width="139" height="58" viewBox="0 0 139 58" fill="none" xmlns="http://www.w3.org/2000/svg">
<rect x="0.129883" y="0.0869141" width="138.005" height="57.5022" fill="#95BEDC"/>
<mask id="path-2-outside-1_515_9433" maskUnits="userSpaceOnUse" x="9.67188" y="7.42969" width="116" height="19" fill="black">
<rect fill="white" x="9.67188" y="7.42969" width="116" height="19"/>
<path d="M25.4549 20.9233C25.4549 21.4899 25.3888 21.9822 25.2568 22.4C25.1247 22.8179 24.9392 23.1791 24.7002 23.4837C24.4675 23.7811 24.1844 24.0255 23.8511 24.2167C23.5241 24.4008 23.1593 24.5496 22.7568 24.6629C22.3605 24.7691 21.936 24.8435 21.4832 24.886C21.0304 24.9285 20.5618 24.9497 20.0775 24.9497H10.6719V10.3526H19.9077C20.2788 10.3526 20.6499 10.3703 21.0209 10.4057C21.3983 10.4411 21.7568 10.5084 22.0964 10.6076C22.436 10.6996 22.7505 10.8307 23.0398 11.0007C23.3354 11.1706 23.5901 11.3937 23.8039 11.67C24.0241 11.9462 24.1939 12.2791 24.3134 12.6686C24.4392 13.0581 24.5021 13.5185 24.5021 14.0497C24.5021 14.9988 24.2945 15.753 23.8794 16.3126C23.4643 16.865 22.8102 17.2333 21.9172 17.4174C22.5461 17.467 23.0838 17.5768 23.5304 17.7468C23.9832 17.9097 24.3511 18.1363 24.6341 18.4267C24.9172 18.71 25.1247 19.0606 25.2568 19.4785C25.3888 19.8893 25.4549 20.3709 25.4549 20.9233ZM21.087 14.6765C21.087 14.4924 21.0618 14.3188 21.0115 14.1559C20.9612 13.9859 20.87 13.8372 20.7379 13.7097C20.6058 13.5822 20.4266 13.4795 20.2002 13.4016C19.9738 13.3237 19.6844 13.2848 19.3322 13.2848H14.1719V16.0257H19.3322C19.6844 16.0257 19.9738 15.9903 20.2002 15.9195C20.4266 15.8487 20.6058 15.753 20.7379 15.6326C20.87 15.5122 20.9612 15.3706 21.0115 15.2077C21.0618 15.0377 21.087 14.8606 21.087 14.6765ZM21.8983 20.4665C21.8983 20.1336 21.848 19.868 21.7473 19.6697C21.6467 19.4643 21.4895 19.3085 21.2756 19.2022C21.0618 19.0889 20.7851 19.0146 20.4455 18.9791C20.1058 18.9437 19.7002 18.926 19.2285 18.926H14.1719V22.0176H19.2285C19.7002 22.0176 20.1058 21.9999 20.4455 21.9644C20.7851 21.929 21.0618 21.8547 21.2756 21.7413C21.4895 21.628 21.6467 21.4722 21.7473 21.2739C21.848 21.0685 21.8983 20.7994 21.8983 20.4665Z"/>
<path d="M28.653 24.9497V10.3526H41.7756V13.4654H32.2473V15.877H41.2851V18.9898H32.2473V21.837H41.9077V24.9497H28.653Z"/>
<path d="M66.8417 23.9511C66.3888 24.1636 65.9329 24.3548 65.4737 24.5248C65.0146 24.6948 64.5398 24.84 64.0492 24.9604C63.5586 25.0878 63.0398 25.1835 62.4926 25.2472C61.9517 25.3109 61.37 25.3428 60.7473 25.3428C59.4266 25.3428 58.2096 25.1835 57.0964 24.8647C55.9895 24.546 55.0335 24.068 54.2285 23.4305C53.4297 22.786 52.8071 21.9857 52.3605 21.0295C51.914 20.0663 51.6907 18.9437 51.6907 17.6618C51.6907 16.3799 51.914 15.2608 52.3605 14.3047C52.8071 13.3414 53.4297 12.5411 54.2285 11.9037C55.0335 11.2592 55.9895 10.7776 57.0964 10.4588C58.2096 10.1401 59.4266 9.98077 60.7473 9.98077C61.37 9.98077 61.9517 10.0126 62.4926 10.0764C63.0398 10.1401 63.5586 10.2357 64.0492 10.3632C64.5398 10.4836 65.0146 10.6288 65.4737 10.7988C65.9329 10.9688 66.3888 11.16 66.8417 11.3725V14.9208C66.4832 14.7013 66.1058 14.4853 65.7096 14.2728C65.3134 14.0532 64.8763 13.8585 64.3983 13.6885C63.9203 13.5114 63.3951 13.3698 62.8228 13.2635C62.2505 13.1502 61.6058 13.0935 60.8888 13.0935C59.7882 13.0935 58.8731 13.221 58.1436 13.476C57.4203 13.731 56.8417 14.0709 56.4077 14.4959C55.9737 14.9208 55.6687 15.4095 55.4926 15.962C55.3165 16.5073 55.2285 17.0739 55.2285 17.6618C55.2285 18.0513 55.2662 18.4373 55.3417 18.8198C55.4171 19.1952 55.5429 19.5528 55.719 19.8928C55.8951 20.2257 56.1247 20.5338 56.4077 20.8171C56.6907 21.1004 57.0429 21.3447 57.4643 21.5501C57.8857 21.7555 58.3763 21.9184 58.936 22.0388C59.502 22.1521 60.153 22.2088 60.8888 22.2088C61.6058 22.2088 62.2505 22.1592 62.8228 22.0601C63.3951 21.9538 63.9203 21.8157 64.3983 21.6457C64.8763 21.4757 65.3134 21.2845 65.7096 21.072C66.1058 20.8525 66.4832 20.6294 66.8417 20.4027V23.9511Z"/>
<path d="M86.8794 17.6618C86.8794 18.9154 86.675 20.0238 86.2662 20.9871C85.8574 21.9432 85.2725 22.7435 84.5115 23.388C83.7505 24.0325 82.8259 24.5212 81.7379 24.8541C80.6561 25.1799 79.4391 25.3428 78.0869 25.3428C76.7347 25.3428 75.5115 25.1799 74.4171 24.8541C73.3291 24.5212 72.4014 24.0325 71.6341 23.388C70.8668 22.7435 70.2756 21.9432 69.8605 20.9871C69.4454 20.0238 69.2379 18.9154 69.2379 17.6618C69.2379 16.4082 69.4454 15.3033 69.8605 14.3472C70.2756 13.3839 70.8668 12.5801 71.6341 11.9356C72.4014 11.291 73.3291 10.8059 74.4171 10.4801C75.5115 10.1472 76.7347 9.98077 78.0869 9.98077C79.4391 9.98077 80.6561 10.1472 81.7379 10.4801C82.8259 10.8059 83.7505 11.291 84.5115 11.9356C85.2725 12.5801 85.8574 13.3839 86.2662 14.3472C86.675 15.3033 86.8794 16.4082 86.8794 17.6618ZM83.3417 17.6618C83.3417 17.1164 83.263 16.5746 83.1058 16.0363C82.9549 15.491 82.6813 15.0023 82.2851 14.5703C81.8951 14.1382 81.3605 13.7876 80.6813 13.5185C80.002 13.2494 79.1373 13.1148 78.0869 13.1148C77.3825 13.1148 76.763 13.1785 76.2285 13.306C75.6939 13.4264 75.2316 13.5964 74.8417 13.816C74.4517 14.0355 74.1247 14.294 73.8605 14.5915C73.5964 14.8819 73.3857 15.1971 73.2285 15.537C73.0712 15.8699 72.958 16.2205 72.8888 16.5888C72.8259 16.95 72.7945 17.3077 72.7945 17.6618C72.7945 18.023 72.8259 18.3878 72.8888 18.756C72.958 19.1243 73.0712 19.4785 73.2285 19.8184C73.3857 20.1513 73.5964 20.4629 73.8605 20.7533C74.1247 21.0437 74.4517 21.2987 74.8417 21.5182C75.2316 21.7307 75.6939 21.9007 76.2285 22.0282C76.763 22.1486 77.3825 22.2088 78.0869 22.2088C79.1373 22.2088 80.002 22.0742 80.6813 21.8051C81.3605 21.5359 81.8951 21.1854 82.2851 20.7533C82.6813 20.3213 82.9549 19.8361 83.1058 19.2979C83.263 18.7525 83.3417 18.2072 83.3417 17.6618Z"/>
<path d="M106.842 17.6618C106.842 18.9154 106.637 20.0238 106.228 20.9871C105.82 21.9432 105.235 22.7435 104.474 23.388C103.713 24.0325 102.788 24.5212 101.7 24.8541C100.618 25.1799 99.4014 25.3428 98.0492 25.3428C96.697 25.3428 95.4737 25.1799 94.3794 24.8541C93.2913 24.5212 92.3637 24.0325 91.5964 23.388C90.8291 22.7435 90.2379 21.9432 89.8228 20.9871C89.4077 20.0238 89.2001 18.9154 89.2001 17.6618C89.2001 16.4082 89.4077 15.3033 89.8228 14.3472C90.2379 13.3839 90.8291 12.5801 91.5964 11.9356C92.3637 11.291 93.2913 10.8059 94.3794 10.4801C95.4737 10.1472 96.697 9.98077 98.0492 9.98077C99.4014 9.98077 100.618 10.1472 101.7 10.4801C102.788 10.8059 103.713 11.291 104.474 11.9356C105.235 12.5801 105.82 13.3839 106.228 14.3472C106.637 15.3033 106.842 16.4082 106.842 17.6618ZM103.304 17.6618C103.304 17.1164 103.225 16.5746 103.068 16.0363C102.917 15.491 102.644 15.0023 102.247 14.5703C101.857 14.1382 101.323 13.7876 100.644 13.5185C99.9643 13.2494 99.0995 13.1148 98.0492 13.1148C97.3448 13.1148 96.7253 13.1785 96.1907 13.306C95.6561 13.4264 95.1939 13.5964 94.8039 13.816C94.414 14.0355 94.0869 14.294 93.8228 14.5915C93.5586 14.8819 93.3479 15.1971 93.1907 15.537C93.0335 15.8699 92.9203 16.2205 92.8511 16.5888C92.7882 16.95 92.7567 17.3077 92.7567 17.6618C92.7567 18.023 92.7882 18.3878 92.8511 18.756C92.9203 19.1243 93.0335 19.4785 93.1907 19.8184C93.3479 20.1513 93.5586 20.4629 93.8228 20.7533C94.0869 21.0437 94.414 21.2987 94.8039 21.5182C95.1939 21.7307 95.6561 21.9007 96.1907 22.0282C96.7253 22.1486 97.3448 22.2088 98.0492 22.2088C99.0995 22.2088 99.9643 22.0742 100.644 21.8051C101.323 21.5359 101.857 21.1854 102.247 20.7533C102.644 20.3213 102.917 19.8361 103.068 19.2979C103.225 18.7525 103.304 18.2072 103.304 17.6618Z"/>
<path d="M110.03 24.9497V10.3526H113.53V21.752H122.993V24.9497H110.03Z"/>
<path d="M27.0614 19.3722C27.0614 19.9388 26.9953 20.4311 26.8632 20.8489C26.7312 21.2668 26.5456 21.628 26.3066 21.9326C26.0739 22.23 25.7909 22.4744 25.4576 22.6656C25.1305 22.8498 24.7658 22.9985 24.3632 23.1118C23.967 23.2181 23.5425 23.2924 23.0897 23.3349C22.6368 23.3774 22.1683 23.3987 21.684 23.3987H12.2783V8.80152L21.5142 8.80152C21.8853 8.80152 22.2563 8.81923 22.6274 8.85464C23.0048 8.89005 23.3632 8.95734 23.7029 9.05649C24.0425 9.14857 24.357 9.27959 24.6463 9.44957C24.9419 9.61956 25.1966 9.84266 25.4104 10.1189C25.6305 10.3951 25.8004 10.728 25.9198 11.1175C26.0456 11.5071 26.1085 11.9674 26.1085 12.4986C26.1085 13.4477 25.901 14.202 25.4859 14.7615C25.0708 15.3139 24.4167 15.6822 23.5236 15.8664C24.1526 15.9159 24.6903 16.0257 25.1368 16.1957C25.5897 16.3586 25.9576 16.5852 26.2406 16.8756C26.5236 17.1589 26.7312 17.5095 26.8632 17.9274C26.9953 18.3382 27.0614 18.8198 27.0614 19.3722ZM22.6934 13.1254C22.6934 12.9413 22.6683 12.7678 22.618 12.6049C22.5676 12.4349 22.4765 12.2861 22.3444 12.1587C22.2123 12.0312 22.0331 11.9285 21.8066 11.8506C21.5802 11.7727 21.2909 11.7337 20.9387 11.7337H15.7783V14.4746H20.9387C21.2909 14.4746 21.5802 14.4392 21.8066 14.3684C22.0331 14.2976 22.2123 14.202 22.3444 14.0816C22.4765 13.9612 22.5676 13.8195 22.618 13.6566C22.6683 13.4866 22.6934 13.3096 22.6934 13.1254ZM23.5048 18.9154C23.5048 18.5825 23.4544 18.3169 23.3538 18.1186C23.2532 17.9132 23.0959 17.7574 22.8821 17.6512C22.6683 17.5378 22.3915 17.4635 22.0519 17.4281C21.7123 17.3927 21.3066 17.375 20.8349 17.375H15.7783V20.4665H20.8349C21.3066 20.4665 21.7123 20.4488 22.0519 20.4134C22.3915 20.378 22.6683 20.3036 22.8821 20.1903C23.0959 20.0769 23.2532 19.9211 23.3538 19.7228C23.4544 19.5174 23.5048 19.2483 23.5048 18.9154Z"/>
<path d="M30.2595 23.3987V8.80152H43.3821V11.9143H33.8538V14.3259L42.8915 14.3259V17.4387H33.8538V20.2859H43.5142V23.3987H30.2595Z"/>
<path d="M68.4481 22.4C67.9953 22.6125 67.5393 22.8037 67.0802 22.9737C66.6211 23.1437 66.1462 23.2889 65.6557 23.4093C65.1651 23.5368 64.6462 23.6324 64.0991 23.6961C63.5582 23.7599 62.9764 23.7917 62.3538 23.7917C61.033 23.7917 59.8161 23.6324 58.7029 23.3137C57.5959 22.995 56.64 22.5169 55.8349 21.8795C55.0362 21.2349 54.4135 20.4346 53.967 19.4785C53.5205 18.5152 53.2972 17.3927 53.2972 16.1107C53.2972 14.8288 53.5205 13.7097 53.967 12.7536C54.4135 11.7904 55.0362 10.99 55.8349 10.3526C56.64 9.70809 57.5959 9.22647 58.7029 8.90776C59.8161 8.58904 61.033 8.42969 62.3538 8.42969C62.9764 8.42969 63.5582 8.46156 64.0991 8.5253C64.6462 8.58904 65.1651 8.68466 65.6557 8.81215C66.1462 8.93255 66.6211 9.07774 67.0802 9.24772C67.5393 9.4177 67.9953 9.60893 68.4481 9.82141V13.3698C68.0896 13.1502 67.7123 12.9342 67.3161 12.7217C66.9198 12.5022 66.4827 12.3074 66.0047 12.1374C65.5267 11.9603 65.0016 11.8187 64.4293 11.7125C63.8569 11.5991 63.2123 11.5425 62.4953 11.5425C61.3947 11.5425 60.4796 11.67 59.75 11.9249C59.0268 12.1799 58.4481 12.5199 58.0142 12.9448C57.5802 13.3698 57.2752 13.8585 57.0991 14.4109C56.923 14.9563 56.8349 15.5229 56.8349 16.1107C56.8349 16.5003 56.8727 16.8863 56.9481 17.2687C57.0236 17.6441 57.1494 18.0018 57.3255 18.3417C57.5016 18.6746 57.7312 18.9827 58.0142 19.266C58.2972 19.5493 58.6494 19.7936 59.0708 19.999C59.4922 20.2044 59.9827 20.3673 60.5425 20.4877C61.1085 20.6011 61.7595 20.6577 62.4953 20.6577C63.2123 20.6577 63.8569 20.6081 64.4293 20.509C65.0016 20.4027 65.5267 20.2646 66.0047 20.0947C66.4827 19.9247 66.9198 19.7334 67.3161 19.521C67.7123 19.3014 68.0896 19.0783 68.4481 18.8517V22.4Z"/>
<path d="M88.4859 16.1107C88.4859 17.3643 88.2815 18.4727 87.8727 19.436C87.4638 20.3921 86.8789 21.1924 86.1179 21.837C85.3569 22.4815 84.4324 22.9702 83.3444 23.303C82.2626 23.6288 81.0456 23.7917 79.6934 23.7917C78.3412 23.7917 77.1179 23.6288 76.0236 23.303C74.9355 22.9702 74.0079 22.4815 73.2406 21.837C72.4733 21.1924 71.8821 20.3921 71.467 19.436C71.0519 18.4727 70.8444 17.3643 70.8444 16.1107C70.8444 14.8571 71.0519 13.7522 71.467 12.7961C71.8821 11.8329 72.4733 11.029 73.2406 10.3845C74.0079 9.73996 74.9355 9.2548 76.0236 8.92901C77.1179 8.59613 78.3412 8.42969 79.6934 8.42969C81.0456 8.42969 82.2626 8.59613 83.3444 8.92901C84.4324 9.2548 85.3569 9.73996 86.1179 10.3845C86.8789 11.029 87.4638 11.8329 87.8727 12.7961C88.2815 13.7522 88.4859 14.8571 88.4859 16.1107ZM84.9481 16.1107C84.9481 15.5654 84.8695 15.0235 84.7123 14.4853C84.5613 13.9399 84.2877 13.4512 83.8915 13.0192C83.5016 12.5871 82.967 12.2366 82.2877 11.9674C81.6085 11.6983 80.7437 11.5637 79.6934 11.5637C78.989 11.5637 78.3695 11.6275 77.8349 11.7549C77.3003 11.8753 76.8381 12.0453 76.4481 12.2649C76.0582 12.4844 75.7311 12.743 75.467 13.0404C75.2028 13.3308 74.9922 13.646 74.8349 13.9859C74.6777 14.3188 74.5645 14.6694 74.4953 15.0377C74.4324 15.3989 74.401 15.7566 74.401 16.1107C74.401 16.4719 74.4324 16.8367 74.4953 17.205C74.5645 17.5733 74.6777 17.9274 74.8349 18.2674C74.9922 18.6002 75.2028 18.9119 75.467 19.2022C75.7311 19.4926 76.0582 19.7476 76.4481 19.9672C76.8381 20.1796 77.3003 20.3496 77.8349 20.4771C78.3695 20.5975 78.989 20.6577 79.6934 20.6577C80.7437 20.6577 81.6085 20.5231 82.2877 20.254C82.967 19.9849 83.5016 19.6343 83.8915 19.2022C84.2877 18.7702 84.5613 18.2851 84.7123 17.7468C84.8695 17.2014 84.9481 16.6561 84.9481 16.1107Z"/>
<path d="M108.448 16.1107C108.448 17.3643 108.244 18.4727 107.835 19.436C107.426 20.3921 106.841 21.1924 106.08 21.837C105.319 22.4815 104.395 22.9702 103.307 23.303C102.225 23.6288 101.008 23.7917 99.6557 23.7917C98.3035 23.7917 97.0802 23.6288 95.9859 23.303C94.8978 22.9702 93.9701 22.4815 93.2028 21.837C92.4355 21.1924 91.8443 20.3921 91.4293 19.436C91.0142 18.4727 90.8066 17.3643 90.8066 16.1107C90.8066 14.8571 91.0142 13.7522 91.4293 12.7961C91.8443 11.8329 92.4355 11.029 93.2028 10.3845C93.9701 9.73996 94.8978 9.2548 95.9859 8.92901C97.0802 8.59613 98.3035 8.42969 99.6557 8.42969C101.008 8.42969 102.225 8.59613 103.307 8.92901C104.395 9.2548 105.319 9.73996 106.08 10.3845C106.841 11.029 107.426 11.8329 107.835 12.7961C108.244 13.7522 108.448 14.8571 108.448 16.1107ZM104.91 16.1107C104.91 15.5654 104.832 15.0235 104.675 14.4853C104.524 13.9399 104.25 13.4512 103.854 13.0192C103.464 12.5871 102.929 12.2366 102.25 11.9674C101.571 11.6983 100.706 11.5637 99.6557 11.5637C98.9513 11.5637 98.3318 11.6275 97.7972 11.7549C97.2626 11.8753 96.8003 12.0453 96.4104 12.2649C96.0204 12.4844 95.6934 12.743 95.4293 13.0404C95.1651 13.3308 94.9544 13.646 94.7972 13.9859C94.6399 14.3188 94.5267 14.6694 94.4576 15.0377C94.3947 15.3989 94.3632 15.7566 94.3632 16.1107C94.3632 16.4719 94.3947 16.8367 94.4576 17.205C94.5267 17.5733 94.6399 17.9274 94.7972 18.2674C94.9544 18.6002 95.1651 18.9119 95.4293 19.2022C95.6934 19.4926 96.0204 19.7476 96.4104 19.9672C96.8003 20.1796 97.2626 20.3496 97.7972 20.4771C98.3318 20.5975 98.9513 20.6577 99.6557 20.6577C100.706 20.6577 101.571 20.5231 102.25 20.254C102.929 19.9849 103.464 19.6343 103.854 19.2022C104.25 18.7702 104.524 18.2851 104.675 17.7468C104.832 17.2014 104.91 16.6561 104.91 16.1107Z"/>
<path d="M111.637 23.3987V8.80152H115.137V20.2009H124.599V23.3987H111.637Z"/>
</mask>
<path d="M25.4549 20.9233C25.4549 21.4899 25.3888 21.9822 25.2568 22.4C25.1247 22.8179 24.9392 23.1791 24.7002 23.4837C24.4675 23.7811 24.1844 24.0255 23.8511 24.2167C23.5241 24.4008 23.1593 24.5496 22.7568 24.6629C22.3605 24.7691 21.936 24.8435 21.4832 24.886C21.0304 24.9285 20.5618 24.9497 20.0775 24.9497H10.6719V10.3526H19.9077C20.2788 10.3526 20.6499 10.3703 21.0209 10.4057C21.3983 10.4411 21.7568 10.5084 22.0964 10.6076C22.436 10.6996 22.7505 10.8307 23.0398 11.0007C23.3354 11.1706 23.5901 11.3937 23.8039 11.67C24.0241 11.9462 24.1939 12.2791 24.3134 12.6686C24.4392 13.0581 24.5021 13.5185 24.5021 14.0497C24.5021 14.9988 24.2945 15.753 23.8794 16.3126C23.4643 16.865 22.8102 17.2333 21.9172 17.4174C22.5461 17.467 23.0838 17.5768 23.5304 17.7468C23.9832 17.9097 24.3511 18.1363 24.6341 18.4267C24.9172 18.71 25.1247 19.0606 25.2568 19.4785C25.3888 19.8893 25.4549 20.3709 25.4549 20.9233ZM21.087 14.6765C21.087 14.4924 21.0618 14.3188 21.0115 14.1559C20.9612 13.9859 20.87 13.8372 20.7379 13.7097C20.6058 13.5822 20.4266 13.4795 20.2002 13.4016C19.9738 13.3237 19.6844 13.2848 19.3322 13.2848H14.1719V16.0257H19.3322C19.6844 16.0257 19.9738 15.9903 20.2002 15.9195C20.4266 15.8487 20.6058 15.753 20.7379 15.6326C20.87 15.5122 20.9612 15.3706 21.0115 15.2077C21.0618 15.0377 21.087 14.8606 21.087 14.6765ZM21.8983 20.4665C21.8983 20.1336 21.848 19.868 21.7473 19.6697C21.6467 19.4643 21.4895 19.3085 21.2756 19.2022C21.0618 19.0889 20.7851 19.0146 20.4455 18.9791C20.1058 18.9437 19.7002 18.926 19.2285 18.926H14.1719V22.0176H19.2285C19.7002 22.0176 20.1058 21.9999 20.4455 21.9644C20.7851 21.929 21.0618 21.8547 21.2756 21.7413C21.4895 21.628 21.6467 21.4722 21.7473 21.2739C21.848 21.0685 21.8983 20.7994 21.8983 20.4665Z" fill="#3A3A3A"/>
<path d="M28.653 24.9497V10.3526H41.7756V13.4654H32.2473V15.877H41.2851V18.9898H32.2473V21.837H41.9077V24.9497H28.653Z" fill="#3A3A3A"/>
<path d="M66.8417 23.9511C66.3888 24.1636 65.9329 24.3548 65.4737 24.5248C65.0146 24.6948 64.5398 24.84 64.0492 24.9604C63.5586 25.0878 63.0398 25.1835 62.4926 25.2472C61.9517 25.3109 61.37 25.3428 60.7473 25.3428C59.4266 25.3428 58.2096 25.1835 57.0964 24.8647C55.9895 24.546 55.0335 24.068 54.2285 23.4305C53.4297 22.786 52.8071 21.9857 52.3605 21.0295C51.914 20.0663 51.6907 18.9437 51.6907 17.6618C51.6907 16.3799 51.914 15.2608 52.3605 14.3047C52.8071 13.3414 53.4297 12.5411 54.2285 11.9037C55.0335 11.2592 55.9895 10.7776 57.0964 10.4588C58.2096 10.1401 59.4266 9.98077 60.7473 9.98077C61.37 9.98077 61.9517 10.0126 62.4926 10.0764C63.0398 10.1401 63.5586 10.2357 64.0492 10.3632C64.5398 10.4836 65.0146 10.6288 65.4737 10.7988C65.9329 10.9688 66.3888 11.16 66.8417 11.3725V14.9208C66.4832 14.7013 66.1058 14.4853 65.7096 14.2728C65.3134 14.0532 64.8763 13.8585 64.3983 13.6885C63.9203 13.5114 63.3951 13.3698 62.8228 13.2635C62.2505 13.1502 61.6058 13.0935 60.8888 13.0935C59.7882 13.0935 58.8731 13.221 58.1436 13.476C57.4203 13.731 56.8417 14.0709 56.4077 14.4959C55.9737 14.9208 55.6687 15.4095 55.4926 15.962C55.3165 16.5073 55.2285 17.0739 55.2285 17.6618C55.2285 18.0513 55.2662 18.4373 55.3417 18.8198C55.4171 19.1952 55.5429 19.5528 55.719 19.8928C55.8951 20.2257 56.1247 20.5338 56.4077 20.8171C56.6907 21.1004 57.0429 21.3447 57.4643 21.5501C57.8857 21.7555 58.3763 21.9184 58.936 22.0388C59.502 22.1521 60.153 22.2088 60.8888 22.2088C61.6058 22.2088 62.2505 22.1592 62.8228 22.0601C63.3951 21.9538 63.9203 21.8157 64.3983 21.6457C64.8763 21.4757 65.3134 21.2845 65.7096 21.072C66.1058 20.8525 66.4832 20.6294 66.8417 20.4027V23.9511Z" fill="#3A3A3A"/>
<path d="M86.8794 17.6618C86.8794 18.9154 86.675 20.0238 86.2662 20.9871C85.8574 21.9432 85.2725 22.7435 84.5115 23.388C83.7505 24.0325 82.8259 24.5212 81.7379 24.8541C80.6561 25.1799 79.4391 25.3428 78.0869 25.3428C76.7347 25.3428 75.5115 25.1799 74.4171 24.8541C73.3291 24.5212 72.4014 24.0325 71.6341 23.388C70.8668 22.7435 70.2756 21.9432 69.8605 20.9871C69.4454 20.0238 69.2379 18.9154 69.2379 17.6618C69.2379 16.4082 69.4454 15.3033 69.8605 14.3472C70.2756 13.3839 70.8668 12.5801 71.6341 11.9356C72.4014 11.291 73.3291 10.8059 74.4171 10.4801C75.5115 10.1472 76.7347 9.98077 78.0869 9.98077C79.4391 9.98077 80.6561 10.1472 81.7379 10.4801C82.8259 10.8059 83.7505 11.291 84.5115 11.9356C85.2725 12.5801 85.8574 13.3839 86.2662 14.3472C86.675 15.3033 86.8794 16.4082 86.8794 17.6618ZM83.3417 17.6618C83.3417 17.1164 83.263 16.5746 83.1058 16.0363C82.9549 15.491 82.6813 15.0023 82.2851 14.5703C81.8951 14.1382 81.3605 13.7876 80.6813 13.5185C80.002 13.2494 79.1373 13.1148 78.0869 13.1148C77.3825 13.1148 76.763 13.1785 76.2285 13.306C75.6939 13.4264 75.2316 13.5964 74.8417 13.816C74.4517 14.0355 74.1247 14.294 73.8605 14.5915C73.5964 14.8819 73.3857 15.1971 73.2285 15.537C73.0712 15.8699 72.958 16.2205 72.8888 16.5888C72.8259 16.95 72.7945 17.3077 72.7945 17.6618C72.7945 18.023 72.8259 18.3878 72.8888 18.756C72.958 19.1243 73.0712 19.4785 73.2285 19.8184C73.3857 20.1513 73.5964 20.4629 73.8605 20.7533C74.1247 21.0437 74.4517 21.2987 74.8417 21.5182C75.2316 21.7307 75.6939 21.9007 76.2285 22.0282C76.763 22.1486 77.3825 22.2088 78.0869 22.2088C79.1373 22.2088 80.002 22.0742 80.6813 21.8051C81.3605 21.5359 81.8951 21.1854 82.2851 20.7533C82.6813 20.3213 82.9549 19.8361 83.1058 19.2979C83.263 18.7525 83.3417 18.2072 83.3417 17.6618Z" fill="#3A3A3A"/>
<path d="M106.842 17.6618C106.842 18.9154 106.637 20.0238 106.228 20.9871C105.82 21.9432 105.235 22.7435 104.474 23.388C103.713 24.0325 102.788 24.5212 101.7 24.8541C100.618 25.1799 99.4014 25.3428 98.0492 25.3428C96.697 25.3428 95.4737 25.1799 94.3794 24.8541C93.2913 24.5212 92.3637 24.0325 91.5964 23.388C90.8291 22.7435 90.2379 21.9432 89.8228 20.9871C89.4077 20.0238 89.2001 18.9154 89.2001 17.6618C89.2001 16.4082 89.4077 15.3033 89.8228 14.3472C90.2379 13.3839 90.8291 12.5801 91.5964 11.9356C92.3637 11.291 93.2913 10.8059 94.3794 10.4801C95.4737 10.1472 96.697 9.98077 98.0492 9.98077C99.4014 9.98077 100.618 10.1472 101.7 10.4801C102.788 10.8059 103.713 11.291 104.474 11.9356C105.235 12.5801 105.82 13.3839 106.228 14.3472C106.637 15.3033 106.842 16.4082 106.842 17.6618ZM103.304 17.6618C103.304 17.1164 103.225 16.5746 103.068 16.0363C102.917 15.491 102.644 15.0023 102.247 14.5703C101.857 14.1382 101.323 13.7876 100.644 13.5185C99.9643 13.2494 99.0995 13.1148 98.0492 13.1148C97.3448 13.1148 96.7253 13.1785 96.1907 13.306C95.6561 13.4264 95.1939 13.5964 94.8039 13.816C94.414 14.0355 94.0869 14.294 93.8228 14.5915C93.5586 14.8819 93.3479 15.1971 93.1907 15.537C93.0335 15.8699 92.9203 16.2205 92.8511 16.5888C92.7882 16.95 92.7567 17.3077 92.7567 17.6618C92.7567 18.023 92.7882 18.3878 92.8511 18.756C92.9203 19.1243 93.0335 19.4785 93.1907 19.8184C93.3479 20.1513 93.5586 20.4629 93.8228 20.7533C94.0869 21.0437 94.414 21.2987 94.8039 21.5182C95.1939 21.7307 95.6561 21.9007 96.1907 22.0282C96.7253 22.1486 97.3448 22.2088 98.0492 22.2088C99.0995 22.2088 99.9643 22.0742 100.644 21.8051C101.323 21.5359 101.857 21.1854 102.247 20.7533C102.644 20.3213 102.917 19.8361 103.068 19.2979C103.225 18.7525 103.304 18.2072 103.304 17.6618Z" fill="#3A3A3A"/>
<path d="M110.03 24.9497V10.3526H113.53V21.752H122.993V24.9497H110.03Z" fill="#3A3A3A"/>
<path d="M27.0614 19.3722C27.0614 19.9388 26.9953 20.4311 26.8632 20.8489C26.7312 21.2668 26.5456 21.628 26.3066 21.9326C26.0739 22.23 25.7909 22.4744 25.4576 22.6656C25.1305 22.8498 24.7658 22.9985 24.3632 23.1118C23.967 23.2181 23.5425 23.2924 23.0897 23.3349C22.6368 23.3774 22.1683 23.3987 21.684 23.3987H12.2783V8.80152L21.5142 8.80152C21.8853 8.80152 22.2563 8.81923 22.6274 8.85464C23.0048 8.89005 23.3632 8.95734 23.7029 9.05649C24.0425 9.14857 24.357 9.27959 24.6463 9.44957C24.9419 9.61956 25.1966 9.84266 25.4104 10.1189C25.6305 10.3951 25.8004 10.728 25.9198 11.1175C26.0456 11.5071 26.1085 11.9674 26.1085 12.4986C26.1085 13.4477 25.901 14.202 25.4859 14.7615C25.0708 15.3139 24.4167 15.6822 23.5236 15.8664C24.1526 15.9159 24.6903 16.0257 25.1368 16.1957C25.5897 16.3586 25.9576 16.5852 26.2406 16.8756C26.5236 17.1589 26.7312 17.5095 26.8632 17.9274C26.9953 18.3382 27.0614 18.8198 27.0614 19.3722ZM22.6934 13.1254C22.6934 12.9413 22.6683 12.7678 22.618 12.6049C22.5676 12.4349 22.4765 12.2861 22.3444 12.1587C22.2123 12.0312 22.0331 11.9285 21.8066 11.8506C21.5802 11.7727 21.2909 11.7337 20.9387 11.7337H15.7783V14.4746H20.9387C21.2909 14.4746 21.5802 14.4392 21.8066 14.3684C22.0331 14.2976 22.2123 14.202 22.3444 14.0816C22.4765 13.9612 22.5676 13.8195 22.618 13.6566C22.6683 13.4866 22.6934 13.3096 22.6934 13.1254ZM23.5048 18.9154C23.5048 18.5825 23.4544 18.3169 23.3538 18.1186C23.2532 17.9132 23.0959 17.7574 22.8821 17.6512C22.6683 17.5378 22.3915 17.4635 22.0519 17.4281C21.7123 17.3927 21.3066 17.375 20.8349 17.375H15.7783V20.4665H20.8349C21.3066 20.4665 21.7123 20.4488 22.0519 20.4134C22.3915 20.378 22.6683 20.3036 22.8821 20.1903C23.0959 20.0769 23.2532 19.9211 23.3538 19.7228C23.4544 19.5174 23.5048 19.2483 23.5048 18.9154Z" fill="white"/>
<path d="M30.2595 23.3987V8.80152H43.3821V11.9143H33.8538V14.3259L42.8915 14.3259V17.4387H33.8538V20.2859H43.5142V23.3987H30.2595Z" fill="white"/>
<path d="M68.4481 22.4C67.9953 22.6125 67.5393 22.8037 67.0802 22.9737C66.6211 23.1437 66.1462 23.2889 65.6557 23.4093C65.1651 23.5368 64.6462 23.6324 64.0991 23.6961C63.5582 23.7599 62.9764 23.7917 62.3538 23.7917C61.033 23.7917 59.8161 23.6324 58.7029 23.3137C57.5959 22.995 56.64 22.5169 55.8349 21.8795C55.0362 21.2349 54.4135 20.4346 53.967 19.4785C53.5205 18.5152 53.2972 17.3927 53.2972 16.1107C53.2972 14.8288 53.5205 13.7097 53.967 12.7536C54.4135 11.7904 55.0362 10.99 55.8349 10.3526C56.64 9.70809 57.5959 9.22647 58.7029 8.90776C59.8161 8.58904 61.033 8.42969 62.3538 8.42969C62.9764 8.42969 63.5582 8.46156 64.0991 8.5253C64.6462 8.58904 65.1651 8.68466 65.6557 8.81215C66.1462 8.93255 66.6211 9.07774 67.0802 9.24772C67.5393 9.4177 67.9953 9.60893 68.4481 9.82141V13.3698C68.0896 13.1502 67.7123 12.9342 67.3161 12.7217C66.9198 12.5022 66.4827 12.3074 66.0047 12.1374C65.5267 11.9603 65.0016 11.8187 64.4293 11.7125C63.8569 11.5991 63.2123 11.5425 62.4953 11.5425C61.3947 11.5425 60.4796 11.67 59.75 11.9249C59.0268 12.1799 58.4481 12.5199 58.0142 12.9448C57.5802 13.3698 57.2752 13.8585 57.0991 14.4109C56.923 14.9563 56.8349 15.5229 56.8349 16.1107C56.8349 16.5003 56.8727 16.8863 56.9481 17.2687C57.0236 17.6441 57.1494 18.0018 57.3255 18.3417C57.5016 18.6746 57.7312 18.9827 58.0142 19.266C58.2972 19.5493 58.6494 19.7936 59.0708 19.999C59.4922 20.2044 59.9827 20.3673 60.5425 20.4877C61.1085 20.6011 61.7595 20.6577 62.4953 20.6577C63.2123 20.6577 63.8569 20.6081 64.4293 20.509C65.0016 20.4027 65.5267 20.2646 66.0047 20.0947C66.4827 19.9247 66.9198 19.7334 67.3161 19.521C67.7123 19.3014 68.0896 19.0783 68.4481 18.8517V22.4Z" fill="white"/>
<path d="M88.4859 16.1107C88.4859 17.3643 88.2815 18.4727 87.8727 19.436C87.4638 20.3921 86.8789 21.1924 86.1179 21.837C85.3569 22.4815 84.4324 22.9702 83.3444 23.303C82.2626 23.6288 81.0456 23.7917 79.6934 23.7917C78.3412 23.7917 77.1179 23.6288 76.0236 23.303C74.9355 22.9702 74.0079 22.4815 73.2406 21.837C72.4733 21.1924 71.8821 20.3921 71.467 19.436C71.0519 18.4727 70.8444 17.3643 70.8444 16.1107C70.8444 14.8571 71.0519 13.7522 71.467 12.7961C71.8821 11.8329 72.4733 11.029 73.2406 10.3845C74.0079 9.73996 74.9355 9.2548 76.0236 8.92901C77.1179 8.59613 78.3412 8.42969 79.6934 8.42969C81.0456 8.42969 82.2626 8.59613 83.3444 8.92901C84.4324 9.2548 85.3569 9.73996 86.1179 10.3845C86.8789 11.029 87.4638 11.8329 87.8727 12.7961C88.2815 13.7522 88.4859 14.8571 88.4859 16.1107ZM84.9481 16.1107C84.9481 15.5654 84.8695 15.0235 84.7123 14.4853C84.5613 13.9399 84.2877 13.4512 83.8915 13.0192C83.5016 12.5871 82.967 12.2366 82.2877 11.9674C81.6085 11.6983 80.7437 11.5637 79.6934 11.5637C78.989 11.5637 78.3695 11.6275 77.8349 11.7549C77.3003 11.8753 76.8381 12.0453 76.4481 12.2649C76.0582 12.4844 75.7311 12.743 75.467 13.0404C75.2028 13.3308 74.9922 13.646 74.8349 13.9859C74.6777 14.3188 74.5645 14.6694 74.4953 15.0377C74.4324 15.3989 74.401 15.7566 74.401 16.1107C74.401 16.4719 74.4324 16.8367 74.4953 17.205C74.5645 17.5733 74.6777 17.9274 74.8349 18.2674C74.9922 18.6002 75.2028 18.9119 75.467 19.2022C75.7311 19.4926 76.0582 19.7476 76.4481 19.9672C76.8381 20.1796 77.3003 20.3496 77.8349 20.4771C78.3695 20.5975 78.989 20.6577 79.6934 20.6577C80.7437 20.6577 81.6085 20.5231 82.2877 20.254C82.967 19.9849 83.5016 19.6343 83.8915 19.2022C84.2877 18.7702 84.5613 18.2851 84.7123 17.7468C84.8695 17.2014 84.9481 16.6561 84.9481 16.1107Z" fill="white"/>
<path d="M108.448 16.1107C108.448 17.3643 108.244 18.4727 107.835 19.436C107.426 20.3921 106.841 21.1924 106.08 21.837C105.319 22.4815 104.395 22.9702 103.307 23.303C102.225 23.6288 101.008 23.7917 99.6557 23.7917C98.3035 23.7917 97.0802 23.6288 95.9859 23.303C94.8978 22.9702 93.9701 22.4815 93.2028 21.837C92.4355 21.1924 91.8443 20.3921 91.4293 19.436C91.0142 18.4727 90.8066 17.3643 90.8066 16.1107C90.8066 14.8571 91.0142 13.7522 91.4293 12.7961C91.8443 11.8329 92.4355 11.029 93.2028 10.3845C93.9701 9.73996 94.8978 9.2548 95.9859 8.92901C97.0802 8.59613 98.3035 8.42969 99.6557 8.42969C101.008 8.42969 102.225 8.59613 103.307 8.92901C104.395 9.2548 105.319 9.73996 106.08 10.3845C106.841 11.029 107.426 11.8329 107.835 12.7961C108.244 13.7522 108.448 14.8571 108.448 16.1107ZM104.91 16.1107C104.91 15.5654 104.832 15.0235 104.675 14.4853C104.524 13.9399 104.25 13.4512 103.854 13.0192C103.464 12.5871 102.929 12.2366 102.25 11.9674C101.571 11.6983 100.706 11.5637 99.6557 11.5637C98.9513 11.5637 98.3318 11.6275 97.7972 11.7549C97.2626 11.8753 96.8003 12.0453 96.4104 12.2649C96.0204 12.4844 95.6934 12.743 95.4293 13.0404C95.1651 13.3308 94.9544 13.646 94.7972 13.9859C94.6399 14.3188 94.5267 14.6694 94.4576 15.0377C94.3947 15.3989 94.3632 15.7566 94.3632 16.1107C94.3632 16.4719 94.3947 16.8367 94.4576 17.205C94.5267 17.5733 94.6399 17.9274 94.7972 18.2674C94.9544 18.6002 95.1651 18.9119 95.4293 19.2022C95.6934 19.4926 96.0204 19.7476 96.4104 19.9672C96.8003 20.1796 97.2626 20.3496 97.7972 20.4771C98.3318 20.5975 98.9513 20.6577 99.6557 20.6577C100.706 20.6577 101.571 20.5231 102.25 20.254C102.929 19.9849 103.464 19.6343 103.854 19.2022C104.25 18.7702 104.524 18.2851 104.675 17.7468C104.832 17.2014 104.91 16.6561 104.91 16.1107Z" fill="white"/>
<path d="M111.637 23.3987V8.80152H115.137V20.2009H124.599V23.3987H111.637Z" fill="white"/>
<path d="M25.4549 20.9233C25.4549 21.4899 25.3888 21.9822 25.2568 22.4C25.1247 22.8179 24.9392 23.1791 24.7002 23.4837C24.4675 23.7811 24.1844 24.0255 23.8511 24.2167C23.5241 24.4008 23.1593 24.5496 22.7568 24.6629C22.3605 24.7691 21.936 24.8435 21.4832 24.886C21.0304 24.9285 20.5618 24.9497 20.0775 24.9497H10.6719V10.3526H19.9077C20.2788 10.3526 20.6499 10.3703 21.0209 10.4057C21.3983 10.4411 21.7568 10.5084 22.0964 10.6076C22.436 10.6996 22.7505 10.8307 23.0398 11.0007C23.3354 11.1706 23.5901 11.3937 23.8039 11.67C24.0241 11.9462 24.1939 12.2791 24.3134 12.6686C24.4392 13.0581 24.5021 13.5185 24.5021 14.0497C24.5021 14.9988 24.2945 15.753 23.8794 16.3126C23.4643 16.865 22.8102 17.2333 21.9172 17.4174C22.5461 17.467 23.0838 17.5768 23.5304 17.7468C23.9832 17.9097 24.3511 18.1363 24.6341 18.4267C24.9172 18.71 25.1247 19.0606 25.2568 19.4785C25.3888 19.8893 25.4549 20.3709 25.4549 20.9233ZM21.087 14.6765C21.087 14.4924 21.0618 14.3188 21.0115 14.1559C20.9612 13.9859 20.87 13.8372 20.7379 13.7097C20.6058 13.5822 20.4266 13.4795 20.2002 13.4016C19.9738 13.3237 19.6844 13.2848 19.3322 13.2848H14.1719V16.0257H19.3322C19.6844 16.0257 19.9738 15.9903 20.2002 15.9195C20.4266 15.8487 20.6058 15.753 20.7379 15.6326C20.87 15.5122 20.9612 15.3706 21.0115 15.2077C21.0618 15.0377 21.087 14.8606 21.087 14.6765ZM21.8983 20.4665C21.8983 20.1336 21.848 19.868 21.7473 19.6697C21.6467 19.4643 21.4895 19.3085 21.2756 19.2022C21.0618 19.0889 20.7851 19.0146 20.4455 18.9791C20.1058 18.9437 19.7002 18.926 19.2285 18.926H14.1719V22.0176H19.2285C19.7002 22.0176 20.1058 21.9999 20.4455 21.9644C20.7851 21.929 21.0618 21.8547 21.2756 21.7413C21.4895 21.628 21.6467 21.4722 21.7473 21.2739C21.848 21.0685 21.8983 20.7994 21.8983 20.4665Z" stroke="#3A3A3A" mask="url(#path-2-outside-1_515_9433)"/>
<path d="M28.653 24.9497V10.3526H41.7756V13.4654H32.2473V15.877H41.2851V18.9898H32.2473V21.837H41.9077V24.9497H28.653Z" stroke="#3A3A3A" mask="url(#path-2-outside-1_515_9433)"/>
<path d="M66.8417 23.9511C66.3888 24.1636 65.9329 24.3548 65.4737 24.5248C65.0146 24.6948 64.5398 24.84 64.0492 24.9604C63.5586 25.0878 63.0398 25.1835 62.4926 25.2472C61.9517 25.3109 61.37 25.3428 60.7473 25.3428C59.4266 25.3428 58.2096 25.1835 57.0964 24.8647C55.9895 24.546 55.0335 24.068 54.2285 23.4305C53.4297 22.786 52.8071 21.9857 52.3605 21.0295C51.914 20.0663 51.6907 18.9437 51.6907 17.6618C51.6907 16.3799 51.914 15.2608 52.3605 14.3047C52.8071 13.3414 53.4297 12.5411 54.2285 11.9037C55.0335 11.2592 55.9895 10.7776 57.0964 10.4588C58.2096 10.1401 59.4266 9.98077 60.7473 9.98077C61.37 9.98077 61.9517 10.0126 62.4926 10.0764C63.0398 10.1401 63.5586 10.2357 64.0492 10.3632C64.5398 10.4836 65.0146 10.6288 65.4737 10.7988C65.9329 10.9688 66.3888 11.16 66.8417 11.3725V14.9208C66.4832 14.7013 66.1058 14.4853 65.7096 14.2728C65.3134 14.0532 64.8763 13.8585 64.3983 13.6885C63.9203 13.5114 63.3951 13.3698 62.8228 13.2635C62.2505 13.1502 61.6058 13.0935 60.8888 13.0935C59.7882 13.0935 58.8731 13.221 58.1436 13.476C57.4203 13.731 56.8417 14.0709 56.4077 14.4959C55.9737 14.9208 55.6687 15.4095 55.4926 15.962C55.3165 16.5073 55.2285 17.0739 55.2285 17.6618C55.2285 18.0513 55.2662 18.4373 55.3417 18.8198C55.4171 19.1952 55.5429 19.5528 55.719 19.8928C55.8951 20.2257 56.1247 20.5338 56.4077 20.8171C56.6907 21.1004 57.0429 21.3447 57.4643 21.5501C57.8857 21.7555 58.3763 21.9184 58.936 22.0388C59.502 22.1521 60.153 22.2088 60.8888 22.2088C61.6058 22.2088 62.2505 22.1592 62.8228 22.0601C63.3951 21.9538 63.9203 21.8157 64.3983 21.6457C64.8763 21.4757 65.3134 21.2845 65.7096 21.072C66.1058 20.8525 66.4832 20.6294 66.8417 20.4027V23.9511Z" stroke="#3A3A3A" mask="url(#path-2-outside-1_515_9433)"/>
<path d="M86.8794 17.6618C86.8794 18.9154 86.675 20.0238 86.2662 20.9871C85.8574 21.9432 85.2725 22.7435 84.5115 23.388C83.7505 24.0325 82.8259 24.5212 81.7379 24.8541C80.6561 25.1799 79.4391 25.3428 78.0869 25.3428C76.7347 25.3428 75.5115 25.1799 74.4171 24.8541C73.3291 24.5212 72.4014 24.0325 71.6341 23.388C70.8668 22.7435 70.2756 21.9432 69.8605 20.9871C69.4454 20.0238 69.2379 18.9154 69.2379 17.6618C69.2379 16.4082 69.4454 15.3033 69.8605 14.3472C70.2756 13.3839 70.8668 12.5801 71.6341 11.9356C72.4014 11.291 73.3291 10.8059 74.4171 10.4801C75.5115 10.1472 76.7347 9.98077 78.0869 9.98077C79.4391 9.98077 80.6561 10.1472 81.7379 10.4801C82.8259 10.8059 83.7505 11.291 84.5115 11.9356C85.2725 12.5801 85.8574 13.3839 86.2662 14.3472C86.675 15.3033 86.8794 16.4082 86.8794 17.6618ZM83.3417 17.6618C83.3417 17.1164 83.263 16.5746 83.1058 16.0363C82.9549 15.491 82.6813 15.0023 82.2851 14.5703C81.8951 14.1382 81.3605 13.7876 80.6813 13.5185C80.002 13.2494 79.1373 13.1148 78.0869 13.1148C77.3825 13.1148 76.763 13.1785 76.2285 13.306C75.6939 13.4264 75.2316 13.5964 74.8417 13.816C74.4517 14.0355 74.1247 14.294 73.8605 14.5915C73.5964 14.8819 73.3857 15.1971 73.2285 15.537C73.0712 15.8699 72.958 16.2205 72.8888 16.5888C72.8259 16.95 72.7945 17.3077 72.7945 17.6618C72.7945 18.023 72.8259 18.3878 72.8888 18.756C72.958 19.1243 73.0712 19.4785 73.2285 19.8184C73.3857 20.1513 73.5964 20.4629 73.8605 20.7533C74.1247 21.0437 74.4517 21.2987 74.8417 21.5182C75.2316 21.7307 75.6939 21.9007 76.2285 22.0282C76.763 22.1486 77.3825 22.2088 78.0869 22.2088C79.1373 22.2088 80.002 22.0742 80.6813 21.8051C81.3605 21.5359 81.8951 21.1854 82.2851 20.7533C82.6813 20.3213 82.9549 19.8361 83.1058 19.2979C83.263 18.7525 83.3417 18.2072 83.3417 17.6618Z" stroke="#3A3A3A" mask="url(#path-2-outside-1_515_9433)"/>
<path d="M106.842 17.6618C106.842 18.9154 106.637 20.0238 106.228 20.9871C105.82 21.9432 105.235 22.7435 104.474 23.388C103.713 24.0325 102.788 24.5212 101.7 24.8541C100.618 25.1799 99.4014 25.3428 98.0492 25.3428C96.697 25.3428 95.4737 25.1799 94.3794 24.8541C93.2913 24.5212 92.3637 24.0325 91.5964 23.388C90.8291 22.7435 90.2379 21.9432 89.8228 20.9871C89.4077 20.0238 89.2001 18.9154 89.2001 17.6618C89.2001 16.4082 89.4077 15.3033 89.8228 14.3472C90.2379 13.3839 90.8291 12.5801 91.5964 11.9356C92.3637 11.291 93.2913 10.8059 94.3794 10.4801C95.4737 10.1472 96.697 9.98077 98.0492 9.98077C99.4014 9.98077 100.618 10.1472 101.7 10.4801C102.788 10.8059 103.713 11.291 104.474 11.9356C105.235 12.5801 105.82 13.3839 106.228 14.3472C106.637 15.3033 106.842 16.4082 106.842 17.6618ZM103.304 17.6618C103.304 17.1164 103.225 16.5746 103.068 16.0363C102.917 15.491 102.644 15.0023 102.247 14.5703C101.857 14.1382 101.323 13.7876 100.644 13.5185C99.9643 13.2494 99.0995 13.1148 98.0492 13.1148C97.3448 13.1148 96.7253 13.1785 96.1907 13.306C95.6561 13.4264 95.1939 13.5964 94.8039 13.816C94.414 14.0355 94.0869 14.294 93.8228 14.5915C93.5586 14.8819 93.3479 15.1971 93.1907 15.537C93.0335 15.8699 92.9203 16.2205 92.8511 16.5888C92.7882 16.95 92.7567 17.3077 92.7567 17.6618C92.7567 18.023 92.7882 18.3878 92.8511 18.756C92.9203 19.1243 93.0335 19.4785 93.1907 19.8184C93.3479 20.1513 93.5586 20.4629 93.8228 20.7533C94.0869 21.0437 94.414 21.2987 94.8039 21.5182C95.1939 21.7307 95.6561 21.9007 96.1907 22.0282C96.7253 22.1486 97.3448 22.2088 98.0492 22.2088C99.0995 22.2088 99.9643 22.0742 100.644 21.8051C101.323 21.5359 101.857 21.1854 102.247 20.7533C102.644 20.3213 102.917 19.8361 103.068 19.2979C103.225 18.7525 103.304 18.2072 103.304 17.6618Z" stroke="#3A3A3A" mask="url(#path-2-outside-1_515_9433)"/>
<path d="M110.03 24.9497V10.3526H113.53V21.752H122.993V24.9497H110.03Z" stroke="#3A3A3A" mask="url(#path-2-outside-1_515_9433)"/>
<path d="M27.0614 19.3722C27.0614 19.9388 26.9953 20.4311 26.8632 20.8489C26.7312 21.2668 26.5456 21.628 26.3066 21.9326C26.0739 22.23 25.7909 22.4744 25.4576 22.6656C25.1305 22.8498 24.7658 22.9985 24.3632 23.1118C23.967 23.2181 23.5425 23.2924 23.0897 23.3349C22.6368 23.3774 22.1683 23.3987 21.684 23.3987H12.2783V8.80152L21.5142 8.80152C21.8853 8.80152 22.2563 8.81923 22.6274 8.85464C23.0048 8.89005 23.3632 8.95734 23.7029 9.05649C24.0425 9.14857 24.357 9.27959 24.6463 9.44957C24.9419 9.61956 25.1966 9.84266 25.4104 10.1189C25.6305 10.3951 25.8004 10.728 25.9198 11.1175C26.0456 11.5071 26.1085 11.9674 26.1085 12.4986C26.1085 13.4477 25.901 14.202 25.4859 14.7615C25.0708 15.3139 24.4167 15.6822 23.5236 15.8664C24.1526 15.9159 24.6903 16.0257 25.1368 16.1957C25.5897 16.3586 25.9576 16.5852 26.2406 16.8756C26.5236 17.1589 26.7312 17.5095 26.8632 17.9274C26.9953 18.3382 27.0614 18.8198 27.0614 19.3722ZM22.6934 13.1254C22.6934 12.9413 22.6683 12.7678 22.618 12.6049C22.5676 12.4349 22.4765 12.2861 22.3444 12.1587C22.2123 12.0312 22.0331 11.9285 21.8066 11.8506C21.5802 11.7727 21.2909 11.7337 20.9387 11.7337H15.7783V14.4746H20.9387C21.2909 14.4746 21.5802 14.4392 21.8066 14.3684C22.0331 14.2976 22.2123 14.202 22.3444 14.0816C22.4765 13.9612 22.5676 13.8195 22.618 13.6566C22.6683 13.4866 22.6934 13.3096 22.6934 13.1254ZM23.5048 18.9154C23.5048 18.5825 23.4544 18.3169 23.3538 18.1186C23.2532 17.9132 23.0959 17.7574 22.8821 17.6512C22.6683 17.5378 22.3915 17.4635 22.0519 17.4281C21.7123 17.3927 21.3066 17.375 20.8349 17.375H15.7783V20.4665H20.8349C21.3066 20.4665 21.7123 20.4488 22.0519 20.4134C22.3915 20.378 22.6683 20.3036 22.8821 20.1903C23.0959 20.0769 23.2532 19.9211 23.3538 19.7228C23.4544 19.5174 23.5048 19.2483 23.5048 18.9154Z" stroke="#3A3A3A" mask="url(#path-2-outside-1_515_9433)"/>
<path d="M30.2595 23.3987V8.80152H43.3821V11.9143H33.8538V14.3259L42.8915 14.3259V17.4387H33.8538V20.2859H43.5142V23.3987H30.2595Z" stroke="#3A3A3A" mask="url(#path-2-outside-1_515_9433)"/>
<path d="M68.4481 22.4C67.9953 22.6125 67.5393 22.8037 67.0802 22.9737C66.6211 23.1437 66.1462 23.2889 65.6557 23.4093C65.1651 23.5368 64.6462 23.6324 64.0991 23.6961C63.5582 23.7599 62.9764 23.7917 62.3538 23.7917C61.033 23.7917 59.8161 23.6324 58.7029 23.3137C57.5959 22.995 56.64 22.5169 55.8349 21.8795C55.0362 21.2349 54.4135 20.4346 53.967 19.4785C53.5205 18.5152 53.2972 17.3927 53.2972 16.1107C53.2972 14.8288 53.5205 13.7097 53.967 12.7536C54.4135 11.7904 55.0362 10.99 55.8349 10.3526C56.64 9.70809 57.5959 9.22647 58.7029 8.90776C59.8161 8.58904 61.033 8.42969 62.3538 8.42969C62.9764 8.42969 63.5582 8.46156 64.0991 8.5253C64.6462 8.58904 65.1651 8.68466 65.6557 8.81215C66.1462 8.93255 66.6211 9.07774 67.0802 9.24772C67.5393 9.4177 67.9953 9.60893 68.4481 9.82141V13.3698C68.0896 13.1502 67.7123 12.9342 67.3161 12.7217C66.9198 12.5022 66.4827 12.3074 66.0047 12.1374C65.5267 11.9603 65.0016 11.8187 64.4293 11.7125C63.8569 11.5991 63.2123 11.5425 62.4953 11.5425C61.3947 11.5425 60.4796 11.67 59.75 11.9249C59.0268 12.1799 58.4481 12.5199 58.0142 12.9448C57.5802 13.3698 57.2752 13.8585 57.0991 14.4109C56.923 14.9563 56.8349 15.5229 56.8349 16.1107C56.8349 16.5003 56.8727 16.8863 56.9481 17.2687C57.0236 17.6441 57.1494 18.0018 57.3255 18.3417C57.5016 18.6746 57.7312 18.9827 58.0142 19.266C58.2972 19.5493 58.6494 19.7936 59.0708 19.999C59.4922 20.2044 59.9827 20.3673 60.5425 20.4877C61.1085 20.6011 61.7595 20.6577 62.4953 20.6577C63.2123 20.6577 63.8569 20.6081 64.4293 20.509C65.0016 20.4027 65.5267 20.2646 66.0047 20.0947C66.4827 19.9247 66.9198 19.7334 67.3161 19.521C67.7123 19.3014 68.0896 19.0783 68.4481 18.8517V22.4Z" stroke="#3A3A3A" mask="url(#path-2-outside-1_515_9433)"/>
<path d="M88.4859 16.1107C88.4859 17.3643 88.2815 18.4727 87.8727 19.436C87.4638 20.3921 86.8789 21.1924 86.1179 21.837C85.3569 22.4815 84.4324 22.9702 83.3444 23.303C82.2626 23.6288 81.0456 23.7917 79.6934 23.7917C78.3412 23.7917 77.1179 23.6288 76.0236 23.303C74.9355 22.9702 74.0079 22.4815 73.2406 21.837C72.4733 21.1924 71.8821 20.3921 71.467 19.436C71.0519 18.4727 70.8444 17.3643 70.8444 16.1107C70.8444 14.8571 71.0519 13.7522 71.467 12.7961C71.8821 11.8329 72.4733 11.029 73.2406 10.3845C74.0079 9.73996 74.9355 9.2548 76.0236 8.92901C77.1179 8.59613 78.3412 8.42969 79.6934 8.42969C81.0456 8.42969 82.2626 8.59613 83.3444 8.92901C84.4324 9.2548 85.3569 9.73996 86.1179 10.3845C86.8789 11.029 87.4638 11.8329 87.8727 12.7961C88.2815 13.7522 88.4859 14.8571 88.4859 16.1107ZM84.9481 16.1107C84.9481 15.5654 84.8695 15.0235 84.7123 14.4853C84.5613 13.9399 84.2877 13.4512 83.8915 13.0192C83.5016 12.5871 82.967 12.2366 82.2877 11.9674C81.6085 11.6983 80.7437 11.5637 79.6934 11.5637C78.989 11.5637 78.3695 11.6275 77.8349 11.7549C77.3003 11.8753 76.8381 12.0453 76.4481 12.2649C76.0582 12.4844 75.7311 12.743 75.467 13.0404C75.2028 13.3308 74.9922 13.646 74.8349 13.9859C74.6777 14.3188 74.5645 14.6694 74.4953 15.0377C74.4324 15.3989 74.401 15.7566 74.401 16.1107C74.401 16.4719 74.4324 16.8367 74.4953 17.205C74.5645 17.5733 74.6777 17.9274 74.8349 18.2674C74.9922 18.6002 75.2028 18.9119 75.467 19.2022C75.7311 19.4926 76.0582 19.7476 76.4481 19.9672C76.8381 20.1796 77.3003 20.3496 77.8349 20.4771C78.3695 20.5975 78.989 20.6577 79.6934 20.6577C80.7437 20.6577 81.6085 20.5231 82.2877 20.254C82.967 19.9849 83.5016 19.6343 83.8915 19.2022C84.2877 18.7702 84.5613 18.2851 84.7123 17.7468C84.8695 17.2014 84.9481 16.6561 84.9481 16.1107Z" stroke="#3A3A3A" mask="url(#path-2-outside-1_515_9433)"/>
<path d="M108.448 16.1107C108.448 17.3643 108.244 18.4727 107.835 19.436C107.426 20.3921 106.841 21.1924 106.08 21.837C105.319 22.4815 104.395 22.9702 103.307 23.303C102.225 23.6288 101.008 23.7917 99.6557 23.7917C98.3035 23.7917 97.0802 23.6288 95.9859 23.303C94.8978 22.9702 93.9701 22.4815 93.2028 21.837C92.4355 21.1924 91.8443 20.3921 91.4293 19.436C91.0142 18.4727 90.8066 17.3643 90.8066 16.1107C90.8066 14.8571 91.0142 13.7522 91.4293 12.7961C91.8443 11.8329 92.4355 11.029 93.2028 10.3845C93.9701 9.73996 94.8978 9.2548 95.9859 8.92901C97.0802 8.59613 98.3035 8.42969 99.6557 8.42969C101.008 8.42969 102.225 8.59613 103.307 8.92901C104.395 9.2548 105.319 9.73996 106.08 10.3845C106.841 11.029 107.426 11.8329 107.835 12.7961C108.244 13.7522 108.448 14.8571 108.448 16.1107ZM104.91 16.1107C104.91 15.5654 104.832 15.0235 104.675 14.4853C104.524 13.9399 104.25 13.4512 103.854 13.0192C103.464 12.5871 102.929 12.2366 102.25 11.9674C101.571 11.6983 100.706 11.5637 99.6557 11.5637C98.9513 11.5637 98.3318 11.6275 97.7972 11.7549C97.2626 11.8753 96.8003 12.0453 96.4104 12.2649C96.0204 12.4844 95.6934 12.743 95.4293 13.0404C95.1651 13.3308 94.9544 13.646 94.7972 13.9859C94.6399 14.3188 94.5267 14.6694 94.4576 15.0377C94.3947 15.3989 94.3632 15.7566 94.3632 16.1107C94.3632 16.4719 94.3947 16.8367 94.4576 17.205C94.5267 17.5733 94.6399 17.9274 94.7972 18.2674C94.9544 18.6002 95.1651 18.9119 95.4293 19.2022C95.6934 19.4926 96.0204 19.7476 96.4104 19.9672C96.8003 20.1796 97.2626 20.3496 97.7972 20.4771C98.3318 20.5975 98.9513 20.6577 99.6557 20.6577C100.706 20.6577 101.571 20.5231 102.25 20.254C102.929 19.9849 103.464 19.6343 103.854 19.2022C104.25 18.7702 104.524 18.2851 104.675 17.7468C104.832 17.2014 104.91 16.6561 104.91 16.1107Z" stroke="#3A3A3A" mask="url(#path-2-outside-1_515_9433)"/>
<path d="M111.637 23.3987V8.80152H115.137V20.2009H124.599V23.3987H111.637Z" stroke="#3A3A3A" mask="url(#path-2-outside-1_515_9433)"/>
<mask id="path-3-outside-2_515_9433" maskUnits="userSpaceOnUse" x="9.36328" y="30.7793" width="119" height="19" fill="black">
<rect fill="white" x="9.36328" y="30.7793" width="119" height="19"/>
<path d="M25.1463 44.2729C25.1463 44.8395 25.0803 45.3318 24.9482 45.7496C24.8161 46.1675 24.6306 46.5287 24.3916 46.8333C24.1589 47.1307 23.8759 47.3751 23.5425 47.5663C23.2155 47.7505 22.8507 47.8992 22.4482 48.0125C22.052 48.1187 21.6274 48.1931 21.1746 48.2356C20.7218 48.2781 20.2532 48.2993 19.7689 48.2993H10.3633V33.7022H19.5991C19.9702 33.7022 20.3413 33.7199 20.7123 33.7553C21.0897 33.7907 21.4482 33.858 21.7878 33.9572C22.1274 34.0493 22.4419 34.1803 22.7312 34.3503C23.0268 34.5202 23.2815 34.7433 23.4954 35.0196C23.7155 35.2958 23.8853 35.6287 24.0048 36.0182C24.1306 36.4077 24.1935 36.8681 24.1935 37.3993C24.1935 38.3484 23.9859 39.1027 23.5708 39.6622C23.1557 40.2146 22.5016 40.5829 21.6086 40.7671C22.2375 40.8166 22.7752 40.9264 23.2218 41.0964C23.6746 41.2593 24.0425 41.4859 24.3255 41.7763C24.6086 42.0596 24.8161 42.4102 24.9482 42.8281C25.0803 43.2389 25.1463 43.7205 25.1463 44.2729ZM20.7784 38.0261C20.7784 37.842 20.7532 37.6684 20.7029 37.5055C20.6526 37.3356 20.5614 37.1868 20.4293 37.0593C20.2972 36.9319 20.118 36.8292 19.8916 36.7512C19.6652 36.6733 19.3759 36.6344 19.0237 36.6344H13.8633V39.3753H19.0237C19.3759 39.3753 19.6652 39.3399 19.8916 39.2691C20.118 39.1983 20.2972 39.1027 20.4293 38.9823C20.5614 38.8618 20.6526 38.7202 20.7029 38.5573C20.7532 38.3873 20.7784 38.2103 20.7784 38.0261ZM21.5897 43.8161C21.5897 43.4832 21.5394 43.2176 21.4387 43.0193C21.3381 42.8139 21.1809 42.6581 20.9671 42.5519C20.7532 42.4385 20.4765 42.3642 20.1369 42.3288C19.7972 42.2933 19.3916 42.2756 18.9199 42.2756H13.8633V45.3672H18.9199C19.3916 45.3672 19.7972 45.3495 20.1369 45.3141C20.4765 45.2786 20.7532 45.2043 20.9671 45.091C21.1809 44.9776 21.3381 44.8218 21.4387 44.6235C21.5394 44.4181 21.5897 44.149 21.5897 43.8161Z"/>
<path d="M28.3444 48.2993V33.7022H41.467V36.815H31.9387V39.2266H40.9765V42.3394H31.9387V45.1866H41.5991V48.2993H28.3444Z"/>
<path d="M66.5331 47.3007C66.0802 47.5132 65.6243 47.7044 65.1651 47.8744C64.706 48.0444 64.2312 48.1896 63.7406 48.31C63.2501 48.4375 62.7312 48.5331 62.184 48.5968C61.6431 48.6606 61.0614 48.6924 60.4387 48.6924C59.118 48.6924 57.901 48.5331 56.7878 48.2144C55.6809 47.8956 54.7249 47.4176 53.9199 46.7801C53.1211 46.1356 52.4985 45.3353 52.0519 44.3792C51.6054 43.4159 51.3821 42.2933 51.3821 41.0114C51.3821 39.7295 51.6054 38.6104 52.0519 37.6543C52.4985 36.691 53.1211 35.8907 53.9199 35.2533C54.7249 34.6088 55.6809 34.1272 56.7878 33.8084C57.901 33.4897 59.118 33.3304 60.4387 33.3304C61.0614 33.3304 61.6431 33.3622 62.184 33.426C62.7312 33.4897 63.2501 33.5853 63.7406 33.7128C64.2312 33.8332 64.706 33.9784 65.1651 34.1484C65.6243 34.3184 66.0802 34.5096 66.5331 34.7221V38.2705C66.1746 38.0509 65.7972 37.8349 65.401 37.6224C65.0048 37.4028 64.5677 37.2081 64.0897 37.0381C63.6117 36.861 63.0865 36.7194 62.5142 36.6131C61.9419 36.4998 61.2972 36.4432 60.5802 36.4432C59.4796 36.4432 58.5645 36.5706 57.835 36.8256C57.1117 37.0806 56.5331 37.4205 56.0991 37.8455C55.6651 38.2705 55.3601 38.7592 55.184 39.3116C55.0079 39.8569 54.9199 40.4236 54.9199 41.0114C54.9199 41.4009 54.9576 41.7869 55.0331 42.1694C55.1085 42.5448 55.2343 42.9024 55.4104 43.2424C55.5865 43.5753 55.8161 43.8834 56.0991 44.1667C56.3821 44.45 56.7343 44.6943 57.1557 44.8997C57.5771 45.1051 58.0677 45.268 58.6274 45.3884C59.1934 45.5017 59.8444 45.5584 60.5802 45.5584C61.2972 45.5584 61.9419 45.5088 62.5142 45.4097C63.0865 45.3034 63.6117 45.1653 64.0897 44.9953C64.5677 44.8254 65.0048 44.6341 65.401 44.4217C65.7972 44.2021 66.1746 43.979 66.5331 43.7523V47.3007Z"/>
<path d="M82.2029 48.2993V42.2119H73.2972V48.2993H69.7972V33.7022H73.2972V39.0141H82.2029V33.7022H85.7029V48.2993H82.2029Z"/>
<path d="M89.7595 48.2993V33.7022H93.2595V48.2993H89.7595Z"/>
<path d="M97.3255 48.2993V33.7022H100.826V45.1016H110.288V48.2993H97.3255Z"/>
<path d="M113.099 48.2993V33.7022H116.599V45.1016H126.061V48.2993H113.099Z"/>
<path d="M26.7528 42.7218C26.7528 43.2884 26.6867 43.7807 26.5546 44.1986C26.4226 44.6164 26.237 44.9776 25.998 45.2822C25.7653 45.5796 25.4823 45.824 25.149 46.0152C24.8219 46.1994 24.4572 46.3481 24.0547 46.4614C23.6584 46.5677 23.2339 46.642 22.7811 46.6845C22.3282 46.727 21.8597 46.7483 21.3754 46.7483H11.9697V32.1511H21.2056C21.5767 32.1511 21.9477 32.1688 22.3188 32.2042C22.6962 32.2397 23.0547 32.3069 23.3943 32.4061C23.7339 32.4982 24.0484 32.6292 24.3377 32.7992C24.6333 32.9692 24.888 33.1923 25.1018 33.4685C25.3219 33.7447 25.4918 34.0776 25.6113 34.4671C25.737 34.8567 25.7999 35.317 25.7999 35.8482C25.7999 36.7973 25.5924 37.5516 25.1773 38.1111C24.7622 38.6635 24.1081 39.0318 23.215 39.216C23.844 39.2656 24.3817 39.3753 24.8282 39.5453C25.2811 39.7082 25.649 39.9349 25.932 40.2252C26.215 40.5085 26.4226 40.8591 26.5546 41.277C26.6867 41.6878 26.7528 42.1694 26.7528 42.7218ZM22.3848 36.475C22.3848 36.2909 22.3597 36.1174 22.3094 35.9545C22.2591 35.7845 22.1679 35.6357 22.0358 35.5083C21.9037 35.3808 21.7245 35.2781 21.498 35.2002C21.2716 35.1223 20.9823 35.0833 20.6301 35.0833H15.4697V37.8243H20.6301C20.9823 37.8243 21.2716 37.7888 21.498 37.718C21.7245 37.6472 21.9037 37.5516 22.0358 37.4312C22.1679 37.3108 22.2591 37.1691 22.3094 37.0062C22.3597 36.8362 22.3848 36.6592 22.3848 36.475ZM23.1962 42.265C23.1962 41.9321 23.1458 41.6665 23.0452 41.4682C22.9446 41.2628 22.7874 41.107 22.5735 41.0008C22.3597 40.8875 22.083 40.8131 21.7433 40.7777C21.4037 40.7423 20.998 40.7246 20.5263 40.7246H15.4697V43.8161H20.5263C20.998 43.8161 21.4037 43.7984 21.7433 43.763C22.083 43.7276 22.3597 43.6532 22.5735 43.5399C22.7874 43.4266 22.9446 43.2707 23.0452 43.0724C23.1458 42.867 23.1962 42.5979 23.1962 42.265Z"/>
<path d="M29.9509 46.7483V32.1511H43.0735V35.2639H33.5452V37.6755H42.5829V40.7883H33.5452V43.6355H43.2056V46.7483H29.9509Z"/>
<path d="M68.1395 45.7496C67.6867 45.9621 67.2307 46.1533 66.7716 46.3233C66.3125 46.4933 65.8377 46.6385 65.3471 46.7589C64.8565 46.8864 64.3377 46.982 63.7905 47.0457C63.2496 47.1095 62.6678 47.1414 62.0452 47.1414C60.7244 47.1414 59.5075 46.982 58.3943 46.6633C57.2873 46.3446 56.3314 45.8665 55.5263 45.2291C54.7276 44.5845 54.105 43.7842 53.6584 42.8281C53.2119 41.8648 52.9886 40.7423 52.9886 39.4603C52.9886 38.1784 53.2119 37.0593 53.6584 36.1032C54.105 35.14 54.7276 34.3396 55.5263 33.7022C56.3314 33.0577 57.2873 32.5761 58.3943 32.2574C59.5075 31.9387 60.7244 31.7793 62.0452 31.7793C62.6678 31.7793 63.2496 31.8112 63.7905 31.8749C64.3377 31.9387 64.8565 32.0343 65.3471 32.1618C65.8377 32.2822 66.3125 32.4274 66.7716 32.5973C67.2307 32.7673 67.6867 32.9585 68.1395 33.171V36.7194C67.781 36.4998 67.4037 36.2838 67.0075 36.0713C66.6112 35.8518 66.1741 35.657 65.6961 35.487C65.2182 35.3099 64.693 35.1683 64.1207 35.0621C63.5483 34.9487 62.9037 34.8921 62.1867 34.8921C61.0861 34.8921 60.171 35.0196 59.4414 35.2745C58.7182 35.5295 58.1395 35.8695 57.7056 36.2944C57.2716 36.7194 56.9666 37.2081 56.7905 37.7605C56.6144 38.3059 56.5263 38.8725 56.5263 39.4603C56.5263 39.8499 56.5641 40.2359 56.6395 40.6183C56.715 40.9937 56.8408 41.3514 57.0169 41.6913C57.193 42.0242 57.4226 42.3323 57.7056 42.6156C57.9886 42.8989 58.3408 43.1433 58.7622 43.3486C59.1836 43.554 59.6741 43.7169 60.2339 43.8373C60.7999 43.9507 61.4509 44.0073 62.1867 44.0073C62.9037 44.0073 63.5483 43.9577 64.1207 43.8586C64.693 43.7523 65.2182 43.6142 65.6961 43.4443C66.1741 43.2743 66.6112 43.083 67.0075 42.8706C67.4037 42.651 67.781 42.4279 68.1395 42.2013V45.7496Z"/>
<path d="M83.8093 46.7483V40.6608H74.9037V46.7483H71.4037V32.1511H74.9037V37.463H83.8093V32.1511H87.3093V46.7483H83.8093Z"/>
<path d="M91.3659 46.7483V32.1511H94.8659V46.7483H91.3659Z"/>
<path d="M98.932 46.7483V32.1511H102.432V43.5505H111.894V46.7483H98.932Z"/>
<path d="M114.706 46.7483V32.1511H118.206V43.5505H127.668V46.7483H114.706Z"/>
</mask>
<path d="M25.1463 44.2729C25.1463 44.8395 25.0803 45.3318 24.9482 45.7496C24.8161 46.1675 24.6306 46.5287 24.3916 46.8333C24.1589 47.1307 23.8759 47.3751 23.5425 47.5663C23.2155 47.7505 22.8507 47.8992 22.4482 48.0125C22.052 48.1187 21.6274 48.1931 21.1746 48.2356C20.7218 48.2781 20.2532 48.2993 19.7689 48.2993H10.3633V33.7022H19.5991C19.9702 33.7022 20.3413 33.7199 20.7123 33.7553C21.0897 33.7907 21.4482 33.858 21.7878 33.9572C22.1274 34.0493 22.4419 34.1803 22.7312 34.3503C23.0268 34.5202 23.2815 34.7433 23.4954 35.0196C23.7155 35.2958 23.8853 35.6287 24.0048 36.0182C24.1306 36.4077 24.1935 36.8681 24.1935 37.3993C24.1935 38.3484 23.9859 39.1027 23.5708 39.6622C23.1557 40.2146 22.5016 40.5829 21.6086 40.7671C22.2375 40.8166 22.7752 40.9264 23.2218 41.0964C23.6746 41.2593 24.0425 41.4859 24.3255 41.7763C24.6086 42.0596 24.8161 42.4102 24.9482 42.8281C25.0803 43.2389 25.1463 43.7205 25.1463 44.2729ZM20.7784 38.0261C20.7784 37.842 20.7532 37.6684 20.7029 37.5055C20.6526 37.3356 20.5614 37.1868 20.4293 37.0593C20.2972 36.9319 20.118 36.8292 19.8916 36.7512C19.6652 36.6733 19.3759 36.6344 19.0237 36.6344H13.8633V39.3753H19.0237C19.3759 39.3753 19.6652 39.3399 19.8916 39.2691C20.118 39.1983 20.2972 39.1027 20.4293 38.9823C20.5614 38.8618 20.6526 38.7202 20.7029 38.5573C20.7532 38.3873 20.7784 38.2103 20.7784 38.0261ZM21.5897 43.8161C21.5897 43.4832 21.5394 43.2176 21.4387 43.0193C21.3381 42.8139 21.1809 42.6581 20.9671 42.5519C20.7532 42.4385 20.4765 42.3642 20.1369 42.3288C19.7972 42.2933 19.3916 42.2756 18.9199 42.2756H13.8633V45.3672H18.9199C19.3916 45.3672 19.7972 45.3495 20.1369 45.3141C20.4765 45.2786 20.7532 45.2043 20.9671 45.091C21.1809 44.9776 21.3381 44.8218 21.4387 44.6235C21.5394 44.4181 21.5897 44.149 21.5897 43.8161Z" fill="#3A3A3A"/>
<path d="M28.3444 48.2993V33.7022H41.467V36.815H31.9387V39.2266H40.9765V42.3394H31.9387V45.1866H41.5991V48.2993H28.3444Z" fill="#3A3A3A"/>
<path d="M66.5331 47.3007C66.0802 47.5132 65.6243 47.7044 65.1651 47.8744C64.706 48.0444 64.2312 48.1896 63.7406 48.31C63.2501 48.4375 62.7312 48.5331 62.184 48.5968C61.6431 48.6606 61.0614 48.6924 60.4387 48.6924C59.118 48.6924 57.901 48.5331 56.7878 48.2144C55.6809 47.8956 54.7249 47.4176 53.9199 46.7801C53.1211 46.1356 52.4985 45.3353 52.0519 44.3792C51.6054 43.4159 51.3821 42.2933 51.3821 41.0114C51.3821 39.7295 51.6054 38.6104 52.0519 37.6543C52.4985 36.691 53.1211 35.8907 53.9199 35.2533C54.7249 34.6088 55.6809 34.1272 56.7878 33.8084C57.901 33.4897 59.118 33.3304 60.4387 33.3304C61.0614 33.3304 61.6431 33.3622 62.184 33.426C62.7312 33.4897 63.2501 33.5853 63.7406 33.7128C64.2312 33.8332 64.706 33.9784 65.1651 34.1484C65.6243 34.3184 66.0802 34.5096 66.5331 34.7221V38.2705C66.1746 38.0509 65.7972 37.8349 65.401 37.6224C65.0048 37.4028 64.5677 37.2081 64.0897 37.0381C63.6117 36.861 63.0865 36.7194 62.5142 36.6131C61.9419 36.4998 61.2972 36.4432 60.5802 36.4432C59.4796 36.4432 58.5645 36.5706 57.835 36.8256C57.1117 37.0806 56.5331 37.4205 56.0991 37.8455C55.6651 38.2705 55.3601 38.7592 55.184 39.3116C55.0079 39.8569 54.9199 40.4236 54.9199 41.0114C54.9199 41.4009 54.9576 41.7869 55.0331 42.1694C55.1085 42.5448 55.2343 42.9024 55.4104 43.2424C55.5865 43.5753 55.8161 43.8834 56.0991 44.1667C56.3821 44.45 56.7343 44.6943 57.1557 44.8997C57.5771 45.1051 58.0677 45.268 58.6274 45.3884C59.1934 45.5017 59.8444 45.5584 60.5802 45.5584C61.2972 45.5584 61.9419 45.5088 62.5142 45.4097C63.0865 45.3034 63.6117 45.1653 64.0897 44.9953C64.5677 44.8254 65.0048 44.6341 65.401 44.4217C65.7972 44.2021 66.1746 43.979 66.5331 43.7523V47.3007Z" fill="#3A3A3A"/>
<path d="M82.2029 48.2993V42.2119H73.2972V48.2993H69.7972V33.7022H73.2972V39.0141H82.2029V33.7022H85.7029V48.2993H82.2029Z" fill="#3A3A3A"/>
<path d="M89.7595 48.2993V33.7022H93.2595V48.2993H89.7595Z" fill="#3A3A3A"/>
<path d="M97.3255 48.2993V33.7022H100.826V45.1016H110.288V48.2993H97.3255Z" fill="#3A3A3A"/>
<path d="M113.099 48.2993V33.7022H116.599V45.1016H126.061V48.2993H113.099Z" fill="#3A3A3A"/>
<path d="M26.7528 42.7218C26.7528 43.2884 26.6867 43.7807 26.5546 44.1986C26.4226 44.6164 26.237 44.9776 25.998 45.2822C25.7653 45.5796 25.4823 45.824 25.149 46.0152C24.8219 46.1994 24.4572 46.3481 24.0547 46.4614C23.6584 46.5677 23.2339 46.642 22.7811 46.6845C22.3282 46.727 21.8597 46.7483 21.3754 46.7483H11.9697V32.1511H21.2056C21.5767 32.1511 21.9477 32.1688 22.3188 32.2042C22.6962 32.2397 23.0547 32.3069 23.3943 32.4061C23.7339 32.4982 24.0484 32.6292 24.3377 32.7992C24.6333 32.9692 24.888 33.1923 25.1018 33.4685C25.3219 33.7447 25.4918 34.0776 25.6113 34.4671C25.737 34.8567 25.7999 35.317 25.7999 35.8482C25.7999 36.7973 25.5924 37.5516 25.1773 38.1111C24.7622 38.6635 24.1081 39.0318 23.215 39.216C23.844 39.2656 24.3817 39.3753 24.8282 39.5453C25.2811 39.7082 25.649 39.9349 25.932 40.2252C26.215 40.5085 26.4226 40.8591 26.5546 41.277C26.6867 41.6878 26.7528 42.1694 26.7528 42.7218ZM22.3848 36.475C22.3848 36.2909 22.3597 36.1174 22.3094 35.9545C22.2591 35.7845 22.1679 35.6357 22.0358 35.5083C21.9037 35.3808 21.7245 35.2781 21.498 35.2002C21.2716 35.1223 20.9823 35.0833 20.6301 35.0833H15.4697V37.8243H20.6301C20.9823 37.8243 21.2716 37.7888 21.498 37.718C21.7245 37.6472 21.9037 37.5516 22.0358 37.4312C22.1679 37.3108 22.2591 37.1691 22.3094 37.0062C22.3597 36.8362 22.3848 36.6592 22.3848 36.475ZM23.1962 42.265C23.1962 41.9321 23.1458 41.6665 23.0452 41.4682C22.9446 41.2628 22.7874 41.107 22.5735 41.0008C22.3597 40.8875 22.083 40.8131 21.7433 40.7777C21.4037 40.7423 20.998 40.7246 20.5263 40.7246H15.4697V43.8161H20.5263C20.998 43.8161 21.4037 43.7984 21.7433 43.763C22.083 43.7276 22.3597 43.6532 22.5735 43.5399C22.7874 43.4266 22.9446 43.2707 23.0452 43.0724C23.1458 42.867 23.1962 42.5979 23.1962 42.265Z" fill="white"/>
<path d="M29.9509 46.7483V32.1511H43.0735V35.2639H33.5452V37.6755H42.5829V40.7883H33.5452V43.6355H43.2056V46.7483H29.9509Z" fill="white"/>
<path d="M68.1395 45.7496C67.6867 45.9621 67.2307 46.1533 66.7716 46.3233C66.3125 46.4933 65.8377 46.6385 65.3471 46.7589C64.8565 46.8864 64.3377 46.982 63.7905 47.0457C63.2496 47.1095 62.6678 47.1414 62.0452 47.1414C60.7244 47.1414 59.5075 46.982 58.3943 46.6633C57.2873 46.3446 56.3314 45.8665 55.5263 45.2291C54.7276 44.5845 54.105 43.7842 53.6584 42.8281C53.2119 41.8648 52.9886 40.7423 52.9886 39.4603C52.9886 38.1784 53.2119 37.0593 53.6584 36.1032C54.105 35.14 54.7276 34.3396 55.5263 33.7022C56.3314 33.0577 57.2873 32.5761 58.3943 32.2574C59.5075 31.9387 60.7244 31.7793 62.0452 31.7793C62.6678 31.7793 63.2496 31.8112 63.7905 31.8749C64.3377 31.9387 64.8565 32.0343 65.3471 32.1618C65.8377 32.2822 66.3125 32.4274 66.7716 32.5973C67.2307 32.7673 67.6867 32.9585 68.1395 33.171V36.7194C67.781 36.4998 67.4037 36.2838 67.0075 36.0713C66.6112 35.8518 66.1741 35.657 65.6961 35.487C65.2182 35.3099 64.693 35.1683 64.1207 35.0621C63.5483 34.9487 62.9037 34.8921 62.1867 34.8921C61.0861 34.8921 60.171 35.0196 59.4414 35.2745C58.7182 35.5295 58.1395 35.8695 57.7056 36.2944C57.2716 36.7194 56.9666 37.2081 56.7905 37.7605C56.6144 38.3059 56.5263 38.8725 56.5263 39.4603C56.5263 39.8499 56.5641 40.2359 56.6395 40.6183C56.715 40.9937 56.8408 41.3514 57.0169 41.6913C57.193 42.0242 57.4226 42.3323 57.7056 42.6156C57.9886 42.8989 58.3408 43.1433 58.7622 43.3486C59.1836 43.554 59.6741 43.7169 60.2339 43.8373C60.7999 43.9507 61.4509 44.0073 62.1867 44.0073C62.9037 44.0073 63.5483 43.9577 64.1207 43.8586C64.693 43.7523 65.2182 43.6142 65.6961 43.4443C66.1741 43.2743 66.6112 43.083 67.0075 42.8706C67.4037 42.651 67.781 42.4279 68.1395 42.2013V45.7496Z" fill="white"/>
<path d="M83.8093 46.7483V40.6608H74.9037V46.7483H71.4037V32.1511H74.9037V37.463H83.8093V32.1511H87.3093V46.7483H83.8093Z" fill="white"/>
<path d="M91.3659 46.7483V32.1511H94.8659V46.7483H91.3659Z" fill="white"/>
<path d="M98.932 46.7483V32.1511H102.432V43.5505H111.894V46.7483H98.932Z" fill="white"/>
<path d="M114.706 46.7483V32.1511H118.206V43.5505H127.668V46.7483H114.706Z" fill="white"/>
<path d="M25.1463 44.2729C25.1463 44.8395 25.0803 45.3318 24.9482 45.7496C24.8161 46.1675 24.6306 46.5287 24.3916 46.8333C24.1589 47.1307 23.8759 47.3751 23.5425 47.5663C23.2155 47.7505 22.8507 47.8992 22.4482 48.0125C22.052 48.1187 21.6274 48.1931 21.1746 48.2356C20.7218 48.2781 20.2532 48.2993 19.7689 48.2993H10.3633V33.7022H19.5991C19.9702 33.7022 20.3413 33.7199 20.7123 33.7553C21.0897 33.7907 21.4482 33.858 21.7878 33.9572C22.1274 34.0493 22.4419 34.1803 22.7312 34.3503C23.0268 34.5202 23.2815 34.7433 23.4954 35.0196C23.7155 35.2958 23.8853 35.6287 24.0048 36.0182C24.1306 36.4077 24.1935 36.8681 24.1935 37.3993C24.1935 38.3484 23.9859 39.1027 23.5708 39.6622C23.1557 40.2146 22.5016 40.5829 21.6086 40.7671C22.2375 40.8166 22.7752 40.9264 23.2218 41.0964C23.6746 41.2593 24.0425 41.4859 24.3255 41.7763C24.6086 42.0596 24.8161 42.4102 24.9482 42.8281C25.0803 43.2389 25.1463 43.7205 25.1463 44.2729ZM20.7784 38.0261C20.7784 37.842 20.7532 37.6684 20.7029 37.5055C20.6526 37.3356 20.5614 37.1868 20.4293 37.0593C20.2972 36.9319 20.118 36.8292 19.8916 36.7512C19.6652 36.6733 19.3759 36.6344 19.0237 36.6344H13.8633V39.3753H19.0237C19.3759 39.3753 19.6652 39.3399 19.8916 39.2691C20.118 39.1983 20.2972 39.1027 20.4293 38.9823C20.5614 38.8618 20.6526 38.7202 20.7029 38.5573C20.7532 38.3873 20.7784 38.2103 20.7784 38.0261ZM21.5897 43.8161C21.5897 43.4832 21.5394 43.2176 21.4387 43.0193C21.3381 42.8139 21.1809 42.6581 20.9671 42.5519C20.7532 42.4385 20.4765 42.3642 20.1369 42.3288C19.7972 42.2933 19.3916 42.2756 18.9199 42.2756H13.8633V45.3672H18.9199C19.3916 45.3672 19.7972 45.3495 20.1369 45.3141C20.4765 45.2786 20.7532 45.2043 20.9671 45.091C21.1809 44.9776 21.3381 44.8218 21.4387 44.6235C21.5394 44.4181 21.5897 44.149 21.5897 43.8161Z" stroke="#3A3A3A" mask="url(#path-3-outside-2_515_9433)"/>
<path d="M28.3444 48.2993V33.7022H41.467V36.815H31.9387V39.2266H40.9765V42.3394H31.9387V45.1866H41.5991V48.2993H28.3444Z" stroke="#3A3A3A" mask="url(#path-3-outside-2_515_9433)"/>
<path d="M66.5331 47.3007C66.0802 47.5132 65.6243 47.7044 65.1651 47.8744C64.706 48.0444 64.2312 48.1896 63.7406 48.31C63.2501 48.4375 62.7312 48.5331 62.184 48.5968C61.6431 48.6606 61.0614 48.6924 60.4387 48.6924C59.118 48.6924 57.901 48.5331 56.7878 48.2144C55.6809 47.8956 54.7249 47.4176 53.9199 46.7801C53.1211 46.1356 52.4985 45.3353 52.0519 44.3792C51.6054 43.4159 51.3821 42.2933 51.3821 41.0114C51.3821 39.7295 51.6054 38.6104 52.0519 37.6543C52.4985 36.691 53.1211 35.8907 53.9199 35.2533C54.7249 34.6088 55.6809 34.1272 56.7878 33.8084C57.901 33.4897 59.118 33.3304 60.4387 33.3304C61.0614 33.3304 61.6431 33.3622 62.184 33.426C62.7312 33.4897 63.2501 33.5853 63.7406 33.7128C64.2312 33.8332 64.706 33.9784 65.1651 34.1484C65.6243 34.3184 66.0802 34.5096 66.5331 34.7221V38.2705C66.1746 38.0509 65.7972 37.8349 65.401 37.6224C65.0048 37.4028 64.5677 37.2081 64.0897 37.0381C63.6117 36.861 63.0865 36.7194 62.5142 36.6131C61.9419 36.4998 61.2972 36.4432 60.5802 36.4432C59.4796 36.4432 58.5645 36.5706 57.835 36.8256C57.1117 37.0806 56.5331 37.4205 56.0991 37.8455C55.6651 38.2705 55.3601 38.7592 55.184 39.3116C55.0079 39.8569 54.9199 40.4236 54.9199 41.0114C54.9199 41.4009 54.9576 41.7869 55.0331 42.1694C55.1085 42.5448 55.2343 42.9024 55.4104 43.2424C55.5865 43.5753 55.8161 43.8834 56.0991 44.1667C56.3821 44.45 56.7343 44.6943 57.1557 44.8997C57.5771 45.1051 58.0677 45.268 58.6274 45.3884C59.1934 45.5017 59.8444 45.5584 60.5802 45.5584C61.2972 45.5584 61.9419 45.5088 62.5142 45.4097C63.0865 45.3034 63.6117 45.1653 64.0897 44.9953C64.5677 44.8254 65.0048 44.6341 65.401 44.4217C65.7972 44.2021 66.1746 43.979 66.5331 43.7523V47.3007Z" stroke="#3A3A3A" mask="url(#path-3-outside-2_515_9433)"/>
<path d="M82.2029 48.2993V42.2119H73.2972V48.2993H69.7972V33.7022H73.2972V39.0141H82.2029V33.7022H85.7029V48.2993H82.2029Z" stroke="#3A3A3A" mask="url(#path-3-outside-2_515_9433)"/>
<path d="M89.7595 48.2993V33.7022H93.2595V48.2993H89.7595Z" stroke="#3A3A3A" mask="url(#path-3-outside-2_515_9433)"/>
<path d="M97.3255 48.2993V33.7022H100.826V45.1016H110.288V48.2993H97.3255Z" stroke="#3A3A3A" mask="url(#path-3-outside-2_515_9433)"/>
<path d="M113.099 48.2993V33.7022H116.599V45.1016H126.061V48.2993H113.099Z" stroke="#3A3A3A" mask="url(#path-3-outside-2_515_9433)"/>
<path d="M26.7528 42.7218C26.7528 43.2884 26.6867 43.7807 26.5546 44.1986C26.4226 44.6164 26.237 44.9776 25.998 45.2822C25.7653 45.5796 25.4823 45.824 25.149 46.0152C24.8219 46.1994 24.4572 46.3481 24.0547 46.4614C23.6584 46.5677 23.2339 46.642 22.7811 46.6845C22.3282 46.727 21.8597 46.7483 21.3754 46.7483H11.9697V32.1511H21.2056C21.5767 32.1511 21.9477 32.1688 22.3188 32.2042C22.6962 32.2397 23.0547 32.3069 23.3943 32.4061C23.7339 32.4982 24.0484 32.6292 24.3377 32.7992C24.6333 32.9692 24.888 33.1923 25.1018 33.4685C25.3219 33.7447 25.4918 34.0776 25.6113 34.4671C25.737 34.8567 25.7999 35.317 25.7999 35.8482C25.7999 36.7973 25.5924 37.5516 25.1773 38.1111C24.7622 38.6635 24.1081 39.0318 23.215 39.216C23.844 39.2656 24.3817 39.3753 24.8282 39.5453C25.2811 39.7082 25.649 39.9349 25.932 40.2252C26.215 40.5085 26.4226 40.8591 26.5546 41.277C26.6867 41.6878 26.7528 42.1694 26.7528 42.7218ZM22.3848 36.475C22.3848 36.2909 22.3597 36.1174 22.3094 35.9545C22.2591 35.7845 22.1679 35.6357 22.0358 35.5083C21.9037 35.3808 21.7245 35.2781 21.498 35.2002C21.2716 35.1223 20.9823 35.0833 20.6301 35.0833H15.4697V37.8243H20.6301C20.9823 37.8243 21.2716 37.7888 21.498 37.718C21.7245 37.6472 21.9037 37.5516 22.0358 37.4312C22.1679 37.3108 22.2591 37.1691 22.3094 37.0062C22.3597 36.8362 22.3848 36.6592 22.3848 36.475ZM23.1962 42.265C23.1962 41.9321 23.1458 41.6665 23.0452 41.4682C22.9446 41.2628 22.7874 41.107 22.5735 41.0008C22.3597 40.8875 22.083 40.8131 21.7433 40.7777C21.4037 40.7423 20.998 40.7246 20.5263 40.7246H15.4697V43.8161H20.5263C20.998 43.8161 21.4037 43.7984 21.7433 43.763C22.083 43.7276 22.3597 43.6532 22.5735 43.5399C22.7874 43.4266 22.9446 43.2707 23.0452 43.0724C23.1458 42.867 23.1962 42.5979 23.1962 42.265Z" stroke="#3A3A3A" mask="url(#path-3-outside-2_515_9433)"/>
<path d="M29.9509 46.7483V32.1511H43.0735V35.2639H33.5452V37.6755H42.5829V40.7883H33.5452V43.6355H43.2056V46.7483H29.9509Z" stroke="#3A3A3A" mask="url(#path-3-outside-2_515_9433)"/>
<path d="M68.1395 45.7496C67.6867 45.9621 67.2307 46.1533 66.7716 46.3233C66.3125 46.4933 65.8377 46.6385 65.3471 46.7589C64.8565 46.8864 64.3377 46.982 63.7905 47.0457C63.2496 47.1095 62.6678 47.1414 62.0452 47.1414C60.7244 47.1414 59.5075 46.982 58.3943 46.6633C57.2873 46.3446 56.3314 45.8665 55.5263 45.2291C54.7276 44.5845 54.105 43.7842 53.6584 42.8281C53.2119 41.8648 52.9886 40.7423 52.9886 39.4603C52.9886 38.1784 53.2119 37.0593 53.6584 36.1032C54.105 35.14 54.7276 34.3396 55.5263 33.7022C56.3314 33.0577 57.2873 32.5761 58.3943 32.2574C59.5075 31.9387 60.7244 31.7793 62.0452 31.7793C62.6678 31.7793 63.2496 31.8112 63.7905 31.8749C64.3377 31.9387 64.8565 32.0343 65.3471 32.1618C65.8377 32.2822 66.3125 32.4274 66.7716 32.5973C67.2307 32.7673 67.6867 32.9585 68.1395 33.171V36.7194C67.781 36.4998 67.4037 36.2838 67.0075 36.0713C66.6112 35.8518 66.1741 35.657 65.6961 35.487C65.2182 35.3099 64.693 35.1683 64.1207 35.0621C63.5483 34.9487 62.9037 34.8921 62.1867 34.8921C61.0861 34.8921 60.171 35.0196 59.4414 35.2745C58.7182 35.5295 58.1395 35.8695 57.7056 36.2944C57.2716 36.7194 56.9666 37.2081 56.7905 37.7605C56.6144 38.3059 56.5263 38.8725 56.5263 39.4603C56.5263 39.8499 56.5641 40.2359 56.6395 40.6183C56.715 40.9937 56.8408 41.3514 57.0169 41.6913C57.193 42.0242 57.4226 42.3323 57.7056 42.6156C57.9886 42.8989 58.3408 43.1433 58.7622 43.3486C59.1836 43.554 59.6741 43.7169 60.2339 43.8373C60.7999 43.9507 61.4509 44.0073 62.1867 44.0073C62.9037 44.0073 63.5483 43.9577 64.1207 43.8586C64.693 43.7523 65.2182 43.6142 65.6961 43.4443C66.1741 43.2743 66.6112 43.083 67.0075 42.8706C67.4037 42.651 67.781 42.4279 68.1395 42.2013V45.7496Z" stroke="#3A3A3A" mask="url(#path-3-outside-2_515_9433)"/>
<path d="M83.8093 46.7483V40.6608H74.9037V46.7483H71.4037V32.1511H74.9037V37.463H83.8093V32.1511H87.3093V46.7483H83.8093Z" stroke="#3A3A3A" mask="url(#path-3-outside-2_515_9433)"/>
<path d="M91.3659 46.7483V32.1511H94.8659V46.7483H91.3659Z" stroke="#3A3A3A" mask="url(#path-3-outside-2_515_9433)"/>
<path d="M98.932 46.7483V32.1511H102.432V43.5505H111.894V46.7483H98.932Z" stroke="#3A3A3A" mask="url(#path-3-outside-2_515_9433)"/>
<path d="M114.706 46.7483V32.1511H118.206V43.5505H127.668V46.7483H114.706Z" stroke="#3A3A3A" mask="url(#path-3-outside-2_515_9433)"/>
</svg>
