<svg width="94" height="76" viewBox="0 0 94 76" fill="none" xmlns="http://www.w3.org/2000/svg">
<path d="M89.9995 38C89.9995 56.7777 79.4879 72 66.5212 72C53.5545 72 43.043 56.7777 43.043 38C43.043 19.2223 53.5545 4 66.5212 4C79.4879 4 89.9995 19.2223 89.9995 38Z" fill="white"/>
<path fill-rule="evenodd" clip-rule="evenodd" d="M86.351 64.2391C81.6132 71.1001 74.6697 75.8857 66.5222 75.8857C58.3746 75.8857 51.4311 71.1001 46.6933 64.2391C41.9431 57.3601 39.1309 48.0714 39.1309 38C39.1309 27.9286 41.9431 18.6398 46.6933 11.7609C51.4311 4.89986 58.3746 0.114258 66.5222 0.114258C74.6697 0.114258 81.6132 4.89986 86.351 11.7609C91.1012 18.6398 93.9135 27.9286 93.9135 38C93.9135 48.0714 91.1012 57.3601 86.351 64.2391ZM66.5222 72C79.4888 72 90.0004 56.7777 90.0004 38C90.0004 19.2223 79.4888 3.99997 66.5222 3.99997C53.5555 3.99997 43.0439 19.2223 43.0439 38C43.0439 56.7777 53.5555 72 66.5222 72Z" fill="white"/>
<path d="M50.8686 38C50.8686 56.7777 40.3571 72 27.3904 72C14.4237 72 3.91211 56.7777 3.91211 38C3.91211 19.2223 14.4237 4 27.3904 4C40.3571 4 50.8686 19.2223 50.8686 38Z" fill="white"/>
<path fill-rule="evenodd" clip-rule="evenodd" d="M47.2201 64.2391C42.4824 71.1001 35.5389 75.8857 27.3913 75.8857C19.2437 75.8857 12.3002 71.1001 7.56247 64.2391C2.81228 57.3601 0 48.0714 0 38C0 27.9286 2.81228 18.6398 7.56247 11.7609C12.3002 4.89986 19.2437 0.114258 27.3913 0.114258C35.5389 0.114258 42.4824 4.89986 47.2201 11.7609C51.9703 18.6398 54.7826 27.9286 54.7826 38C54.7826 48.0714 51.9703 57.3601 47.2201 64.2391ZM27.3913 72C40.358 72 50.8696 56.7777 50.8696 38C50.8696 19.2223 40.358 3.99997 27.3913 3.99997C14.4246 3.99997 3.91304 19.2223 3.91304 38C3.91304 56.7777 14.4246 72 27.3913 72Z" fill="white"/>
<path d="M89.9995 38C89.9995 56.7777 79.4879 72 66.5212 72C53.5545 72 43.043 56.7777 43.043 38C43.043 19.2223 53.5545 4 66.5212 4C79.4879 4 89.9995 19.2223 89.9995 38Z" fill="white"/>
<path fill-rule="evenodd" clip-rule="evenodd" d="M79.8957 59.8442C83.6429 54.4175 86.0864 46.7063 86.0864 38C86.0864 29.2937 83.6429 21.5825 79.8957 16.1559C76.136 10.7113 71.3404 7.88571 66.5212 7.88571C61.7021 7.88571 56.9065 10.7113 53.1468 16.1559C49.3995 21.5825 46.956 29.2937 46.956 38C46.956 46.7063 49.3995 54.4175 53.1468 59.8442C56.9065 65.2887 61.7021 68.1143 66.5212 68.1143C71.3404 68.1143 76.136 65.2887 79.8957 59.8442ZM66.5212 72C79.4879 72 89.9995 56.7777 89.9995 38C89.9995 19.2223 79.4879 4 66.5212 4C53.5545 4 43.043 19.2223 43.043 38C43.043 56.7777 53.5545 72 66.5212 72Z" fill="#3A3A3A"/>
<path d="M89.9997 38.0001C89.9997 50.3397 82.9919 60.3429 74.3475 60.3429C65.703 60.3429 58.6953 50.3397 58.6953 38.0001C58.6953 25.6605 65.703 15.6572 74.3475 15.6572C82.9919 15.6572 89.9997 25.6605 89.9997 38.0001Z" fill="#3A3A3A"/>
<path fill-rule="evenodd" clip-rule="evenodd" d="M77.157 47.5036C78.5792 45.4736 79.7714 42.1482 79.7714 38.0001C79.7714 33.8519 78.5792 30.5266 77.157 28.4965C75.7293 26.4584 74.6127 26.3268 74.3475 26.3268C74.0823 26.3268 72.9657 26.4584 71.5379 28.4965C70.1158 30.5266 68.9236 33.8519 68.9236 38.0001C68.9236 42.1482 70.1158 45.4736 71.5379 47.5036C72.9657 49.5417 74.0823 49.6734 74.3475 49.6734C74.6127 49.6734 75.7293 49.5417 77.157 47.5036ZM74.3475 60.3429C82.9919 60.3429 89.9997 50.3397 89.9997 38.0001C89.9997 25.6605 82.9919 15.6572 74.3475 15.6572C65.703 15.6572 58.6953 25.6605 58.6953 38.0001C58.6953 50.3397 65.703 60.3429 74.3475 60.3429Z" fill="#3A3A3A"/>
<path d="M50.8686 38C50.8686 56.7777 40.3571 72 27.3904 72C14.4237 72 3.91211 56.7777 3.91211 38C3.91211 19.2223 14.4237 4 27.3904 4C40.3571 4 50.8686 19.2223 50.8686 38Z" fill="white"/>
<path fill-rule="evenodd" clip-rule="evenodd" d="M40.7648 59.8442C44.5121 54.4175 46.9556 46.7063 46.9556 38C46.9556 29.2937 44.5121 21.5825 40.7648 16.1559C37.0051 10.7113 32.2095 7.88571 27.3904 7.88571C22.5712 7.88571 17.7756 10.7113 14.0159 16.1559C10.2687 21.5825 7.82515 29.2937 7.82515 38C7.82515 46.7063 10.2687 54.4175 14.0159 59.8442C17.7756 65.2887 22.5712 68.1143 27.3904 68.1143C32.2095 68.1143 37.0051 65.2887 40.7648 59.8442ZM27.3904 72C40.3571 72 50.8686 56.7777 50.8686 38C50.8686 19.2223 40.3571 4 27.3904 4C14.4237 4 3.91211 19.2223 3.91211 38C3.91211 56.7777 14.4237 72 27.3904 72Z" fill="#3A3A3A"/>
<path d="M50.8688 38.0001C50.8688 50.3397 43.8611 60.3429 35.2166 60.3429C26.5722 60.3429 19.5645 50.3397 19.5645 38.0001C19.5645 25.6605 26.5722 15.6572 35.2166 15.6572C43.8611 15.6572 50.8688 25.6605 50.8688 38.0001Z" fill="#3A3A3A"/>
<path fill-rule="evenodd" clip-rule="evenodd" d="M38.0262 47.5037C39.4483 45.4736 40.6405 42.1482 40.6405 38.0001C40.6405 33.8519 39.4483 30.5266 38.0262 28.4965C36.5984 26.4584 35.4818 26.3268 35.2166 26.3268C34.9514 26.3268 33.8348 26.4584 32.4071 28.4965C30.9849 30.5266 29.7927 33.8519 29.7927 38.0001C29.7927 42.1482 30.9849 45.4736 32.4071 47.5037C33.8348 49.5417 34.9514 49.6734 35.2166 49.6734C35.4818 49.6734 36.5984 49.5417 38.0262 47.5037ZM35.2166 60.3429C43.8611 60.3429 50.8688 50.3397 50.8688 38.0001C50.8688 25.6605 43.8611 15.6572 35.2166 15.6572C26.5722 15.6572 19.5645 25.6605 19.5645 38.0001C19.5645 50.3397 26.5722 60.3429 35.2166 60.3429Z" fill="#3A3A3A"/>
</svg>
