<svg width="172" height="173" viewBox="0 0 172 173" fill="none" xmlns="http://www.w3.org/2000/svg">
<path d="M86 0.541992L96.4464 17.2348L111.349 4.36273L116.411 23.3931L134.446 15.4855L133.673 35.1624L153.238 32.9219L146.7 51.497L166.055 55.1227L154.333 70.9455L171.76 80.1152L155.894 91.7798L169.844 105.679L151.245 112.149L160.478 129.542L140.799 130.242L144.495 149.584L125.483 144.453L123.314 164.025L106.659 153.518L98.8176 171.581L86 156.632L73.1824 171.581L65.3406 153.518L48.686 164.025L46.5169 144.453L27.5051 149.584L31.2014 130.242L11.5218 129.542L20.7551 112.149L2.1562 105.679L16.106 91.7798L0.240471 80.1152L17.6673 70.9455L5.94485 55.1227L25.3003 51.497L18.7625 32.9219L38.3267 35.1624L37.5545 15.4855L55.5891 23.3931L60.6511 4.36273L75.5536 17.2348L86 0.541992Z" fill="#93ADA4"/>
<mask id="path-2-outside-1_515_9437" maskUnits="userSpaceOnUse" x="47.9424" y="76.3242" width="74" height="17" fill="black">
<rect fill="white" x="47.9424" y="76.3242" width="74" height="17"/>
<path d="M62.8507 81.7217C62.5714 81.5856 62.2025 81.4316 61.7442 81.2598C61.2859 81.0879 60.7667 80.9268 60.1866 80.7764C59.6065 80.6188 58.9763 80.4899 58.296 80.3896C57.6156 80.2822 56.9174 80.2285 56.2012 80.2285C55.6283 80.2285 55.1378 80.2464 54.7296 80.2822C54.3285 80.318 53.9883 80.3646 53.7091 80.4219C53.4369 80.4792 53.2185 80.5472 53.0538 80.626C52.8962 80.6976 52.7745 80.7728 52.6885 80.8516C52.6026 80.9303 52.5453 81.0091 52.5167 81.0879C52.4952 81.1667 52.4844 81.2383 52.4844 81.3027C52.4844 81.5176 52.5919 81.7074 52.8067 81.8721C53.0216 82.0296 53.3152 82.1729 53.6876 82.3018C54.06 82.4235 54.4932 82.5417 54.9874 82.6562C55.4815 82.7637 56.0043 82.8783 56.5557 83C57.1143 83.1146 57.6872 83.2435 58.2745 83.3867C58.8689 83.5228 59.4418 83.6839 59.9932 83.8701C60.5518 84.0563 61.0782 84.2747 61.5723 84.5254C62.0665 84.7689 62.4997 85.0553 62.8721 85.3848C63.2445 85.7142 63.5382 86.0938 63.753 86.5234C63.9678 86.9531 64.0753 87.4437 64.0753 87.9951C64.0753 88.7041 63.9499 89.3128 63.6993 89.8213C63.4486 90.3298 63.112 90.7594 62.6895 91.1104C62.2742 91.4613 61.7908 91.7441 61.2393 91.959C60.6879 92.1667 60.1078 92.3278 59.4991 92.4424C58.8975 92.557 58.2852 92.6322 57.6622 92.668C57.0463 92.7038 56.4591 92.7217 55.9005 92.7217C54.4395 92.7217 53.086 92.5999 51.8399 92.3564C50.601 92.1201 49.5053 91.8229 48.5528 91.4648V87.9414C49.5339 88.4857 50.6511 88.9118 51.9044 89.2197C53.1648 89.5277 54.5111 89.6816 55.9434 89.6816C56.7885 89.6816 57.476 89.6387 58.0059 89.5527C58.543 89.4596 58.962 89.3451 59.2628 89.209C59.5635 89.0658 59.7676 88.9118 59.8751 88.7471C59.9825 88.5824 60.0362 88.4248 60.0362 88.2744C60.0362 88.0381 59.9288 87.834 59.7139 87.6621C59.4991 87.4831 59.2055 87.3291 58.8331 87.2002C58.4607 87.0641 58.0274 86.9424 57.5333 86.835C57.0391 86.7204 56.5128 86.6094 55.9542 86.502C55.4027 86.3874 54.8334 86.2656 54.2462 86.1367C53.6589 86.0078 53.086 85.8574 52.5274 85.6855C51.976 85.5065 51.4532 85.3024 50.9591 85.0732C50.4649 84.8369 50.0316 84.5612 49.6592 84.2461C49.2869 83.9238 48.9932 83.555 48.7784 83.1396C48.5635 82.7171 48.4561 82.2301 48.4561 81.6787C48.4561 81.027 48.5707 80.4648 48.7999 79.9922C49.029 79.5195 49.337 79.1185 49.7237 78.7891C50.1176 78.4525 50.5688 78.1803 51.0772 77.9727C51.5928 77.765 52.1335 77.6038 52.6993 77.4893C53.265 77.3747 53.838 77.2959 54.418 77.2529C54.9981 77.21 55.5495 77.1885 56.0723 77.1885C56.6453 77.1885 57.2325 77.2171 57.8341 77.2744C58.4428 77.3317 59.0408 77.4141 59.628 77.5215C60.2152 77.6217 60.781 77.7399 61.3253 77.876C61.8767 78.012 62.3852 78.1553 62.8507 78.3057V81.7217ZM79.7159 89.5312H71.4874L70.1016 92.3242H65.6544L73.378 77.5645H77.8253L85.5489 92.3242H81.1016L79.7159 89.5312ZM72.9161 86.6523H78.3087L75.6231 81.2168L72.9161 86.6523ZM87.9659 92.3242V77.5645H91.9512V89.0908H102.726V92.3242H87.9659ZM105.927 92.3242V77.5645H120.869V80.7119H110.02V83.1504H120.311V86.2979H110.02V89.1768H121.02V92.3242H105.927Z"/>
</mask>
<path d="M62.8507 81.7217C62.5714 81.5856 62.2025 81.4316 61.7442 81.2598C61.2859 81.0879 60.7667 80.9268 60.1866 80.7764C59.6065 80.6188 58.9763 80.4899 58.296 80.3896C57.6156 80.2822 56.9174 80.2285 56.2012 80.2285C55.6283 80.2285 55.1378 80.2464 54.7296 80.2822C54.3285 80.318 53.9883 80.3646 53.7091 80.4219C53.4369 80.4792 53.2185 80.5472 53.0538 80.626C52.8962 80.6976 52.7745 80.7728 52.6885 80.8516C52.6026 80.9303 52.5453 81.0091 52.5167 81.0879C52.4952 81.1667 52.4844 81.2383 52.4844 81.3027C52.4844 81.5176 52.5919 81.7074 52.8067 81.8721C53.0216 82.0296 53.3152 82.1729 53.6876 82.3018C54.06 82.4235 54.4932 82.5417 54.9874 82.6562C55.4815 82.7637 56.0043 82.8783 56.5557 83C57.1143 83.1146 57.6872 83.2435 58.2745 83.3867C58.8689 83.5228 59.4418 83.6839 59.9932 83.8701C60.5518 84.0563 61.0782 84.2747 61.5723 84.5254C62.0665 84.7689 62.4997 85.0553 62.8721 85.3848C63.2445 85.7142 63.5382 86.0938 63.753 86.5234C63.9678 86.9531 64.0753 87.4437 64.0753 87.9951C64.0753 88.7041 63.9499 89.3128 63.6993 89.8213C63.4486 90.3298 63.112 90.7594 62.6895 91.1104C62.2742 91.4613 61.7908 91.7441 61.2393 91.959C60.6879 92.1667 60.1078 92.3278 59.4991 92.4424C58.8975 92.557 58.2852 92.6322 57.6622 92.668C57.0463 92.7038 56.4591 92.7217 55.9005 92.7217C54.4395 92.7217 53.086 92.5999 51.8399 92.3564C50.601 92.1201 49.5053 91.8229 48.5528 91.4648V87.9414C49.5339 88.4857 50.6511 88.9118 51.9044 89.2197C53.1648 89.5277 54.5111 89.6816 55.9434 89.6816C56.7885 89.6816 57.476 89.6387 58.0059 89.5527C58.543 89.4596 58.962 89.3451 59.2628 89.209C59.5635 89.0658 59.7676 88.9118 59.8751 88.7471C59.9825 88.5824 60.0362 88.4248 60.0362 88.2744C60.0362 88.0381 59.9288 87.834 59.7139 87.6621C59.4991 87.4831 59.2055 87.3291 58.8331 87.2002C58.4607 87.0641 58.0274 86.9424 57.5333 86.835C57.0391 86.7204 56.5128 86.6094 55.9542 86.502C55.4027 86.3874 54.8334 86.2656 54.2462 86.1367C53.6589 86.0078 53.086 85.8574 52.5274 85.6855C51.976 85.5065 51.4532 85.3024 50.9591 85.0732C50.4649 84.8369 50.0316 84.5612 49.6592 84.2461C49.2869 83.9238 48.9932 83.555 48.7784 83.1396C48.5635 82.7171 48.4561 82.2301 48.4561 81.6787C48.4561 81.027 48.5707 80.4648 48.7999 79.9922C49.029 79.5195 49.337 79.1185 49.7237 78.7891C50.1176 78.4525 50.5688 78.1803 51.0772 77.9727C51.5928 77.765 52.1335 77.6038 52.6993 77.4893C53.265 77.3747 53.838 77.2959 54.418 77.2529C54.9981 77.21 55.5495 77.1885 56.0723 77.1885C56.6453 77.1885 57.2325 77.2171 57.8341 77.2744C58.4428 77.3317 59.0408 77.4141 59.628 77.5215C60.2152 77.6217 60.781 77.7399 61.3253 77.876C61.8767 78.012 62.3852 78.1553 62.8507 78.3057V81.7217ZM79.7159 89.5312H71.4874L70.1016 92.3242H65.6544L73.378 77.5645H77.8253L85.5489 92.3242H81.1016L79.7159 89.5312ZM72.9161 86.6523H78.3087L75.6231 81.2168L72.9161 86.6523ZM87.9659 92.3242V77.5645H91.9512V89.0908H102.726V92.3242H87.9659ZM105.927 92.3242V77.5645H120.869V80.7119H110.02V83.1504H120.311V86.2979H110.02V89.1768H121.02V92.3242H105.927Z" fill="white"/>
<path d="M62.8507 81.7217L62.6317 82.1712L63.3507 82.5214V81.7217H62.8507ZM60.1866 80.7764L60.0555 81.2589L60.0611 81.2604L60.1866 80.7764ZM58.296 80.3896L58.218 80.8836L58.2231 80.8843L58.296 80.3896ZM54.7296 80.2822L54.6859 79.7841L54.6851 79.7842L54.7296 80.2822ZM53.7091 80.4219L53.6086 79.9321L53.606 79.9326L53.7091 80.4219ZM53.0538 80.626L53.2607 81.0812L53.2695 81.077L53.0538 80.626ZM52.5167 81.0879L52.0468 80.917L52.0397 80.9364L52.0343 80.9563L52.5167 81.0879ZM52.8067 81.8721L52.5024 82.269L52.511 82.2753L52.8067 81.8721ZM53.6876 82.3018L53.524 82.7743L53.5322 82.777L53.6876 82.3018ZM54.9874 82.6562L54.8744 83.1434L54.8812 83.1448L54.9874 82.6562ZM56.5557 83L56.4479 83.4883L56.4553 83.4898L56.5557 83ZM58.2745 83.3867L58.156 83.8725L58.1629 83.8741L58.2745 83.3867ZM59.9932 83.8701L59.8333 84.3438L59.8351 84.3445L59.9932 83.8701ZM61.5723 84.5254L61.3461 84.9713L61.3513 84.9739L61.5723 84.5254ZM62.8721 85.3848L62.5409 85.7593L62.8721 85.3848ZM63.6993 89.8213L63.2508 89.6002L63.6993 89.8213ZM62.6895 91.1104L62.3701 90.7257L62.3668 90.7284L62.6895 91.1104ZM61.2393 91.959L61.4156 92.4269L61.4208 92.4249L61.2393 91.959ZM59.4991 92.4424L59.4066 91.951L59.4055 91.9512L59.4991 92.4424ZM57.6622 92.668L57.6335 92.1688L57.6332 92.1688L57.6622 92.668ZM51.8399 92.3564L51.9358 91.8657L51.9336 91.8653L51.8399 92.3564ZM48.5528 91.4648H48.0528V91.811L48.3769 91.9329L48.5528 91.4648ZM48.5528 87.9414L48.7954 87.5042L48.0528 87.0923V87.9414H48.5528ZM51.9044 89.2197L51.7851 89.7053L51.7857 89.7054L51.9044 89.2197ZM58.0059 89.5527L58.086 90.0463L58.0913 90.0454L58.0059 89.5527ZM59.2628 89.209L59.4689 89.6646L59.4777 89.6604L59.2628 89.209ZM59.7139 87.6621L59.3938 88.0463L59.4016 88.0525L59.7139 87.6621ZM58.8331 87.2002L58.6615 87.6699L58.6695 87.6727L58.8331 87.2002ZM57.5333 86.835L57.4203 87.3221L57.4271 87.3235L57.5333 86.835ZM55.9542 86.502L55.8524 86.9916L55.8597 86.993L55.9542 86.502ZM52.5274 85.6855L52.373 86.1612L52.3804 86.1634L52.5274 85.6855ZM50.9591 85.0732L50.7433 85.5243L50.7487 85.5268L50.9591 85.0732ZM49.6592 84.2461L49.332 84.6242L49.3363 84.6278L49.6592 84.2461ZM48.7784 83.1396L48.3327 83.3663L48.3343 83.3694L48.7784 83.1396ZM48.7999 79.9922L48.35 79.7741L48.7999 79.9922ZM49.7237 78.7891L50.0479 79.1697L50.0485 79.1692L49.7237 78.7891ZM51.0772 77.9727L50.8904 77.5089L50.8882 77.5098L51.0772 77.9727ZM57.8341 77.2744L57.7866 77.7722L57.7872 77.7722L57.8341 77.2744ZM59.628 77.5215L59.538 78.0134L59.5438 78.0144L59.628 77.5215ZM61.3253 77.876L61.204 78.3611L61.2055 78.3614L61.3253 77.876ZM62.8507 78.3057H63.3507V77.9418L63.0044 77.8299L62.8507 78.3057ZM63.0696 81.2722C62.7705 81.1265 62.3855 80.9663 61.9198 80.7916L61.5686 81.7279C62.0196 81.897 62.3722 82.0448 62.6317 82.1712L63.0696 81.2722ZM61.9198 80.7916C61.4419 80.6124 60.9055 80.4462 60.3121 80.2924L60.0611 81.2604C60.6278 81.4073 61.1299 81.5634 61.5686 81.7279L61.9198 80.7916ZM60.3176 80.2938C59.716 80.1304 59.0661 79.9977 58.3689 79.895L58.2231 80.8843C58.8865 80.9821 59.4971 81.1072 60.0555 81.2589L60.3176 80.2938ZM58.3739 79.8958C57.6668 79.7841 56.9425 79.7285 56.2012 79.7285V80.7285C56.8923 80.7285 57.5644 80.7803 58.218 80.8835L58.3739 79.8958ZM56.2012 79.7285C55.619 79.7285 55.113 79.7467 54.6859 79.7841L54.7733 80.7803C55.1625 80.7462 55.6377 80.7285 56.2012 80.7285V79.7285ZM54.6851 79.7842C54.2722 79.8211 53.9122 79.8698 53.6086 79.9321L53.8095 80.9117C54.0645 80.8594 54.3848 80.815 54.774 80.7802L54.6851 79.7842ZM53.606 79.9326C53.313 79.9943 53.0522 80.0725 52.8381 80.1749L53.2695 81.077C53.3848 81.0219 53.5609 80.964 53.8121 80.9111L53.606 79.9326ZM52.8469 80.1708C52.6623 80.2547 52.4894 80.3559 52.3507 80.483L53.0264 81.2201C53.0596 81.1897 53.1302 81.1405 53.2607 81.0812L52.8469 80.1708ZM52.3507 80.483C52.2274 80.596 52.1115 80.739 52.0468 80.917L52.9866 81.2588C52.9826 81.2697 52.98 81.2714 52.9855 81.2638C52.9911 81.2561 53.0034 81.2412 53.0264 81.2201L52.3507 80.483ZM52.0343 80.9563C52.0041 81.0672 51.9844 81.1839 51.9844 81.3027H52.9844C52.9844 81.2927 52.9863 81.2662 52.9991 81.2194L52.0343 80.9563ZM51.9844 81.3027C51.9844 81.7128 52.1996 82.0367 52.5025 82.2689L53.1109 81.4753C52.9841 81.3781 52.9844 81.3223 52.9844 81.3027H51.9844ZM52.511 82.2753C52.7805 82.4729 53.1247 82.636 53.524 82.7743L53.8511 81.8293C53.5056 81.7097 53.2626 81.5863 53.1024 81.4689L52.511 82.2753ZM53.5322 82.777C53.9219 82.9044 54.3699 83.0263 54.8744 83.1433L55.1003 82.1692C54.6166 82.057 54.198 81.9426 53.8429 81.8265L53.5322 82.777ZM54.8812 83.1448C55.3747 83.2521 55.897 83.3666 56.4479 83.4882L56.6635 82.5118C56.1116 82.3899 55.5883 82.2752 55.0936 82.1677L54.8812 83.1448ZM56.4553 83.4898C57.0075 83.6031 57.5744 83.7306 58.156 83.8725L58.393 82.901C57.8001 82.7564 57.2212 82.6261 56.6562 82.5102L56.4553 83.4898ZM58.1629 83.8741C58.7417 84.0066 59.2985 84.1633 59.8333 84.3438L60.1532 83.3964C59.5851 83.2046 58.996 83.039 58.3861 82.8993L58.1629 83.8741ZM59.8351 84.3445C60.3718 84.5234 60.8753 84.7325 61.3461 84.9713L61.7985 84.0795C61.2811 83.817 60.7319 83.5893 60.1513 83.3958L59.8351 84.3445ZM61.3513 84.9739C61.8098 85.1998 62.2051 85.4623 62.5409 85.7593L63.2034 85.0103C62.7944 84.6484 62.3231 84.3379 61.7933 84.0769L61.3513 84.9739ZM62.5409 85.7593C62.867 86.0478 63.1206 86.3766 63.3058 86.747L64.2002 86.2998C63.9557 85.8109 63.6221 85.3806 63.2034 85.0103L62.5409 85.7593ZM63.3058 86.747C63.4811 87.0977 63.5753 87.5098 63.5753 87.9951H64.5753C64.5753 87.3776 64.4546 86.8086 64.2002 86.2998L63.3058 86.747ZM63.5753 87.9951C63.5753 88.6462 63.4602 89.1756 63.2508 89.6002L64.1478 90.0424C64.4397 89.4501 64.5753 88.762 64.5753 87.9951H63.5753ZM63.2508 89.6002C63.0302 90.0478 62.7368 90.4211 62.3701 90.7257L63.009 91.495C63.4873 91.0978 63.8671 90.6117 64.1478 90.0424L63.2508 89.6002ZM62.3668 90.7284C61.9971 91.0407 61.5624 91.2965 61.0578 91.4931L61.4208 92.4249C62.0191 92.1918 62.5512 91.8818 63.0122 91.4923L62.3668 90.7284ZM61.0631 91.4911C60.5402 91.688 59.9882 91.8415 59.4066 91.951L59.5916 92.9338C60.2274 92.8141 60.8356 92.6453 61.4156 92.4269L61.0631 91.4911ZM59.4055 91.9512C58.8258 92.0616 58.2352 92.1342 57.6335 92.1688L57.6909 93.1671C58.3353 93.1301 58.9693 93.0523 59.5926 92.9336L59.4055 91.9512ZM57.6332 92.1688C57.026 92.2041 56.4484 92.2217 55.9005 92.2217V93.2217C56.4697 93.2217 57.0666 93.2034 57.6912 93.1671L57.6332 92.1688ZM55.9005 92.2217C54.467 92.2217 53.146 92.1022 51.9358 91.8657L51.744 92.8472C53.026 93.0977 54.412 93.2217 55.9005 93.2217V92.2217ZM51.9336 91.8653C50.7163 91.6331 49.6491 91.3428 48.7288 90.9968L48.3769 91.9329C49.3615 92.303 50.4856 92.6071 51.7462 92.8476L51.9336 91.8653ZM49.0528 91.4648V87.9414H48.0528V91.4648H49.0528ZM48.3103 88.3786C49.3354 88.9473 50.4951 89.3883 51.7851 89.7053L52.0237 88.7342C50.8072 88.4353 49.7324 88.024 48.7954 87.5042L48.3103 88.3786ZM51.7857 89.7054C53.0887 90.0238 54.4752 90.1816 55.9434 90.1816V89.1816C54.547 89.1816 53.2408 89.0315 52.023 88.734L51.7857 89.7054ZM55.9434 90.1816C56.8019 90.1816 57.519 90.1382 58.086 90.0463L57.9259 89.0592C57.4329 89.1391 56.775 89.1816 55.9434 89.1816V90.1816ZM58.0913 90.0454C58.6468 89.9491 59.1128 89.8256 59.4688 89.6645L59.0567 88.7534C58.8112 88.8645 58.4392 88.9702 57.9205 89.0601L58.0913 90.0454ZM59.4777 89.6604C59.8106 89.5019 60.1124 89.2985 60.2939 89.0202L59.4563 88.4739C59.4229 88.5251 59.3165 88.6296 59.0478 88.7576L59.4777 89.6604ZM60.2939 89.0202C60.4382 88.7988 60.5362 88.5475 60.5362 88.2744H59.5362C59.5362 88.3021 59.5267 88.3659 59.4563 88.4739L60.2939 89.0202ZM60.5362 88.2744C60.5362 87.8603 60.3379 87.521 60.0263 87.2717L59.4016 88.0525C59.5197 88.147 59.5362 88.2159 59.5362 88.2744H60.5362ZM60.034 87.278C59.758 87.048 59.4046 86.8689 58.9966 86.7277L58.6695 87.6727C59.0064 87.7893 59.2402 87.9182 59.3938 88.0462L60.034 87.278ZM59.0047 86.7306C58.6061 86.5849 58.1501 86.4574 57.6395 86.3464L57.4271 87.3235C57.9047 87.4274 58.3153 87.5433 58.6615 87.6698L59.0047 86.7306ZM57.6462 86.3479C57.1452 86.2317 56.6127 86.1194 56.0486 86.011L55.8597 86.993C56.4129 87.0993 56.933 87.209 57.4203 87.322L57.6462 86.3479ZM56.0559 86.0124C55.5064 85.8982 54.9389 85.7769 54.3534 85.6483L54.139 86.6251C54.7279 86.7544 55.2991 86.8765 55.8524 86.9915L56.0559 86.0124ZM54.3534 85.6483C53.7792 85.5223 53.2196 85.3754 52.6745 85.2077L52.3804 86.1634C52.9525 86.3395 53.5387 86.4933 54.139 86.6251L54.3534 85.6483ZM52.6818 85.21C52.1482 85.0367 51.6442 84.8399 51.1694 84.6196L50.7487 85.5268C51.2621 85.765 51.8037 85.9763 52.373 86.1611L52.6818 85.21ZM51.1748 84.6222C50.7146 84.4021 50.3183 84.1487 49.9822 83.8644L49.3363 84.6278C49.745 84.9736 50.2153 85.2718 50.7433 85.5243L51.1748 84.6222ZM49.9864 83.868C49.6595 83.5851 49.4066 83.2659 49.2225 82.9099L48.3343 83.3694C48.5798 83.8441 48.9142 84.2626 49.3321 84.6242L49.9864 83.868ZM49.2241 82.913C49.0503 82.5713 48.9561 82.1642 48.9561 81.6787H47.9561C47.9561 82.296 48.0767 82.8629 48.3327 83.3663L49.2241 82.913ZM48.9561 81.6787C48.9561 81.0848 49.0605 80.6006 49.2498 80.2103L48.35 79.7741C48.0809 80.3291 47.9561 80.9692 47.9561 81.6787H48.9561ZM49.2498 80.2103C49.4498 79.7978 49.7157 79.4527 50.0479 79.1697L49.3995 78.4084C48.9583 78.7843 48.6083 79.2413 48.35 79.7741L49.2498 80.2103ZM50.0485 79.1692C50.3995 78.8693 50.8042 78.6243 51.2663 78.4355L50.8882 77.5098C50.3333 77.7364 49.8357 78.0357 49.3989 78.4089L50.0485 79.1692ZM51.264 78.4364C51.7503 78.2406 52.2616 78.0881 52.7985 77.9793L52.6 76.9992C52.0055 77.1196 51.4354 77.2893 50.8904 77.5089L51.264 78.4364ZM52.7985 77.9793C53.3436 77.8689 53.8957 77.793 54.455 77.7516L54.3811 76.7543C53.7803 76.7988 53.1865 76.8804 52.6 76.9992L52.7985 77.9793ZM54.455 77.7516C55.0241 77.7094 55.5632 77.6885 56.0723 77.6885V76.6885C55.5359 76.6885 54.9721 76.7105 54.3811 76.7543L54.455 77.7516ZM56.0723 77.6885C56.6286 77.6885 57.2 77.7163 57.7866 77.7722L57.8815 76.7767C57.265 76.718 56.6619 76.6885 56.0723 76.6885V77.6885ZM57.7872 77.7722C58.3818 77.8282 58.9654 77.9086 59.538 78.0133L59.718 77.0296C59.1161 76.9195 58.5037 76.8352 57.8809 76.7766L57.7872 77.7722ZM59.5438 78.0144C60.1194 78.1126 60.6727 78.2282 61.204 78.361L61.4465 77.3909C60.8893 77.2516 60.3111 77.1309 59.7121 77.0286L59.5438 78.0144ZM61.2055 78.3614C61.7473 78.4951 62.2442 78.6352 62.6969 78.7814L63.0044 77.8299C62.5261 77.6754 62.0061 77.529 61.445 77.3905L61.2055 78.3614ZM62.3507 78.3057V81.7217H63.3507V78.3057H62.3507ZM79.7159 89.5312L80.1638 89.309L80.026 89.0312H79.7159V89.5312ZM71.4874 89.5312V89.0312H71.1773L71.0395 89.309L71.4874 89.5312ZM70.1016 92.3242V92.8242H70.4117L70.5495 92.5464L70.1016 92.3242ZM65.6544 92.3242L65.2114 92.0924L64.8284 92.8242H65.6544V92.3242ZM73.378 77.5645V77.0645H73.0753L72.935 77.3326L73.378 77.5645ZM77.8253 77.5645L78.2683 77.3326L78.1279 77.0645H77.8253V77.5645ZM85.5489 92.3242V92.8242H86.3749L85.9919 92.0924L85.5489 92.3242ZM81.1016 92.3242L80.6537 92.5464L80.7915 92.8242H81.1016V92.3242ZM72.9161 86.6523L72.4685 86.4294L72.1085 87.1523H72.9161V86.6523ZM78.3087 86.6523V87.1523H79.1134L78.7569 86.4309L78.3087 86.6523ZM75.6231 81.2168L76.0714 80.9953L75.6249 80.0916L75.1755 80.9939L75.6231 81.2168ZM79.7159 89.0312H71.4874V90.0312H79.7159V89.0312ZM71.0395 89.309L69.6537 92.102L70.5495 92.5464L71.9353 89.7535L71.0395 89.309ZM70.1016 91.8242H65.6544V92.8242H70.1016V91.8242ZM66.0974 92.556L73.821 77.7963L72.935 77.3326L65.2114 92.0924L66.0974 92.556ZM73.378 78.0645H77.8253V77.0645H73.378V78.0645ZM77.3823 77.7963L85.1059 92.556L85.9919 92.0924L78.2683 77.3326L77.3823 77.7963ZM85.5489 91.8242H81.1016V92.8242H85.5489V91.8242ZM81.5495 92.102L80.1638 89.309L79.268 89.7535L80.6537 92.5464L81.5495 92.102ZM72.9161 87.1523H78.3087V86.1523H72.9161V87.1523ZM78.7569 86.4309L76.0714 80.9953L75.1748 81.4383L77.8604 86.8738L78.7569 86.4309ZM75.1755 80.9939L72.4685 86.4294L73.3637 86.8752L76.0707 81.4397L75.1755 80.9939ZM87.9659 92.3242H87.4659V92.8242H87.9659V92.3242ZM87.9659 77.5645V77.0645H87.4659V77.5645H87.9659ZM91.9512 77.5645H92.4512V77.0645H91.9512V77.5645ZM91.9512 89.0908H91.4512V89.5908H91.9512V89.0908ZM102.726 89.0908H103.226V88.5908H102.726V89.0908ZM102.726 92.3242V92.8242H103.226V92.3242H102.726ZM88.4659 92.3242V77.5645H87.4659V92.3242H88.4659ZM87.9659 78.0645H91.9512V77.0645H87.9659V78.0645ZM91.4512 77.5645V89.0908H92.4512V77.5645H91.4512ZM91.9512 89.5908H102.726V88.5908H91.9512V89.5908ZM102.226 89.0908V92.3242H103.226V89.0908H102.226ZM102.726 91.8242H87.9659V92.8242H102.726V91.8242ZM105.927 92.3242H105.427V92.8242H105.927V92.3242ZM105.927 77.5645V77.0645H105.427V77.5645H105.927ZM120.869 77.5645H121.369V77.0645H120.869V77.5645ZM120.869 80.7119V81.2119H121.369V80.7119H120.869ZM110.02 80.7119V80.2119H109.52V80.7119H110.02ZM110.02 83.1504H109.52V83.6504H110.02V83.1504ZM120.311 83.1504H120.811V82.6504H120.311V83.1504ZM120.311 86.2979V86.7979H120.811V86.2979H120.311ZM110.02 86.2979V85.7979H109.52V86.2979H110.02ZM110.02 89.1768H109.52V89.6768H110.02V89.1768ZM121.02 89.1768H121.52V88.6768H121.02V89.1768ZM121.02 92.3242V92.8242H121.52V92.3242H121.02ZM106.427 92.3242V77.5645H105.427V92.3242H106.427ZM105.927 78.0645H120.869V77.0645H105.927V78.0645ZM120.369 77.5645V80.7119H121.369V77.5645H120.369ZM120.869 80.2119H110.02V81.2119H120.869V80.2119ZM109.52 80.7119V83.1504H110.52V80.7119H109.52ZM110.02 83.6504H120.311V82.6504H110.02V83.6504ZM119.811 83.1504V86.2979H120.811V83.1504H119.811ZM120.311 85.7979H110.02V86.7979H120.311V85.7979ZM109.52 86.2979V89.1768H110.52V86.2979H109.52ZM110.02 89.6768H121.02V88.6768H110.02V89.6768ZM120.52 89.1768V92.3242H121.52V89.1768H120.52ZM121.02 91.8242H105.927V92.8242H121.02V91.8242Z" fill="#3A3A3A" mask="url(#path-2-outside-1_515_9437)"/>
</svg>
