<svg width="158" height="158" viewBox="0 0 158 158" fill="none" xmlns="http://www.w3.org/2000/svg">
<path d="M79.185 0.848633L88.7003 16.0537L102.275 4.32885L106.886 21.6631L123.313 14.4603L122.609 32.3835L140.43 30.3427L134.475 47.2623L152.105 50.5649L141.428 64.9775L157.301 73.33L142.85 83.955L155.556 96.6152L138.615 102.509L147.025 118.352L129.1 118.99L132.467 136.608L115.149 131.934L113.173 149.762L98.0031 140.191L90.8602 156.644L79.185 143.027L67.5097 156.644L60.3668 140.191L45.1965 149.762L43.2207 131.934L25.9034 136.608L29.2702 118.99L11.3446 118.352L19.7549 102.509L2.81364 96.6152L15.5202 83.955L1.06865 73.33L16.9423 64.9775L6.26464 50.5649L23.895 47.2623L17.9399 30.3427L35.7605 32.3835L35.0571 14.4603L51.4844 21.6631L56.0952 4.32885L69.6696 16.0537L79.185 0.848633Z" fill="#998675"/>
<path d="M51.1724 76.6705L50.8129 76.4954C50.4769 76.3317 50.0282 76.1441 49.4643 75.9326C48.9064 75.7234 48.272 75.5264 47.5602 75.3419L47.5574 75.3411L47.5574 75.3411C46.8498 75.1489 46.0791 74.9912 45.245 74.8682L45.2424 74.8679L45.2424 74.8679C44.4132 74.7369 43.5615 74.6713 42.6871 74.6713C41.9823 74.6713 41.3825 74.6934 40.8864 74.7369C40.396 74.7807 39.985 74.8372 39.6514 74.9056C39.3251 74.9743 39.076 75.0534 38.8968 75.1391L38.8924 75.1412L38.8924 75.1412C38.7108 75.2237 38.5856 75.3039 38.5055 75.3773C38.4228 75.4531 38.381 75.5157 38.3619 75.5627C38.3419 75.6391 38.3338 75.7016 38.3338 75.7518C38.3338 75.9197 38.4125 76.0872 38.633 76.2569C38.8712 76.4311 39.2082 76.5978 39.6536 76.7521C40.1053 76.8997 40.6333 77.0438 41.2385 77.1842C41.8498 77.3171 42.4963 77.4588 43.1782 77.6093C43.8721 77.7517 44.5834 77.9117 45.3123 78.0895C46.0554 78.2597 46.7723 78.4613 47.4629 78.6944C48.165 78.9285 48.8278 79.2034 49.451 79.5194M51.1724 76.6705L49.3392 79.743M51.1724 76.6705V76.2706V72.0399V71.8579L50.9993 71.802C50.4164 71.6137 49.7811 71.4348 49.0935 71.2651M51.1724 76.6705L50.9224 75.9935V72.0399C50.3459 71.8536 49.7162 71.6762 49.0332 71.5077M49.451 79.5194C49.4514 79.5196 49.4519 79.5199 49.4523 79.5201L49.3392 79.743M49.451 79.5194C49.4506 79.5192 49.4501 79.519 49.4497 79.5188L49.3392 79.743M49.451 79.5194C50.0803 79.8296 50.6354 80.1962 51.1147 80.6201C51.599 81.0486 51.9827 81.544 52.2636 82.1058C52.5494 82.6775 52.6891 83.3243 52.6891 84.0403C52.6891 84.9473 52.5288 85.7409 52.1977 86.4126C51.8724 87.0724 51.4342 87.6326 50.8834 88.0902C50.3463 88.5438 49.7235 88.9074 49.0175 89.1825L49.0149 89.1835L49.0149 89.1835C48.3177 89.4461 47.5852 89.6495 46.8178 89.7939M49.3392 79.743C49.9512 80.0446 50.4878 80.3994 50.949 80.8074C51.4102 81.2154 51.7739 81.6855 52.04 82.2176C52.306 82.7498 52.4391 83.3574 52.4391 84.0403C52.4391 84.9184 52.2839 85.6723 51.9734 86.302C51.663 86.9318 51.2461 87.4639 50.7228 87.8985C50.2084 88.3331 49.6097 88.6835 48.9268 88.9496C48.2438 89.2068 47.5254 89.4064 46.7715 89.5483M46.8178 89.7939C46.8179 89.7939 46.8181 89.7939 46.8183 89.7938L46.7715 89.5483M46.8178 89.7939C46.062 89.9379 45.2931 90.0323 44.511 90.0772C43.7439 90.1218 43.0117 90.1442 42.3146 90.1442C40.4918 90.1442 38.7994 89.9923 37.2384 89.6873C35.6933 89.3926 34.3221 89.0211 33.1265 88.5716L32.9645 88.5107V88.3376V83.9738V83.5492L33.3357 83.7552C34.5288 84.417 35.8912 84.9373 37.425 85.3142C38.9647 85.6903 40.6119 85.8791 42.3678 85.8791C43.4069 85.8791 44.2431 85.8262 44.8808 85.7229C45.5348 85.6094 46.029 85.4724 46.3735 85.3169C46.7287 85.1475 46.9319 84.9819 47.0277 84.835C47.1423 84.6594 47.1867 84.5111 47.1867 84.3862C47.1867 84.1824 47.0991 83.9973 46.8814 83.8231L46.8775 83.82L46.8775 83.8199C46.642 83.6237 46.3083 83.4455 45.8648 83.292L45.8608 83.2906L45.8608 83.2906C45.4127 83.1269 44.8875 82.979 44.2837 82.8477L44.2803 82.847L44.2803 82.847C43.6718 82.7059 43.023 82.569 42.3339 82.4365L42.3302 82.4358L42.3302 82.4358C41.6463 82.2937 40.9403 82.1427 40.2121 81.9829C39.4783 81.8218 38.7621 81.6338 38.0635 81.4188L38.0598 81.4177L38.0598 81.4177C37.3679 81.193 36.7111 80.9367 36.0894 80.6484L36.0867 80.6471L36.0867 80.6471C35.4578 80.3463 34.9027 79.9936 34.4233 79.588L34.4212 79.5862C33.9373 79.1674 33.5532 78.6858 33.2718 78.1417L33.271 78.1401L33.271 78.1401C32.9844 77.5764 32.8447 76.9333 32.8447 76.2174C32.8447 75.3814 32.9917 74.6462 33.2955 74.0196C33.5939 73.4042 33.9962 72.8796 34.5024 72.4484C35.0116 72.0132 35.5936 71.6627 36.2464 71.396L36.2476 71.3956L36.2476 71.3956C36.9009 71.1324 37.5852 70.9286 38.3003 70.7837C39.0113 70.6397 39.7313 70.5407 40.4601 70.4868C41.184 70.4331 41.8732 70.4062 42.5274 70.4062C43.2453 70.4062 43.9805 70.4421 44.7329 70.5138C45.4933 70.5854 46.2406 70.6883 46.9747 70.8225M46.8178 89.7939C46.8178 89.7939 46.8177 89.7939 46.8177 89.7939L46.7715 89.5483M46.7715 89.5483C46.0264 89.6902 45.2681 89.7833 44.4965 89.8277C43.7337 89.872 43.0064 89.8942 42.3146 89.8942C40.5052 89.8942 38.8289 89.7434 37.2856 89.4418C35.7511 89.1491 34.3941 88.7811 33.2145 88.3376V84.2589C33.1739 84.2369 33.1334 84.2147 33.0932 84.1924L33.2145 83.9738H33.4645V84.1092C34.6184 84.7189 35.9187 85.2015 37.3654 85.557C38.9264 85.9384 40.5939 86.1291 42.3678 86.1291C43.4144 86.1291 44.2659 86.0759 44.9222 85.9694C45.5874 85.8541 46.1063 85.7122 46.4788 85.5437C46.8513 85.3663 47.1041 85.1756 47.2371 84.9716C47.3702 84.7676 47.4367 84.5725 47.4367 84.3862C47.4367 84.0935 47.3037 83.8407 47.0376 83.6279C46.7715 83.4061 46.4078 83.2154 45.9466 83.0558C45.4854 82.8873 44.9488 82.7365 44.3368 82.6035C43.7248 82.4615 43.0729 82.3241 42.3811 82.191C41.6981 82.0491 40.993 81.8983 40.2657 81.7387C39.5384 81.579 38.8289 81.3928 38.137 81.1799C37.4541 80.9582 36.8066 80.7054 36.1946 80.4216C35.5826 80.1289 35.046 79.7874 34.5848 79.3971C34.1236 78.998 33.7599 78.5412 33.4939 78.0268C33.2278 77.5035 33.0947 76.9004 33.0947 76.2174C33.0947 75.4103 33.2366 74.714 33.5205 74.1287C33.8043 73.5433 34.1857 73.0466 34.6646 72.6386C35.1524 72.2217 35.7112 71.8847 36.341 71.6275C36.9796 71.3702 37.6492 71.1707 38.3499 71.0288C39.0506 70.8869 39.7601 70.7893 40.4786 70.7361C41.197 70.6829 41.88 70.6562 42.5274 70.6562C43.237 70.6562 43.9643 70.6917 44.7093 70.7627C45.4632 70.8336 46.2038 70.9356 46.9311 71.0687C47.6584 71.1929 48.3591 71.3392 49.0332 71.5077M50.6724 76.1537C50.3656 76.0153 49.9921 75.8636 49.5521 75.6986C48.9844 75.4857 48.3414 75.2861 47.623 75.0999C46.9045 74.9047 46.124 74.7451 45.2814 74.6209C44.4388 74.4879 43.574 74.4213 42.6871 74.4213C41.9775 74.4213 41.37 74.4435 40.8644 74.4879C40.3677 74.5322 39.9464 74.5899 39.6005 74.6608C39.2635 74.7318 38.9929 74.816 38.7889 74.9136C38.5938 75.0023 38.443 75.0954 38.3366 75.193C38.2302 75.2906 38.1592 75.3881 38.1237 75.4857C38.0971 75.5833 38.0838 75.6719 38.0838 75.7518C38.0838 76.0179 38.2169 76.2529 38.4829 76.4569C38.749 76.652 39.1127 76.8294 39.5739 76.9891C40.0351 77.1398 40.5717 77.2862 41.1837 77.4281C41.7957 77.5611 42.4432 77.7031 43.1261 77.8538C43.8179 77.9958 44.5275 78.1554 45.2548 78.3328C45.991 78.5013 46.7005 78.7009 47.3835 78.9315L50.6724 76.1537ZM50.6724 76.1537V76.2706H50.9224L50.6724 76.1537ZM49.0332 71.5077L49.0938 71.2652C49.0937 71.2652 49.0936 71.2651 49.0935 71.2651M49.0332 71.5077L46.9747 70.8225M49.0935 71.2651C48.4134 71.0951 47.7072 70.9476 46.9747 70.8225M49.0935 71.2651L46.9747 70.8225M59.9028 89.6519H60.0578L60.1267 89.513L61.774 86.1928H71.655L73.3023 89.513L73.3713 89.6519H73.5263H79.0343H79.4472L79.2558 89.286L69.69 71.006L69.6198 70.8719H69.4685H63.9606H63.8092L63.739 71.006L54.1733 89.286L53.9818 89.6519H54.3948H59.9028ZM81.7777 89.4019V89.6519H82.0277H100.308H100.558V89.4019V85.3973V85.1473H100.308H87.2136V71.1219V70.8719H86.9636H82.0277H81.7777V71.1219V89.4019ZM104.022 89.4019V89.6519H104.272H122.965H123.215V89.4019V85.5038V85.2538H122.965H109.591V82.1882H122.087H122.337V81.9382V78.0401V77.7901H122.087H109.591V75.27H122.779H123.029V75.02V71.1219V70.8719H122.779H104.272H104.022V71.1219V89.4019ZM63.7923 82.1273L66.7402 76.2079L69.6648 82.1273H63.7923Z" fill="white" stroke="#3A3A3A" stroke-width="0.5"/>
</svg>
