<svg width="130" height="131" viewBox="0 0 130 131" fill="none" xmlns="http://www.w3.org/2000/svg">
<path d="M58.9214 7.04954L75.0875 25.2733L97.9069 16.7454L98.5769 41.097L121.539 49.2323L106.399 68.3174L118.76 89.3092L94.895 94.1976L90.8707 118.224L69.4466 106.628L50.9201 122.446L41.9618 99.7925L17.6019 100.001L25.3011 76.8892L6.50603 61.391L27.2602 48.635L22.8244 24.6814L46.9224 28.2503L58.9214 7.04954Z" fill="#FE793E"/>
<mask id="mask0_940_8410" style="mask-type:alpha" maskUnits="userSpaceOnUse" x="6" y="7" width="116" height="116">
<path d="M58.9214 7.04954L75.0875 25.2733L97.9069 16.7454L98.5769 41.097L121.539 49.2323L106.399 68.3174L118.76 89.3092L94.895 94.1976L90.8707 118.224L69.4466 106.628L50.9201 122.446L41.9618 99.7925L17.6019 100.001L25.3011 76.8892L6.50603 61.391L27.2602 48.635L22.8244 24.6814L46.9224 28.2503L58.9214 7.04954Z" fill="#CCCCCC"/>
</mask>
<g mask="url(#mask0_940_8410)">
<path d="M32.6526 46.3074C26.4473 53.3992 20.4635 66.9919 18.2473 72.9017C3.1772 113.68 18.6167 128.307 28.2202 130.523C50.3822 135.842 68.4811 123.136 74.7603 116.118C98.6952 89.5232 104.679 67.3613 104.679 59.6046C102.093 61.8208 97.3655 65.8099 99.1385 64.037C100.911 62.264 102.093 51.4785 102.463 46.3074L92.4899 58.4965V37.4426L82.517 46.3074V30.794L68.1117 48.5236L71.436 27.4697C67.8901 27.4697 57.4001 39.2894 52.5984 45.1993L53.7065 33.0102C50.1605 34.7832 39.6706 47.7849 34.8688 54.0641L32.6526 46.3074Z" fill="#F3A14B"/>
</g>
<path d="M93.2102 60.1613V71.7942H89.1955V60.1613H82.8867V56.9258H99.5298V60.1613H93.2102Z" fill="#3A3A3A"/>
<path d="M79.2201 64.3707C79.2201 65.6476 78.9857 66.7766 78.5168 67.7577C78.0478 68.7316 77.3769 69.5468 76.504 70.2033C75.6311 70.8598 74.5706 71.3576 73.3226 71.6966C72.0817 72.0285 70.6858 72.1944 69.1347 72.1944C67.5837 72.1944 66.1805 72.0285 64.9253 71.6966C63.6772 71.3576 62.6131 70.8598 61.733 70.2033C60.8528 69.5468 60.1747 68.7316 59.6986 67.7577C59.2224 66.7766 58.9844 65.6476 58.9844 64.3707C58.9844 63.0937 59.2224 61.9683 59.6986 60.9944C60.1747 60.0133 60.8528 59.1945 61.733 58.538C62.6131 57.8815 63.6772 57.3873 64.9253 57.0555C66.1805 56.7164 67.5837 56.5469 69.1347 56.5469C70.6858 56.5469 72.0817 56.7164 73.3226 57.0555C74.5706 57.3873 75.6311 57.8815 76.504 58.538C77.3769 59.1945 78.0478 60.0133 78.5168 60.9944C78.9857 61.9683 79.2201 63.0937 79.2201 64.3707ZM75.1622 64.3707C75.1622 63.8152 75.072 63.2633 74.8916 62.715C74.7185 62.1595 74.4047 61.6617 73.9502 61.2217C73.5029 60.7816 72.8897 60.4245 72.1106 60.1504C71.3314 59.8762 70.3395 59.7391 69.1347 59.7391C68.3267 59.7391 67.6161 59.8041 67.0029 59.9339C66.3897 60.0566 65.8595 60.2297 65.4122 60.4534C64.9649 60.677 64.5898 60.9403 64.2868 61.2433C63.9838 61.5391 63.7421 61.8601 63.5618 62.2064C63.3814 62.5455 63.2516 62.9026 63.1722 63.2777C63.1001 63.6456 63.064 64.0099 63.064 64.3707C63.064 64.7386 63.1001 65.1101 63.1722 65.4852C63.2516 65.8604 63.3814 66.2211 63.5618 66.5674C63.7421 66.9064 63.9838 67.2239 64.2868 67.5196C64.5898 67.8154 64.9649 68.0751 65.4122 68.2988C65.8595 68.5152 66.3897 68.6883 67.0029 68.8182C67.6161 68.9408 68.3267 69.0022 69.1347 69.0022C70.3395 69.0022 71.3314 68.8651 72.1106 68.5909C72.8897 68.3168 73.5029 67.9597 73.9502 67.5196C74.4047 67.0796 74.7185 66.5854 74.8916 66.0371C75.072 65.4816 75.1622 64.9261 75.1622 64.3707Z" fill="#3A3A3A"/>
<path d="M49.0962 71.7942V65.5936H38.8809V71.7942H34.8662V56.9258H38.8809V62.3364H49.0962V56.9258H53.1109V71.7942H49.0962Z" fill="#3A3A3A"/>
</svg>
