<svg width="143" height="143" viewBox="0 0 143 143" fill="none" xmlns="http://www.w3.org/2000/svg">
<circle cx="71.7812" cy="71.2725" r="69.5" fill="#998675" stroke="#3A3A3A" stroke-width="3"/>
<path d="M118.343 104.664L106.937 97.17L109.524 93.2337L120.929 100.728L124.994 94.5425L128.166 96.627L117.444 112.945L114.272 110.86L118.343 104.664Z" fill="white"/>
<path fill-rule="evenodd" clip-rule="evenodd" d="M105.552 97.4566L109.237 91.8488L120.643 99.3432L124.707 93.1576L129.551 96.3403L117.73 114.33L112.887 111.147L116.958 104.951L105.552 97.4566ZM120.929 100.728L109.524 93.2337L106.937 97.17L118.343 104.664L114.271 110.86L117.444 112.945L128.166 96.6269L124.994 94.5425L120.929 100.728Z" fill="#3A3A3A"/>
<path d="M84.6043 123.399C83.9297 122.061 83.5789 120.755 83.5517 119.479C83.5284 118.211 83.8006 117.003 84.3681 115.854C84.9357 114.705 85.7836 113.624 86.9118 112.609C88.0363 111.606 89.4109 110.695 91.0356 109.875C92.6603 109.056 94.2178 108.488 95.708 108.173C97.1945 107.869 98.5721 107.828 99.8408 108.051C101.11 108.273 102.251 108.769 103.264 109.538C104.281 110.314 105.127 111.371 105.801 112.708C106.476 114.046 106.821 115.351 106.837 116.622C106.856 117.902 106.579 119.118 106.004 120.27C105.428 121.423 104.575 122.503 103.443 123.51C102.307 124.528 100.927 125.447 99.302 126.266C97.6773 127.086 96.1255 127.645 94.6466 127.946C93.1639 128.257 91.792 128.3 90.5308 128.074C89.2696 127.847 88.1342 127.344 87.1247 126.564C86.119 125.791 85.2789 124.736 84.6043 123.399ZM88.855 121.255C89.1485 121.837 89.5345 122.367 90.0131 122.846C90.4879 123.337 91.0796 123.692 91.7882 123.913C92.4892 124.138 93.3202 124.188 94.2811 124.064C95.2421 123.939 96.3536 123.559 97.6156 122.922C98.462 122.495 99.172 122.052 99.7457 121.592C100.323 121.14 100.787 120.678 101.138 120.208C101.488 119.737 101.742 119.263 101.899 118.785C102.06 118.316 102.144 117.852 102.15 117.394C102.16 116.943 102.107 116.501 101.992 116.066C101.873 115.642 101.718 115.241 101.528 114.864C101.334 114.478 101.1 114.108 100.826 113.753C100.544 113.402 100.218 113.093 99.846 112.825C99.478 112.566 99.0571 112.361 98.5835 112.211C98.1098 112.061 97.5797 111.987 96.993 111.989C96.4101 111.999 95.7632 112.098 95.0523 112.286C94.3452 112.481 93.5684 112.792 92.722 113.219C91.46 113.856 90.4934 114.523 89.8221 115.222C89.1507 115.921 88.6971 116.619 88.461 117.316C88.2174 118.017 88.1498 118.701 88.258 119.366C88.3626 120.044 88.5616 120.673 88.855 121.255Z" fill="white"/>
<path fill-rule="evenodd" clip-rule="evenodd" d="M82.5516 119.501L82.5515 119.498C82.5252 118.068 82.8336 116.702 83.4712 115.411C84.1043 114.13 85.0372 112.95 86.2427 111.866L86.2457 111.863C87.4471 110.791 88.8978 109.834 90.5849 108.983C92.2722 108.132 93.9114 107.531 95.5005 107.195L95.5071 107.193L95.5071 107.193C97.0951 106.869 98.601 106.818 100.013 107.066C101.437 107.316 102.726 107.875 103.868 108.741L103.87 108.743C105.026 109.625 105.963 110.809 106.694 112.258C107.425 113.707 107.818 115.16 107.836 116.609C107.858 118.049 107.544 119.422 106.898 120.717C106.257 122.001 105.318 123.179 104.108 124.256C102.896 125.342 101.44 126.308 99.7519 127.159C98.0646 128.01 96.4294 128.604 94.8486 128.925C93.2638 129.258 91.7614 129.311 90.3536 129.058C88.9353 128.803 87.6511 128.235 86.514 127.356C85.37 126.477 84.4408 125.296 83.711 123.849C82.9809 122.402 82.5824 120.949 82.5516 119.501ZM87.1243 126.564C88.1338 127.344 89.2692 127.847 90.5304 128.074C91.7916 128.3 93.1635 128.258 94.6462 127.946C96.1251 127.646 97.6769 127.086 99.3016 126.266C100.926 125.447 102.307 124.528 103.442 123.51C104.574 122.503 105.428 121.423 106.003 120.27C106.578 119.118 106.856 117.902 106.836 116.623C106.821 115.351 106.476 114.046 105.801 112.709C105.126 111.371 104.281 110.314 103.263 109.538C102.25 108.769 101.109 108.274 99.8404 108.051C98.5717 107.828 97.1941 107.869 95.7076 108.173C94.2174 108.489 92.6599 109.056 91.0352 109.876C89.4105 110.695 88.0359 111.606 86.9114 112.609C85.7832 113.624 84.9353 114.706 84.3677 115.854C83.8002 117.003 83.528 118.212 83.5513 119.479C83.5785 120.755 83.9293 122.061 84.6039 123.399C85.2785 124.737 86.1186 125.792 87.1243 126.564ZM90.7257 122.145L90.7311 122.151C91.0796 122.511 91.5222 122.783 92.0854 122.959L92.093 122.961L92.093 122.961C92.6172 123.129 93.293 123.183 94.1523 123.072C94.9624 122.967 95.9618 122.636 97.1649 122.03C97.9659 121.626 98.6134 121.218 99.1198 120.812L99.1286 120.805L99.1287 120.805C99.6529 120.394 100.049 119.995 100.335 119.611C100.632 119.212 100.83 118.833 100.949 118.473L100.953 118.461L100.953 118.461C101.082 118.083 101.145 117.724 101.15 117.381L101.15 117.372L101.15 117.372C101.157 117.018 101.116 116.671 101.027 116.329C100.925 115.968 100.794 115.63 100.635 115.314C100.471 114.99 100.273 114.676 100.039 114.372C99.8179 114.097 99.5608 113.853 99.2653 113.64C98.9903 113.447 98.6653 113.286 98.2816 113.165C97.9241 113.052 97.5012 112.989 97.0026 112.99C96.521 112.998 95.9599 113.081 95.3129 113.251C94.6858 113.425 93.9733 113.708 93.1719 114.112C91.9688 114.719 91.1087 115.326 90.5428 115.915C89.9425 116.54 89.5843 117.116 89.4078 117.637L89.4052 117.645L89.4052 117.645C89.2105 118.205 89.1656 118.72 89.2447 119.206L89.246 119.214L89.2459 119.214C89.3353 119.793 89.5036 120.321 89.7475 120.805C89.9913 121.288 90.3136 121.733 90.7201 122.14L90.7257 122.145ZM99.8456 112.826C100.217 113.093 100.544 113.402 100.825 113.754C101.099 114.108 101.333 114.478 101.528 114.864C101.718 115.242 101.873 115.642 101.992 116.066C102.107 116.501 102.159 116.943 102.149 117.394C102.143 117.852 102.06 118.316 101.899 118.786C101.741 119.263 101.488 119.737 101.137 120.208C100.787 120.678 100.323 121.14 99.7453 121.592C99.1716 122.052 98.4616 122.496 97.6152 122.923C96.3532 123.559 95.2417 123.939 94.2807 124.064C93.3198 124.188 92.4888 124.138 91.7878 123.914C91.0792 123.693 90.4875 123.337 90.0127 122.847C89.5341 122.368 89.1481 121.837 88.8546 121.255C88.5612 120.673 88.3622 120.044 88.2576 119.367C88.1494 118.701 88.217 118.017 88.4606 117.316C88.6967 116.619 89.1503 115.921 89.8217 115.222C90.493 114.524 91.4596 113.856 92.7216 113.219C93.568 112.793 94.3447 112.481 95.0519 112.286C95.7628 112.098 96.4097 111.999 96.9926 111.99C97.5792 111.988 98.1094 112.062 98.5831 112.211C99.0567 112.361 99.4775 112.566 99.8456 112.826Z" fill="#3A3A3A"/>
<path d="M64.1463 132.302C62.4452 132.131 60.8811 131.824 59.4539 131.383C58.0174 130.949 56.7115 130.444 55.5362 129.866L55.9631 125.622C56.416 125.94 56.9329 126.255 57.5138 126.569C58.0863 126.882 58.7165 127.171 59.4044 127.435C60.0923 127.7 60.8345 127.932 61.631 128.132C62.4276 128.331 63.2722 128.475 64.1648 128.565C65.2764 128.677 66.2529 128.694 67.0942 128.617C67.9356 128.54 68.6646 128.397 69.2811 128.186C69.8977 127.976 70.4137 127.709 70.8291 127.385C71.2436 127.07 71.5806 126.721 71.8403 126.339C72.0999 125.956 72.2929 125.559 72.4195 125.146C72.5461 124.734 72.6292 124.33 72.6691 123.934C72.7038 123.589 72.7078 123.211 72.6811 122.8C72.646 122.388 72.5519 121.97 72.3988 121.546C72.2374 121.122 71.9985 120.706 71.682 120.3C71.3656 119.894 70.9397 119.52 70.4043 119.177C69.8605 118.833 69.1975 118.532 68.4152 118.275C67.6322 118.026 66.6891 117.846 65.5859 117.735C65.0301 117.679 64.5442 117.647 64.1282 117.639C63.7122 117.632 63.3328 117.64 62.99 117.665C62.6388 117.689 62.3116 117.729 62.0084 117.783C61.6968 117.837 61.3763 117.894 61.047 117.955L60.8361 120.051L66.0908 120.58L65.7084 124.382L55.7673 123.382L56.6593 114.515C57.3036 114.367 58.022 114.244 58.8145 114.145C59.5978 114.053 60.408 113.99 61.2451 113.955C62.0747 113.911 62.9055 113.897 63.7375 113.913C64.5695 113.928 65.3519 113.973 66.0845 114.047C67.2213 114.161 68.3042 114.346 69.3332 114.603C70.3622 114.86 71.3157 115.189 72.1939 115.593C73.0627 116.003 73.8473 116.49 74.5477 117.054C75.2396 117.617 75.8169 118.262 76.2797 118.989C76.734 119.715 77.065 120.527 77.2725 121.424C77.4707 122.329 77.5152 123.324 77.4059 124.41C77.2975 125.488 77.0476 126.45 76.6564 127.295C76.2652 128.14 75.7662 128.873 75.1595 129.492C74.5443 130.111 73.8333 130.626 73.0262 131.039C72.2108 131.45 71.3327 131.766 70.3919 131.986C69.4418 132.213 68.4412 132.351 67.3902 132.398C66.3307 132.445 65.2494 132.413 64.1463 132.302Z" fill="white"/>
<path fill-rule="evenodd" clip-rule="evenodd" d="M56.9079 126.227C57.1017 126.342 57.3038 126.456 57.5144 126.569C58.0869 126.882 58.7171 127.171 59.405 127.436C60.0929 127.7 60.8351 127.932 61.6317 128.132C62.4282 128.331 63.2728 128.475 64.1654 128.565C65.277 128.677 66.2535 128.694 67.0948 128.617C67.9362 128.54 68.6652 128.397 69.2817 128.187C69.8983 127.976 70.4143 127.709 70.8297 127.385C71.2442 127.07 71.5813 126.721 71.8409 126.339C72.1005 125.957 72.2935 125.559 72.4201 125.147C72.5467 124.734 72.6299 124.33 72.6697 123.934C72.7044 123.589 72.7084 123.211 72.6817 122.8C72.6466 122.388 72.5525 121.97 72.3995 121.546C72.238 121.122 71.9991 120.707 71.6827 120.3C71.3662 119.894 70.9403 119.52 70.4049 119.177C69.8611 118.833 69.1981 118.532 68.4158 118.275C67.6328 118.026 66.6897 117.846 65.5865 117.735C65.0307 117.679 64.5448 117.647 64.1288 117.639C63.7128 117.632 63.3334 117.64 62.9906 117.665C62.6394 117.69 62.3122 117.729 62.009 117.784C61.6974 117.837 61.3769 117.894 61.0476 117.955L60.8367 120.052L66.0914 120.58L65.709 124.382L55.768 123.382L56.6599 114.515C57.3042 114.367 58.0226 114.244 58.8152 114.145C59.5984 114.053 60.4086 113.99 61.2457 113.955C62.0753 113.911 62.9061 113.897 63.7381 113.913C64.5701 113.928 65.3525 113.973 66.0851 114.047C67.2219 114.161 68.3048 114.347 69.3338 114.603C70.3628 114.86 71.3163 115.19 72.1945 115.593C73.0633 116.003 73.8479 116.491 74.5483 117.054C75.2402 117.617 75.8175 118.262 76.2803 118.989C76.7347 119.716 77.0656 120.527 77.2731 121.424C77.4713 122.329 77.5158 123.324 77.4065 124.41C77.2981 125.488 77.0483 126.45 76.657 127.295C76.2658 128.141 75.7668 128.873 75.1601 129.492C74.5449 130.111 73.8339 130.626 73.0268 131.039C72.2114 131.45 71.3333 131.766 70.3925 131.986C69.4424 132.214 68.4418 132.351 67.3908 132.398C66.3313 132.445 65.25 132.413 64.1469 132.302C62.4458 132.131 60.8817 131.825 59.4545 131.383C58.018 130.95 56.7121 130.444 55.5368 129.866L55.9637 125.622C56.2524 125.825 56.5672 126.026 56.9079 126.227ZM59.1623 132.34C57.6822 131.893 56.3256 131.368 55.0958 130.764L54.4723 130.457L55.0897 124.319L54.6729 124.277L55.7367 113.701L56.4362 113.54C57.1194 113.384 57.8719 113.255 58.6913 113.153L58.6993 113.152C59.5069 113.057 60.34 112.993 61.1983 112.957C62.05 112.911 62.9028 112.897 63.7569 112.913C64.6127 112.929 65.4223 112.975 66.1852 113.052C67.3662 113.171 68.4968 113.364 69.5758 113.633C70.6592 113.903 71.672 114.253 72.6116 114.684L72.6218 114.688C73.5571 115.131 74.4095 115.659 75.1754 116.275L75.1794 116.279C75.9515 116.907 76.6016 117.632 77.1239 118.452L77.1281 118.459C77.6455 119.286 78.0167 120.202 78.2473 121.199L78.25 121.21C78.4744 122.234 78.5195 123.338 78.4015 124.511C78.2837 125.682 78.0095 126.754 77.5645 127.715C77.1289 128.656 76.5668 129.485 75.8745 130.192L75.8692 130.198C75.1768 130.894 74.3791 131.471 73.4817 131.929L73.4772 131.932C72.5879 132.38 71.6354 132.722 70.6229 132.959C69.6074 133.202 68.5445 133.347 67.4358 133.397L67.4347 133.397C66.3251 133.446 65.1956 133.412 64.0468 133.297C62.29 133.12 60.6606 132.803 59.1623 132.34ZM55.9745 124.408L56.5381 124.804C56.9537 125.095 57.4365 125.391 57.9895 125.689L57.9939 125.692C58.523 125.981 59.1124 126.251 59.7643 126.502C60.41 126.751 61.1129 126.971 61.8743 127.162C62.6199 127.348 63.4166 127.485 64.2655 127.57C65.3325 127.678 66.2425 127.691 67.0037 127.622C67.7882 127.55 68.4358 127.419 68.9591 127.24C69.4941 127.058 69.9052 126.838 70.2146 126.597L70.2239 126.59C70.5633 126.331 70.822 126.059 71.0136 125.777C71.2211 125.471 71.3688 125.164 71.4641 124.853C71.5729 124.498 71.642 124.159 71.6747 123.834C71.7027 123.555 71.7075 123.237 71.6845 122.875C71.6569 122.563 71.5848 122.236 71.4618 121.894C71.3401 121.577 71.1549 121.25 70.8938 120.915C70.6616 120.617 70.3282 120.316 69.8679 120.02C69.4111 119.732 68.8294 119.464 68.1082 119.226C67.4103 119.005 66.5405 118.836 65.4864 118.73C64.9492 118.676 64.4915 118.646 64.11 118.639C63.7185 118.632 63.3703 118.64 63.0636 118.663L63.0594 118.663C62.7395 118.685 62.4489 118.72 62.1861 118.768L62.1789 118.769C62.1088 118.781 62.0381 118.793 61.9671 118.806L61.9318 119.157L67.1865 119.685L66.6039 125.477L55.9745 124.408Z" fill="#3A3A3A"/>
<path d="M52.6304 111.332L42.2666 125.363L28.0622 114.871L30.2723 111.879L40.586 119.497L42.2982 117.179L32.5155 109.953L34.7255 106.961L44.5083 114.187L46.5297 111.45L36.073 103.726L38.2831 100.734L52.6304 111.332Z" fill="white"/>
<path fill-rule="evenodd" clip-rule="evenodd" d="M54.0286 111.122L42.4766 126.762L26.6635 115.081L30.0618 110.481L40.3755 118.099L40.8995 117.39L31.1167 110.164L34.515 105.563L44.2978 112.789L45.131 111.661L34.6743 103.937L38.0726 99.3363L54.0286 111.122ZM46.5295 111.451L44.508 114.187L34.7253 106.961L32.5152 109.953L42.298 117.179L40.5857 119.497L30.272 111.879L28.062 114.871L42.2663 125.363L52.6301 111.332L38.2828 100.735L36.0728 103.727L46.5295 111.451Z" fill="#3A3A3A"/>
<path d="M19.0292 93.682L31.3485 87.8093L33.3753 92.0608L21.056 97.9336L24.2409 104.615L20.8145 106.248L12.4124 88.6229L15.8388 86.9895L19.0292 93.682Z" fill="white"/>
<path fill-rule="evenodd" clip-rule="evenodd" d="M31.8206 86.4763L34.708 92.5332L22.3887 98.4059L25.5736 105.087L20.3418 107.581L11.0791 88.1506L16.3109 85.6565L19.5013 92.349L31.8206 86.4763ZM21.0557 97.9336L33.375 92.0608L31.3482 87.8093L19.0289 93.682L15.8385 86.9895L12.4121 88.6229L20.8142 106.248L24.2406 104.615L21.0557 97.9336Z" fill="#3A3A3A"/>
<path d="M28.8452 61.5388L21.597 60.9223L20.5813 72.8636L27.8296 73.4801L27.4304 78.1731L10.0498 76.6948L10.449 72.0018L16.7738 72.5398L17.7894 60.5985L11.4646 60.0605L11.8638 55.3675L29.2444 56.8458L28.8452 61.5388Z" fill="white"/>
<path fill-rule="evenodd" clip-rule="evenodd" d="M29.757 62.6199L22.5087 62.0035L21.6626 71.9519L28.9108 72.5684L28.3422 79.2542L8.96875 77.6064L9.5374 70.9206L15.8622 71.4586L16.7084 61.5101L10.3836 60.9722L10.9522 54.2863L30.3256 55.9341L29.757 62.6199ZM17.7895 60.5985L16.7739 72.5397L10.4491 72.0018L10.0499 76.6948L27.4305 78.1731L27.8297 73.4801L20.5814 72.8636L21.5971 60.9223L28.8453 61.5388L29.2445 56.8458L11.8639 55.3675L11.4647 60.0605L17.7895 60.5985Z" fill="#3A3A3A"/>
<path d="M31.3612 52.7583L17.2178 42.5488L27.5535 28.2304L30.5696 30.4075L23.0648 40.8041L25.4015 42.4908L32.5199 32.6295L35.5359 34.8066L28.4175 44.6679L31.1762 46.6593L38.785 36.1186L41.801 38.2957L31.3612 52.7583Z" fill="white"/>
<path fill-rule="evenodd" clip-rule="evenodd" d="M31.5874 54.1544L15.8223 42.7744L27.3286 26.8343L31.9663 30.182L24.4615 40.5786L25.1766 41.0947L32.2949 31.2334L36.9326 34.5811L29.8142 44.4424L30.9513 45.2632L38.5601 34.7225L43.1978 38.0702L31.5874 54.1544ZM31.1768 46.6593L28.4181 44.668L35.5365 34.8066L32.5205 32.6295L25.4021 42.4908L23.0654 40.8041L30.5702 30.4075L27.5541 28.2304L17.2184 42.5489L31.3619 52.7583L41.8017 38.2958L38.7856 36.1186L31.1768 46.6593Z" fill="#3A3A3A"/>
<path d="M49.8965 33.2671L45.5936 35.1825L38.5 19.2466L49.2863 14.4453C50.4461 13.929 51.4814 13.6117 52.3923 13.4935C53.3108 13.3718 54.1195 13.4195 54.8183 13.6365C55.5248 13.85 56.1295 14.2201 56.6326 14.7466C57.1399 15.2619 57.5639 15.9023 57.9046 16.6677C58.2041 17.3404 58.369 17.9711 58.3994 18.5597C58.4375 19.1449 58.3751 19.6915 58.2121 20.1995C58.0535 20.6963 57.8165 21.163 57.5014 21.5997C57.1863 22.0365 56.829 22.441 56.4296 22.8133L64.4522 26.7879L59.4186 29.0285L51.9814 25.3075L47.2841 27.3984L49.8965 33.2671ZM53.545 18.5806C53.4073 18.2713 53.2478 18.0273 53.0663 17.8487C52.8927 17.6666 52.676 17.5546 52.4165 17.5126C52.1535 17.4629 51.8381 17.4829 51.4704 17.5725C51.1104 17.6586 50.6791 17.8135 50.1765 18.0372L44.2846 20.6599L45.8024 24.0698L51.6943 21.4471C52.1969 21.2234 52.6007 21.0066 52.9056 20.7967C53.2183 20.5834 53.4459 20.3663 53.5884 20.1454C53.7275 19.9167 53.7875 19.6769 53.7685 19.426C53.7572 19.1717 53.6827 18.8898 53.545 18.5806Z" fill="white"/>
<path fill-rule="evenodd" clip-rule="evenodd" d="M51.2166 33.7741L45.0866 36.5028L37.1797 18.7397L48.8796 13.5318C50.0961 12.9903 51.2269 12.6367 52.262 12.5021C53.2853 12.3666 54.2436 12.4117 55.1111 12.6804C55.9765 12.9426 56.7283 13.4012 57.3503 14.0504C57.9516 14.6626 58.4373 15.4057 58.8181 16.2612C59.1545 17.0167 59.3586 17.766 59.3976 18.5014C59.4422 19.1968 59.3686 19.8678 59.1645 20.5045M58.2121 20.1996C58.3751 19.6916 58.4375 19.145 58.3993 18.5598C58.3689 17.9712 58.204 17.3405 57.9046 16.6678C57.5638 15.9023 57.1398 15.262 56.6325 14.7466C56.1295 14.2201 55.5247 13.8501 54.8182 13.6365C54.1194 13.4195 53.3108 13.3719 52.3922 13.4936C51.4814 13.6118 50.446 13.9291 49.2862 14.4454L38.4999 19.2467L45.5935 35.1825L49.8964 33.2672L47.2841 27.3985L51.9813 25.3076L59.4185 29.0286L64.4521 26.788L56.4296 22.8134C56.6868 22.5736 56.9266 22.3204 57.1489 22.0538C57.2717 21.9066 57.3892 21.7552 57.5013 21.5998C57.8165 21.1631 58.0534 20.6963 58.2121 20.1996ZM58.0675 22.5089L66.8024 26.8364L59.3936 30.1343L51.9564 26.4133L48.6043 27.9054L51.2166 33.7741M58.0675 22.5089C58.1514 22.4028 58.233 22.2948 58.3123 22.185C58.6868 21.6659 58.9726 21.1045 59.1645 20.5045M52.3535 18.5503L52.3427 18.539C52.3267 18.5222 52.3114 18.5087 52.2568 18.4999L52.2438 18.4978L52.2308 18.4953C52.1531 18.4806 51.9897 18.4753 51.707 18.5441L51.703 18.5451C51.4239 18.6119 51.0538 18.7414 50.5831 18.9509L45.6048 21.1669L46.3093 22.7496L51.2876 20.5336C51.7583 20.3241 52.1022 20.1358 52.3386 19.973L52.342 19.9707C52.5769 19.8105 52.6909 19.6869 52.7408 19.6143C52.7719 19.5595 52.7733 19.5288 52.7713 19.5018L52.7701 19.4862L52.7694 19.4706C52.7651 19.375 52.7339 19.2178 52.6313 18.9873C52.5287 18.7568 52.4328 18.6284 52.3647 18.5613L52.3535 18.5503ZM53.5884 20.1455C53.4458 20.3664 53.2182 20.5835 52.9055 20.7968C52.6006 21.0067 52.1968 21.2235 51.6942 21.4472L45.8024 24.0698L44.2845 20.66L50.1764 18.0373C50.679 17.8136 51.1103 17.6587 51.4703 17.5725C51.8381 17.483 52.1534 17.463 52.4164 17.5127C52.676 17.5547 52.8926 17.6667 53.0663 17.8488C53.2477 18.0274 53.4072 18.2714 53.5449 18.5806C53.6826 18.8899 53.7571 19.1718 53.7684 19.4261C53.7875 19.677 53.7274 19.9168 53.5884 20.1455Z" fill="#3A3A3A"/>
<path d="M86.7667 14.4357L85.0339 21.5771L82.5693 20.9791L84.3021 13.8377L80.4292 12.8979L80.9111 10.9116L91.1283 13.3908L90.6463 15.3771L86.7667 14.4357Z" fill="white"/>
<path fill-rule="evenodd" clip-rule="evenodd" d="M85.7696 22.7848L81.3613 21.7152L83.0942 14.5738L79.2212 13.634L80.1748 9.7041L92.3356 12.6549L91.382 16.5848L87.5024 15.6434L85.7696 22.7848ZM84.3018 13.8378L82.5689 20.9792L85.0336 21.5772L86.7664 14.4358L90.646 15.3772L91.128 13.3909L80.9108 10.9117L80.4288 12.898L84.3018 13.8378Z" fill="#3A3A3A"/>
<path d="M105.004 25.6372C104.604 26.3377 104.122 26.8836 103.558 27.2749C102.995 27.6623 102.372 27.8993 101.687 27.986C101.003 28.0727 100.265 28.0136 99.4743 27.8086C98.6896 27.602 97.8719 27.2557 97.021 26.7698C96.1702 26.284 95.4524 25.7534 94.8677 25.1781C94.2893 24.6012 93.8615 23.9948 93.5843 23.3589C93.3072 22.7231 93.1905 22.0635 93.2344 21.38C93.2806 20.6927 93.5037 19.9987 93.9037 19.2983C94.3037 18.5978 94.7868 18.055 95.3531 17.6699C95.9216 17.2808 96.5501 17.0441 97.2386 16.9596C97.927 16.8752 98.6656 16.9374 99.4542 17.1464C100.249 17.3536 101.072 17.7001 101.923 18.186C102.774 18.6719 103.486 19.2022 104.061 19.7769C104.641 20.3499 105.068 20.9532 105.342 21.5867C105.615 22.2203 105.726 22.8797 105.676 23.5648C105.628 24.2459 105.404 24.9367 105.004 25.6372ZM102.778 24.366C102.952 24.0613 103.076 23.7303 103.149 23.3731C103.228 23.0141 103.211 22.6427 103.1 22.2589C102.992 21.8774 102.768 21.4894 102.426 21.095C102.085 20.7005 101.584 20.3146 100.923 19.9372C100.479 19.6841 100.069 19.4971 99.6922 19.3763C99.3174 19.2514 98.9723 19.1803 98.6569 19.1629C98.3415 19.1455 98.0532 19.1724 97.7921 19.2437C97.5332 19.311 97.3001 19.4114 97.0927 19.5449C96.8875 19.6744 96.7044 19.8296 96.5434 20.0106C96.3885 20.1898 96.2546 20.3783 96.1416 20.5762C96.0264 20.7781 95.9298 20.9932 95.8518 21.2216C95.7779 21.4522 95.7361 21.6908 95.7266 21.9372C95.7193 22.1797 95.7524 22.4296 95.826 22.6867C95.8995 22.9439 96.024 23.2039 96.1993 23.4667C96.3769 23.7255 96.6135 23.9866 96.9092 24.2499C97.2072 24.5093 97.5778 24.7655 98.021 25.0186C98.6819 25.396 99.269 25.6316 99.7823 25.7253C100.296 25.8189 100.744 25.8151 101.127 25.7138C101.514 25.6148 101.841 25.442 102.108 25.1955C102.381 24.9473 102.604 24.6708 102.778 24.366Z" fill="white"/>
<path fill-rule="evenodd" clip-rule="evenodd" d="M104.127 28.0968L104.124 28.0985C103.429 28.5775 102.654 28.8716 101.812 28.9781C100.981 29.0834 100.114 29.0077 99.2229 28.7767L99.2191 28.7757L99.2191 28.7757C98.3347 28.5428 97.4361 28.1587 96.5246 27.6382C95.6129 27.1176 94.8225 26.5371 94.1658 25.8909L94.161 25.8862L94.161 25.8861C93.5092 25.236 93.0025 24.528 92.6671 23.7585C92.3272 22.9787 92.1817 22.1603 92.2359 21.316L92.2361 21.3131C92.294 20.4511 92.5725 19.6119 93.0347 18.8024C93.4966 17.9935 94.0769 17.3284 94.789 16.8438C95.4903 16.3642 96.2705 16.0708 97.1163 15.9671C97.9508 15.8647 98.8181 15.9437 99.7078 16.1792C100.602 16.4125 101.506 16.7966 102.418 17.3176C103.33 17.8383 104.117 18.4194 104.765 19.0675C105.42 19.714 105.927 20.4205 106.259 21.1908C106.596 21.9709 106.735 22.7906 106.673 23.6363C106.613 24.4916 106.333 25.3261 105.872 26.1331C105.411 26.9408 104.834 27.6069 104.127 28.0968ZM105.676 23.5648C105.726 22.8797 105.614 22.2203 105.341 21.5868C105.068 20.9532 104.641 20.3499 104.06 19.7769C103.486 19.2022 102.773 18.6719 101.922 18.186C101.071 17.7001 100.248 17.3536 99.4536 17.1464C98.665 16.9375 97.9265 16.8752 97.238 16.9596C96.5496 17.0441 95.9211 17.2808 95.3525 17.6699C94.7863 18.055 94.3031 18.5978 93.9031 19.2983C93.5031 19.9988 93.28 20.6927 93.2339 21.3801C93.19 22.0635 93.3066 22.7231 93.5838 23.3589C93.861 23.9948 94.2888 24.6012 94.8672 25.1781C95.4519 25.7534 96.1696 26.284 97.0205 26.7698C97.8713 27.2557 98.6891 27.602 99.4737 27.8086C100.265 28.0136 101.002 28.0727 101.687 27.986C102.371 27.8994 102.995 27.6623 103.557 27.275C104.122 26.8836 104.604 26.3377 105.004 25.6372C105.404 24.9368 105.628 24.2459 105.676 23.5648ZM102.17 23.1657L102.171 23.1581C102.211 22.9765 102.208 22.7753 102.139 22.5379L102.137 22.5302L102.137 22.5302C102.08 22.3274 101.944 22.0665 101.67 21.7496C101.428 21.4701 101.03 21.1503 100.426 20.8056C100.027 20.5777 99.6814 20.4231 99.3865 20.3285L99.3757 20.3251L99.3758 20.325C99.0652 20.2216 98.809 20.1729 98.6012 20.1614C98.3756 20.1489 98.1967 20.1697 98.0549 20.2084L98.0433 20.2116L98.0433 20.2115C97.8783 20.2544 97.7443 20.3144 97.6332 20.3859L97.6259 20.3906L97.6259 20.3905C97.5018 20.4689 97.392 20.5615 97.2945 20.6702C97.1825 20.8006 97.088 20.9346 97.0095 21.0721C96.9283 21.2143 96.8585 21.3682 96.8008 21.5354C96.7571 21.6742 96.7317 21.8187 96.7254 21.9714C96.722 22.0999 96.7393 22.2454 96.7869 22.4117C96.827 22.552 96.9012 22.7167 97.027 22.9063C97.148 23.0815 97.3238 23.2801 97.5694 23.4993C97.8053 23.704 98.1171 23.9222 98.5164 24.1503C99.12 24.495 99.5977 24.6751 99.9613 24.7415C100.374 24.8168 100.667 24.8009 100.871 24.7471L100.879 24.745L100.879 24.745C101.121 24.6829 101.296 24.5839 101.429 24.4611L101.435 24.4557L101.435 24.4557C101.634 24.2744 101.79 24.0793 101.909 23.8702C102.029 23.6612 102.116 23.4307 102.168 23.1734L102.17 23.1657ZM96.1987 23.4667C96.0234 23.2039 95.899 22.9439 95.8254 22.6867C95.7519 22.4296 95.7187 22.1797 95.726 21.9372C95.7356 21.6908 95.7773 21.4522 95.8513 21.2216C95.9292 20.9932 96.0258 20.7781 96.1411 20.5762C96.2541 20.3784 96.388 20.1898 96.5428 20.0106C96.7039 19.8296 96.887 19.6744 97.0921 19.5449C97.2995 19.4115 97.5327 19.3111 97.7915 19.2437C98.0527 19.1724 98.3409 19.1455 98.6564 19.1629C98.9718 19.1803 99.3169 19.2515 99.6917 19.3763C100.069 19.4971 100.479 19.6841 100.922 19.9372C101.583 20.3146 102.084 20.7005 102.426 21.095C102.767 21.4894 102.992 21.8774 103.099 22.2589C103.211 22.6427 103.227 23.0141 103.148 23.3731C103.075 23.7303 102.952 24.0613 102.778 24.3661C102.604 24.6708 102.38 24.9473 102.107 25.1955C101.841 25.442 101.514 25.6148 101.127 25.7138C100.743 25.8151 100.295 25.819 99.7818 25.7253C99.2685 25.6316 98.6814 25.396 98.0205 25.0186C97.5772 24.7655 97.2066 24.5093 96.9087 24.2499C96.613 23.9866 96.3763 23.7255 96.1987 23.4667Z" fill="#3A3A3A"/>
<path d="M111.81 38.8347C112.152 38.4537 112.396 38.0595 112.539 37.652C112.687 37.2414 112.758 36.8296 112.754 36.4167C112.752 36.0071 112.688 35.6001 112.561 35.1956C112.437 34.7945 112.277 34.4114 112.08 34.0463C111.887 33.6781 111.669 33.3332 111.426 33.0116C111.19 32.6902 110.955 32.4044 110.722 32.1541L110.21 31.6034L107.462 34.1589L105.735 32.3017L112.613 25.9058L114.34 27.763L111.687 30.2302L112.041 30.6106C112.28 30.8676 112.55 31.1177 112.85 31.3608C113.151 31.6039 113.472 31.8219 113.813 32.0149C114.158 32.2112 114.516 32.3726 114.889 32.499C115.261 32.6254 115.639 32.6972 116.022 32.7143C116.406 32.7315 116.788 32.6873 117.169 32.5819C117.553 32.4733 117.926 32.2821 118.288 32.0083L120.047 33.9006C119.652 34.2055 119.255 34.4377 118.856 34.5973C118.46 34.7603 118.068 34.8669 117.679 34.9173C117.297 34.9679 116.924 34.9721 116.561 34.9299C116.198 34.8877 115.854 34.8187 115.529 34.7231C115.207 34.6243 114.904 34.5069 114.622 34.3709C114.347 34.2351 114.102 34.0956 113.888 33.9524C114.068 34.2201 114.235 34.5164 114.388 34.8412C114.547 35.1662 114.676 35.5127 114.776 35.8807C114.878 36.2456 114.94 36.6268 114.961 37.0242C114.985 37.4249 114.956 37.8317 114.873 38.2447C114.791 38.6577 114.645 39.0732 114.436 39.4913C114.228 39.9093 113.939 40.3212 113.569 40.727L111.81 38.8347Z" fill="white"/>
<path fill-rule="evenodd" clip-rule="evenodd" d="M110.454 38.846L111.066 38.166C111.336 37.865 111.503 37.5821 111.596 37.3194L111.597 37.3149C111.707 37.0094 111.756 36.7152 111.753 36.4274L111.753 36.4199C111.752 36.1146 111.704 35.8075 111.606 35.4958L111.605 35.4913C111.5 35.151 111.364 34.8276 111.199 34.5201L111.194 34.5108C111.026 34.1896 110.837 33.8913 110.628 33.6147L110.62 33.6047C110.461 33.3888 110.306 33.1941 110.155 33.0198L107.41 35.5724L104.321 32.2505L112.664 24.4927L115.753 27.8146L113.114 30.2688C113.228 30.374 113.349 30.4788 113.478 30.5833C113.736 30.7913 114.011 30.9784 114.305 31.1446L114.308 31.1464C114.597 31.3113 114.898 31.4464 115.209 31.5522C115.495 31.6491 115.78 31.7027 116.067 31.7155C116.341 31.7278 116.617 31.6968 116.899 31.619C117.147 31.5485 117.409 31.4193 117.683 31.2114L118.404 30.6654L121.525 34.0224L120.658 34.6922C120.203 35.0438 119.727 35.3254 119.231 35.5242C118.764 35.7161 118.289 35.8466 117.808 35.909C117.349 35.9697 116.894 35.9756 116.445 35.9234C116.223 35.8976 116.005 35.8628 115.792 35.8188C115.883 36.1918 115.938 36.5753 115.959 36.9679C115.988 37.4574 115.952 37.9493 115.853 38.4413C115.751 38.95 115.574 39.4493 115.33 39.938C115.074 40.4513 114.729 40.9382 114.308 41.4004L113.576 42.204L110.454 38.846ZM115.417 34.6882C115.454 34.7001 115.491 34.7118 115.528 34.7232C115.854 34.8189 116.198 34.8879 116.56 34.9301C116.923 34.9723 117.296 34.9681 117.678 34.9175C118.067 34.8671 118.46 34.7605 118.856 34.5975C118.967 34.553 119.078 34.5029 119.189 34.447C119.476 34.3027 119.762 34.1206 120.047 33.9008L118.287 32.0084C117.926 32.2823 117.553 32.4735 117.168 32.5821C116.787 32.6875 116.405 32.7317 116.022 32.7145C115.639 32.6974 115.261 32.6256 114.888 32.4992C114.516 32.3728 114.157 32.2114 113.813 32.0151C113.471 31.8221 113.15 31.6041 112.85 31.361C112.684 31.2266 112.527 31.0901 112.379 30.9515C112.26 30.8393 112.147 30.7258 112.04 30.6108L111.686 30.2304L114.34 27.7632L112.613 25.906L105.734 32.3019L107.461 34.1591L110.21 31.6036L110.722 32.1542C110.777 32.2137 110.832 32.2751 110.888 32.3385C111.066 32.5423 111.245 32.7667 111.426 33.0118C111.669 33.3334 111.887 33.6783 112.08 34.0465C112.276 34.4116 112.436 34.7947 112.56 35.1958C112.688 35.6003 112.752 36.0073 112.753 36.4169C112.757 36.8298 112.686 37.2415 112.539 37.6522C112.395 38.0597 112.152 38.4539 111.809 38.8349L113.569 40.7272C113.809 40.4626 114.016 40.1954 114.189 39.9256C114.281 39.7816 114.363 39.6369 114.436 39.4914C114.644 39.0734 114.79 38.6579 114.873 38.2449C114.956 37.8319 114.985 37.4251 114.961 37.0243C114.94 36.627 114.878 36.2458 114.775 35.8809C114.738 35.7424 114.696 35.6069 114.65 35.4744C114.575 35.258 114.489 35.0497 114.391 34.8496C114.39 34.8479 114.389 34.8462 114.389 34.8445C114.388 34.8435 114.388 34.8424 114.387 34.8414C114.234 34.5166 114.068 34.2203 113.887 33.9526C114.101 34.0958 114.346 34.2353 114.622 34.3711C114.746 34.4307 114.873 34.4868 115.004 34.5392C115.009 34.5411 115.014 34.5429 115.018 34.5447C115.147 34.596 115.28 34.6438 115.417 34.6882Z" fill="#3A3A3A"/>
<path d="M115.668 44.463L123.808 39.7754L125.073 41.9731L116.934 46.6607L115.668 44.463Z" fill="white"/>
<path fill-rule="evenodd" clip-rule="evenodd" d="M114.303 44.0955L124.176 38.4097L126.44 42.3405L116.567 48.0263L114.303 44.0955ZM115.669 44.4629L116.935 46.6606L125.074 41.973L123.808 39.7753L115.669 44.4629Z" fill="#3A3A3A"/>
<path d="M120.176 53.7261L119.43 51.3022L128.406 48.5381L130.277 54.614C130.478 55.2673 130.581 55.8412 130.586 56.3358C130.591 56.8347 130.514 57.2639 130.353 57.6235C130.193 57.9874 129.956 58.2868 129.642 58.5217C129.334 58.7597 128.964 58.9451 128.533 59.0778C128.154 59.1945 127.806 59.242 127.49 59.2203C127.175 59.2029 126.886 59.1343 126.625 59.0144C126.37 58.8975 126.136 58.7408 125.923 58.5441C125.709 58.3475 125.516 58.1304 125.343 57.8929L122.701 61.9252L121.828 59.0898L124.297 55.3541L123.482 52.7081L120.176 53.7261ZM127.792 56.6239C127.966 56.5702 128.107 56.5007 128.214 56.4152C128.322 56.3341 128.396 56.2255 128.436 56.0895C128.479 55.9521 128.489 55.7822 128.465 55.5798C128.442 55.3818 128.387 55.1413 128.3 54.8582L127.278 51.5393L125.357 52.1307L126.379 55.4496C126.466 55.7327 126.556 55.9625 126.648 56.1391C126.742 56.32 126.844 56.4557 126.952 56.5461C127.066 56.6352 127.19 56.6828 127.325 56.6888C127.462 56.6991 127.618 56.6775 127.792 56.6239Z" fill="white"/>
<path fill-rule="evenodd" clip-rule="evenodd" d="M119.514 54.9761L118.179 50.6408L129.067 47.2881L131.233 54.3197C131.452 55.0329 131.58 55.7065 131.585 56.3268C131.592 56.9309 131.499 57.5084 131.267 58.0288C131.04 58.5446 130.697 58.9794 130.247 59.3178C129.832 59.6374 129.353 59.8718 128.827 60.0336C128.361 60.177 127.891 60.2492 127.428 60.2184C127.002 60.1942 126.592 60.0996 126.208 59.9235C125.953 59.8064 125.714 59.661 125.492 59.4892L122.371 64.2528L120.733 58.9326L123.202 55.1968L122.82 53.9581L119.514 54.9761ZM124.296 55.3541L121.827 59.0898L122.7 61.9252L125.343 57.8929C125.516 58.1304 125.709 58.3475 125.922 58.5442C125.962 58.5805 126.002 58.6155 126.043 58.6491C126.223 58.7974 126.417 58.9192 126.625 59.0144C126.886 59.1343 127.174 59.2029 127.49 59.2203C127.806 59.242 128.154 59.1945 128.533 59.0778C128.964 58.9451 129.334 58.7597 129.642 58.5217C129.956 58.2868 130.193 57.9874 130.352 57.6235C130.514 57.2639 130.591 56.8347 130.585 56.3358C130.581 55.8412 130.478 55.2673 130.277 54.614L128.406 48.5381L119.429 51.3022L120.176 53.7261L123.481 52.7081L124.296 55.3541ZM128.464 55.5798C128.488 55.7822 128.479 55.9521 128.435 56.0895C128.396 56.2255 128.322 56.3341 128.214 56.4152C128.106 56.5007 127.966 56.5702 127.792 56.6239C127.617 56.6775 127.462 56.6992 127.325 56.6888C127.19 56.6828 127.065 56.6352 126.952 56.5461C126.843 56.4557 126.742 56.32 126.648 56.1391C126.556 55.9626 126.466 55.7327 126.378 55.4496L125.357 52.1307L127.277 51.5393L128.299 54.8582C128.386 55.1413 128.441 55.3818 128.464 55.5798ZM126.616 52.7893L126.607 52.7922L127.334 55.1553C127.359 55.2369 127.384 55.3096 127.407 55.3741C127.39 55.3077 127.369 55.234 127.344 55.1525L126.616 52.7893Z" fill="#3A3A3A"/>
<path d="M124.996 72.8338L124.895 67.5984L123.101 66.751L123.047 63.9215L132.532 68.6544L132.587 71.4839L123.291 76.5793L123.236 73.7497L124.996 72.8338ZM126.745 68.4721L126.811 71.9031L130.236 70.1277L126.745 68.4721Z" fill="white"/>
<path fill-rule="evenodd" clip-rule="evenodd" d="M123.237 73.7498L124.997 72.8338L124.896 67.5984L123.102 66.7511L123.047 63.9215L132.533 68.6544L132.588 71.4839L123.292 76.5793L123.237 73.7498ZM123.908 68.2378L122.114 67.3904L122.016 62.2892L133.521 68.0298L133.599 72.0699L122.324 78.2502L122.225 73.149L123.985 72.233L123.908 68.2378ZM126.812 71.9031L130.237 70.1277L126.745 68.4721L126.812 71.9031ZM127.776 70.0677L127.78 70.2746L127.987 70.1675L127.776 70.0677Z" fill="#3A3A3A"/>
<path d="M79.5138 25.9508L83.7812 46.2735L100.281 31.2725L93.2812 56.7725L119.781 58.793L93.2812 73.2725L115.281 88.2725L91.8634 84.7725L102.781 114.772L79.5138 90.2725L74.2813 103.272L67.7812 88.2725L43.7813 105.802L49.7812 82.2725L39.2812 82.2725L46.3706 75.7725L20.7811 60.6543L47.3832 60.6546L42.2823 44.2735L58.7823 51.2735L53.2823 21.2735L72.2823 46.2735L79.5138 25.9508Z" fill="#3A3A3A"/>
<path fill-rule="evenodd" clip-rule="evenodd" d="M65.5577 55.3565C65.7874 55.5097 65.8495 55.8201 65.6964 56.0499L60.6964 63.5499C60.5432 63.7796 60.2327 63.8417 60.003 63.6885C59.7732 63.5354 59.7111 63.2249 59.8643 62.9952L64.8643 55.4952C65.0175 55.2654 65.3279 55.2033 65.5577 55.3565Z" fill="white"/>
<path fill-rule="evenodd" clip-rule="evenodd" d="M78.0577 55.3565C78.2874 55.5097 78.3495 55.8201 78.1964 56.0499L73.1964 63.5499C73.0432 63.7796 72.7327 63.8417 72.503 63.6885C72.2732 63.5354 72.2111 63.2249 72.3643 62.9952L77.3643 55.4952C77.5175 55.2654 77.8279 55.2033 78.0577 55.3565Z" fill="white"/>
<path fill-rule="evenodd" clip-rule="evenodd" d="M55.4573 67.8908C55.6681 67.7124 55.9836 67.7387 56.162 67.9495C59.6901 72.1191 70.5623 78.5052 85.5298 69.8398C85.7687 69.7014 86.0746 69.783 86.213 70.022C86.3514 70.2609 86.2698 70.5668 86.0308 70.7052C70.5983 79.6398 59.2038 73.0926 55.3986 68.5954C55.2202 68.3846 55.2465 68.0692 55.4573 67.8908Z" fill="white"/>
</svg>
